%TF.GenerationSoftware,KiCad,Pcbnew,9.0.6*%
%TF.CreationDate,2025-11-01T11:07:57-07:00*%
%TF.ProjectId,ceramic printer,63657261-6d69-4632-9070-72696e746572,rev?*%
%TF.SameCoordinates,Original*%
%TF.FileFunction,Copper,L1,Top*%
%TF.FilePolarity,Positive*%
%FSLAX46Y46*%
G04 Gerber Fmt 4.6, Leading zero omitted, Abs format (unit mm)*
G04 Created by KiCad (PCBNEW 9.0.6) date 2025-11-01 11:07:57*
%MOMM*%
%LPD*%
G01*
G04 APERTURE LIST*
G04 Aperture macros list*
%AMRoundRect*
0 Rectangle with rounded corners*
0 $1 Rounding radius*
0 $2 $3 $4 $5 $6 $7 $8 $9 X,Y pos of 4 corners*
0 Add a 4 corners polygon primitive as box body*
4,1,4,$2,$3,$4,$5,$6,$7,$8,$9,$2,$3,0*
0 Add four circle primitives for the rounded corners*
1,1,$1+$1,$2,$3*
1,1,$1+$1,$4,$5*
1,1,$1+$1,$6,$7*
1,1,$1+$1,$8,$9*
0 Add four rect primitives between the rounded corners*
20,1,$1+$1,$2,$3,$4,$5,0*
20,1,$1+$1,$4,$5,$6,$7,0*
20,1,$1+$1,$6,$7,$8,$9,0*
20,1,$1+$1,$8,$9,$2,$3,0*%
%AMRotRect*
0 Rectangle, with rotation*
0 The origin of the aperture is its center*
0 $1 length*
0 $2 width*
0 $3 Rotation angle, in degrees counterclockwise*
0 Add horizontal line*
21,1,$1,$2,0,0,$3*%
G04 Aperture macros list end*
%TA.AperFunction,SMDPad,CuDef*%
%ADD10R,4.000000X4.000000*%
%TD*%
%TA.AperFunction,SMDPad,CuDef*%
%ADD11RotRect,1.500000X0.900000X19.000000*%
%TD*%
%TA.AperFunction,SMDPad,CuDef*%
%ADD12RotRect,1.500000X0.900000X312.000000*%
%TD*%
%TA.AperFunction,SMDPad,CuDef*%
%ADD13RotRect,1.500000X0.900000X288.000000*%
%TD*%
%TA.AperFunction,SMDPad,CuDef*%
%ADD14RotRect,1.500000X0.900000X38.000000*%
%TD*%
%TA.AperFunction,SMDPad,CuDef*%
%ADD15RotRect,1.500000X0.900000X139.000000*%
%TD*%
%TA.AperFunction,SMDPad,CuDef*%
%ADD16RotRect,1.500000X0.900000X34.000000*%
%TD*%
%TA.AperFunction,SMDPad,CuDef*%
%ADD17RotRect,1.500000X0.900000X134.000000*%
%TD*%
%TA.AperFunction,SMDPad,CuDef*%
%ADD18RotRect,1.500000X0.900000X29.000000*%
%TD*%
%TA.AperFunction,SMDPad,CuDef*%
%ADD19RotRect,1.500000X0.900000X317.000000*%
%TD*%
%TA.AperFunction,SMDPad,CuDef*%
%ADD20RotRect,1.500000X0.900000X101.000000*%
%TD*%
%TA.AperFunction,SMDPad,CuDef*%
%ADD21RotRect,1.500000X0.900000X5.000000*%
%TD*%
%TA.AperFunction,SMDPad,CuDef*%
%ADD22RoundRect,0.250000X-0.350000X0.850000X-0.350000X-0.850000X0.350000X-0.850000X0.350000X0.850000X0*%
%TD*%
%TA.AperFunction,SMDPad,CuDef*%
%ADD23RoundRect,0.250000X-1.125000X1.275000X-1.125000X-1.275000X1.125000X-1.275000X1.125000X1.275000X0*%
%TD*%
%TA.AperFunction,SMDPad,CuDef*%
%ADD24RoundRect,0.249997X-2.650003X2.950003X-2.650003X-2.950003X2.650003X-2.950003X2.650003X2.950003X0*%
%TD*%
%TA.AperFunction,SMDPad,CuDef*%
%ADD25RotRect,1.500000X0.900000X154.000000*%
%TD*%
%TA.AperFunction,SMDPad,CuDef*%
%ADD26RotRect,1.500000X0.900000X178.000000*%
%TD*%
%TA.AperFunction,SMDPad,CuDef*%
%ADD27RotRect,1.500000X0.900000X82.000000*%
%TD*%
%TA.AperFunction,SMDPad,CuDef*%
%ADD28RotRect,1.500000X0.900000X110.000000*%
%TD*%
%TA.AperFunction,SMDPad,CuDef*%
%ADD29RotRect,1.500000X0.900000X125.000000*%
%TD*%
%TA.AperFunction,SMDPad,CuDef*%
%ADD30RotRect,1.500000X0.900000X326.000000*%
%TD*%
%TA.AperFunction,SMDPad,CuDef*%
%ADD31RoundRect,0.250000X-0.450000X0.350000X-0.450000X-0.350000X0.450000X-0.350000X0.450000X0.350000X0*%
%TD*%
%TA.AperFunction,SMDPad,CuDef*%
%ADD32R,2.000000X2.000000*%
%TD*%
%TA.AperFunction,SMDPad,CuDef*%
%ADD33RotRect,1.500000X0.900000X274.000000*%
%TD*%
%TA.AperFunction,SMDPad,CuDef*%
%ADD34RotRect,1.500000X0.900000X211.000000*%
%TD*%
%TA.AperFunction,SMDPad,CuDef*%
%ADD35RotRect,1.500000X0.900000X250.000000*%
%TD*%
%TA.AperFunction,SMDPad,CuDef*%
%ADD36RotRect,1.500000X0.900000X336.000000*%
%TD*%
%TA.AperFunction,SMDPad,CuDef*%
%ADD37RotRect,1.500000X0.900000X62.000000*%
%TD*%
%TA.AperFunction,SMDPad,CuDef*%
%ADD38RotRect,1.500000X0.900000X221.000000*%
%TD*%
%TA.AperFunction,SMDPad,CuDef*%
%ADD39RotRect,1.500000X0.900000X341.000000*%
%TD*%
%TA.AperFunction,SMDPad,CuDef*%
%ADD40RotRect,1.500000X0.900000X24.000000*%
%TD*%
%TA.AperFunction,SMDPad,CuDef*%
%ADD41RotRect,1.500000X0.900000X106.000000*%
%TD*%
%TA.AperFunction,SMDPad,CuDef*%
%ADD42RotRect,1.500000X0.900000X144.000000*%
%TD*%
%TA.AperFunction,SMDPad,CuDef*%
%ADD43RotRect,1.500000X0.900000X355.000000*%
%TD*%
%TA.AperFunction,SMDPad,CuDef*%
%ADD44RotRect,1.500000X0.900000X48.000000*%
%TD*%
%TA.AperFunction,SMDPad,CuDef*%
%ADD45RotRect,1.500000X0.900000X120.000000*%
%TD*%
%TA.AperFunction,SMDPad,CuDef*%
%ADD46RotRect,1.500000X0.900000X245.000000*%
%TD*%
%TA.AperFunction,SMDPad,CuDef*%
%ADD47RotRect,1.500000X0.900000X264.000000*%
%TD*%
%TA.AperFunction,SMDPad,CuDef*%
%ADD48R,1.500000X0.900000*%
%TD*%
%TA.AperFunction,SMDPad,CuDef*%
%ADD49RotRect,1.500000X0.900000X10.000000*%
%TD*%
%TA.AperFunction,SMDPad,CuDef*%
%ADD50RotRect,1.500000X0.900000X230.000000*%
%TD*%
%TA.AperFunction,SMDPad,CuDef*%
%ADD51RotRect,1.500000X0.900000X86.000000*%
%TD*%
%TA.AperFunction,SMDPad,CuDef*%
%ADD52RotRect,1.500000X0.900000X259.000000*%
%TD*%
%TA.AperFunction,SMDPad,CuDef*%
%ADD53RotRect,1.500000X0.900000X331.000000*%
%TD*%
%TA.AperFunction,SMDPad,CuDef*%
%ADD54RotRect,1.500000X0.900000X206.000000*%
%TD*%
%TA.AperFunction,SMDPad,CuDef*%
%ADD55RotRect,1.500000X0.900000X197.000000*%
%TD*%
%TA.AperFunction,SMDPad,CuDef*%
%ADD56RotRect,1.500000X0.900000X96.000000*%
%TD*%
%TA.AperFunction,SMDPad,CuDef*%
%ADD57R,2.500000X2.500000*%
%TD*%
%TA.AperFunction,SMDPad,CuDef*%
%ADD58RotRect,1.500000X0.900000X130.000000*%
%TD*%
%TA.AperFunction,SMDPad,CuDef*%
%ADD59RotRect,1.500000X0.900000X216.000000*%
%TD*%
%TA.AperFunction,SMDPad,CuDef*%
%ADD60RotRect,1.500000X0.900000X53.000000*%
%TD*%
%TA.AperFunction,SMDPad,CuDef*%
%ADD61RotRect,1.500000X0.900000X43.000000*%
%TD*%
%TA.AperFunction,SMDPad,CuDef*%
%ADD62RotRect,1.500000X0.900000X278.000000*%
%TD*%
%TA.AperFunction,SMDPad,CuDef*%
%ADD63RotRect,1.500000X0.900000X182.000000*%
%TD*%
%TA.AperFunction,SMDPad,CuDef*%
%ADD64RotRect,1.500000X0.900000X163.000000*%
%TD*%
%TA.AperFunction,SMDPad,CuDef*%
%ADD65RotRect,1.500000X0.900000X158.000000*%
%TD*%
%TA.AperFunction,SMDPad,CuDef*%
%ADD66RotRect,1.500000X0.900000X67.000000*%
%TD*%
%TA.AperFunction,SMDPad,CuDef*%
%ADD67RotRect,1.500000X0.900000X173.000000*%
%TD*%
%TA.AperFunction,SMDPad,CuDef*%
%ADD68RotRect,1.500000X0.900000X149.000000*%
%TD*%
%TA.AperFunction,SMDPad,CuDef*%
%ADD69RotRect,1.500000X0.900000X322.000000*%
%TD*%
%TA.AperFunction,SMDPad,CuDef*%
%ADD70RotRect,1.500000X0.900000X307.000000*%
%TD*%
%TA.AperFunction,SMDPad,CuDef*%
%ADD71RotRect,1.500000X0.900000X77.000000*%
%TD*%
%TA.AperFunction,SMDPad,CuDef*%
%ADD72RotRect,1.500000X0.900000X168.000000*%
%TD*%
%TA.AperFunction,SMDPad,CuDef*%
%ADD73RotRect,1.500000X0.900000X240.000000*%
%TD*%
%TA.AperFunction,SMDPad,CuDef*%
%ADD74RotRect,1.500000X0.900000X293.000000*%
%TD*%
%TA.AperFunction,SMDPad,CuDef*%
%ADD75RotRect,1.500000X0.900000X58.000000*%
%TD*%
%TA.AperFunction,SMDPad,CuDef*%
%ADD76RotRect,1.500000X0.900000X226.000000*%
%TD*%
%TA.AperFunction,SMDPad,CuDef*%
%ADD77RotRect,1.500000X0.900000X350.000000*%
%TD*%
%TA.AperFunction,SMDPad,CuDef*%
%ADD78RotRect,1.500000X0.900000X202.000000*%
%TD*%
%TA.AperFunction,SMDPad,CuDef*%
%ADD79RotRect,1.500000X0.900000X187.000000*%
%TD*%
%TA.AperFunction,SMDPad,CuDef*%
%ADD80RotRect,1.500000X0.900000X115.000000*%
%TD*%
%TA.AperFunction,SMDPad,CuDef*%
%ADD81RotRect,1.500000X0.900000X192.000000*%
%TD*%
%TA.AperFunction,SMDPad,CuDef*%
%ADD82RotRect,1.500000X0.900000X302.000000*%
%TD*%
%TA.AperFunction,SMDPad,CuDef*%
%ADD83RotRect,1.500000X0.900000X91.000000*%
%TD*%
%TA.AperFunction,SMDPad,CuDef*%
%ADD84RotRect,1.500000X0.900000X72.000000*%
%TD*%
%TA.AperFunction,SMDPad,CuDef*%
%ADD85RotRect,1.500000X0.900000X254.000000*%
%TD*%
%TA.AperFunction,SMDPad,CuDef*%
%ADD86RotRect,1.500000X0.900000X14.000000*%
%TD*%
%TA.AperFunction,SMDPad,CuDef*%
%ADD87RotRect,1.500000X0.900000X283.000000*%
%TD*%
%TA.AperFunction,SMDPad,CuDef*%
%ADD88RotRect,1.500000X0.900000X346.000000*%
%TD*%
%TA.AperFunction,SMDPad,CuDef*%
%ADD89RoundRect,0.250000X0.450000X-0.350000X0.450000X0.350000X-0.450000X0.350000X-0.450000X-0.350000X0*%
%TD*%
%TA.AperFunction,SMDPad,CuDef*%
%ADD90RotRect,1.500000X0.900000X235.000000*%
%TD*%
%TA.AperFunction,SMDPad,CuDef*%
%ADD91RotRect,1.500000X0.900000X269.000000*%
%TD*%
%TA.AperFunction,SMDPad,CuDef*%
%ADD92RotRect,1.500000X0.900000X298.000000*%
%TD*%
%TA.AperFunction,Conductor*%
%ADD93C,0.200000*%
%TD*%
%TA.AperFunction,Conductor*%
%ADD94C,1.300000*%
%TD*%
%TA.AperFunction,Conductor*%
%ADD95C,0.935635*%
%TD*%
%TA.AperFunction,Conductor*%
%ADD96C,0.953754*%
%TD*%
G04 APERTURE END LIST*
D10*
%TO.P,TP10,1,1*%
%TO.N,/Heater 2*%
X196500000Y-156000000D03*
%TD*%
D11*
%TO.P,D5,1,VDD*%
%TO.N,+5V*%
X157682292Y-35912337D03*
%TO.P,D5,2,DOUT*%
%TO.N,Net-(D5-DOUT)*%
X158756667Y-39032548D03*
%TO.P,D5,3,VSS*%
%TO.N,GND*%
X163389708Y-37437263D03*
%TO.P,D5,4,DIN*%
%TO.N,Net-(D4-DOUT)*%
X162315333Y-34317052D03*
%TD*%
D12*
%TO.P,D66,1,VDD*%
%TO.N,+5V*%
X288764219Y-66779530D03*
%TO.P,D66,2,DOUT*%
%TO.N,Net-(D66-DOUT)*%
X286311841Y-68987661D03*
%TO.P,D66,3,VSS*%
%TO.N,GND*%
X289590581Y-72629070D03*
%TO.P,D66,4,DIN*%
%TO.N,Net-(D65-DOUT)*%
X292042959Y-70420939D03*
%TD*%
D13*
%TO.P,D61,1,VDD*%
%TO.N,+5V*%
X314938952Y-110078034D03*
%TO.P,D61,2,DOUT*%
%TO.N,Net-(D61-DOUT)*%
X311800465Y-111097789D03*
%TO.P,D61,3,VSS*%
%TO.N,GND*%
X313314648Y-115757966D03*
%TO.P,D61,4,DIN*%
%TO.N,Net-(D60-DOUT)*%
X316453135Y-114738211D03*
%TD*%
D14*
%TO.P,D9,1,VDD*%
%TO.N,+5V*%
X122515834Y-56164953D03*
%TO.P,D9,2,DOUT*%
%TO.N,Net-(D10-DIN)*%
X124547515Y-58765388D03*
%TO.P,D9,3,VSS*%
%TO.N,GND*%
X128408766Y-55748647D03*
%TO.P,D9,4,DIN*%
%TO.N,Net-(D8-DOUT)*%
X126377085Y-53148212D03*
%TD*%
D15*
%TO.P,D30,1,VDD*%
%TO.N,+5V*%
X122356041Y-243692015D03*
%TO.P,D30,2,DOUT*%
%TO.N,Net-(D30-DOUT)*%
X124521034Y-241201474D03*
%TO.P,D30,3,VSS*%
%TO.N,GND*%
X120822959Y-237986785D03*
%TO.P,D30,4,DIN*%
%TO.N,Net-(D29-DOUT)*%
X118657966Y-240477326D03*
%TD*%
D16*
%TO.P,D8,1,VDD*%
%TO.N,+5V*%
X130639190Y-50051611D03*
%TO.P,D8,2,DOUT*%
%TO.N,Net-(D8-DOUT)*%
X132484527Y-52787434D03*
%TO.P,D8,3,VSS*%
%TO.N,GND*%
X136546810Y-50047389D03*
%TO.P,D8,4,DIN*%
%TO.N,Net-(D7-DOUT)*%
X134701473Y-47311566D03*
%TD*%
D17*
%TO.P,D29,1,VDD*%
%TO.N,+5V*%
X114778302Y-236868169D03*
%TO.P,D29,2,DOUT*%
%TO.N,Net-(D29-DOUT)*%
X117152124Y-234575796D03*
%TO.P,D29,3,VSS*%
%TO.N,GND*%
X113748298Y-231051031D03*
%TO.P,D29,4,DIN*%
%TO.N,Net-(D28-DOUT)*%
X111374476Y-233343404D03*
%TD*%
D18*
%TO.P,D7,1,VDD*%
%TO.N,+5V*%
X139246845Y-44587862D03*
%TO.P,D7,2,DOUT*%
%TO.N,Net-(D7-DOUT)*%
X140846718Y-47474106D03*
%TO.P,D7,3,VSS*%
%TO.N,GND*%
X145132355Y-45098538D03*
%TO.P,D7,4,DIN*%
%TO.N,Net-(D6-DOUT)*%
X143532482Y-42212294D03*
%TD*%
D19*
%TO.P,D67,1,VDD*%
%TO.N,+5V*%
X281479181Y-59646170D03*
%TO.P,D67,2,DOUT*%
%TO.N,Net-(D67-DOUT)*%
X279228586Y-62059638D03*
%TO.P,D67,3,VSS*%
%TO.N,GND*%
X282812219Y-65401430D03*
%TO.P,D67,4,DIN*%
%TO.N,Net-(D66-DOUT)*%
X285062814Y-62987962D03*
%TD*%
D20*
%TO.P,D22,1,VDD*%
%TO.N,+5V*%
X80973297Y-175205622D03*
%TO.P,D22,2,DOUT*%
%TO.N,Net-(D22-DOUT)*%
X84212668Y-174575952D03*
%TO.P,D22,3,VSS*%
%TO.N,GND*%
X83277703Y-169765978D03*
%TO.P,D22,4,DIN*%
%TO.N,Net-(D21-DOUT)*%
X80038332Y-170395648D03*
%TD*%
D21*
%TO.P,D2,1,VDD*%
%TO.N,+5V*%
X187374216Y-28990710D03*
%TO.P,D2,2,DOUT*%
%TO.N,Net-(D2-DOUT)*%
X187661830Y-32278153D03*
%TO.P,D2,3,VSS*%
%TO.N,GND*%
X192543184Y-31851090D03*
%TO.P,D2,4,DIN*%
%TO.N,Net-(D1-DOUT)*%
X192255570Y-28563647D03*
%TD*%
D22*
%TO.P,U2,1,ADJ*%
%TO.N,GND*%
X201780000Y-126200000D03*
D23*
%TO.P,U2,2,VO*%
%TO.N,+5V*%
X201025000Y-130825000D03*
X197975000Y-130825000D03*
D24*
X199500000Y-132500000D03*
D23*
X201025000Y-134175000D03*
X197975000Y-134175000D03*
D22*
%TO.P,U2,3,VI*%
%TO.N,+24V*%
X197220000Y-126200000D03*
%TD*%
D25*
%TO.P,D33,1,VDD*%
%TO.N,+5V*%
X148122533Y-260042419D03*
%TO.P,D33,2,DOUT*%
%TO.N,Net-(D33-DOUT)*%
X149569158Y-257076398D03*
%TO.P,D33,3,VSS*%
%TO.N,GND*%
X145165067Y-254928381D03*
%TO.P,D33,4,DIN*%
%TO.N,Net-(D32-DOUT)*%
X143718442Y-257894402D03*
%TD*%
D26*
%TO.P,D38,1,VDD*%
%TO.N,+5V*%
X197365823Y-271629199D03*
%TO.P,D38,2,DOUT*%
%TO.N,Net-(D38-DOUT)*%
X197480991Y-268331208D03*
%TO.P,D38,3,VSS*%
%TO.N,GND*%
X192583977Y-268160201D03*
%TO.P,D38,4,DIN*%
%TO.N,Net-(D37-DOUT)*%
X192468809Y-271458192D03*
%TD*%
D27*
%TO.P,D18,1,VDD*%
%TO.N,+5V*%
X79312383Y-134666522D03*
%TO.P,D18,2,DOUT*%
%TO.N,Net-(D18-DOUT)*%
X82580269Y-135125793D03*
%TO.P,D18,3,VSS*%
%TO.N,GND*%
X83262217Y-130273478D03*
%TO.P,D18,4,DIN*%
%TO.N,Net-(D17-DOUT)*%
X79994331Y-129814207D03*
%TD*%
D28*
%TO.P,D24,1,VDD*%
%TO.N,+5V*%
X86813657Y-194695180D03*
%TO.P,D24,2,DOUT*%
%TO.N,Net-(D24-DOUT)*%
X89914642Y-193566514D03*
%TO.P,D24,3,VSS*%
%TO.N,GND*%
X88238743Y-188962020D03*
%TO.P,D24,4,DIN*%
%TO.N,Net-(D23-DOUT)*%
X85137758Y-190090686D03*
%TD*%
D29*
%TO.P,D27,1,VDD*%
%TO.N,+5V*%
X101515761Y-221438924D03*
%TO.P,D27,2,DOUT*%
%TO.N,Net-(D27-DOUT)*%
X104218964Y-219546121D03*
%TO.P,D27,3,VSS*%
%TO.N,GND*%
X101408439Y-215532276D03*
%TO.P,D27,4,DIN*%
%TO.N,Net-(D26-DOUT)*%
X98705236Y-217425079D03*
%TD*%
D30*
%TO.P,D69,1,VDD*%
%TO.N,+5V*%
X265298527Y-47311566D03*
%TO.P,D69,2,DOUT*%
%TO.N,Net-(D69-DOUT)*%
X263453190Y-50047389D03*
%TO.P,D69,3,VSS*%
%TO.N,GND*%
X267515473Y-52787434D03*
%TO.P,D69,4,DIN*%
%TO.N,Net-(D68-DOUT)*%
X269360810Y-50051611D03*
%TD*%
D31*
%TO.P,TH2,1*%
%TO.N,Net-(TH2-Pad1)*%
X137500000Y-149000000D03*
%TO.P,TH2,2*%
%TO.N,Net-(TH2-Pad2)*%
X137500000Y-151000000D03*
%TD*%
D32*
%TO.P,TP7,1,1*%
%TO.N,Net-(TH2-Pad2)*%
X190000000Y-152000000D03*
%TD*%
D33*
%TO.P,D58,1,VDD*%
%TO.N,+5V*%
X321238277Y-139905970D03*
%TO.P,D58,2,DOUT*%
%TO.N,Net-(D58-DOUT)*%
X317946316Y-140136166D03*
%TO.P,D58,3,VSS*%
%TO.N,GND*%
X318288123Y-145024230D03*
%TO.P,D58,4,DIN*%
%TO.N,Net-(D57-DOUT)*%
X321580084Y-144794034D03*
%TD*%
D34*
%TO.P,D45,1,VDD*%
%TO.N,+5V*%
X265113073Y-252796183D03*
%TO.P,D45,2,DOUT*%
%TO.N,Net-(D45-DOUT)*%
X263413447Y-249967530D03*
%TO.P,D45,3,VSS*%
%TO.N,GND*%
X259213327Y-252491217D03*
%TO.P,D45,4,DIN*%
%TO.N,Net-(D44-DOUT)*%
X260912953Y-255319870D03*
%TD*%
D35*
%TO.P,D53,1,VDD*%
%TO.N,+5V*%
X314862242Y-190090686D03*
%TO.P,D53,2,DOUT*%
%TO.N,Net-(D53-DOUT)*%
X311761257Y-188962020D03*
%TO.P,D53,3,VSS*%
%TO.N,GND*%
X310085358Y-193566514D03*
%TO.P,D53,4,DIN*%
%TO.N,Net-(D52-DOUT)*%
X313186343Y-194695180D03*
%TD*%
D36*
%TO.P,D71,1,VDD*%
%TO.N,+5V*%
X247241329Y-37870645D03*
%TO.P,D71,2,DOUT*%
%TO.N,Net-(D71-DOUT)*%
X245899098Y-40885345D03*
%TO.P,D71,3,VSS*%
%TO.N,GND*%
X250375471Y-42878355D03*
%TO.P,D71,4,DIN*%
%TO.N,Net-(D70-DOUT)*%
X251717702Y-39863655D03*
%TD*%
D37*
%TO.P,D14,1,VDD*%
%TO.N,+5V*%
X91048531Y-95793092D03*
%TO.P,D14,2,DOUT*%
%TO.N,Net-(D14-DOUT)*%
X93962259Y-97342349D03*
%TO.P,D14,3,VSS*%
%TO.N,GND*%
X96262669Y-93015908D03*
%TO.P,D14,4,DIN*%
%TO.N,Net-(D13-DOUT)*%
X93348941Y-91466651D03*
%TD*%
D38*
%TO.P,D47,1,VDD*%
%TO.N,+5V*%
X281342034Y-240477326D03*
%TO.P,D47,2,DOUT*%
%TO.N,Net-(D47-DOUT)*%
X279177040Y-237986784D03*
%TO.P,D47,3,VSS*%
%TO.N,GND*%
X275478966Y-241201474D03*
%TO.P,D47,4,DIN*%
%TO.N,Net-(D46-DOUT)*%
X277643960Y-243692016D03*
%TD*%
D39*
%TO.P,D72,1,VDD*%
%TO.N,+5V*%
X237684667Y-34317052D03*
%TO.P,D72,2,DOUT*%
%TO.N,Net-(D72-DOUT)*%
X236610292Y-37437263D03*
%TO.P,D72,3,VSS*%
%TO.N,GND*%
X241243333Y-39032548D03*
%TO.P,D72,4,DIN*%
%TO.N,Net-(D71-DOUT)*%
X242317708Y-35912337D03*
%TD*%
D40*
%TO.P,D6,1,VDD*%
%TO.N,+5V*%
X148282298Y-39863655D03*
%TO.P,D6,2,DOUT*%
%TO.N,Net-(D6-DOUT)*%
X149624529Y-42878355D03*
%TO.P,D6,3,VSS*%
%TO.N,GND*%
X154100902Y-40885345D03*
%TO.P,D6,4,DIN*%
%TO.N,Net-(D5-DOUT)*%
X152758671Y-37870645D03*
%TD*%
D41*
%TO.P,D23,1,VDD*%
%TO.N,+5V*%
X83509729Y-185080294D03*
%TO.P,D23,2,DOUT*%
%TO.N,Net-(D23-DOUT)*%
X86681895Y-184170689D03*
%TO.P,D23,3,VSS*%
%TO.N,GND*%
X85331271Y-179460506D03*
%TO.P,D23,4,DIN*%
%TO.N,Net-(D22-DOUT)*%
X82159105Y-180370111D03*
%TD*%
D42*
%TO.P,D31,1,VDD*%
%TO.N,+5V*%
X130478046Y-249856952D03*
%TO.P,D31,2,DOUT*%
%TO.N,Net-(D31-DOUT)*%
X132417737Y-247187196D03*
%TO.P,D31,3,VSS*%
%TO.N,GND*%
X128453554Y-244307048D03*
%TO.P,D31,4,DIN*%
%TO.N,Net-(D30-DOUT)*%
X126513863Y-246976804D03*
%TD*%
D43*
%TO.P,D75,1,VDD*%
%TO.N,+5V*%
X207744430Y-28563647D03*
%TO.P,D75,2,DOUT*%
%TO.N,unconnected-(D75-DOUT-Pad2)*%
X207456816Y-31851090D03*
%TO.P,D75,3,VSS*%
%TO.N,GND*%
X212338170Y-32278153D03*
%TO.P,D75,4,DIN*%
%TO.N,Net-(D74-DOUT)*%
X212625784Y-28990710D03*
%TD*%
D32*
%TO.P,TP6,1,1*%
%TO.N,Net-(TH2-Pad1)*%
X190000000Y-147500000D03*
%TD*%
D44*
%TO.P,D11,1,VDD*%
%TO.N,+5V*%
X107957041Y-70420939D03*
%TO.P,D11,2,DOUT*%
%TO.N,Net-(D11-DOUT)*%
X110409419Y-72629070D03*
%TO.P,D11,3,VSS*%
%TO.N,GND*%
X113688159Y-68987661D03*
%TO.P,D11,4,DIN*%
%TO.N,Net-(D10-DOUT)*%
X111235781Y-66779530D03*
%TD*%
D32*
%TO.P,TP4,1,1*%
%TO.N,Net-(TH1-Pad1)*%
X210000000Y-152000000D03*
%TD*%
D10*
%TO.P,TP9,1,1*%
%TO.N,/Heater 1*%
X204000000Y-149500000D03*
%TD*%
D45*
%TO.P,D26,1,VDD*%
%TO.N,+5V*%
X95873058Y-212946762D03*
%TO.P,D26,2,DOUT*%
%TO.N,Net-(D26-DOUT)*%
X98730942Y-211296762D03*
%TO.P,D26,3,VSS*%
%TO.N,GND*%
X96280942Y-207053238D03*
%TO.P,D26,4,DIN*%
%TO.N,Net-(D25-DOUT)*%
X93423058Y-208703238D03*
%TD*%
D10*
%TO.P,TP2,1,1*%
%TO.N,GND*%
X202500000Y-141000000D03*
%TD*%
D46*
%TO.P,D52,1,VDD*%
%TO.N,+5V*%
X311110023Y-199570367D03*
%TO.P,D52,2,DOUT*%
%TO.N,Net-(D52-DOUT)*%
X308119206Y-198175726D03*
%TO.P,D52,3,VSS*%
%TO.N,GND*%
X306048377Y-202616633D03*
%TO.P,D52,4,DIN*%
%TO.N,Net-(D51-DOUT)*%
X309039194Y-204011274D03*
%TD*%
D47*
%TO.P,D56,1,VDD*%
%TO.N,+5V*%
X321239656Y-160279293D03*
%TO.P,D56,2,DOUT*%
%TO.N,Net-(D56-DOUT)*%
X317957734Y-159934349D03*
%TO.P,D56,3,VSS*%
%TO.N,GND*%
X317445544Y-164807507D03*
%TO.P,D56,4,DIN*%
%TO.N,Net-(D55-DOUT)*%
X320727466Y-165152451D03*
%TD*%
D48*
%TO.P,D1,1,VDD*%
%TO.N,+5V*%
X197550000Y-28350000D03*
%TO.P,D1,2,DOUT*%
%TO.N,Net-(D1-DOUT)*%
X197550000Y-31650000D03*
%TO.P,D1,3,VSS*%
%TO.N,GND*%
X202450000Y-31650000D03*
%TO.P,D1,4,DIN*%
%TO.N,Net-(D1-DIN)*%
X202450000Y-28350000D03*
%TD*%
D49*
%TO.P,D3,1,VDD*%
%TO.N,+5V*%
X177288502Y-30481005D03*
%TO.P,D3,2,DOUT*%
%TO.N,Net-(D3-DOUT)*%
X177861540Y-33730871D03*
%TO.P,D3,3,VSS*%
%TO.N,GND*%
X182687098Y-32879995D03*
%TO.P,D3,4,DIN*%
%TO.N,Net-(D2-DOUT)*%
X182114060Y-29630129D03*
%TD*%
D50*
%TO.P,D49,1,VDD*%
%TO.N,+5V*%
X295300402Y-225674692D03*
%TO.P,D49,2,DOUT*%
%TO.N,Net-(D49-DOUT)*%
X292772456Y-223553492D03*
%TO.P,D49,3,VSS*%
%TO.N,GND*%
X289622798Y-227307108D03*
%TO.P,D49,4,DIN*%
%TO.N,Net-(D48-DOUT)*%
X292150744Y-229428308D03*
%TD*%
D51*
%TO.P,D19,1,VDD*%
%TO.N,+5V*%
X78419916Y-144794034D03*
%TO.P,D19,2,DOUT*%
%TO.N,Net-(D19-DOUT)*%
X81711877Y-145024230D03*
%TO.P,D19,3,VSS*%
%TO.N,GND*%
X82053684Y-140136166D03*
%TO.P,D19,4,DIN*%
%TO.N,Net-(D18-DOUT)*%
X78761723Y-139905970D03*
%TD*%
D52*
%TO.P,D55,1,VDD*%
%TO.N,+5V*%
X319961668Y-170395648D03*
%TO.P,D55,2,DOUT*%
%TO.N,Net-(D55-DOUT)*%
X316722297Y-169765978D03*
%TO.P,D55,3,VSS*%
%TO.N,GND*%
X315787332Y-174575952D03*
%TO.P,D55,4,DIN*%
%TO.N,Net-(D54-DOUT)*%
X319026703Y-175205622D03*
%TD*%
D53*
%TO.P,D70,1,VDD*%
%TO.N,+5V*%
X256467518Y-42212294D03*
%TO.P,D70,2,DOUT*%
%TO.N,Net-(D70-DOUT)*%
X254867645Y-45098538D03*
%TO.P,D70,3,VSS*%
%TO.N,GND*%
X259153282Y-47474106D03*
%TO.P,D70,4,DIN*%
%TO.N,Net-(D69-DOUT)*%
X260753155Y-44587862D03*
%TD*%
D54*
%TO.P,D44,1,VDD*%
%TO.N,+5V*%
X256281558Y-257894402D03*
%TO.P,D44,2,DOUT*%
%TO.N,Net-(D44-DOUT)*%
X254834933Y-254928381D03*
%TO.P,D44,3,VSS*%
%TO.N,GND*%
X250430842Y-257076398D03*
%TO.P,D44,4,DIN*%
%TO.N,Net-(D43-DOUT)*%
X251877467Y-260042419D03*
%TD*%
D55*
%TO.P,D42,1,VDD*%
%TO.N,+5V*%
X237509160Y-265739892D03*
%TO.P,D42,2,DOUT*%
%TO.N,Net-(D42-DOUT)*%
X236544333Y-262584086D03*
%TO.P,D42,3,VSS*%
%TO.N,GND*%
X231858440Y-264016708D03*
%TO.P,D42,4,DIN*%
%TO.N,Net-(D41-DOUT)*%
X232823267Y-267172514D03*
%TD*%
D56*
%TO.P,D21,1,VDD*%
%TO.N,+5V*%
X79272534Y-165152451D03*
%TO.P,D21,2,DOUT*%
%TO.N,Net-(D21-DOUT)*%
X82554456Y-164807507D03*
%TO.P,D21,3,VSS*%
%TO.N,GND*%
X82042266Y-159934349D03*
%TO.P,D21,4,DIN*%
%TO.N,Net-(D20-DOUT)*%
X78760344Y-160279293D03*
%TD*%
D57*
%TO.P,TP3,1,1*%
%TO.N,Net-(D1-DIN)*%
X192500000Y-143500000D03*
%TD*%
D58*
%TO.P,D28,1,VDD*%
%TO.N,+5V*%
X107849256Y-229428308D03*
%TO.P,D28,2,DOUT*%
%TO.N,Net-(D28-DOUT)*%
X110377202Y-227307108D03*
%TO.P,D28,3,VSS*%
%TO.N,GND*%
X107227544Y-223553492D03*
%TO.P,D28,4,DIN*%
%TO.N,Net-(D27-DOUT)*%
X104699598Y-225674692D03*
%TD*%
D59*
%TO.P,D46,1,VDD*%
%TO.N,+5V*%
X273486137Y-246976804D03*
%TO.P,D46,2,DOUT*%
%TO.N,Net-(D46-DOUT)*%
X271546446Y-244307048D03*
%TO.P,D46,3,VSS*%
%TO.N,GND*%
X267582263Y-247187196D03*
%TO.P,D46,4,DIN*%
%TO.N,Net-(D45-DOUT)*%
X269521954Y-249856952D03*
%TD*%
D60*
%TO.P,D12,1,VDD*%
%TO.N,+5V*%
X101624205Y-78411763D03*
%TO.P,D12,2,DOUT*%
%TO.N,Net-(D12-DOUT)*%
X104259702Y-80397751D03*
%TO.P,D12,3,VSS*%
%TO.N,GND*%
X107208595Y-76484437D03*
%TO.P,D12,4,DIN*%
%TO.N,Net-(D11-DOUT)*%
X104573098Y-74498449D03*
%TD*%
D61*
%TO.P,D10,1,VDD*%
%TO.N,+5V*%
X114937186Y-62987962D03*
%TO.P,D10,2,DOUT*%
%TO.N,Net-(D10-DOUT)*%
X117187781Y-65401430D03*
%TO.P,D10,3,VSS*%
%TO.N,GND*%
X120771414Y-62059638D03*
%TO.P,D10,4,DIN*%
%TO.N,Net-(D10-DIN)*%
X118520819Y-59646170D03*
%TD*%
D62*
%TO.P,D59,1,VDD*%
%TO.N,+5V*%
X320005669Y-129814207D03*
%TO.P,D59,2,DOUT*%
%TO.N,Net-(D59-DOUT)*%
X316737784Y-130273479D03*
%TO.P,D59,3,VSS*%
%TO.N,GND*%
X317419731Y-135125793D03*
%TO.P,D59,4,DIN*%
%TO.N,Net-(D58-DOUT)*%
X320687616Y-134666521D03*
%TD*%
D10*
%TO.P,TP11,1,1*%
%TO.N,/Heater 2*%
X196500000Y-149500000D03*
%TD*%
D32*
%TO.P,TP5,1,1*%
%TO.N,Net-(TH1-Pad2)*%
X210000000Y-147500000D03*
%TD*%
D63*
%TO.P,D39,1,VDD*%
%TO.N,+5V*%
X207531191Y-271458192D03*
%TO.P,D39,2,DOUT*%
%TO.N,Net-(D39-DOUT)*%
X207416023Y-268160201D03*
%TO.P,D39,3,VSS*%
%TO.N,GND*%
X202519009Y-268331208D03*
%TO.P,D39,4,DIN*%
%TO.N,Net-(D38-DOUT)*%
X202634177Y-271629199D03*
%TD*%
D64*
%TO.P,D35,1,VDD*%
%TO.N,+5V*%
X167176733Y-267172514D03*
%TO.P,D35,2,DOUT*%
%TO.N,Net-(D35-DOUT)*%
X168141560Y-264016709D03*
%TO.P,D35,3,VSS*%
%TO.N,GND*%
X163455667Y-262584086D03*
%TO.P,D35,4,DIN*%
%TO.N,Net-(D34-DOUT)*%
X162490840Y-265739891D03*
%TD*%
D65*
%TO.P,D34,1,VDD*%
%TO.N,+5V*%
X157478600Y-264020839D03*
%TO.P,D34,2,DOUT*%
%TO.N,Net-(D34-DOUT)*%
X158714801Y-260961134D03*
%TO.P,D34,3,VSS*%
%TO.N,GND*%
X154171600Y-259125561D03*
%TO.P,D34,4,DIN*%
%TO.N,Net-(D33-DOUT)*%
X152935399Y-262185266D03*
%TD*%
D66*
%TO.P,D15,1,VDD*%
%TO.N,+5V*%
X86900276Y-105108631D03*
%TO.P,D15,2,DOUT*%
%TO.N,Net-(D15-DOUT)*%
X89937941Y-106398044D03*
%TO.P,D15,3,VSS*%
%TO.N,GND*%
X91852524Y-101887569D03*
%TO.P,D15,4,DIN*%
%TO.N,Net-(D14-DOUT)*%
X88814859Y-100598156D03*
%TD*%
D67*
%TO.P,D37,1,VDD*%
%TO.N,+5V*%
X187190654Y-270990081D03*
%TO.P,D37,2,DOUT*%
%TO.N,Net-(D37-DOUT)*%
X187592823Y-267714679D03*
%TO.P,D37,3,VSS*%
%TO.N,GND*%
X182729346Y-267117519D03*
%TO.P,D37,4,DIN*%
%TO.N,Net-(D36-DOUT)*%
X182327177Y-270392921D03*
%TD*%
D68*
%TO.P,D32,1,VDD*%
%TO.N,+5V*%
X139087047Y-255319870D03*
%TO.P,D32,2,DOUT*%
%TO.N,Net-(D32-DOUT)*%
X140786673Y-252491217D03*
%TO.P,D32,3,VSS*%
%TO.N,GND*%
X136586553Y-249967530D03*
%TO.P,D32,4,DIN*%
%TO.N,Net-(D31-DOUT)*%
X134886927Y-252796183D03*
%TD*%
D69*
%TO.P,D68,1,VDD*%
%TO.N,+5V*%
X273622915Y-53148212D03*
%TO.P,D68,2,DOUT*%
%TO.N,Net-(D68-DOUT)*%
X271591234Y-55748647D03*
%TO.P,D68,3,VSS*%
%TO.N,GND*%
X275452485Y-58765388D03*
%TO.P,D68,4,DIN*%
%TO.N,Net-(D67-DOUT)*%
X277484166Y-56164953D03*
%TD*%
D70*
%TO.P,D65,1,VDD*%
%TO.N,+5V*%
X295426902Y-74498449D03*
%TO.P,D65,2,DOUT*%
%TO.N,Net-(D65-DOUT)*%
X292791405Y-76484438D03*
%TO.P,D65,3,VSS*%
%TO.N,GND*%
X295740298Y-80397751D03*
%TO.P,D65,4,DIN*%
%TO.N,Net-(D64-DOUT)*%
X298375795Y-78411762D03*
%TD*%
D71*
%TO.P,D17,1,VDD*%
%TO.N,+5V*%
X81011659Y-124613937D03*
%TO.P,D17,2,DOUT*%
%TO.N,Net-(D17-DOUT)*%
X84227081Y-125356276D03*
%TO.P,D17,3,VSS*%
%TO.N,GND*%
X85329341Y-120581863D03*
%TO.P,D17,4,DIN*%
%TO.N,Net-(D16-DOUT)*%
X82113919Y-119839524D03*
%TD*%
D72*
%TO.P,D36,1,VDD*%
%TO.N,+5V*%
X177104007Y-269501027D03*
%TO.P,D36,2,DOUT*%
%TO.N,Net-(D36-DOUT)*%
X177790116Y-266273140D03*
%TO.P,D36,3,VSS*%
%TO.N,GND*%
X172997193Y-265254373D03*
%TO.P,D36,4,DIN*%
%TO.N,Net-(D35-DOUT)*%
X172311084Y-268482260D03*
%TD*%
D73*
%TO.P,D51,1,VDD*%
%TO.N,+5V*%
X306576942Y-208703238D03*
%TO.P,D51,2,DOUT*%
%TO.N,Net-(D51-DOUT)*%
X303719058Y-207053238D03*
%TO.P,D51,3,VSS*%
%TO.N,GND*%
X301269058Y-211296762D03*
%TO.P,D51,4,DIN*%
%TO.N,Net-(D50-DOUT)*%
X304126942Y-212946762D03*
%TD*%
D74*
%TO.P,D62,1,VDD*%
%TO.N,+5V*%
X311185141Y-100598156D03*
%TO.P,D62,2,DOUT*%
%TO.N,Net-(D62-DOUT)*%
X308147476Y-101887569D03*
%TO.P,D62,3,VSS*%
%TO.N,GND*%
X310062059Y-106398044D03*
%TO.P,D62,4,DIN*%
%TO.N,Net-(D61-DOUT)*%
X313099724Y-105108631D03*
%TD*%
D10*
%TO.P,TP1,1,1*%
%TO.N,+24V*%
X197000000Y-141000000D03*
%TD*%
D75*
%TO.P,D13,1,VDD*%
%TO.N,+5V*%
X95983018Y-86904151D03*
%TO.P,D13,2,DOUT*%
%TO.N,Net-(D13-DOUT)*%
X98781577Y-88652885D03*
%TO.P,D13,3,VSS*%
%TO.N,GND*%
X101378182Y-84497449D03*
%TO.P,D13,4,DIN*%
%TO.N,Net-(D12-DOUT)*%
X98579623Y-82748715D03*
%TD*%
D76*
%TO.P,D48,1,VDD*%
%TO.N,+5V*%
X288625524Y-233343404D03*
%TO.P,D48,2,DOUT*%
%TO.N,Net-(D48-DOUT)*%
X286251703Y-231051030D03*
%TO.P,D48,3,VSS*%
%TO.N,GND*%
X282847876Y-234575796D03*
%TO.P,D48,4,DIN*%
%TO.N,Net-(D47-DOUT)*%
X285221697Y-236868170D03*
%TD*%
D77*
%TO.P,D74,1,VDD*%
%TO.N,+5V*%
X217885940Y-29630129D03*
%TO.P,D74,2,DOUT*%
%TO.N,Net-(D74-DOUT)*%
X217312902Y-32879995D03*
%TO.P,D74,3,VSS*%
%TO.N,GND*%
X222138460Y-33730871D03*
%TO.P,D74,4,DIN*%
%TO.N,Net-(D73-DOUT)*%
X222711498Y-30481005D03*
%TD*%
D78*
%TO.P,D43,1,VDD*%
%TO.N,+5V*%
X247064601Y-262185266D03*
%TO.P,D43,2,DOUT*%
%TO.N,Net-(D43-DOUT)*%
X245828400Y-259125561D03*
%TO.P,D43,3,VSS*%
%TO.N,GND*%
X241285199Y-260961134D03*
%TO.P,D43,4,DIN*%
%TO.N,Net-(D42-DOUT)*%
X242521400Y-264020839D03*
%TD*%
D79*
%TO.P,D40,1,VDD*%
%TO.N,+5V*%
X217672822Y-270392921D03*
%TO.P,D40,2,DOUT*%
%TO.N,Net-(D40-DOUT)*%
X217270654Y-267117520D03*
%TO.P,D40,3,VSS*%
%TO.N,GND*%
X212407178Y-267714679D03*
%TO.P,D40,4,DIN*%
%TO.N,Net-(D39-DOUT)*%
X212809346Y-270990080D03*
%TD*%
D80*
%TO.P,D25,1,VDD*%
%TO.N,+5V*%
X90960806Y-204011274D03*
%TO.P,D25,2,DOUT*%
%TO.N,Net-(D25-DOUT)*%
X93951623Y-202616633D03*
%TO.P,D25,3,VSS*%
%TO.N,GND*%
X91880794Y-198175726D03*
%TO.P,D25,4,DIN*%
%TO.N,Net-(D24-DOUT)*%
X88889977Y-199570367D03*
%TD*%
D10*
%TO.P,TP8,1,1*%
%TO.N,/Heater 1*%
X204000000Y-156000000D03*
%TD*%
D81*
%TO.P,D41,1,VDD*%
%TO.N,+5V*%
X227688916Y-268482259D03*
%TO.P,D41,2,DOUT*%
%TO.N,Net-(D41-DOUT)*%
X227002807Y-265254373D03*
%TO.P,D41,3,VSS*%
%TO.N,GND*%
X222209884Y-266273141D03*
%TO.P,D41,4,DIN*%
%TO.N,Net-(D40-DOUT)*%
X222895993Y-269501027D03*
%TD*%
D82*
%TO.P,D64,1,VDD*%
%TO.N,+5V*%
X301420378Y-82748715D03*
%TO.P,D64,2,DOUT*%
%TO.N,Net-(D64-DOUT)*%
X298621818Y-84497448D03*
%TO.P,D64,3,VSS*%
%TO.N,GND*%
X301218422Y-88652885D03*
%TO.P,D64,4,DIN*%
%TO.N,Net-(D63-DOUT)*%
X304016982Y-86904152D03*
%TD*%
D83*
%TO.P,D20,1,VDD*%
%TO.N,+5V*%
X78419310Y-154991524D03*
%TO.P,D20,2,DOUT*%
%TO.N,Net-(D20-DOUT)*%
X81718807Y-154933931D03*
%TO.P,D20,3,VSS*%
%TO.N,GND*%
X81633290Y-150034676D03*
%TO.P,D20,4,DIN*%
%TO.N,Net-(D19-DOUT)*%
X78333793Y-150092269D03*
%TD*%
D84*
%TO.P,D16,1,VDD*%
%TO.N,+5V*%
X83546865Y-114738211D03*
%TO.P,D16,2,DOUT*%
%TO.N,Net-(D16-DOUT)*%
X86685351Y-115757967D03*
%TO.P,D16,3,VSS*%
%TO.N,GND*%
X88199535Y-111097789D03*
%TO.P,D16,4,DIN*%
%TO.N,Net-(D15-DOUT)*%
X85061049Y-110078033D03*
%TD*%
D85*
%TO.P,D54,1,VDD*%
%TO.N,+5V*%
X317840895Y-180370111D03*
%TO.P,D54,2,DOUT*%
%TO.N,Net-(D54-DOUT)*%
X314668729Y-179460506D03*
%TO.P,D54,3,VSS*%
%TO.N,GND*%
X313318105Y-184170689D03*
%TO.P,D54,4,DIN*%
%TO.N,Net-(D53-DOUT)*%
X316490271Y-185080294D03*
%TD*%
D86*
%TO.P,D4,1,VDD*%
%TO.N,+5V*%
X167380805Y-32761719D03*
%TO.P,D4,2,DOUT*%
%TO.N,Net-(D4-DOUT)*%
X168179146Y-35963696D03*
%TO.P,D4,3,VSS*%
%TO.N,GND*%
X172933595Y-34778281D03*
%TO.P,D4,4,DIN*%
%TO.N,Net-(D3-DOUT)*%
X172135254Y-31576304D03*
%TD*%
D87*
%TO.P,D60,1,VDD*%
%TO.N,+5V*%
X317886081Y-119839524D03*
%TO.P,D60,2,DOUT*%
%TO.N,Net-(D60-DOUT)*%
X314670659Y-120581863D03*
%TO.P,D60,3,VSS*%
%TO.N,GND*%
X315772919Y-125356276D03*
%TO.P,D60,4,DIN*%
%TO.N,Net-(D59-DOUT)*%
X318988341Y-124613937D03*
%TD*%
D88*
%TO.P,D73,1,VDD*%
%TO.N,+5V*%
X227864746Y-31576304D03*
%TO.P,D73,2,DOUT*%
%TO.N,Net-(D73-DOUT)*%
X227066405Y-34778281D03*
%TO.P,D73,3,VSS*%
%TO.N,GND*%
X231820854Y-35963696D03*
%TO.P,D73,4,DIN*%
%TO.N,Net-(D72-DOUT)*%
X232619195Y-32761719D03*
%TD*%
D89*
%TO.P,TH1,1*%
%TO.N,Net-(TH1-Pad1)*%
X262500000Y-151000000D03*
%TO.P,TH1,2*%
%TO.N,Net-(TH1-Pad2)*%
X262500000Y-149000000D03*
%TD*%
D90*
%TO.P,D50,1,VDD*%
%TO.N,+5V*%
X301294764Y-217425079D03*
%TO.P,D50,2,DOUT*%
%TO.N,Net-(D50-DOUT)*%
X298591561Y-215532276D03*
%TO.P,D50,3,VSS*%
%TO.N,GND*%
X295781036Y-219546121D03*
%TO.P,D50,4,DIN*%
%TO.N,Net-(D49-DOUT)*%
X298484239Y-221438924D03*
%TD*%
D91*
%TO.P,D57,1,VDD*%
%TO.N,+5V*%
X321666207Y-150092269D03*
%TO.P,D57,2,DOUT*%
%TO.N,Net-(D57-DOUT)*%
X318366710Y-150034676D03*
%TO.P,D57,3,VSS*%
%TO.N,GND*%
X318281193Y-154933931D03*
%TO.P,D57,4,DIN*%
%TO.N,Net-(D56-DOUT)*%
X321580690Y-154991524D03*
%TD*%
D92*
%TO.P,D63,1,VDD*%
%TO.N,+5V*%
X306651059Y-91466651D03*
%TO.P,D63,2,DOUT*%
%TO.N,Net-(D63-DOUT)*%
X303737331Y-93015908D03*
%TO.P,D63,3,VSS*%
%TO.N,GND*%
X306037741Y-97342349D03*
%TO.P,D63,4,DIN*%
%TO.N,Net-(D62-DOUT)*%
X308951469Y-95793092D03*
%TD*%
D93*
%TO.N,Net-(D1-DOUT)*%
X197550000Y-31650000D02*
X195341923Y-31650000D01*
X195341923Y-31650000D02*
X192255570Y-28563647D01*
D94*
%TO.N,+5V*%
X288764219Y-64814260D02*
X283596129Y-59646170D01*
X167176733Y-267172514D02*
X169932579Y-269928360D01*
X261199393Y-257894402D02*
X265113073Y-253980722D01*
X139087047Y-255844855D02*
X143284611Y-260042419D01*
X186399766Y-271780969D02*
X187190654Y-270990081D01*
X271725401Y-250500000D02*
X271725401Y-248737540D01*
X114778302Y-236868169D02*
X114778302Y-238508579D01*
X288764219Y-66779530D02*
X288764219Y-64814260D01*
X157478600Y-264020839D02*
X158509852Y-264020839D01*
X320461542Y-176323123D02*
X320461542Y-170895522D01*
X86813657Y-194695180D02*
X86813657Y-199864125D01*
X319961668Y-170395648D02*
X322500000Y-167857316D01*
X106524715Y-229428308D02*
X107849256Y-229428308D01*
X265298527Y-47311566D02*
X265298527Y-46768768D01*
X317840895Y-180370111D02*
X317840895Y-178943770D01*
X77020772Y-153592986D02*
X78419310Y-154991524D01*
X295426902Y-71911766D02*
X290294666Y-66779530D01*
X197365823Y-271629199D02*
X198691723Y-272955099D01*
X207531191Y-271458192D02*
X208451127Y-272378128D01*
X322500000Y-161539637D02*
X321239656Y-160279293D01*
X169932579Y-269928360D02*
X176676674Y-269928360D01*
X100855810Y-78411763D02*
X95983018Y-83284555D01*
X91210896Y-209604567D02*
X94553091Y-212946762D01*
X170049967Y-30092557D02*
X167380805Y-32761719D01*
X227688916Y-268482259D02*
X229482259Y-268482259D01*
X322893711Y-151319773D02*
X321666207Y-150092269D01*
X322931305Y-148827171D02*
X322931305Y-141598998D01*
X77384413Y-156026421D02*
X77384413Y-163264330D01*
X317840895Y-178943770D02*
X320461542Y-176323123D01*
X314862242Y-195818148D02*
X314862242Y-190090686D01*
X78594331Y-127031265D02*
X78594331Y-133948470D01*
X200850000Y-31150000D02*
X200850000Y-30350000D01*
X206034284Y-272955099D02*
X207531191Y-271458192D01*
X322893711Y-158625238D02*
X322893711Y-151319773D01*
X79312383Y-134666522D02*
X77410502Y-136568403D01*
X77410502Y-136568403D02*
X77410502Y-143784620D01*
X265113073Y-252796183D02*
X269429218Y-252796183D01*
X217672822Y-270392921D02*
X218892921Y-270392921D01*
X317962873Y-113101955D02*
X314938952Y-110078034D01*
X218892921Y-270392921D02*
X219447127Y-270947127D01*
X281479181Y-58196971D02*
X276430422Y-53148212D01*
X100706089Y-221438924D02*
X101515761Y-221438924D01*
X127397444Y-249856952D02*
X130478046Y-249856952D01*
X187190654Y-270990081D02*
X188984665Y-272784092D01*
X113042349Y-236868169D02*
X114778302Y-236868169D01*
X139246845Y-44587862D02*
X135396008Y-44587862D01*
X86813657Y-199864125D02*
X90960806Y-204011274D01*
X94553091Y-212946762D02*
X95873058Y-212946762D01*
X320461542Y-170895522D02*
X319961668Y-170395648D01*
X80656739Y-124259017D02*
X81011659Y-124613937D01*
X314938952Y-110078034D02*
X314938952Y-104351967D01*
X83509729Y-185080294D02*
X83509729Y-191391252D01*
X95873058Y-216605893D02*
X100706089Y-221438924D01*
X227864746Y-31576304D02*
X225346047Y-29057605D01*
X139087047Y-255319870D02*
X139087047Y-255844855D01*
X130639190Y-49344680D02*
X130639190Y-50051611D01*
X167380805Y-32761719D02*
X160832910Y-32761719D01*
X194377000Y-73363266D02*
X199500000Y-68240266D01*
X152233616Y-35912337D02*
X148282298Y-39863655D01*
X301420378Y-79476445D02*
X296442382Y-74498449D01*
X113134233Y-62987962D02*
X107957041Y-68165154D01*
X197900000Y-28000000D02*
X197550000Y-28350000D01*
X283469433Y-240477326D02*
X288625524Y-235321235D01*
X91048531Y-91308008D02*
X91048531Y-95793092D01*
X80669809Y-176776785D02*
X80669809Y-182240374D01*
X122356041Y-244815549D02*
X127397444Y-249856952D01*
X215882867Y-27627056D02*
X208681021Y-27627056D01*
X288625524Y-233343404D02*
X290164147Y-233343404D01*
X307651504Y-91466651D02*
X306651059Y-91466651D01*
X320005669Y-129814207D02*
X320445521Y-129374355D01*
X234576922Y-268672130D02*
X237509160Y-265739892D01*
X281342034Y-241904859D02*
X281342034Y-240477326D01*
X322500000Y-167857316D02*
X322500000Y-161539637D01*
X95983018Y-86904151D02*
X95452388Y-86904151D01*
X311185141Y-95000288D02*
X307651504Y-91466651D01*
X301922310Y-82748715D02*
X301420378Y-82748715D01*
X157682292Y-35912337D02*
X152233616Y-35912337D01*
X306651059Y-91466651D02*
X306651059Y-87477464D01*
X81011659Y-124613937D02*
X78594331Y-127031265D01*
X86900276Y-105108631D02*
X83546865Y-108462042D01*
X296261463Y-225674692D02*
X301294764Y-220641391D01*
X130478046Y-250463475D02*
X135334441Y-255319870D01*
X218458464Y-29057605D02*
X217885940Y-29630129D01*
X122515834Y-54071603D02*
X122515834Y-56164953D01*
X78603493Y-172835818D02*
X80973297Y-175205622D01*
X188984665Y-272784092D02*
X196210930Y-272784092D01*
X256281558Y-257894402D02*
X261199393Y-257894402D01*
X107849256Y-231675076D02*
X113042349Y-236868169D01*
X320445521Y-129374355D02*
X320445521Y-122398964D01*
X83509729Y-191391252D02*
X86813657Y-194695180D01*
X79272534Y-165152451D02*
X78603493Y-165821492D01*
X176900054Y-30092557D02*
X170049967Y-30092557D01*
X95452388Y-86904151D02*
X91048531Y-91308008D01*
X268649934Y-47311566D02*
X265298527Y-47311566D01*
X143284611Y-260042419D02*
X148122533Y-260042419D01*
X322087616Y-131896154D02*
X320005669Y-129814207D01*
X114937186Y-61354696D02*
X114937186Y-62987962D01*
X215687615Y-272378128D02*
X217672822Y-270392921D01*
X83546865Y-116102736D02*
X80656739Y-118992862D01*
X77410502Y-143784620D02*
X78419916Y-144794034D01*
X107957041Y-70420939D02*
X106670708Y-70420939D01*
X208451127Y-272378128D02*
X215687615Y-272378128D01*
X139246845Y-44391748D02*
X139246845Y-44587862D01*
X252125869Y-37870645D02*
X247241329Y-37870645D01*
X201200000Y-30000000D02*
X206308077Y-30000000D01*
X295300402Y-228207149D02*
X295300402Y-225674692D01*
X148282298Y-39863655D02*
X143774938Y-39863655D01*
X311110023Y-199570367D02*
X314862242Y-195818148D01*
X86900276Y-99941347D02*
X86900276Y-105108631D01*
X91048531Y-95793092D02*
X86900276Y-99941347D01*
X196210930Y-272784092D02*
X197365823Y-271629199D01*
X295300402Y-225674692D02*
X296261463Y-225674692D01*
X80973297Y-176473297D02*
X80669809Y-176776785D01*
X247241329Y-37870645D02*
X243687736Y-34317052D01*
X321238277Y-139905970D02*
X322087616Y-139056631D01*
X320445521Y-122398964D02*
X317886081Y-119839524D01*
X233444982Y-31293645D02*
X228147405Y-31293645D01*
X78419310Y-154991524D02*
X77384413Y-156026421D01*
X90960806Y-209138252D02*
X91210896Y-209604567D01*
X288625524Y-235321235D02*
X288625524Y-233343404D01*
X200850000Y-30350000D02*
X201200000Y-30000000D01*
X152100953Y-264020839D02*
X157478600Y-264020839D01*
X148122533Y-260042419D02*
X152100953Y-264020839D01*
X229672130Y-268672130D02*
X234576922Y-268672130D01*
X273486137Y-246976804D02*
X276270089Y-246976804D01*
X101515761Y-221438924D02*
X101515761Y-224419354D01*
X321239656Y-160279293D02*
X322893711Y-158625238D01*
X321666207Y-150092269D02*
X322931305Y-148827171D01*
X126535826Y-50051611D02*
X122515834Y-54071603D01*
X101624205Y-78411763D02*
X100855810Y-78411763D01*
X189164933Y-27199993D02*
X187374216Y-28990710D01*
X160832910Y-32761719D02*
X157682292Y-35912337D01*
X317886081Y-118613919D02*
X317962873Y-118537127D01*
X206308077Y-30000000D02*
X207744430Y-28563647D01*
X306576942Y-212692249D02*
X306576942Y-208703238D01*
X228147405Y-31293645D02*
X227864746Y-31576304D01*
X107957041Y-68165154D02*
X107957041Y-70420939D01*
X176676674Y-269928360D02*
X177104007Y-269501027D01*
X198691723Y-272955099D02*
X206034284Y-272955099D01*
X314862242Y-190090686D02*
X317979567Y-186973361D01*
X273622915Y-53148212D02*
X273622915Y-52284547D01*
X80669809Y-182240374D02*
X83509729Y-185080294D01*
X225346047Y-29057605D02*
X218458464Y-29057605D01*
X135396008Y-44587862D02*
X130639190Y-49344680D01*
X90960806Y-204011274D02*
X90960806Y-209138252D01*
X269429218Y-252796183D02*
X271725401Y-250500000D01*
X317840895Y-180370111D02*
X317979567Y-180508783D01*
X208681021Y-27627056D02*
X207744430Y-28563647D01*
X80656739Y-118992862D02*
X80656739Y-124259017D01*
X120126929Y-56164953D02*
X114937186Y-61354696D01*
X114778302Y-238508579D02*
X119961738Y-243692015D01*
X225224048Y-270947127D02*
X227688916Y-268482259D01*
X119961738Y-243692015D02*
X122356041Y-243692015D01*
X199500000Y-81879867D02*
X194377000Y-76756867D01*
X177104007Y-269501027D02*
X179383949Y-271780969D01*
X101624205Y-75467442D02*
X101624205Y-78411763D01*
X306651059Y-87477464D02*
X301922310Y-82748715D01*
X122515834Y-56164953D02*
X120126929Y-56164953D01*
X290164147Y-233343404D02*
X295300402Y-228207149D01*
X301420378Y-82748715D02*
X301420378Y-79476445D01*
X219447127Y-270947127D02*
X225224048Y-270947127D01*
X295426902Y-74498449D02*
X295426902Y-71911766D01*
X283596129Y-59646170D02*
X281479181Y-59646170D01*
X322931305Y-141598998D02*
X321238277Y-139905970D01*
X265298527Y-46768768D02*
X260742053Y-42212294D01*
X217885940Y-29630129D02*
X215882867Y-27627056D01*
X237509160Y-265739892D02*
X243509975Y-265739892D01*
X186590235Y-28206729D02*
X179562778Y-28206729D01*
X197550000Y-28350000D02*
X196399993Y-27199993D01*
X317886081Y-119839524D02*
X317886081Y-118613919D01*
X322087616Y-139056631D02*
X322087616Y-131896154D01*
X199500000Y-132500000D02*
X199500000Y-81879867D01*
X199500000Y-68240266D02*
X199500000Y-32500000D01*
X83546865Y-108462042D02*
X83546865Y-114738211D01*
X306576942Y-208703238D02*
X311110023Y-204170157D01*
X179383949Y-271780969D02*
X186399766Y-271780969D01*
X276430422Y-53148212D02*
X273622915Y-53148212D01*
X77384413Y-163264330D02*
X79272534Y-165152451D01*
X314938952Y-104351967D02*
X311185141Y-100598156D01*
X196399993Y-27199993D02*
X189164933Y-27199993D01*
X301844112Y-217425079D02*
X306576942Y-212692249D01*
X243509975Y-265739892D02*
X247064601Y-262185266D01*
X251990694Y-262185266D02*
X256281558Y-257894402D01*
X301294764Y-220641391D02*
X301294764Y-217425079D01*
X301294764Y-217425079D02*
X301844112Y-217425079D01*
X83546865Y-114738211D02*
X83546865Y-116102736D01*
X78594331Y-133948470D02*
X79312383Y-134666522D01*
X78419916Y-144794034D02*
X77020772Y-146193178D01*
X311185141Y-100598156D02*
X311185141Y-95000288D01*
X199500000Y-32500000D02*
X200850000Y-31150000D01*
X317962873Y-118537127D02*
X317962873Y-113101955D01*
X260742053Y-42212294D02*
X256467518Y-42212294D01*
X78603493Y-165821492D02*
X78603493Y-172835818D01*
X273622915Y-52284547D02*
X268649934Y-47311566D01*
X143774938Y-39863655D02*
X139246845Y-44391748D01*
X290294666Y-66779530D02*
X288764219Y-66779530D01*
X256467518Y-42212294D02*
X252125869Y-37870645D01*
X162021908Y-267532895D02*
X166816352Y-267532895D01*
X229482259Y-268482259D02*
X229672130Y-268672130D01*
X177288502Y-30481005D02*
X176900054Y-30092557D01*
X296442382Y-74498449D02*
X295426902Y-74498449D01*
X187374216Y-28990710D02*
X186590235Y-28206729D01*
X166816352Y-267532895D02*
X167176733Y-267172514D01*
X179562778Y-28206729D02*
X177288502Y-30481005D01*
X80973297Y-175205622D02*
X80973297Y-176473297D01*
X158509852Y-264020839D02*
X162021908Y-267532895D01*
X237684667Y-34317052D02*
X236468389Y-34317052D01*
X271725401Y-248737540D02*
X273486137Y-246976804D01*
X114937186Y-62987962D02*
X113134233Y-62987962D01*
X317979567Y-186973361D02*
X317979567Y-180508783D01*
X194377000Y-76756867D02*
X194377000Y-73363266D01*
X77020772Y-146193178D02*
X77020772Y-153592986D01*
X101515761Y-224419354D02*
X106524715Y-229428308D01*
X135334441Y-255319870D02*
X139087047Y-255319870D01*
X276270089Y-246976804D02*
X281342034Y-241904859D01*
X243687736Y-34317052D02*
X237684667Y-34317052D01*
X281479181Y-59646170D02*
X281479181Y-58196971D01*
X236468389Y-34317052D02*
X233444982Y-31293645D01*
X281342034Y-240477326D02*
X283469433Y-240477326D01*
X95983018Y-83284555D02*
X95983018Y-86904151D01*
X265113073Y-253980722D02*
X265113073Y-252796183D01*
X107849256Y-229428308D02*
X107849256Y-231675076D01*
X130478046Y-249856952D02*
X130478046Y-250463475D01*
X247064601Y-262185266D02*
X251990694Y-262185266D01*
X311110023Y-204170157D02*
X311110023Y-199570367D01*
X106670708Y-70420939D02*
X101624205Y-75467442D01*
X130639190Y-50051611D02*
X126535826Y-50051611D01*
X95873058Y-212946762D02*
X95873058Y-216605893D01*
X122356041Y-243692015D02*
X122356041Y-244815549D01*
D93*
%TO.N,Net-(D1-DIN)*%
X198435256Y-123000000D02*
X194873000Y-126562256D01*
X202450000Y-28350000D02*
X201500000Y-28350000D01*
X194873000Y-138000000D02*
X192500000Y-140373000D01*
X192500000Y-140373000D02*
X192500000Y-143500000D01*
X193500000Y-77120133D02*
X198623000Y-82243133D01*
X194873000Y-126562256D02*
X194873000Y-138000000D01*
X198623000Y-31227000D02*
X198623000Y-67877000D01*
X198623000Y-123000000D02*
X198435256Y-123000000D01*
X198623000Y-67877000D02*
X193500000Y-73000000D01*
X193500000Y-73000000D02*
X193500000Y-77120133D01*
X201500000Y-28350000D02*
X198623000Y-31227000D01*
X198623000Y-82243133D02*
X198623000Y-123000000D01*
D94*
%TO.N,GND*%
X301218422Y-88652885D02*
X300687792Y-88652885D01*
X306037741Y-97342349D02*
X305528084Y-97342349D01*
X145165067Y-254928381D02*
X149974420Y-254928381D01*
X108552085Y-223553492D02*
X113748298Y-228749705D01*
X96280942Y-202575874D02*
X96280942Y-207053238D01*
X212407178Y-267714679D02*
X212785321Y-267714679D01*
X250375471Y-42878355D02*
X245089140Y-42878355D01*
X267582263Y-247187196D02*
X267582263Y-246274664D01*
X316595095Y-135950429D02*
X317419731Y-135125793D01*
X128408766Y-56867134D02*
X123216262Y-62059638D01*
X96262669Y-93015908D02*
X96262669Y-97477424D01*
X180438867Y-264827040D02*
X182729346Y-267117519D01*
X131552483Y-55748647D02*
X128408766Y-55748647D01*
X267515473Y-53635883D02*
X267515473Y-52787434D01*
X300814083Y-211296762D02*
X301269058Y-211296762D01*
X203250000Y-127670000D02*
X201780000Y-126200000D01*
X259153282Y-47776650D02*
X259153282Y-47474106D01*
X88238743Y-188962020D02*
X91880794Y-192604071D01*
X192583977Y-268160201D02*
X193660201Y-268160201D01*
X317419731Y-134080269D02*
X315337784Y-131998322D01*
X203831208Y-268331208D02*
X205328115Y-266834301D01*
X101408439Y-211661120D02*
X101408439Y-215532276D01*
X136586553Y-249967530D02*
X140339159Y-249967530D01*
X263992363Y-247187196D02*
X267582263Y-247187196D01*
X306048377Y-197603495D02*
X310085358Y-193566514D01*
X135449227Y-51144972D02*
X135449227Y-51851903D01*
X317053689Y-146258664D02*
X318288123Y-145024230D01*
X221666215Y-265729472D02*
X222209884Y-266273141D01*
X96772326Y-93015908D02*
X96262669Y-93015908D01*
X316595095Y-142518849D02*
X316595095Y-135950429D01*
X183520234Y-266326631D02*
X190750407Y-266326631D01*
X317445544Y-164807507D02*
X316581803Y-163943766D01*
X83063098Y-148604868D02*
X81633290Y-150034676D01*
X173424526Y-264827040D02*
X180438867Y-264827040D01*
X313318105Y-182818105D02*
X313179433Y-182679433D01*
X289622798Y-224774651D02*
X294851328Y-219546121D01*
X190752467Y-33641807D02*
X183448910Y-33641807D01*
X182687098Y-32879995D02*
X180412822Y-35154271D01*
X226287366Y-263656327D02*
X231498059Y-263656327D01*
X183448910Y-33641807D02*
X182687098Y-32879995D01*
X145132355Y-45613048D02*
X140698014Y-50047389D01*
X282847876Y-232597965D02*
X288138733Y-227307108D01*
X91852524Y-107444800D02*
X88199535Y-111097789D01*
X205500000Y-77500000D02*
X205500000Y-72500000D01*
X140698014Y-50047389D02*
X136546810Y-50047389D01*
X315787332Y-174575952D02*
X315287458Y-174076078D01*
X241355393Y-39144607D02*
X235001765Y-39144607D01*
X128408766Y-55748647D02*
X128408766Y-56867134D01*
X190750407Y-266326631D02*
X192583977Y-268160201D01*
X202500000Y-141000000D02*
X203250000Y-140250000D01*
X172997193Y-265254373D02*
X173424526Y-264827040D01*
X169966525Y-262223705D02*
X172997193Y-265254373D01*
X289590581Y-72629070D02*
X288060134Y-72629070D01*
X230253645Y-36246355D02*
X224653944Y-36246355D01*
X128453554Y-244307048D02*
X131534156Y-244307048D01*
X313179433Y-182679433D02*
X313179433Y-177183851D01*
X306037741Y-102373726D02*
X306037741Y-97342349D01*
X294851328Y-219546121D02*
X295781036Y-219546121D01*
X301218422Y-93032687D02*
X301218422Y-88652885D01*
X275452485Y-58765388D02*
X272644978Y-58765388D01*
X301269058Y-207395952D02*
X306048377Y-202616633D01*
X259213327Y-251966232D02*
X263992363Y-247187196D01*
X310085358Y-193566514D02*
X310085358Y-187403436D01*
X108447168Y-76484437D02*
X107208595Y-76484437D01*
X313314648Y-115757966D02*
X310062059Y-112505377D01*
X115484251Y-231051031D02*
X120822959Y-236389739D01*
X231858440Y-264016708D02*
X234914014Y-260961134D01*
X136546810Y-50047389D02*
X135449227Y-51144972D01*
X154171600Y-259125561D02*
X159997142Y-259125561D01*
X83930387Y-161822470D02*
X83930387Y-169113294D01*
X241285199Y-260961134D02*
X245169935Y-257076398D01*
X83277703Y-169765978D02*
X85695084Y-172183359D01*
X231820854Y-35963696D02*
X230536304Y-35963696D01*
X113748298Y-228749705D02*
X113748298Y-231051031D01*
X310062059Y-112505377D02*
X310062059Y-106398044D01*
X317419731Y-135125793D02*
X317419731Y-134080269D01*
X91880794Y-192604071D02*
X91880794Y-198175726D01*
X163455667Y-262584086D02*
X163816048Y-262223705D01*
X83980269Y-138209581D02*
X82053684Y-140136166D01*
X173309585Y-35154271D02*
X172933595Y-34778281D01*
X294724818Y-80397751D02*
X289590581Y-75263514D01*
X272644978Y-58765388D02*
X267515473Y-53635883D01*
X267515473Y-52787434D02*
X264164066Y-52787434D01*
X201000000Y-68000000D02*
X201000000Y-33100000D01*
X123216262Y-62059638D02*
X120771414Y-62059638D01*
X200927000Y-125347000D02*
X200927000Y-82073000D01*
X295740298Y-83705391D02*
X295740298Y-80397751D01*
X163389708Y-37437263D02*
X159941626Y-40885345D01*
X128453554Y-243223077D02*
X128453554Y-244307048D01*
X85695084Y-172183359D02*
X85695084Y-179096693D01*
X275478966Y-239773941D02*
X280677111Y-234575796D01*
X214770528Y-265729472D02*
X221666215Y-265729472D01*
X201000000Y-33100000D02*
X202450000Y-31650000D01*
X316581803Y-163943766D02*
X316581803Y-156633321D01*
X267582263Y-246274664D02*
X272655453Y-241201474D01*
X315337784Y-125791411D02*
X315772919Y-125356276D01*
X83031828Y-158944787D02*
X82042266Y-159934349D01*
X131534156Y-244307048D02*
X136586553Y-249359445D01*
X259153282Y-47474106D02*
X254971222Y-47474106D01*
X91852524Y-101887569D02*
X91852524Y-107444800D01*
X180412822Y-35154271D02*
X173309585Y-35154271D01*
X282847876Y-234575796D02*
X282847876Y-232597965D01*
X200927000Y-82073000D02*
X205500000Y-77500000D01*
X272655453Y-241201474D02*
X275478966Y-241201474D01*
X205328115Y-266834301D02*
X211526800Y-266834301D01*
X288060134Y-72629070D02*
X282812219Y-67381155D01*
X113748298Y-231051031D02*
X115484251Y-231051031D01*
X192543184Y-31851090D02*
X190752467Y-33641807D01*
X201780000Y-126200000D02*
X200927000Y-125347000D01*
X107208595Y-76484437D02*
X107208595Y-79428758D01*
X120822959Y-237986785D02*
X123217262Y-237986785D01*
X295781036Y-219546121D02*
X295781036Y-216329809D01*
X315287458Y-174076078D02*
X315287458Y-166965593D01*
X289622798Y-227307108D02*
X289622798Y-224774651D01*
X96280942Y-207053238D02*
X96800557Y-207053238D01*
X83031828Y-151433214D02*
X83031828Y-158944787D01*
X107227544Y-220541709D02*
X107227544Y-223553492D01*
X214363412Y-34303395D02*
X212338170Y-32278153D01*
X85704553Y-120957075D02*
X85704553Y-127831142D01*
X313213479Y-122796836D02*
X313213479Y-115859135D01*
X159941626Y-40885345D02*
X154100902Y-40885345D01*
X96262669Y-97477424D02*
X91852524Y-101887569D01*
X201193109Y-267005308D02*
X202519009Y-268331208D01*
X102218111Y-215532276D02*
X107227544Y-220541709D01*
X222138460Y-33730871D02*
X221565936Y-34303395D01*
X241355393Y-39144607D02*
X241243333Y-39032548D01*
X88199535Y-111097789D02*
X88199535Y-117711669D01*
X163816048Y-262223705D02*
X169966525Y-262223705D01*
X194815094Y-267005308D02*
X201193109Y-267005308D01*
X115476657Y-68987661D02*
X113688159Y-68987661D01*
X101408439Y-215532276D02*
X102218111Y-215532276D01*
X315287458Y-166965593D02*
X317445544Y-164807507D01*
X295740298Y-80397751D02*
X294724818Y-80397751D01*
X305528084Y-97342349D02*
X301218422Y-93032687D01*
X81633290Y-150034676D02*
X83031828Y-151433214D01*
X221565936Y-34303395D02*
X214363412Y-34303395D01*
X172933595Y-34778281D02*
X170274613Y-37437263D01*
X145165067Y-254793438D02*
X145165067Y-254928381D01*
X318281193Y-154933931D02*
X317053689Y-153706427D01*
X235001765Y-39144607D02*
X231820854Y-35963696D01*
X113688159Y-68987661D02*
X113688159Y-71243446D01*
X282812219Y-67381155D02*
X282812219Y-65401430D01*
X317053689Y-153706427D02*
X317053689Y-146258664D01*
X135449227Y-51851903D02*
X131552483Y-55748647D01*
X204014744Y-33214744D02*
X202450000Y-31650000D01*
X300687792Y-88652885D02*
X295740298Y-83705391D01*
X313179433Y-177183851D02*
X315787332Y-174575952D01*
X123217262Y-237986785D02*
X128453554Y-243223077D01*
X88199535Y-117711669D02*
X85329341Y-120581863D01*
X193660201Y-268160201D02*
X194815094Y-267005308D01*
X245169935Y-257076398D02*
X250430842Y-257076398D01*
X101378182Y-88410052D02*
X96772326Y-93015908D01*
X120771414Y-62059638D02*
X120771414Y-63692904D01*
X315772919Y-125356276D02*
X313213479Y-122796836D01*
X259213327Y-252491217D02*
X259213327Y-251966232D01*
X107208595Y-79428758D02*
X102139904Y-84497449D01*
X101378182Y-84497449D02*
X101378182Y-88410052D01*
X113688159Y-71243446D02*
X108447168Y-76484437D01*
X145132355Y-45098538D02*
X145132355Y-45613048D01*
X254971222Y-47474106D02*
X250375471Y-42878355D01*
X91880794Y-198175726D02*
X96280942Y-202575874D01*
X231498059Y-263656327D02*
X231858440Y-264016708D01*
X149974420Y-254928381D02*
X154171600Y-259125561D01*
X85331271Y-179460506D02*
X88238743Y-182367978D01*
X280695271Y-65401430D02*
X275452485Y-60158644D01*
X154100902Y-40885345D02*
X149887709Y-45098538D01*
X250430842Y-257076398D02*
X255016023Y-252491217D01*
X282812219Y-65401430D02*
X280695271Y-65401430D01*
X315337784Y-131998322D02*
X315337784Y-125791411D01*
X310062059Y-106398044D02*
X306037741Y-102373726D01*
X96800557Y-207053238D02*
X101408439Y-211661120D01*
X82053684Y-140136166D02*
X83063098Y-141145580D01*
X159997142Y-259125561D02*
X163455667Y-262584086D01*
X102139904Y-84497449D02*
X101378182Y-84497449D01*
X318288123Y-145024230D02*
X318288123Y-144211877D01*
X223670552Y-266273141D02*
X226287366Y-263656327D01*
X245089140Y-42878355D02*
X241355393Y-39144607D01*
X289590581Y-75263514D02*
X289590581Y-72629070D01*
X222209884Y-266273141D02*
X223670552Y-266273141D01*
X85695084Y-179096693D02*
X85331271Y-179460506D01*
X313318105Y-184170689D02*
X313318105Y-182818105D01*
X306048377Y-202616633D02*
X306048377Y-197603495D01*
X120771414Y-63692904D02*
X115476657Y-68987661D01*
X255016023Y-252491217D02*
X259213327Y-252491217D01*
X85329341Y-120581863D02*
X85704553Y-120957075D01*
X224653944Y-36246355D02*
X222138460Y-33730871D01*
X211401579Y-33214744D02*
X204014744Y-33214744D01*
X280677111Y-234575796D02*
X282847876Y-234575796D01*
X82042266Y-159934349D02*
X83930387Y-161822470D01*
X83930387Y-169113294D02*
X83277703Y-169765978D01*
X275452485Y-60158644D02*
X275452485Y-58765388D01*
X120822959Y-236389739D02*
X120822959Y-237986785D01*
X318288123Y-144211877D02*
X316595095Y-142518849D01*
X149887709Y-45098538D02*
X145132355Y-45098538D01*
X310085358Y-187403436D02*
X313318105Y-184170689D01*
X275478966Y-241201474D02*
X275478966Y-239773941D01*
X295781036Y-216329809D02*
X300814083Y-211296762D01*
X212785321Y-267714679D02*
X214770528Y-265729472D01*
X230536304Y-35963696D02*
X230253645Y-36246355D01*
X140339159Y-249967530D02*
X145165067Y-254793438D01*
X288138733Y-227307108D02*
X289622798Y-227307108D01*
X83262217Y-130273478D02*
X83980269Y-130991530D01*
X301269058Y-211296762D02*
X301269058Y-207395952D01*
X136586553Y-249359445D02*
X136586553Y-249967530D01*
X264164066Y-52787434D02*
X259153282Y-47776650D01*
X83980269Y-130991530D02*
X83980269Y-138209581D01*
X234914014Y-260961134D02*
X241285199Y-260961134D01*
X107227544Y-223553492D02*
X108552085Y-223553492D01*
X202519009Y-268331208D02*
X203831208Y-268331208D01*
X85704553Y-127831142D02*
X83262217Y-130273478D01*
X205500000Y-72500000D02*
X201000000Y-68000000D01*
X182729346Y-267117519D02*
X183520234Y-266326631D01*
X170274613Y-37437263D02*
X163389708Y-37437263D01*
X316581803Y-156633321D02*
X318281193Y-154933931D01*
X211526800Y-266834301D02*
X212407178Y-267714679D01*
X88238743Y-182367978D02*
X88238743Y-188962020D01*
X212338170Y-32278153D02*
X211401579Y-33214744D01*
X313213479Y-115859135D02*
X313314648Y-115757966D01*
X83063098Y-141145580D02*
X83063098Y-148604868D01*
X203250000Y-140250000D02*
X203250000Y-127670000D01*
D93*
%TO.N,Net-(D2-DOUT)*%
X187661830Y-32278153D02*
X184762084Y-32278153D01*
X184762084Y-32278153D02*
X182114060Y-29630129D01*
%TO.N,Net-(D3-DOUT)*%
X174289821Y-33730871D02*
X172135254Y-31576304D01*
X177861540Y-33730871D02*
X174289821Y-33730871D01*
%TO.N,Net-(D4-DOUT)*%
X163961977Y-35963696D02*
X162315333Y-34317052D01*
X168179146Y-35963696D02*
X163961977Y-35963696D01*
%TO.N,Net-(D5-DOUT)*%
X158756667Y-39032548D02*
X153920574Y-39032548D01*
X153920574Y-39032548D02*
X152758671Y-37870645D01*
%TO.N,Net-(D6-DOUT)*%
X144198543Y-42878355D02*
X143532482Y-42212294D01*
X149624529Y-42878355D02*
X144198543Y-42878355D01*
%TO.N,Net-(D7-DOUT)*%
X140846718Y-47474106D02*
X134864013Y-47474106D01*
X134864013Y-47474106D02*
X134701473Y-47311566D01*
%TO.N,Net-(D8-DOUT)*%
X132484527Y-52787434D02*
X126737863Y-52787434D01*
X126737863Y-52787434D02*
X126377085Y-53148212D01*
%TO.N,Net-(D10-DIN)*%
X123666733Y-59646170D02*
X118520819Y-59646170D01*
X124547515Y-58765388D02*
X123666733Y-59646170D01*
%TO.N,Net-(D10-DOUT)*%
X117187781Y-65401430D02*
X115809681Y-66779530D01*
X115809681Y-66779530D02*
X111235781Y-66779530D01*
%TO.N,Net-(D11-DOUT)*%
X108540040Y-74498449D02*
X104573098Y-74498449D01*
X110409419Y-72629070D02*
X108540040Y-74498449D01*
%TO.N,Net-(D12-DOUT)*%
X101908738Y-82748715D02*
X98579623Y-82748715D01*
X104259702Y-80397751D02*
X101908738Y-82748715D01*
%TO.N,Net-(D13-DOUT)*%
X95967811Y-91466651D02*
X93348941Y-91466651D01*
X98781577Y-88652885D02*
X95967811Y-91466651D01*
%TO.N,Net-(D14-DOUT)*%
X93962259Y-97342349D02*
X90706452Y-100598156D01*
X90706452Y-100598156D02*
X88814859Y-100598156D01*
%TO.N,Net-(D15-DOUT)*%
X86257952Y-110078033D02*
X85061049Y-110078033D01*
X89937941Y-106398044D02*
X86257952Y-110078033D01*
%TO.N,Net-(D16-DOUT)*%
X86685351Y-115757967D02*
X82603794Y-119839524D01*
X82603794Y-119839524D02*
X82113919Y-119839524D01*
%TO.N,Net-(D17-DOUT)*%
X84227081Y-125356276D02*
X84227081Y-125581457D01*
X84227081Y-125581457D02*
X79994331Y-129814207D01*
%TO.N,Net-(D18-DOUT)*%
X82580269Y-135125793D02*
X82580269Y-136087424D01*
X82580269Y-136087424D02*
X78761723Y-139905970D01*
%TO.N,Net-(D20-DOUT)*%
X81718807Y-157320830D02*
X78760344Y-160279293D01*
X81718807Y-154933931D02*
X81718807Y-157320830D01*
%TO.N,Net-(D21-DOUT)*%
X82554456Y-167879524D02*
X80038332Y-170395648D01*
X82554456Y-164807507D02*
X82554456Y-167879524D01*
%TO.N,Net-(D22-DOUT)*%
X84212668Y-174575952D02*
X84212668Y-178316548D01*
X84212668Y-178316548D02*
X82159105Y-180370111D01*
%TO.N,Net-(D23-DOUT)*%
X86681895Y-184170689D02*
X86681895Y-188546549D01*
X86681895Y-188546549D02*
X85137758Y-190090686D01*
%TO.N,Net-(D24-DOUT)*%
X89914642Y-198545702D02*
X88889977Y-199570367D01*
X89914642Y-193566514D02*
X89914642Y-198545702D01*
%TO.N,Net-(D25-DOUT)*%
X93951623Y-202616633D02*
X93951623Y-208174673D01*
X93951623Y-208174673D02*
X93423058Y-208703238D01*
%TO.N,Net-(D26-DOUT)*%
X98730942Y-217399373D02*
X98705236Y-217425079D01*
X98730942Y-211296762D02*
X98730942Y-217399373D01*
%TO.N,Net-(D27-DOUT)*%
X104218964Y-219546121D02*
X104218964Y-225194058D01*
X104218964Y-225194058D02*
X104699598Y-225674692D01*
%TO.N,Net-(D28-DOUT)*%
X111374476Y-228304382D02*
X111374476Y-233343404D01*
X110377202Y-227307108D02*
X111374476Y-228304382D01*
%TO.N,Net-(D29-DOUT)*%
X117152124Y-234575796D02*
X118657966Y-236081638D01*
X118657966Y-236081638D02*
X118657966Y-240477326D01*
%TO.N,Net-(D30-DOUT)*%
X124521034Y-241201474D02*
X126513863Y-243194303D01*
X126513863Y-243194303D02*
X126513863Y-246976804D01*
%TO.N,Net-(D31-DOUT)*%
X132417737Y-247187196D02*
X134886927Y-249656386D01*
X134886927Y-249656386D02*
X134886927Y-252796183D01*
%TO.N,Net-(D32-DOUT)*%
X140786673Y-252491217D02*
X143718442Y-255422986D01*
X143718442Y-255422986D02*
X143718442Y-257894402D01*
%TO.N,Net-(D33-DOUT)*%
X149569158Y-257076398D02*
X152935399Y-260442639D01*
X152935399Y-260442639D02*
X152935399Y-262185266D01*
%TO.N,Net-(D34-DOUT)*%
X162490840Y-264737173D02*
X162490840Y-265739891D01*
X158714801Y-260961134D02*
X162490840Y-264737173D01*
%TO.N,Net-(D35-DOUT)*%
X168141560Y-264016709D02*
X168141560Y-264312736D01*
X168141560Y-264312736D02*
X172311084Y-268482260D01*
%TO.N,Net-(D36-DOUT)*%
X181909897Y-270392921D02*
X182327177Y-270392921D01*
X177790116Y-266273140D02*
X181909897Y-270392921D01*
%TO.N,Net-(D37-DOUT)*%
X188725296Y-267714679D02*
X192468809Y-271458192D01*
X187592823Y-267714679D02*
X188725296Y-267714679D01*
%TO.N,Net-(D38-DOUT)*%
X197480991Y-268331208D02*
X199336186Y-268331208D01*
X199336186Y-268331208D02*
X202634177Y-271629199D01*
%TO.N,Net-(D39-DOUT)*%
X209979467Y-268160201D02*
X212809346Y-270990080D01*
X207416023Y-268160201D02*
X209979467Y-268160201D01*
%TO.N,Net-(D40-DOUT)*%
X217270654Y-267117520D02*
X220512486Y-267117520D01*
X220512486Y-267117520D02*
X222895993Y-269501027D01*
%TO.N,Net-(D41-DOUT)*%
X227002807Y-265254373D02*
X230905126Y-265254373D01*
X230905126Y-265254373D02*
X232823267Y-267172514D01*
%TO.N,Net-(D42-DOUT)*%
X241084647Y-262584086D02*
X242521400Y-264020839D01*
X236544333Y-262584086D02*
X241084647Y-262584086D01*
%TO.N,Net-(D43-DOUT)*%
X250960609Y-259125561D02*
X251877467Y-260042419D01*
X245828400Y-259125561D02*
X250960609Y-259125561D01*
%TO.N,Net-(D44-DOUT)*%
X254834933Y-254928381D02*
X260521464Y-254928381D01*
X260521464Y-254928381D02*
X260912953Y-255319870D01*
%TO.N,Net-(D45-DOUT)*%
X269411376Y-249967530D02*
X269521954Y-249856952D01*
X263413447Y-249967530D02*
X269411376Y-249967530D01*
%TO.N,Net-(D50-DOUT)*%
X301177075Y-212946762D02*
X304126942Y-212946762D01*
X298591561Y-215532276D02*
X301177075Y-212946762D01*
%TO.N,Net-(D51-DOUT)*%
X303719058Y-207053238D02*
X306761022Y-204011274D01*
X306761022Y-204011274D02*
X309039194Y-204011274D01*
%TO.N,Net-(D52-DOUT)*%
X311599752Y-194695180D02*
X313186343Y-194695180D01*
X308119206Y-198175726D02*
X311599752Y-194695180D01*
%TO.N,Net-(D53-DOUT)*%
X315642983Y-185080294D02*
X316490271Y-185080294D01*
X311761257Y-188962020D02*
X315642983Y-185080294D01*
%TO.N,Net-(D54-DOUT)*%
X314771819Y-179460506D02*
X319026703Y-175205622D01*
X314668729Y-179460506D02*
X314771819Y-179460506D01*
%TO.N,Net-(D55-DOUT)*%
X320727466Y-165760809D02*
X320727466Y-165152451D01*
X316722297Y-169765978D02*
X320727466Y-165760809D01*
%TO.N,Net-(D56-DOUT)*%
X317957734Y-158614480D02*
X321580690Y-154991524D01*
X317957734Y-159934349D02*
X317957734Y-158614480D01*
%TO.N,Net-(D57-DOUT)*%
X318366710Y-148007408D02*
X321580084Y-144794034D01*
X318366710Y-150034676D02*
X318366710Y-148007408D01*
%TO.N,Net-(D58-DOUT)*%
X317946316Y-137407821D02*
X320687616Y-134666521D01*
X317946316Y-140136166D02*
X317946316Y-137407821D01*
%TO.N,Net-(D59-DOUT)*%
X316737784Y-130273479D02*
X316737784Y-126864494D01*
X316737784Y-126864494D02*
X318988341Y-124613937D01*
%TO.N,Net-(D60-DOUT)*%
X314670659Y-120581863D02*
X314670659Y-116520687D01*
X314670659Y-116520687D02*
X316453135Y-114738211D01*
%TO.N,Net-(D61-DOUT)*%
X311800465Y-106407890D02*
X313099724Y-105108631D01*
X311800465Y-111097789D02*
X311800465Y-106407890D01*
%TO.N,Net-(D62-DOUT)*%
X308147476Y-101887569D02*
X308147476Y-96597085D01*
X308147476Y-96597085D02*
X308951469Y-95793092D01*
%TO.N,Net-(D63-DOUT)*%
X303737331Y-93015908D02*
X303737331Y-87183803D01*
X303737331Y-87183803D02*
X304016982Y-86904152D01*
%TO.N,Net-(D64-DOUT)*%
X298621818Y-84497448D02*
X298621818Y-78657785D01*
X298621818Y-78657785D02*
X298375795Y-78411762D01*
%TO.N,Net-(D65-DOUT)*%
X292791405Y-76484438D02*
X292042959Y-75735992D01*
X292042959Y-75735992D02*
X292042959Y-70420939D01*
%TO.N,Net-(D66-DOUT)*%
X285062814Y-67738634D02*
X285062814Y-62987962D01*
X286311841Y-68987661D02*
X285062814Y-67738634D01*
%TO.N,Net-(D67-DOUT)*%
X279228586Y-62059638D02*
X277484166Y-60315218D01*
X277484166Y-60315218D02*
X277484166Y-56164953D01*
%TO.N,Net-(D68-DOUT)*%
X271591234Y-55748647D02*
X269360810Y-53518223D01*
X269360810Y-53518223D02*
X269360810Y-50051611D01*
%TO.N,Net-(D69-DOUT)*%
X260753155Y-47347354D02*
X260753155Y-44587862D01*
X263453190Y-50047389D02*
X260753155Y-47347354D01*
%TO.N,Net-(D70-DOUT)*%
X251717702Y-41948595D02*
X251717702Y-39863655D01*
X254867645Y-45098538D02*
X251717702Y-41948595D01*
%TO.N,Net-(TH1-Pad1)*%
X211673000Y-150327000D02*
X210000000Y-152000000D01*
X261327000Y-150327000D02*
X211673000Y-150327000D01*
X262500000Y-151000000D02*
X262000000Y-151000000D01*
X262000000Y-151000000D02*
X261327000Y-150327000D01*
%TO.N,Net-(TH1-Pad2)*%
X210000000Y-148500000D02*
X210000000Y-147500000D01*
X261500000Y-150000000D02*
X211500000Y-150000000D01*
X211500000Y-150000000D02*
X210000000Y-148500000D01*
X262500000Y-149000000D02*
X261500000Y-150000000D01*
%TO.N,Net-(TH2-Pad1)*%
X188500000Y-150000000D02*
X190000000Y-148500000D01*
X138500000Y-150000000D02*
X188500000Y-150000000D01*
X190000000Y-148500000D02*
X190000000Y-147500000D01*
X137500000Y-149000000D02*
X138500000Y-150000000D01*
%TO.N,Net-(TH2-Pad2)*%
X188327000Y-150327000D02*
X190000000Y-152000000D01*
X138000000Y-151000000D02*
X138673000Y-150327000D01*
X137500000Y-151000000D02*
X138000000Y-151000000D01*
X138673000Y-150327000D02*
X188327000Y-150327000D01*
D94*
%TO.N,+24V*%
X197000000Y-141000000D02*
X195750000Y-139750000D01*
X195750000Y-127670000D02*
X197220000Y-126200000D01*
X195750000Y-139750000D02*
X195750000Y-127670000D01*
D93*
%TO.N,Net-(D19-DOUT)*%
X81711877Y-146714185D02*
X78333793Y-150092269D01*
X81711877Y-145024230D02*
X81711877Y-146714185D01*
%TO.N,Net-(D46-DOUT)*%
X277028928Y-244307048D02*
X277643960Y-243692016D01*
X271546446Y-244307048D02*
X277028928Y-244307048D01*
%TO.N,Net-(D47-DOUT)*%
X280295654Y-236868170D02*
X285221697Y-236868170D01*
X279177040Y-237986784D02*
X280295654Y-236868170D01*
%TO.N,Net-(D48-DOUT)*%
X287874425Y-229428308D02*
X292150744Y-229428308D01*
X286251703Y-231051030D02*
X287874425Y-229428308D01*
%TO.N,Net-(D49-DOUT)*%
X294887024Y-221438924D02*
X298484239Y-221438924D01*
X292772456Y-223553492D02*
X294887024Y-221438924D01*
%TO.N,Net-(D71-DOUT)*%
X245899098Y-40885345D02*
X242317708Y-37303955D01*
X242317708Y-37303955D02*
X242317708Y-35912337D01*
%TO.N,Net-(D72-DOUT)*%
X236610292Y-37437263D02*
X232619195Y-33446166D01*
X232619195Y-33446166D02*
X232619195Y-32761719D01*
%TO.N,Net-(D73-DOUT)*%
X227008774Y-34778281D02*
X222711498Y-30481005D01*
X227066405Y-34778281D02*
X227008774Y-34778281D01*
%TO.N,Net-(D74-DOUT)*%
X217312902Y-32879995D02*
X213423617Y-28990710D01*
X213423617Y-28990710D02*
X212625784Y-28990710D01*
D95*
%TO.N,/Heater 1*%
X259500000Y-244000000D02*
X255500000Y-248000000D01*
X271500000Y-86000000D02*
X277500000Y-92000000D01*
X279500000Y-118000000D02*
X275500000Y-114000000D01*
X267500000Y-100000000D02*
X263500000Y-96000000D01*
X283500000Y-224000000D02*
X283500000Y-222000000D01*
X253500000Y-94000000D02*
X253500000Y-96000000D01*
X287500000Y-182000000D02*
X287500000Y-174000000D01*
X285500000Y-186000000D02*
X285500000Y-192000000D01*
X283500000Y-186000000D02*
X287500000Y-182000000D01*
X255500000Y-232000000D02*
X255500000Y-234000000D01*
X285500000Y-108000000D02*
X285500000Y-114000000D01*
X263500000Y-208000000D02*
X263500000Y-204000000D01*
X301500000Y-200000000D02*
X297500000Y-204000000D01*
X297500000Y-186000000D02*
X297500000Y-192000000D01*
X271500000Y-200000000D02*
X271500000Y-196000000D01*
X307500000Y-136000000D02*
X305500000Y-134000000D01*
X299500000Y-182000000D02*
X299500000Y-174000000D01*
X229500000Y-46000000D02*
X221500000Y-46000000D01*
X269500000Y-84000000D02*
X263500000Y-78000000D01*
X265500000Y-84000000D02*
X263500000Y-82000000D01*
X241500000Y-226000000D02*
X237500000Y-230000000D01*
X221500000Y-46000000D02*
X219500000Y-44000000D01*
X261500000Y-58000000D02*
X255500000Y-52000000D01*
X223500000Y-80000000D02*
X223500000Y-70000000D01*
X285500000Y-104000000D02*
X289500000Y-108000000D01*
X267500000Y-104000000D02*
X267500000Y-100000000D01*
X289500000Y-114000000D02*
X293500000Y-118000000D01*
X255500000Y-62000000D02*
X261500000Y-68000000D01*
X243500000Y-108000000D02*
X253500000Y-108000000D01*
X237500000Y-236000000D02*
X241500000Y-232000000D01*
X283500000Y-216000000D02*
X263500000Y-236000000D01*
X209500000Y-260000000D02*
X207500000Y-260000000D01*
X249500000Y-200000000D02*
X249500000Y-206000000D01*
X261500000Y-82000000D02*
X255500000Y-76000000D01*
X275500000Y-200000000D02*
X275500000Y-196000000D01*
X283500000Y-118000000D02*
X279500000Y-114000000D01*
X305500000Y-164000000D02*
X307500000Y-162000000D01*
X295500000Y-92000000D02*
X289500000Y-86000000D01*
X227500000Y-236000000D02*
X227500000Y-178000000D01*
X301500000Y-128000000D02*
X299500000Y-126000000D01*
X265500000Y-208000000D02*
X261500000Y-212000000D01*
X279500000Y-172000000D02*
X277500000Y-174000000D01*
X251500000Y-82000000D02*
X255500000Y-82000000D01*
X255500000Y-188000000D02*
X237500000Y-188000000D01*
X241500000Y-64000000D02*
X237500000Y-60000000D01*
X279500000Y-230000000D02*
X277500000Y-230000000D01*
X265500000Y-100000000D02*
X265500000Y-104000000D01*
X239500000Y-82000000D02*
X239500000Y-112000000D01*
X267500000Y-204000000D02*
X271500000Y-200000000D01*
X211500000Y-142000000D02*
X213500000Y-144000000D01*
X271500000Y-104000000D02*
X271500000Y-100000000D01*
X277500000Y-114000000D02*
X281500000Y-118000000D01*
X277500000Y-126000000D02*
X279500000Y-128000000D01*
X251500000Y-192000000D02*
X241500000Y-192000000D01*
X279500000Y-214000000D02*
X279500000Y-216000000D01*
X259500000Y-214000000D02*
X261500000Y-214000000D01*
X231500000Y-50000000D02*
X237500000Y-50000000D01*
X279500000Y-186000000D02*
X283500000Y-182000000D01*
X247500000Y-60000000D02*
X241500000Y-60000000D01*
X251500000Y-230000000D02*
X247500000Y-234000000D01*
X297500000Y-182000000D02*
X293500000Y-186000000D01*
X257500000Y-116000000D02*
X263500000Y-116000000D01*
X221500000Y-48000000D02*
X229500000Y-48000000D01*
X279500000Y-216000000D02*
X263500000Y-232000000D01*
X241500000Y-230000000D02*
X237500000Y-234000000D01*
X261500000Y-60000000D02*
X263500000Y-60000000D01*
X221500000Y-262000000D02*
X211500000Y-262000000D01*
X251500000Y-78000000D02*
X255500000Y-78000000D01*
X235500000Y-186000000D02*
X257500000Y-186000000D01*
X223500000Y-82000000D02*
X223500000Y-124000000D01*
X255500000Y-64000000D02*
X251500000Y-64000000D01*
X257500000Y-100000000D02*
X257500000Y-104000000D01*
X311500000Y-172000000D02*
X309500000Y-174000000D01*
X309500000Y-172000000D02*
X309500000Y-164000000D01*
X293500000Y-134000000D02*
X293500000Y-128000000D01*
X247500000Y-232000000D02*
X251500000Y-228000000D01*
X263500000Y-68000000D02*
X269500000Y-74000000D01*
X291500000Y-126000000D02*
X291500000Y-118000000D01*
X251500000Y-58000000D02*
X255500000Y-58000000D01*
X267500000Y-152000000D02*
X263500000Y-156000000D01*
X285500000Y-152000000D02*
X285500000Y-148000000D01*
X273500000Y-184000000D02*
X269500000Y-180000000D01*
X225500000Y-124000000D02*
X225500000Y-82000000D01*
X219500000Y-68000000D02*
X221500000Y-70000000D01*
X229500000Y-70000000D02*
X229500000Y-80000000D01*
X293500000Y-186000000D02*
X293500000Y-192000000D01*
X275500000Y-84000000D02*
X275500000Y-86000000D01*
X297500000Y-100000000D02*
X297500000Y-104000000D01*
X291500000Y-164000000D02*
X291500000Y-172000000D01*
X273500000Y-76000000D02*
X273500000Y-78000000D01*
X221500000Y-260000000D02*
X223500000Y-258000000D01*
X247500000Y-218000000D02*
X241500000Y-218000000D01*
X219500000Y-44000000D02*
X211500000Y-44000000D01*
X267500000Y-96000000D02*
X267500000Y-92000000D01*
X213500000Y-158000000D02*
X263500000Y-158000000D01*
X285500000Y-174000000D02*
X285500000Y-182000000D01*
X241500000Y-58000000D02*
X247500000Y-58000000D01*
X287500000Y-162000000D02*
X287500000Y-156000000D01*
X263500000Y-158000000D02*
X269500000Y-152000000D01*
X287500000Y-118000000D02*
X283500000Y-114000000D01*
X305500000Y-118000000D02*
X305500000Y-126000000D01*
X287500000Y-136000000D02*
X285500000Y-134000000D01*
X247500000Y-238000000D02*
X241500000Y-238000000D01*
X271500000Y-184000000D02*
X271500000Y-190000000D01*
X223500000Y-254000000D02*
X229500000Y-254000000D01*
X237500000Y-48000000D02*
X231500000Y-48000000D01*
X207500000Y-144000000D02*
X207500000Y-126000000D01*
X233500000Y-82000000D02*
X235500000Y-80000000D01*
X255500000Y-236000000D02*
X255500000Y-238000000D01*
X255500000Y-52000000D02*
X251500000Y-52000000D01*
X293500000Y-172000000D02*
X293500000Y-164000000D01*
X285500000Y-192000000D02*
X281500000Y-196000000D01*
X301500000Y-162000000D02*
X299500000Y-164000000D01*
X255500000Y-228000000D02*
X255500000Y-230000000D01*
X277500000Y-100000000D02*
X277500000Y-104000000D01*
X213500000Y-144000000D02*
X263500000Y-144000000D01*
X247500000Y-50000000D02*
X251500000Y-54000000D01*
X291500000Y-214000000D02*
X291500000Y-216000000D01*
X285500000Y-164000000D02*
X287500000Y-162000000D01*
X283500000Y-182000000D02*
X283500000Y-174000000D01*
X247500000Y-52000000D02*
X241500000Y-52000000D01*
X283500000Y-114000000D02*
X283500000Y-108000000D01*
X231500000Y-58000000D02*
X237500000Y-58000000D01*
X277500000Y-152000000D02*
X277500000Y-148000000D01*
X267500000Y-108000000D02*
X263500000Y-104000000D01*
X257500000Y-110000000D02*
X257500000Y-112000000D01*
X297500000Y-118000000D02*
X297500000Y-126000000D01*
X237500000Y-44000000D02*
X231500000Y-44000000D01*
X237500000Y-232000000D02*
X241500000Y-228000000D01*
X257500000Y-192000000D02*
X261500000Y-196000000D01*
X273500000Y-192000000D02*
X269500000Y-196000000D01*
X263500000Y-138000000D02*
X215500000Y-138000000D01*
X289500000Y-86000000D02*
X289500000Y-84000000D01*
X305500000Y-134000000D02*
X305500000Y-128000000D01*
X263500000Y-160000000D02*
X213500000Y-160000000D01*
X263500000Y-214000000D02*
X263500000Y-216000000D01*
X231500000Y-242000000D02*
X229500000Y-244000000D01*
X271500000Y-214000000D02*
X271500000Y-216000000D01*
X291500000Y-182000000D02*
X291500000Y-174000000D01*
X227500000Y-68000000D02*
X229500000Y-70000000D01*
X233500000Y-80000000D02*
X231500000Y-82000000D01*
X261500000Y-196000000D02*
X267500000Y-196000000D01*
X281500000Y-182000000D02*
X277500000Y-186000000D01*
X281500000Y-148000000D02*
X263500000Y-130000000D01*
X251500000Y-72000000D02*
X247500000Y-68000000D01*
X291500000Y-96000000D02*
X291500000Y-92000000D01*
X229500000Y-250000000D02*
X231500000Y-248000000D01*
X287500000Y-214000000D02*
X287500000Y-216000000D01*
X207500000Y-156000000D02*
X211500000Y-156000000D01*
X287500000Y-152000000D02*
X263500000Y-176000000D01*
X209500000Y-126000000D02*
X209500000Y-142000000D01*
X283500000Y-128000000D02*
X283500000Y-134000000D01*
X281500000Y-196000000D02*
X281500000Y-200000000D01*
X283500000Y-192000000D02*
X283500000Y-186000000D01*
X273500000Y-104000000D02*
X277500000Y-108000000D01*
X285500000Y-182000000D02*
X281500000Y-186000000D01*
X281500000Y-96000000D02*
X285500000Y-100000000D01*
X247500000Y-246000000D02*
X241500000Y-246000000D01*
X211500000Y-140000000D02*
X211500000Y-126000000D01*
X259500000Y-238000000D02*
X263500000Y-238000000D01*
X237500000Y-70000000D02*
X241500000Y-74000000D01*
X237500000Y-60000000D02*
X231500000Y-60000000D01*
X251500000Y-70000000D02*
X255500000Y-70000000D01*
X247500000Y-242000000D02*
X241500000Y-242000000D01*
X287500000Y-172000000D02*
X285500000Y-174000000D01*
X293500000Y-204000000D02*
X293500000Y-208000000D01*
X297500000Y-162000000D02*
X295500000Y-164000000D01*
X219500000Y-170000000D02*
X263500000Y-170000000D01*
X241500000Y-248000000D02*
X247500000Y-248000000D01*
X287500000Y-204000000D02*
X291500000Y-200000000D01*
X241500000Y-76000000D02*
X237500000Y-72000000D01*
X229500000Y-260000000D02*
X223500000Y-260000000D01*
X215500000Y-48000000D02*
X215500000Y-68000000D01*
X263500000Y-96000000D02*
X263500000Y-92000000D01*
X251500000Y-64000000D02*
X247500000Y-60000000D01*
X269500000Y-70000000D02*
X271500000Y-70000000D01*
X247500000Y-240000000D02*
X251500000Y-236000000D01*
X247500000Y-86000000D02*
X251500000Y-90000000D01*
X277500000Y-226000000D02*
X263500000Y-240000000D01*
X309500000Y-174000000D02*
X309500000Y-182000000D01*
X269500000Y-100000000D02*
X269500000Y-104000000D01*
X273500000Y-182000000D02*
X277500000Y-182000000D01*
X263500000Y-232000000D02*
X259500000Y-232000000D01*
X229500000Y-252000000D02*
X223500000Y-252000000D01*
X245500000Y-212000000D02*
X247500000Y-212000000D01*
X231500000Y-250000000D02*
X229500000Y-252000000D01*
X257500000Y-92000000D02*
X257500000Y-96000000D01*
X209500000Y-124000000D02*
X209500000Y-82000000D01*
X213500000Y-80000000D02*
X211500000Y-82000000D01*
X221500000Y-256000000D02*
X223500000Y-254000000D01*
X257500000Y-122000000D02*
X257500000Y-124000000D01*
X227500000Y-124000000D02*
X255500000Y-124000000D01*
X247500000Y-76000000D02*
X241500000Y-76000000D01*
X205500000Y-82000000D02*
X207500000Y-80000000D01*
X231500000Y-254000000D02*
X229500000Y-256000000D01*
X287500000Y-156000000D02*
X263500000Y-180000000D01*
X247500000Y-66000000D02*
X251500000Y-70000000D01*
X263500000Y-178000000D02*
X289500000Y-152000000D01*
X255500000Y-86000000D02*
X261500000Y-92000000D01*
X279500000Y-86000000D02*
X285500000Y-92000000D01*
X223500000Y-70000000D02*
X221500000Y-68000000D01*
X221500000Y-124000000D02*
X221500000Y-82000000D01*
X257500000Y-106000000D02*
X257500000Y-108000000D01*
X229500000Y-234000000D02*
X231500000Y-232000000D01*
X225500000Y-128000000D02*
X263500000Y-128000000D01*
X301500000Y-134000000D02*
X301500000Y-128000000D01*
X289500000Y-196000000D02*
X289500000Y-200000000D01*
X237500000Y-54000000D02*
X241500000Y-58000000D01*
X301500000Y-186000000D02*
X301500000Y-192000000D01*
X305500000Y-174000000D02*
X305500000Y-182000000D01*
X241500000Y-68000000D02*
X237500000Y-64000000D01*
X275500000Y-92000000D02*
X269500000Y-86000000D01*
X261500000Y-202000000D02*
X251500000Y-192000000D01*
X231500000Y-236000000D02*
X237500000Y-236000000D01*
X303500000Y-118000000D02*
X299500000Y-114000000D01*
X281500000Y-92000000D02*
X281500000Y-96000000D01*
X265500000Y-96000000D02*
X269500000Y-100000000D01*
X231500000Y-46000000D02*
X237500000Y-46000000D01*
X297500000Y-92000000D02*
X297500000Y-96000000D01*
X223500000Y-250000000D02*
X229500000Y-250000000D01*
X263500000Y-126000000D02*
X227500000Y-126000000D01*
X263500000Y-242000000D02*
X277500000Y-228000000D01*
X307500000Y-126000000D02*
X307500000Y-118000000D01*
X243500000Y-214000000D02*
X243500000Y-194000000D01*
X241500000Y-82000000D02*
X247500000Y-82000000D01*
X231500000Y-252000000D02*
X237500000Y-252000000D01*
X299500000Y-196000000D02*
X303500000Y-192000000D01*
X285500000Y-134000000D02*
X285500000Y-128000000D01*
X293500000Y-114000000D02*
X297500000Y-118000000D01*
X231500000Y-60000000D02*
X229500000Y-58000000D01*
X297500000Y-96000000D02*
X301500000Y-100000000D01*
X233500000Y-184000000D02*
X233500000Y-228000000D01*
X231500000Y-80000000D02*
X231500000Y-70000000D01*
X275500000Y-78000000D02*
X275500000Y-76000000D01*
X289500000Y-162000000D02*
X287500000Y-164000000D01*
X231500000Y-248000000D02*
X237500000Y-248000000D01*
X291500000Y-100000000D02*
X287500000Y-96000000D01*
X295500000Y-100000000D02*
X291500000Y-96000000D01*
X287500000Y-134000000D02*
X289500000Y-136000000D01*
X227500000Y-126000000D02*
X225500000Y-124000000D01*
X303500000Y-174000000D02*
X305500000Y-172000000D01*
X255500000Y-210000000D02*
X259500000Y-206000000D01*
X273500000Y-200000000D02*
X269500000Y-204000000D01*
X255500000Y-92000000D02*
X251500000Y-92000000D01*
X285500000Y-222000000D02*
X285500000Y-224000000D01*
X219500000Y-134000000D02*
X219500000Y-126000000D01*
X291500000Y-200000000D02*
X291500000Y-196000000D01*
X293500000Y-162000000D02*
X291500000Y-164000000D01*
X253500000Y-100000000D02*
X253500000Y-102000000D01*
X273500000Y-114000000D02*
X277500000Y-118000000D01*
X307500000Y-174000000D02*
X309500000Y-172000000D01*
X255500000Y-226000000D02*
X259500000Y-222000000D01*
X269500000Y-148000000D02*
X263500000Y-142000000D01*
X255500000Y-60000000D02*
X251500000Y-60000000D01*
X235500000Y-80000000D02*
X235500000Y-70000000D01*
X269500000Y-62000000D02*
X271500000Y-62000000D01*
X281500000Y-134000000D02*
X281500000Y-128000000D01*
X297500000Y-136000000D02*
X297500000Y-162000000D01*
X271500000Y-152000000D02*
X263500000Y-160000000D01*
X257500000Y-204000000D02*
X257500000Y-206000000D01*
X275500000Y-100000000D02*
X271500000Y-96000000D01*
X277500000Y-216000000D02*
X277500000Y-214000000D01*
X251500000Y-66000000D02*
X255500000Y-66000000D01*
X263500000Y-108000000D02*
X267500000Y-112000000D01*
X249500000Y-102000000D02*
X249500000Y-92000000D01*
X253500000Y-202000000D02*
X251500000Y-200000000D01*
X255500000Y-82000000D02*
X265500000Y-92000000D01*
X213500000Y-146000000D02*
X211500000Y-144000000D01*
X215500000Y-138000000D02*
X215500000Y-126000000D01*
X293500000Y-192000000D02*
X289500000Y-196000000D01*
X255500000Y-230000000D02*
X259500000Y-226000000D01*
X251500000Y-194000000D02*
X259500000Y-202000000D01*
X289500000Y-172000000D02*
X289500000Y-164000000D01*
X289500000Y-208000000D02*
X283500000Y-214000000D01*
X255500000Y-72000000D02*
X251500000Y-72000000D01*
X237500000Y-56000000D02*
X231500000Y-56000000D01*
X267500000Y-200000000D02*
X267500000Y-198000000D01*
X263500000Y-140000000D02*
X271500000Y-148000000D01*
X291500000Y-216000000D02*
X285500000Y-222000000D01*
X255500000Y-58000000D02*
X261500000Y-64000000D01*
X263500000Y-166000000D02*
X277500000Y-152000000D01*
X217500000Y-124000000D02*
X217500000Y-82000000D01*
X255500000Y-54000000D02*
X261500000Y-60000000D01*
X251500000Y-76000000D02*
X247500000Y-72000000D01*
X303500000Y-172000000D02*
X301500000Y-174000000D01*
X257500000Y-124000000D02*
X263500000Y-124000000D01*
X279500000Y-148000000D02*
X279500000Y-152000000D01*
X219500000Y-50000000D02*
X221500000Y-52000000D01*
X293500000Y-182000000D02*
X289500000Y-186000000D01*
X247500000Y-104000000D02*
X253500000Y-104000000D01*
X281500000Y-214000000D02*
X287500000Y-208000000D01*
X255500000Y-78000000D02*
X261500000Y-84000000D01*
X225500000Y-60000000D02*
X229500000Y-60000000D01*
X225500000Y-176000000D02*
X225500000Y-238000000D01*
X211500000Y-258000000D02*
X209500000Y-260000000D01*
X219500000Y-82000000D02*
X219500000Y-124000000D01*
X269500000Y-152000000D02*
X269500000Y-148000000D01*
X251500000Y-96000000D02*
X251500000Y-100000000D01*
X239500000Y-190000000D02*
X253500000Y-190000000D01*
X289500000Y-100000000D02*
X289500000Y-104000000D01*
X293500000Y-108000000D02*
X293500000Y-114000000D01*
X219500000Y-42000000D02*
X221500000Y-44000000D01*
X293500000Y-104000000D02*
X297500000Y-108000000D01*
X229500000Y-48000000D02*
X231500000Y-50000000D01*
X279500000Y-92000000D02*
X273500000Y-86000000D01*
X279500000Y-100000000D02*
X275500000Y-96000000D01*
X211500000Y-70000000D02*
X209500000Y-68000000D01*
X237500000Y-58000000D02*
X241500000Y-62000000D01*
X251500000Y-62000000D02*
X255500000Y-62000000D01*
X211500000Y-254000000D02*
X211500000Y-164000000D01*
X211500000Y-82000000D02*
X211500000Y-124000000D01*
X251500000Y-206000000D02*
X247500000Y-210000000D01*
X271500000Y-92000000D02*
X265500000Y-86000000D01*
X229500000Y-244000000D02*
X223500000Y-244000000D01*
X263500000Y-142000000D02*
X213500000Y-142000000D01*
X291500000Y-86000000D02*
X297500000Y-92000000D01*
X291500000Y-134000000D02*
X293500000Y-136000000D01*
X251500000Y-246000000D02*
X247500000Y-250000000D01*
X229500000Y-180000000D02*
X229500000Y-234000000D01*
X251500000Y-54000000D02*
X255500000Y-54000000D01*
X207500000Y-164000000D02*
X213500000Y-158000000D01*
X255500000Y-56000000D02*
X251500000Y-56000000D01*
X219500000Y-124000000D02*
X221500000Y-126000000D01*
X223500000Y-126000000D02*
X221500000Y-124000000D01*
X219500000Y-46000000D02*
X221500000Y-48000000D01*
X297500000Y-208000000D02*
X291500000Y-214000000D01*
X307500000Y-182000000D02*
X307500000Y-174000000D01*
X231500000Y-246000000D02*
X229500000Y-248000000D01*
X213500000Y-142000000D02*
X211500000Y-140000000D01*
X237500000Y-42000000D02*
X241500000Y-46000000D01*
X285500000Y-172000000D02*
X285500000Y-164000000D01*
X285500000Y-118000000D02*
X285500000Y-126000000D01*
X223500000Y-124000000D02*
X225500000Y-126000000D01*
X221500000Y-42000000D02*
X219500000Y-40000000D01*
X291500000Y-92000000D02*
X285500000Y-86000000D01*
X231500000Y-42000000D02*
X237500000Y-42000000D01*
X291500000Y-172000000D02*
X289500000Y-174000000D01*
X205500000Y-36000000D02*
X209500000Y-36000000D01*
X299500000Y-174000000D02*
X301500000Y-172000000D01*
X235500000Y-226000000D02*
X235500000Y-186000000D01*
X263500000Y-172000000D02*
X221500000Y-172000000D01*
X247500000Y-46000000D02*
X251500000Y-50000000D01*
X211500000Y-38000000D02*
X219500000Y-38000000D01*
X209500000Y-264000000D02*
X203500000Y-264000000D01*
X267500000Y-216000000D02*
X263500000Y-220000000D01*
X255500000Y-84000000D02*
X251500000Y-84000000D01*
X259500000Y-92000000D02*
X255500000Y-88000000D01*
X265500000Y-86000000D02*
X265500000Y-84000000D01*
X277500000Y-118000000D02*
X277500000Y-126000000D01*
X241500000Y-244000000D02*
X247500000Y-244000000D01*
X285500000Y-78000000D02*
X291500000Y-84000000D01*
X289500000Y-200000000D02*
X285500000Y-204000000D01*
X241500000Y-236000000D02*
X247500000Y-236000000D01*
X281500000Y-216000000D02*
X281500000Y-214000000D01*
X281500000Y-222000000D02*
X281500000Y-224000000D01*
X249500000Y-206000000D02*
X251500000Y-204000000D01*
X217500000Y-68000000D02*
X217500000Y-50000000D01*
X237500000Y-64000000D02*
X231500000Y-64000000D01*
X251500000Y-216000000D02*
X251500000Y-218000000D01*
X283500000Y-84000000D02*
X283500000Y-86000000D01*
X231500000Y-238000000D02*
X229500000Y-240000000D01*
X263500000Y-128000000D02*
X283500000Y-148000000D01*
X279500000Y-96000000D02*
X279500000Y-92000000D01*
X287500000Y-104000000D02*
X287500000Y-100000000D01*
X295500000Y-136000000D02*
X293500000Y-134000000D01*
X297500000Y-164000000D02*
X299500000Y-162000000D01*
X255500000Y-88000000D02*
X251500000Y-88000000D01*
X231500000Y-48000000D02*
X229500000Y-46000000D01*
X259500000Y-216000000D02*
X255500000Y-220000000D01*
X225500000Y-126000000D02*
X225500000Y-128000000D01*
X229500000Y-236000000D02*
X227500000Y-236000000D01*
X277500000Y-178000000D02*
X279500000Y-178000000D01*
X247500000Y-54000000D02*
X251500000Y-58000000D01*
X289500000Y-84000000D02*
X283500000Y-78000000D01*
X285500000Y-148000000D02*
X263500000Y-126000000D01*
X247500000Y-248000000D02*
X251500000Y-244000000D01*
X275500000Y-108000000D02*
X271500000Y-104000000D01*
X299500000Y-128000000D02*
X299500000Y-134000000D01*
X287500000Y-108000000D02*
X283500000Y-104000000D01*
X293500000Y-126000000D02*
X295500000Y-128000000D01*
X263500000Y-170000000D02*
X281500000Y-152000000D01*
X269500000Y-104000000D02*
X273500000Y-108000000D01*
X237500000Y-256000000D02*
X241500000Y-252000000D01*
X259500000Y-204000000D02*
X261500000Y-202000000D01*
X291500000Y-104000000D02*
X291500000Y-100000000D01*
X287500000Y-84000000D02*
X287500000Y-86000000D01*
X241500000Y-56000000D02*
X237500000Y-52000000D01*
X285500000Y-200000000D02*
X281500000Y-204000000D01*
X295500000Y-200000000D02*
X295500000Y-196000000D01*
X265500000Y-216000000D02*
X265500000Y-214000000D01*
X269500000Y-96000000D02*
X273500000Y-100000000D01*
X289500000Y-192000000D02*
X285500000Y-196000000D01*
X263500000Y-92000000D02*
X255500000Y-84000000D01*
X239500000Y-76000000D02*
X241500000Y-78000000D01*
X241500000Y-254000000D02*
X237500000Y-258000000D01*
X275500000Y-118000000D02*
X271500000Y-114000000D01*
X259500000Y-208000000D02*
X255500000Y-212000000D01*
X263500000Y-74000000D02*
X261500000Y-74000000D01*
X229500000Y-42000000D02*
X221500000Y-42000000D01*
X211500000Y-256000000D02*
X221500000Y-256000000D01*
X219500000Y-80000000D02*
X219500000Y-70000000D01*
X257500000Y-96000000D02*
X261500000Y-100000000D01*
X295500000Y-114000000D02*
X295500000Y-108000000D01*
X247500000Y-234000000D02*
X241500000Y-234000000D01*
X277500000Y-228000000D02*
X279500000Y-228000000D01*
X277500000Y-96000000D02*
X281500000Y-100000000D01*
X253500000Y-248000000D02*
X253500000Y-202000000D01*
X247500000Y-74000000D02*
X251500000Y-78000000D01*
X229500000Y-240000000D02*
X223500000Y-240000000D01*
X291500000Y-108000000D02*
X287500000Y-104000000D01*
X217500000Y-136000000D02*
X263500000Y-136000000D01*
X263500000Y-116000000D02*
X281500000Y-134000000D01*
X221500000Y-258000000D02*
X211500000Y-258000000D01*
X207500000Y-124000000D02*
X209500000Y-126000000D01*
X231500000Y-82000000D02*
X231500000Y-120000000D01*
X283500000Y-196000000D02*
X287500000Y-192000000D01*
X301500000Y-104000000D02*
X305500000Y-108000000D01*
X227500000Y-70000000D02*
X225500000Y-68000000D01*
X271500000Y-208000000D02*
X271500000Y-204000000D01*
X243500000Y-84000000D02*
X243500000Y-108000000D01*
X211500000Y-262000000D02*
X209500000Y-264000000D01*
X229500000Y-80000000D02*
X227500000Y-82000000D01*
X279500000Y-104000000D02*
X279500000Y-100000000D01*
X289500000Y-182000000D02*
X285500000Y-186000000D01*
X309500000Y-128000000D02*
X307500000Y-126000000D01*
X295500000Y-182000000D02*
X295500000Y-174000000D01*
X237500000Y-50000000D02*
X241500000Y-54000000D01*
X205500000Y-162000000D02*
X205500000Y-262000000D01*
X221500000Y-252000000D02*
X223500000Y-250000000D01*
X237500000Y-66000000D02*
X241500000Y-70000000D01*
X261500000Y-74000000D02*
X255500000Y-68000000D01*
X213500000Y-160000000D02*
X209500000Y-164000000D01*
X237500000Y-248000000D02*
X241500000Y-244000000D01*
X261500000Y-200000000D02*
X265500000Y-200000000D01*
X277500000Y-108000000D02*
X277500000Y-114000000D01*
X251500000Y-244000000D02*
X251500000Y-246000000D01*
X259500000Y-240000000D02*
X255500000Y-244000000D01*
X263500000Y-174000000D02*
X285500000Y-152000000D01*
X229500000Y-258000000D02*
X231500000Y-256000000D01*
X275500000Y-214000000D02*
X275500000Y-216000000D01*
X307500000Y-172000000D02*
X305500000Y-174000000D01*
X241500000Y-70000000D02*
X247500000Y-70000000D01*
X285500000Y-140000000D02*
X263500000Y-118000000D01*
X303500000Y-162000000D02*
X303500000Y-136000000D01*
X295500000Y-128000000D02*
X295500000Y-134000000D01*
X303500000Y-164000000D02*
X303500000Y-172000000D01*
X204000000Y-149500000D02*
X207500000Y-153000000D01*
X263500000Y-82000000D02*
X261500000Y-82000000D01*
X223500000Y-240000000D02*
X223500000Y-174000000D01*
X237500000Y-252000000D02*
X241500000Y-248000000D01*
X273500000Y-152000000D02*
X273500000Y-148000000D01*
X221500000Y-68000000D02*
X221500000Y-56000000D01*
X231500000Y-44000000D02*
X229500000Y-42000000D01*
X283500000Y-100000000D02*
X279500000Y-96000000D01*
X271500000Y-64000000D02*
X269500000Y-64000000D01*
X247500000Y-222000000D02*
X241500000Y-222000000D01*
X263500000Y-70000000D02*
X261500000Y-70000000D01*
X219500000Y-246000000D02*
X219500000Y-170000000D01*
X299500000Y-108000000D02*
X295500000Y-104000000D01*
X259500000Y-96000000D02*
X259500000Y-92000000D01*
X247500000Y-58000000D02*
X251500000Y-62000000D01*
X305500000Y-108000000D02*
X305500000Y-114000000D01*
X311500000Y-164000000D02*
X311500000Y-172000000D01*
X247500000Y-62000000D02*
X251500000Y-66000000D01*
X285500000Y-86000000D02*
X285500000Y-84000000D01*
X263500000Y-244000000D02*
X259500000Y-244000000D01*
X263500000Y-144000000D02*
X267500000Y-148000000D01*
X207500000Y-162000000D02*
X205500000Y-162000000D01*
X247500000Y-78000000D02*
X251500000Y-82000000D01*
X259500000Y-222000000D02*
X263500000Y-222000000D01*
X255500000Y-242000000D02*
X259500000Y-238000000D01*
X221500000Y-56000000D02*
X229500000Y-56000000D01*
X273500000Y-214000000D02*
X279500000Y-208000000D01*
X239500000Y-80000000D02*
X239500000Y-76000000D01*
X297500000Y-104000000D02*
X301500000Y-108000000D01*
X221500000Y-44000000D02*
X229500000Y-44000000D01*
X251500000Y-218000000D02*
X247500000Y-222000000D01*
X255500000Y-208000000D02*
X255500000Y-210000000D01*
X237500000Y-82000000D02*
X239500000Y-80000000D01*
X247500000Y-254000000D02*
X241500000Y-254000000D01*
X293500000Y-136000000D02*
X293500000Y-162000000D01*
X247500000Y-226000000D02*
X241500000Y-226000000D01*
X209500000Y-68000000D02*
X209500000Y-40000000D01*
X209500000Y-80000000D02*
X207500000Y-82000000D01*
X255500000Y-90000000D02*
X257500000Y-92000000D01*
X259500000Y-100000000D02*
X255500000Y-96000000D01*
X267500000Y-148000000D02*
X267500000Y-152000000D01*
X287500000Y-126000000D02*
X287500000Y-118000000D01*
X289500000Y-152000000D02*
X289500000Y-162000000D01*
X263500000Y-240000000D02*
X259500000Y-240000000D01*
X263500000Y-56000000D02*
X269500000Y-62000000D01*
X229500000Y-58000000D02*
X223500000Y-58000000D01*
X285500000Y-214000000D02*
X291500000Y-208000000D01*
X261500000Y-194000000D02*
X259500000Y-192000000D01*
X303500000Y-136000000D02*
X301500000Y-134000000D01*
X251500000Y-228000000D02*
X251500000Y-230000000D01*
X289500000Y-108000000D02*
X289500000Y-114000000D01*
X281500000Y-172000000D02*
X281500000Y-166000000D01*
X213500000Y-154000000D02*
X263500000Y-154000000D01*
X261500000Y-100000000D02*
X261500000Y-104000000D01*
X263500000Y-218000000D02*
X265500000Y-216000000D01*
X209500000Y-82000000D02*
X211500000Y-80000000D01*
X297500000Y-196000000D02*
X297500000Y-200000000D01*
X303500000Y-108000000D02*
X299500000Y-104000000D01*
X309500000Y-136000000D02*
X309500000Y-162000000D01*
X241500000Y-72000000D02*
X237500000Y-68000000D01*
X217500000Y-82000000D02*
X219500000Y-80000000D01*
X259500000Y-242000000D02*
X263500000Y-242000000D01*
X241500000Y-222000000D02*
X237500000Y-226000000D01*
X207500000Y-126000000D02*
X205500000Y-124000000D01*
X269500000Y-204000000D02*
X269500000Y-208000000D01*
X301500000Y-172000000D02*
X301500000Y-164000000D01*
X305500000Y-114000000D02*
X309500000Y-118000000D01*
X271500000Y-72000000D02*
X269500000Y-72000000D01*
X247500000Y-80000000D02*
X241500000Y-80000000D01*
X251500000Y-92000000D02*
X247500000Y-88000000D01*
X247500000Y-82000000D02*
X251500000Y-86000000D01*
X289500000Y-186000000D02*
X289500000Y-192000000D01*
X221500000Y-132000000D02*
X263500000Y-132000000D01*
X209500000Y-262000000D02*
X211500000Y-260000000D01*
X263500000Y-180000000D02*
X229500000Y-180000000D01*
X251500000Y-222000000D02*
X247500000Y-226000000D01*
X293500000Y-92000000D02*
X293500000Y-96000000D01*
X241500000Y-110000000D02*
X241500000Y-82000000D01*
X229500000Y-60000000D02*
X231500000Y-62000000D01*
X265500000Y-204000000D02*
X265500000Y-208000000D01*
X275500000Y-76000000D02*
X271500000Y-72000000D01*
X209500000Y-36000000D02*
X211500000Y-38000000D01*
X217500000Y-80000000D02*
X215500000Y-82000000D01*
X255500000Y-70000000D02*
X261500000Y-76000000D01*
X301500000Y-182000000D02*
X297500000Y-186000000D01*
X213500000Y-140000000D02*
X263500000Y-140000000D01*
X301500000Y-108000000D02*
X301500000Y-114000000D01*
X223500000Y-174000000D02*
X263500000Y-174000000D01*
X309500000Y-162000000D02*
X307500000Y-164000000D01*
X295500000Y-174000000D02*
X297500000Y-172000000D01*
X311500000Y-134000000D02*
X313500000Y-136000000D01*
X259500000Y-192000000D02*
X259500000Y-184000000D01*
X257500000Y-104000000D02*
X259500000Y-104000000D01*
X253500000Y-110000000D02*
X241500000Y-110000000D01*
X279500000Y-126000000D02*
X279500000Y-118000000D01*
X247500000Y-64000000D02*
X241500000Y-64000000D01*
X271500000Y-236000000D02*
X271500000Y-238000000D01*
X279500000Y-128000000D02*
X279500000Y-130000000D01*
X263500000Y-154000000D02*
X265500000Y-152000000D01*
X213500000Y-70000000D02*
X213500000Y-80000000D01*
X309500000Y-118000000D02*
X309500000Y-126000000D01*
X213500000Y-126000000D02*
X213500000Y-140000000D01*
X295500000Y-96000000D02*
X295500000Y-92000000D01*
X255500000Y-80000000D02*
X251500000Y-80000000D01*
X259500000Y-212000000D02*
X255500000Y-216000000D01*
X291500000Y-162000000D02*
X291500000Y-136000000D01*
X289500000Y-118000000D02*
X289500000Y-126000000D01*
X285500000Y-208000000D02*
X279500000Y-214000000D01*
X237500000Y-80000000D02*
X235500000Y-82000000D01*
X281500000Y-192000000D02*
X277500000Y-196000000D01*
X219500000Y-70000000D02*
X217500000Y-68000000D01*
X251500000Y-196000000D02*
X245500000Y-196000000D01*
X207500000Y-68000000D02*
X209500000Y-70000000D01*
X271500000Y-196000000D02*
X275500000Y-192000000D01*
X263500000Y-164000000D02*
X213500000Y-164000000D01*
X275500000Y-176000000D02*
X271500000Y-180000000D01*
X279500000Y-170000000D02*
X279500000Y-172000000D01*
X279500000Y-108000000D02*
X275500000Y-104000000D01*
X289500000Y-136000000D02*
X289500000Y-148000000D01*
X271500000Y-66000000D02*
X281500000Y-76000000D01*
X287500000Y-86000000D02*
X293500000Y-92000000D01*
X279500000Y-228000000D02*
X283500000Y-224000000D01*
X265500000Y-200000000D02*
X261500000Y-204000000D01*
X277500000Y-174000000D02*
X277500000Y-178000000D01*
X237500000Y-238000000D02*
X231500000Y-238000000D01*
X295500000Y-126000000D02*
X295500000Y-118000000D01*
X221500000Y-54000000D02*
X219500000Y-52000000D01*
X297500000Y-174000000D02*
X297500000Y-182000000D01*
X209500000Y-70000000D02*
X209500000Y-80000000D01*
X295500000Y-118000000D02*
X291500000Y-114000000D01*
X255500000Y-192000000D02*
X255500000Y-188000000D01*
X269500000Y-182000000D02*
X271500000Y-184000000D01*
X281500000Y-104000000D02*
X285500000Y-108000000D01*
X279500000Y-180000000D02*
X275500000Y-180000000D01*
X251500000Y-250000000D02*
X247500000Y-254000000D01*
X237500000Y-52000000D02*
X231500000Y-52000000D01*
X269500000Y-180000000D02*
X279500000Y-170000000D01*
X283500000Y-96000000D02*
X283500000Y-92000000D01*
X301500000Y-164000000D02*
X303500000Y-162000000D01*
X291500000Y-174000000D02*
X293500000Y-172000000D01*
X285500000Y-204000000D02*
X285500000Y-208000000D01*
X295500000Y-204000000D02*
X299500000Y-200000000D01*
X259500000Y-232000000D02*
X255500000Y-236000000D01*
X259500000Y-104000000D02*
X259500000Y-100000000D01*
X213500000Y-156000000D02*
X207500000Y-162000000D01*
X277500000Y-84000000D02*
X271500000Y-78000000D01*
X255500000Y-76000000D02*
X251500000Y-76000000D01*
X271500000Y-216000000D02*
X263500000Y-224000000D01*
X261500000Y-56000000D02*
X263500000Y-56000000D01*
X213500000Y-68000000D02*
X213500000Y-46000000D01*
X291500000Y-208000000D02*
X291500000Y-204000000D01*
X251500000Y-80000000D02*
X247500000Y-76000000D01*
X295500000Y-186000000D02*
X299500000Y-182000000D01*
X295500000Y-208000000D02*
X295500000Y-204000000D01*
X271500000Y-180000000D02*
X273500000Y-182000000D01*
X237500000Y-68000000D02*
X231500000Y-68000000D01*
X295500000Y-196000000D02*
X299500000Y-192000000D01*
X273500000Y-96000000D02*
X277500000Y-100000000D01*
X231500000Y-68000000D02*
X233500000Y-70000000D01*
X275500000Y-152000000D02*
X263500000Y-164000000D01*
X205500000Y-68000000D02*
X205500000Y-36000000D01*
X255500000Y-202000000D02*
X255500000Y-204000000D01*
X247500000Y-84000000D02*
X243500000Y-84000000D01*
X309500000Y-182000000D02*
X305500000Y-186000000D01*
X271500000Y-238000000D02*
X269500000Y-238000000D01*
X251500000Y-212000000D02*
X251500000Y-214000000D01*
X305500000Y-128000000D02*
X303500000Y-126000000D01*
X251500000Y-94000000D02*
X253500000Y-94000000D01*
X299500000Y-114000000D02*
X299500000Y-108000000D01*
X223500000Y-244000000D02*
X221500000Y-246000000D01*
X243500000Y-194000000D02*
X251500000Y-194000000D01*
X241500000Y-246000000D02*
X237500000Y-250000000D01*
X263500000Y-236000000D02*
X259500000Y-236000000D01*
X255500000Y-100000000D02*
X251500000Y-96000000D01*
X257500000Y-202000000D02*
X251500000Y-196000000D01*
X275500000Y-204000000D02*
X279500000Y-200000000D01*
X287500000Y-114000000D02*
X287500000Y-108000000D01*
X229500000Y-256000000D02*
X223500000Y-256000000D01*
X225500000Y-68000000D02*
X225500000Y-60000000D01*
X277500000Y-214000000D02*
X283500000Y-208000000D01*
X227500000Y-80000000D02*
X227500000Y-70000000D01*
X291500000Y-114000000D02*
X291500000Y-108000000D01*
X271500000Y-74000000D02*
X273500000Y-76000000D01*
X285500000Y-160000000D02*
X285500000Y-162000000D01*
X263500000Y-124000000D02*
X287500000Y-148000000D01*
X299500000Y-200000000D02*
X299500000Y-196000000D01*
X291500000Y-186000000D02*
X295500000Y-182000000D01*
X259500000Y-206000000D02*
X259500000Y-204000000D01*
X265500000Y-182000000D02*
X269500000Y-182000000D01*
X239500000Y-220000000D02*
X239500000Y-190000000D01*
X271500000Y-108000000D02*
X267500000Y-104000000D01*
X211500000Y-44000000D02*
X211500000Y-68000000D01*
X291500000Y-128000000D02*
X291500000Y-134000000D01*
X265500000Y-92000000D02*
X265500000Y-96000000D01*
X291500000Y-136000000D02*
X289500000Y-134000000D01*
X295500000Y-164000000D02*
X295500000Y-172000000D01*
X263500000Y-134000000D02*
X219500000Y-134000000D01*
X263500000Y-72000000D02*
X275500000Y-84000000D01*
X263500000Y-216000000D02*
X259500000Y-216000000D01*
X261500000Y-80000000D02*
X263500000Y-80000000D01*
X287500000Y-128000000D02*
X287500000Y-134000000D01*
X213500000Y-252000000D02*
X221500000Y-252000000D01*
X241500000Y-74000000D02*
X247500000Y-74000000D01*
X285500000Y-224000000D02*
X279500000Y-230000000D01*
X285500000Y-196000000D02*
X285500000Y-200000000D01*
X229500000Y-50000000D02*
X221500000Y-50000000D01*
X289500000Y-216000000D02*
X289500000Y-214000000D01*
X267500000Y-92000000D02*
X255500000Y-80000000D01*
X255500000Y-214000000D02*
X259500000Y-210000000D01*
X225500000Y-82000000D02*
X227500000Y-80000000D01*
X251500000Y-210000000D02*
X247500000Y-214000000D01*
X229500000Y-44000000D02*
X231500000Y-46000000D01*
X253500000Y-122000000D02*
X229500000Y-122000000D01*
X255500000Y-96000000D02*
X255500000Y-92000000D01*
X231500000Y-62000000D02*
X237500000Y-62000000D01*
X223500000Y-130000000D02*
X223500000Y-126000000D01*
X283500000Y-214000000D02*
X283500000Y-216000000D01*
X257500000Y-206000000D02*
X255500000Y-208000000D01*
X251500000Y-208000000D02*
X251500000Y-210000000D01*
X235500000Y-70000000D02*
X237500000Y-70000000D01*
X259500000Y-202000000D02*
X257500000Y-204000000D01*
X309500000Y-164000000D02*
X311500000Y-162000000D01*
X297500000Y-108000000D02*
X297500000Y-114000000D01*
X287500000Y-192000000D02*
X287500000Y-186000000D01*
X281500000Y-208000000D02*
X275500000Y-214000000D01*
X273500000Y-118000000D02*
X273500000Y-120000000D01*
X259500000Y-228000000D02*
X255500000Y-232000000D01*
X279500000Y-84000000D02*
X279500000Y-86000000D01*
X289500000Y-104000000D02*
X293500000Y-108000000D01*
X297500000Y-172000000D02*
X297500000Y-164000000D01*
X301500000Y-196000000D02*
X301500000Y-200000000D01*
X279500000Y-78000000D02*
X279500000Y-76000000D01*
X205500000Y-262000000D02*
X209500000Y-262000000D01*
X263500000Y-162000000D02*
X273500000Y-152000000D01*
X257500000Y-112000000D02*
X263500000Y-112000000D01*
X311500000Y-136000000D02*
X309500000Y-134000000D01*
X241500000Y-224000000D02*
X247500000Y-224000000D01*
X303500000Y-126000000D02*
X303500000Y-118000000D01*
X213500000Y-162000000D02*
X263500000Y-162000000D01*
X217500000Y-70000000D02*
X217500000Y-80000000D01*
X279500000Y-152000000D02*
X263500000Y-168000000D01*
X277500000Y-86000000D02*
X277500000Y-84000000D01*
X299500000Y-118000000D02*
X295500000Y-114000000D01*
X287500000Y-186000000D02*
X291500000Y-182000000D01*
X271500000Y-84000000D02*
X271500000Y-86000000D01*
X301500000Y-174000000D02*
X301500000Y-182000000D01*
X237500000Y-258000000D02*
X231500000Y-258000000D01*
X237500000Y-224000000D02*
X241500000Y-220000000D01*
X255500000Y-246000000D02*
X259500000Y-242000000D01*
X255500000Y-50000000D02*
X261500000Y-56000000D01*
X261500000Y-78000000D02*
X255500000Y-72000000D01*
X255500000Y-66000000D02*
X261500000Y-72000000D01*
X277500000Y-196000000D02*
X277500000Y-200000000D01*
X233500000Y-228000000D02*
X237500000Y-228000000D01*
X255500000Y-124000000D02*
X255500000Y-100000000D01*
X299500000Y-164000000D02*
X299500000Y-172000000D01*
X263500000Y-112000000D02*
X275500000Y-124000000D01*
X263500000Y-136000000D02*
X275500000Y-148000000D01*
X281500000Y-108000000D02*
X281500000Y-114000000D01*
X287500000Y-164000000D02*
X287500000Y-172000000D01*
X229500000Y-64000000D02*
X231500000Y-66000000D01*
X213500000Y-46000000D02*
X219500000Y-46000000D01*
X231500000Y-70000000D02*
X229500000Y-68000000D01*
X269500000Y-108000000D02*
X269500000Y-114000000D01*
X287500000Y-100000000D02*
X283500000Y-96000000D01*
X283500000Y-164000000D02*
X283500000Y-172000000D01*
X291500000Y-84000000D02*
X291500000Y-86000000D01*
X291500000Y-196000000D02*
X295500000Y-192000000D01*
X285500000Y-216000000D02*
X285500000Y-214000000D01*
X241500000Y-250000000D02*
X237500000Y-254000000D01*
X311500000Y-128000000D02*
X311500000Y-134000000D01*
X251500000Y-200000000D02*
X251500000Y-200000000D01*
X261500000Y-208000000D02*
X259500000Y-208000000D01*
X263500000Y-228000000D02*
X259500000Y-228000000D01*
X251500000Y-224000000D02*
X251500000Y-226000000D01*
X303500000Y-114000000D02*
X303500000Y-108000000D01*
X231500000Y-52000000D02*
X229500000Y-50000000D01*
X233500000Y-70000000D02*
X233500000Y-80000000D01*
X221500000Y-40000000D02*
X229500000Y-40000000D01*
X251500000Y-234000000D02*
X247500000Y-238000000D01*
X229500000Y-56000000D02*
X231500000Y-58000000D01*
X271500000Y-62000000D02*
X285500000Y-76000000D01*
X247500000Y-230000000D02*
X241500000Y-230000000D01*
X251500000Y-204000000D02*
X251500000Y-206000000D01*
X299500000Y-192000000D02*
X299500000Y-186000000D01*
X261500000Y-92000000D02*
X261500000Y-96000000D01*
X237500000Y-62000000D02*
X241500000Y-66000000D01*
X289500000Y-214000000D02*
X295500000Y-208000000D01*
X259500000Y-220000000D02*
X255500000Y-224000000D01*
X225500000Y-70000000D02*
X225500000Y-80000000D01*
X265500000Y-152000000D02*
X265500000Y-148000000D01*
X259500000Y-236000000D02*
X255500000Y-240000000D01*
X237500000Y-228000000D02*
X241500000Y-224000000D01*
X247500000Y-210000000D02*
X247500000Y-198000000D01*
X211500000Y-156000000D02*
X213500000Y-154000000D01*
X251500000Y-240000000D02*
X251500000Y-242000000D01*
X299500000Y-186000000D02*
X303500000Y-182000000D01*
X257500000Y-186000000D02*
X257500000Y-192000000D01*
X259500000Y-230000000D02*
X263500000Y-230000000D01*
X283500000Y-78000000D02*
X283500000Y-76000000D01*
X259500000Y-224000000D02*
X255500000Y-228000000D01*
X209500000Y-258000000D02*
X211500000Y-256000000D01*
X297500000Y-200000000D02*
X293500000Y-204000000D01*
X277500000Y-192000000D02*
X273500000Y-196000000D01*
X253500000Y-112000000D02*
X253500000Y-114000000D01*
X283500000Y-204000000D02*
X287500000Y-200000000D01*
X241500000Y-60000000D02*
X237500000Y-56000000D01*
X251500000Y-232000000D02*
X251500000Y-234000000D01*
X263500000Y-122000000D02*
X257500000Y-122000000D01*
X219500000Y-52000000D02*
X219500000Y-68000000D01*
X301500000Y-100000000D02*
X301500000Y-104000000D01*
X215500000Y-126000000D02*
X213500000Y-124000000D01*
X253500000Y-96000000D02*
X257500000Y-100000000D01*
X283500000Y-200000000D02*
X283500000Y-196000000D01*
X211500000Y-42000000D02*
X219500000Y-42000000D01*
X229500000Y-40000000D02*
X231500000Y-42000000D01*
X289500000Y-204000000D02*
X289500000Y-208000000D01*
X279500000Y-196000000D02*
X283500000Y-192000000D01*
X247500000Y-236000000D02*
X251500000Y-232000000D01*
X249500000Y-92000000D02*
X251500000Y-94000000D01*
X269500000Y-72000000D02*
X263500000Y-66000000D01*
X255500000Y-212000000D02*
X255500000Y-214000000D01*
X237500000Y-246000000D02*
X231500000Y-246000000D01*
X251500000Y-90000000D02*
X255500000Y-90000000D01*
X279500000Y-174000000D02*
X281500000Y-172000000D01*
X235500000Y-82000000D02*
X235500000Y-116000000D01*
X223500000Y-256000000D02*
X221500000Y-258000000D01*
X263500000Y-238000000D02*
X277500000Y-224000000D01*
X285500000Y-114000000D02*
X289500000Y-118000000D01*
X217500000Y-50000000D02*
X219500000Y-50000000D01*
X207500000Y-80000000D02*
X207500000Y-70000000D01*
X245500000Y-86000000D02*
X247500000Y-86000000D01*
X263500000Y-84000000D02*
X263500000Y-86000000D01*
X263500000Y-182000000D02*
X285500000Y-160000000D01*
X237500000Y-244000000D02*
X241500000Y-240000000D01*
X271500000Y-68000000D02*
X269500000Y-68000000D01*
X263500000Y-222000000D02*
X269500000Y-216000000D01*
X247500000Y-244000000D02*
X251500000Y-240000000D01*
X295500000Y-162000000D02*
X295500000Y-136000000D01*
X269500000Y-64000000D02*
X263500000Y-58000000D01*
X231500000Y-54000000D02*
X237500000Y-54000000D01*
X257500000Y-120000000D02*
X263500000Y-120000000D01*
X241500000Y-192000000D02*
X241500000Y-216000000D01*
X261500000Y-84000000D02*
X263500000Y-84000000D01*
X273500000Y-108000000D02*
X273500000Y-114000000D01*
X219500000Y-40000000D02*
X211500000Y-40000000D01*
X285500000Y-84000000D02*
X279500000Y-78000000D01*
X283500000Y-152000000D02*
X263500000Y-172000000D01*
X275500000Y-104000000D02*
X275500000Y-100000000D01*
X229500000Y-238000000D02*
X231500000Y-236000000D01*
X241500000Y-66000000D02*
X247500000Y-66000000D01*
X269500000Y-114000000D02*
X273500000Y-118000000D01*
X275500000Y-192000000D02*
X275500000Y-186000000D01*
X289500000Y-92000000D02*
X289500000Y-96000000D01*
X313500000Y-162000000D02*
X311500000Y-164000000D01*
X215500000Y-82000000D02*
X215500000Y-124000000D01*
X215500000Y-68000000D02*
X217500000Y-70000000D01*
X275500000Y-96000000D02*
X275500000Y-92000000D01*
X223500000Y-252000000D02*
X221500000Y-254000000D01*
X273500000Y-84000000D02*
X263500000Y-74000000D01*
X271500000Y-78000000D02*
X271500000Y-76000000D01*
X271500000Y-148000000D02*
X271500000Y-152000000D01*
X209500000Y-40000000D02*
X211500000Y-42000000D01*
X261500000Y-66000000D02*
X255500000Y-60000000D01*
X241500000Y-52000000D02*
X237500000Y-48000000D01*
X253500000Y-192000000D02*
X261500000Y-200000000D01*
X263500000Y-156000000D02*
X213500000Y-156000000D01*
X287500000Y-144000000D02*
X287500000Y-136000000D01*
X281500000Y-224000000D02*
X279500000Y-226000000D01*
X263500000Y-100000000D02*
X259500000Y-96000000D01*
X263500000Y-76000000D02*
X271500000Y-84000000D01*
X283500000Y-76000000D02*
X271500000Y-64000000D01*
X253500000Y-190000000D02*
X253500000Y-192000000D01*
X273500000Y-208000000D02*
X267500000Y-214000000D01*
X273500000Y-216000000D02*
X273500000Y-214000000D01*
X259500000Y-234000000D02*
X263500000Y-234000000D01*
X279500000Y-208000000D02*
X279500000Y-204000000D01*
X215500000Y-250000000D02*
X215500000Y-166000000D01*
X221500000Y-248000000D02*
X223500000Y-246000000D01*
X277500000Y-186000000D02*
X277500000Y-192000000D01*
X279500000Y-224000000D02*
X279500000Y-222000000D01*
X253500000Y-118000000D02*
X233500000Y-118000000D01*
X209500000Y-38000000D02*
X207500000Y-38000000D01*
X207500000Y-38000000D02*
X207500000Y-68000000D01*
X261500000Y-62000000D02*
X255500000Y-56000000D01*
X237500000Y-230000000D02*
X231500000Y-230000000D01*
X277500000Y-224000000D02*
X279500000Y-224000000D01*
X207500000Y-153000000D02*
X207500000Y-156000000D01*
X233500000Y-118000000D02*
X233500000Y-82000000D01*
X263500000Y-234000000D02*
X281500000Y-216000000D01*
X237500000Y-234000000D02*
X231500000Y-234000000D01*
X289500000Y-174000000D02*
X289500000Y-182000000D01*
X269500000Y-200000000D02*
X265500000Y-204000000D01*
X259500000Y-210000000D02*
X261500000Y-210000000D01*
X285500000Y-100000000D02*
X285500000Y-104000000D01*
X229500000Y-122000000D02*
X229500000Y-82000000D01*
X305500000Y-186000000D02*
X305500000Y-192000000D01*
X223500000Y-260000000D02*
X221500000Y-262000000D01*
X219500000Y-38000000D02*
X221500000Y-40000000D01*
X247500000Y-224000000D02*
X251500000Y-220000000D01*
X229500000Y-248000000D02*
X223500000Y-248000000D01*
X287500000Y-92000000D02*
X281500000Y-86000000D01*
X247500000Y-214000000D02*
X243500000Y-214000000D01*
X305500000Y-182000000D02*
X301500000Y-186000000D01*
X281500000Y-200000000D02*
X277500000Y-204000000D01*
X285500000Y-92000000D02*
X285500000Y-96000000D01*
X303500000Y-134000000D02*
X305500000Y-136000000D01*
X267500000Y-198000000D02*
X261500000Y-198000000D01*
X309500000Y-134000000D02*
X309500000Y-128000000D01*
X273500000Y-190000000D02*
X273500000Y-192000000D01*
X289500000Y-148000000D02*
X263500000Y-122000000D01*
X293500000Y-96000000D02*
X297500000Y-100000000D01*
X217500000Y-126000000D02*
X217500000Y-136000000D01*
X229500000Y-246000000D02*
X231500000Y-244000000D01*
X247500000Y-70000000D02*
X251500000Y-74000000D01*
X275500000Y-86000000D02*
X281500000Y-92000000D01*
X273500000Y-92000000D02*
X273500000Y-96000000D01*
X263500000Y-62000000D02*
X261500000Y-62000000D01*
X221500000Y-52000000D02*
X229500000Y-52000000D01*
X295500000Y-108000000D02*
X291500000Y-104000000D01*
X273500000Y-86000000D02*
X273500000Y-84000000D01*
X253500000Y-104000000D02*
X253500000Y-106000000D01*
X269500000Y-86000000D02*
X269500000Y-84000000D01*
X231500000Y-64000000D02*
X229500000Y-62000000D01*
X247500000Y-252000000D02*
X251500000Y-248000000D01*
X203500000Y-264000000D02*
X203500000Y-156500000D01*
X241500000Y-48000000D02*
X237500000Y-44000000D01*
X213500000Y-164000000D02*
X213500000Y-252000000D01*
X247500000Y-212000000D02*
X251500000Y-208000000D01*
X223500000Y-242000000D02*
X229500000Y-242000000D01*
X251500000Y-56000000D02*
X247500000Y-52000000D01*
X251500000Y-68000000D02*
X247500000Y-64000000D01*
X231500000Y-234000000D02*
X229500000Y-236000000D01*
X275500000Y-196000000D02*
X279500000Y-192000000D01*
X297500000Y-114000000D02*
X301500000Y-118000000D01*
X255500000Y-248000000D02*
X253500000Y-248000000D01*
X255500000Y-224000000D02*
X255500000Y-226000000D01*
X301500000Y-192000000D02*
X297500000Y-196000000D01*
X221500000Y-80000000D02*
X219500000Y-82000000D01*
X277500000Y-104000000D02*
X281500000Y-108000000D01*
X203500000Y-156500000D02*
X204000000Y-156000000D01*
X211500000Y-68000000D02*
X213500000Y-70000000D01*
X231500000Y-232000000D02*
X237500000Y-232000000D01*
X255500000Y-244000000D02*
X255500000Y-246000000D01*
X273500000Y-196000000D02*
X273500000Y-200000000D01*
X283500000Y-86000000D02*
X289500000Y-92000000D01*
X263500000Y-132000000D02*
X279500000Y-148000000D01*
X221500000Y-172000000D02*
X221500000Y-244000000D01*
X299500000Y-100000000D02*
X295500000Y-96000000D01*
X231500000Y-56000000D02*
X229500000Y-54000000D01*
X251500000Y-50000000D02*
X255500000Y-50000000D01*
X299500000Y-162000000D02*
X299500000Y-136000000D01*
X253500000Y-116000000D02*
X253500000Y-118000000D01*
X307500000Y-162000000D02*
X307500000Y-136000000D01*
X273500000Y-204000000D02*
X273500000Y-208000000D01*
X221500000Y-254000000D02*
X211500000Y-254000000D01*
X247500000Y-68000000D02*
X241500000Y-68000000D01*
X287500000Y-200000000D02*
X287500000Y-196000000D01*
X301500000Y-114000000D02*
X305500000Y-118000000D01*
X265500000Y-214000000D02*
X271500000Y-208000000D01*
X291500000Y-192000000D02*
X291500000Y-186000000D01*
X291500000Y-204000000D02*
X295500000Y-200000000D01*
X277500000Y-76000000D02*
X277500000Y-78000000D01*
X283500000Y-92000000D02*
X277500000Y-86000000D01*
X263500000Y-104000000D02*
X263500000Y-100000000D01*
X313500000Y-136000000D02*
X313500000Y-162000000D01*
X247500000Y-72000000D02*
X241500000Y-72000000D01*
X245500000Y-106000000D02*
X245500000Y-86000000D01*
X261500000Y-76000000D02*
X263500000Y-76000000D01*
X255500000Y-220000000D02*
X255500000Y-222000000D01*
X283500000Y-104000000D02*
X283500000Y-100000000D01*
X263500000Y-64000000D02*
X269500000Y-70000000D01*
X277500000Y-92000000D02*
X277500000Y-96000000D01*
X263500000Y-78000000D02*
X261500000Y-78000000D01*
X273500000Y-100000000D02*
X273500000Y-104000000D01*
X305500000Y-136000000D02*
X305500000Y-162000000D01*
X277500000Y-208000000D02*
X271500000Y-214000000D01*
X237500000Y-226000000D02*
X235500000Y-226000000D01*
X283500000Y-148000000D02*
X283500000Y-152000000D01*
X295500000Y-172000000D02*
X293500000Y-174000000D01*
X261500000Y-68000000D02*
X263500000Y-68000000D01*
X221500000Y-82000000D02*
X223500000Y-80000000D01*
X221500000Y-244000000D02*
X223500000Y-242000000D01*
X273500000Y-186000000D02*
X273500000Y-184000000D01*
X271500000Y-190000000D02*
X267500000Y-194000000D01*
X291500000Y-118000000D02*
X287500000Y-114000000D01*
X289500000Y-128000000D02*
X287500000Y-126000000D01*
X281500000Y-78000000D02*
X287500000Y-84000000D01*
X211500000Y-260000000D02*
X221500000Y-260000000D01*
X279500000Y-222000000D02*
X285500000Y-216000000D01*
X221500000Y-246000000D02*
X219500000Y-246000000D01*
X285500000Y-126000000D02*
X287500000Y-128000000D01*
X241500000Y-62000000D02*
X247500000Y-62000000D01*
X275500000Y-186000000D02*
X279500000Y-182000000D01*
X227500000Y-178000000D02*
X263500000Y-178000000D01*
X261500000Y-96000000D02*
X265500000Y-100000000D01*
X269500000Y-68000000D02*
X263500000Y-62000000D01*
X219500000Y-126000000D02*
X217500000Y-124000000D01*
X297500000Y-204000000D02*
X297500000Y-208000000D01*
X241500000Y-220000000D02*
X247500000Y-220000000D01*
X207500000Y-82000000D02*
X207500000Y-124000000D01*
X277500000Y-230000000D02*
X271500000Y-236000000D01*
X217500000Y-168000000D02*
X217500000Y-248000000D01*
X241500000Y-252000000D02*
X247500000Y-252000000D01*
X245500000Y-196000000D02*
X245500000Y-212000000D01*
X231500000Y-256000000D02*
X237500000Y-256000000D01*
X223500000Y-246000000D02*
X229500000Y-246000000D01*
X279500000Y-114000000D02*
X279500000Y-108000000D01*
X293500000Y-118000000D02*
X293500000Y-126000000D01*
X281500000Y-118000000D02*
X281500000Y-126000000D01*
X297500000Y-128000000D02*
X295500000Y-126000000D01*
X293500000Y-196000000D02*
X293500000Y-200000000D01*
X251500000Y-88000000D02*
X247500000Y-84000000D01*
X269500000Y-196000000D02*
X269500000Y-200000000D01*
X251500000Y-236000000D02*
X251500000Y-238000000D01*
X287500000Y-148000000D02*
X287500000Y-152000000D01*
X237500000Y-254000000D02*
X231500000Y-254000000D01*
X281500000Y-126000000D02*
X283500000Y-128000000D01*
X259500000Y-218000000D02*
X263500000Y-218000000D01*
X223500000Y-68000000D02*
X225500000Y-70000000D01*
X297500000Y-192000000D02*
X293500000Y-196000000D01*
X237500000Y-250000000D02*
X231500000Y-250000000D01*
X263500000Y-226000000D02*
X273500000Y-216000000D01*
X285500000Y-128000000D02*
X283500000Y-126000000D01*
X305500000Y-172000000D02*
X305500000Y-164000000D01*
X307500000Y-118000000D02*
X303500000Y-114000000D01*
X279500000Y-130000000D02*
X263500000Y-114000000D01*
X205500000Y-124000000D02*
X205500000Y-82000000D01*
X269500000Y-208000000D02*
X263500000Y-214000000D01*
X269500000Y-92000000D02*
X269500000Y-96000000D01*
X237500000Y-240000000D02*
X241500000Y-236000000D01*
X275500000Y-208000000D02*
X275500000Y-204000000D01*
X263500000Y-58000000D02*
X261500000Y-58000000D01*
X211500000Y-126000000D02*
X209500000Y-124000000D01*
X283500000Y-134000000D02*
X285500000Y-136000000D01*
X305500000Y-126000000D02*
X307500000Y-128000000D01*
X283500000Y-172000000D02*
X281500000Y-174000000D01*
X211500000Y-124000000D02*
X213500000Y-126000000D01*
X263500000Y-60000000D02*
X269500000Y-66000000D01*
X253500000Y-120000000D02*
X253500000Y-122000000D01*
X263500000Y-230000000D02*
X277500000Y-216000000D01*
X253500000Y-108000000D02*
X253500000Y-110000000D01*
X257500000Y-114000000D02*
X257500000Y-116000000D01*
X281500000Y-86000000D02*
X281500000Y-84000000D01*
X285500000Y-76000000D02*
X285500000Y-78000000D01*
X281500000Y-152000000D02*
X281500000Y-148000000D01*
X299500000Y-172000000D02*
X297500000Y-174000000D01*
X207500000Y-260000000D02*
X207500000Y-164000000D01*
X271500000Y-204000000D02*
X275500000Y-200000000D01*
X241500000Y-218000000D02*
X239500000Y-220000000D01*
X273500000Y-78000000D02*
X279500000Y-84000000D01*
X263500000Y-204000000D02*
X267500000Y-200000000D01*
X263500000Y-130000000D02*
X223500000Y-130000000D01*
X253500000Y-102000000D02*
X249500000Y-102000000D01*
X311500000Y-162000000D02*
X311500000Y-136000000D01*
X295500000Y-104000000D02*
X295500000Y-100000000D01*
X235500000Y-116000000D02*
X253500000Y-116000000D01*
X241500000Y-234000000D02*
X237500000Y-238000000D01*
X251500000Y-74000000D02*
X255500000Y-74000000D01*
X247500000Y-228000000D02*
X251500000Y-224000000D01*
X221500000Y-250000000D02*
X215500000Y-250000000D01*
X293500000Y-100000000D02*
X293500000Y-104000000D01*
X281500000Y-114000000D02*
X285500000Y-118000000D01*
X247500000Y-48000000D02*
X241500000Y-48000000D01*
X263500000Y-80000000D02*
X267500000Y-84000000D01*
X255500000Y-234000000D02*
X259500000Y-230000000D01*
X241500000Y-80000000D02*
X239500000Y-82000000D01*
X293500000Y-200000000D02*
X289500000Y-204000000D01*
X215500000Y-124000000D02*
X217500000Y-126000000D01*
X267500000Y-194000000D02*
X261500000Y-194000000D01*
X237500000Y-72000000D02*
X237500000Y-80000000D01*
X283500000Y-108000000D02*
X279500000Y-104000000D01*
X267500000Y-112000000D02*
X267500000Y-108000000D01*
X213500000Y-124000000D02*
X213500000Y-82000000D01*
X281500000Y-174000000D02*
X281500000Y-182000000D01*
X223500000Y-248000000D02*
X221500000Y-250000000D01*
X277500000Y-78000000D02*
X283500000Y-84000000D01*
X231500000Y-182000000D02*
X263500000Y-182000000D01*
X271500000Y-96000000D02*
X271500000Y-92000000D01*
X251500000Y-198000000D02*
X255500000Y-202000000D01*
X251500000Y-100000000D02*
X253500000Y-100000000D01*
X251500000Y-248000000D02*
X251500000Y-250000000D01*
X303500000Y-182000000D02*
X303500000Y-174000000D01*
X241500000Y-78000000D02*
X247500000Y-78000000D01*
X247500000Y-250000000D02*
X241500000Y-250000000D01*
X229500000Y-82000000D02*
X231500000Y-80000000D01*
X275500000Y-148000000D02*
X275500000Y-152000000D01*
X263500000Y-86000000D02*
X269500000Y-92000000D01*
X251500000Y-52000000D02*
X247500000Y-48000000D01*
X281500000Y-84000000D02*
X275500000Y-78000000D01*
X307500000Y-134000000D02*
X309500000Y-136000000D01*
X281500000Y-166000000D02*
X265500000Y-182000000D01*
X237500000Y-114000000D02*
X237500000Y-82000000D01*
X269500000Y-74000000D02*
X271500000Y-74000000D01*
X265500000Y-148000000D02*
X263500000Y-146000000D01*
X267500000Y-214000000D02*
X267500000Y-216000000D01*
X269500000Y-76000000D02*
X263500000Y-70000000D01*
X263500000Y-120000000D02*
X287500000Y-144000000D01*
X279500000Y-200000000D02*
X279500000Y-196000000D01*
X247500000Y-198000000D02*
X251500000Y-198000000D01*
X293500000Y-164000000D02*
X295500000Y-162000000D01*
X275500000Y-114000000D02*
X275500000Y-108000000D01*
X275500000Y-180000000D02*
X275500000Y-176000000D01*
X251500000Y-238000000D02*
X247500000Y-242000000D01*
X267500000Y-196000000D02*
X273500000Y-190000000D01*
X223500000Y-258000000D02*
X229500000Y-258000000D01*
X229500000Y-254000000D02*
X231500000Y-252000000D01*
X231500000Y-230000000D02*
X231500000Y-182000000D01*
X277500000Y-148000000D02*
X263500000Y-134000000D01*
X269500000Y-238000000D02*
X263500000Y-244000000D01*
X261500000Y-198000000D02*
X255500000Y-192000000D01*
X261500000Y-210000000D02*
X263500000Y-208000000D01*
X229500000Y-68000000D02*
X229500000Y-64000000D01*
X279500000Y-178000000D02*
X279500000Y-174000000D01*
X293500000Y-174000000D02*
X293500000Y-182000000D01*
X303500000Y-192000000D02*
X303500000Y-186000000D01*
X215500000Y-70000000D02*
X213500000Y-68000000D01*
X295500000Y-134000000D02*
X297500000Y-136000000D01*
X251500000Y-242000000D02*
X247500000Y-246000000D01*
X263500000Y-110000000D02*
X257500000Y-110000000D01*
X271500000Y-76000000D02*
X269500000Y-76000000D01*
X225500000Y-238000000D02*
X229500000Y-238000000D01*
X215500000Y-166000000D02*
X263500000Y-166000000D01*
X263500000Y-220000000D02*
X259500000Y-220000000D01*
X281500000Y-100000000D02*
X281500000Y-104000000D01*
X253500000Y-114000000D02*
X237500000Y-114000000D01*
X227500000Y-62000000D02*
X227500000Y-68000000D01*
X247500000Y-56000000D02*
X241500000Y-56000000D01*
X283500000Y-174000000D02*
X285500000Y-172000000D01*
X271500000Y-100000000D02*
X267500000Y-96000000D01*
X269500000Y-214000000D02*
X275500000Y-208000000D01*
X255500000Y-204000000D02*
X257500000Y-202000000D01*
X261500000Y-204000000D02*
X261500000Y-208000000D01*
X231500000Y-66000000D02*
X237500000Y-66000000D01*
X229500000Y-54000000D02*
X221500000Y-54000000D01*
X209500000Y-164000000D02*
X209500000Y-258000000D01*
X257500000Y-108000000D02*
X263500000Y-108000000D01*
X287500000Y-216000000D02*
X281500000Y-222000000D01*
X241500000Y-46000000D02*
X247500000Y-46000000D01*
X281500000Y-76000000D02*
X281500000Y-78000000D01*
X309500000Y-126000000D02*
X311500000Y-128000000D01*
X285500000Y-96000000D02*
X289500000Y-100000000D01*
X299500000Y-126000000D02*
X299500000Y-118000000D01*
X241500000Y-232000000D02*
X247500000Y-232000000D01*
X255500000Y-74000000D02*
X261500000Y-80000000D01*
X251500000Y-226000000D02*
X247500000Y-230000000D01*
X231500000Y-240000000D02*
X237500000Y-240000000D01*
X271500000Y-114000000D02*
X271500000Y-108000000D01*
X241500000Y-238000000D02*
X237500000Y-242000000D01*
X293500000Y-208000000D02*
X287500000Y-214000000D01*
X251500000Y-200000000D02*
X249500000Y-200000000D01*
X255500000Y-240000000D02*
X255500000Y-242000000D01*
X263500000Y-146000000D02*
X213500000Y-146000000D01*
X211500000Y-144000000D02*
X207500000Y-144000000D01*
X307500000Y-164000000D02*
X307500000Y-172000000D01*
X229500000Y-62000000D02*
X227500000Y-62000000D01*
X301500000Y-126000000D02*
X303500000Y-128000000D01*
X231500000Y-120000000D02*
X253500000Y-120000000D01*
X279500000Y-204000000D02*
X283500000Y-200000000D01*
X305500000Y-192000000D02*
X301500000Y-196000000D01*
X287500000Y-174000000D02*
X289500000Y-172000000D01*
X211500000Y-40000000D02*
X209500000Y-38000000D01*
X297500000Y-134000000D02*
X297500000Y-128000000D01*
X261500000Y-104000000D02*
X263500000Y-106000000D01*
X299500000Y-104000000D02*
X299500000Y-100000000D01*
X247500000Y-220000000D02*
X251500000Y-216000000D01*
X211500000Y-80000000D02*
X211500000Y-70000000D01*
X221500000Y-50000000D02*
X219500000Y-48000000D01*
X289500000Y-96000000D02*
X293500000Y-100000000D01*
X293500000Y-128000000D02*
X291500000Y-126000000D01*
X267500000Y-208000000D02*
X267500000Y-204000000D01*
X303500000Y-128000000D02*
X303500000Y-134000000D01*
X263500000Y-176000000D02*
X225500000Y-176000000D01*
X241500000Y-216000000D02*
X247500000Y-216000000D01*
X241500000Y-240000000D02*
X247500000Y-240000000D01*
X289500000Y-164000000D02*
X291500000Y-162000000D01*
X297500000Y-126000000D02*
X299500000Y-128000000D01*
X299500000Y-136000000D02*
X297500000Y-134000000D01*
X223500000Y-58000000D02*
X223500000Y-68000000D01*
X239500000Y-112000000D02*
X253500000Y-112000000D01*
X277500000Y-204000000D02*
X277500000Y-208000000D01*
X303500000Y-186000000D02*
X307500000Y-182000000D01*
X241500000Y-50000000D02*
X247500000Y-50000000D01*
X263500000Y-66000000D02*
X261500000Y-66000000D01*
X255500000Y-218000000D02*
X259500000Y-214000000D01*
X269500000Y-66000000D02*
X271500000Y-66000000D01*
X209500000Y-142000000D02*
X211500000Y-142000000D01*
X285500000Y-136000000D02*
X285500000Y-140000000D01*
X227500000Y-82000000D02*
X227500000Y-124000000D01*
X255500000Y-222000000D02*
X259500000Y-218000000D01*
X281500000Y-204000000D02*
X281500000Y-208000000D01*
X279500000Y-192000000D02*
X279500000Y-186000000D01*
X279500000Y-76000000D02*
X271500000Y-68000000D01*
X221500000Y-70000000D02*
X221500000Y-80000000D01*
X289500000Y-126000000D02*
X291500000Y-128000000D01*
X265500000Y-104000000D02*
X269500000Y-108000000D01*
X263500000Y-118000000D02*
X257500000Y-118000000D01*
X251500000Y-84000000D02*
X247500000Y-80000000D01*
X237500000Y-188000000D02*
X237500000Y-224000000D01*
X261500000Y-214000000D02*
X267500000Y-208000000D01*
X241500000Y-54000000D02*
X247500000Y-54000000D01*
X277500000Y-182000000D02*
X273500000Y-186000000D01*
X281500000Y-186000000D02*
X281500000Y-192000000D01*
X281500000Y-128000000D02*
X279500000Y-126000000D01*
X289500000Y-134000000D02*
X289500000Y-128000000D01*
X211500000Y-164000000D02*
X213500000Y-162000000D01*
X217500000Y-248000000D02*
X221500000Y-248000000D01*
X251500000Y-220000000D02*
X251500000Y-222000000D01*
X307500000Y-128000000D02*
X307500000Y-134000000D01*
X273500000Y-148000000D02*
X263500000Y-138000000D01*
X263500000Y-114000000D02*
X257500000Y-114000000D01*
X229500000Y-242000000D02*
X231500000Y-240000000D01*
X247500000Y-216000000D02*
X251500000Y-212000000D01*
X261500000Y-212000000D02*
X259500000Y-212000000D01*
X299500000Y-134000000D02*
X301500000Y-136000000D01*
X257500000Y-118000000D02*
X257500000Y-120000000D01*
X261500000Y-72000000D02*
X263500000Y-72000000D01*
X267500000Y-84000000D02*
X267500000Y-86000000D01*
X277500000Y-200000000D02*
X273500000Y-204000000D01*
X263500000Y-224000000D02*
X259500000Y-224000000D01*
X283500000Y-222000000D02*
X289500000Y-216000000D01*
X225500000Y-80000000D02*
X223500000Y-82000000D01*
X279500000Y-226000000D02*
X277500000Y-226000000D01*
X251500000Y-60000000D02*
X247500000Y-56000000D01*
X269500000Y-216000000D02*
X269500000Y-214000000D01*
X255500000Y-238000000D02*
X259500000Y-234000000D01*
X261500000Y-64000000D02*
X263500000Y-64000000D01*
X231500000Y-258000000D02*
X229500000Y-260000000D01*
X253500000Y-106000000D02*
X245500000Y-106000000D01*
X283500000Y-208000000D02*
X283500000Y-204000000D01*
X251500000Y-214000000D02*
X247500000Y-218000000D01*
X305500000Y-162000000D02*
X303500000Y-164000000D01*
X301500000Y-136000000D02*
X301500000Y-162000000D01*
X275500000Y-124000000D02*
X275500000Y-118000000D01*
X279500000Y-182000000D02*
X279500000Y-180000000D01*
X283500000Y-126000000D02*
X283500000Y-118000000D01*
X251500000Y-86000000D02*
X255500000Y-86000000D01*
X231500000Y-244000000D02*
X237500000Y-244000000D01*
X255500000Y-216000000D02*
X255500000Y-218000000D01*
X267500000Y-86000000D02*
X273500000Y-92000000D01*
X275500000Y-216000000D02*
X263500000Y-228000000D01*
X263500000Y-106000000D02*
X257500000Y-106000000D01*
X259500000Y-184000000D02*
X233500000Y-184000000D01*
X229500000Y-52000000D02*
X231500000Y-54000000D01*
X259500000Y-226000000D02*
X263500000Y-226000000D01*
X287500000Y-196000000D02*
X291500000Y-192000000D01*
X287500000Y-96000000D02*
X287500000Y-92000000D01*
X241500000Y-228000000D02*
X247500000Y-228000000D01*
X273500000Y-120000000D02*
X263500000Y-110000000D01*
X285500000Y-162000000D02*
X283500000Y-164000000D01*
X215500000Y-80000000D02*
X215500000Y-70000000D01*
X271500000Y-70000000D02*
X277500000Y-76000000D01*
X287500000Y-208000000D02*
X287500000Y-204000000D01*
X301500000Y-118000000D02*
X301500000Y-126000000D01*
X219500000Y-48000000D02*
X215500000Y-48000000D01*
X255500000Y-68000000D02*
X251500000Y-68000000D01*
X295500000Y-192000000D02*
X295500000Y-186000000D01*
X221500000Y-126000000D02*
X221500000Y-132000000D01*
X213500000Y-82000000D02*
X215500000Y-80000000D01*
X237500000Y-242000000D02*
X231500000Y-242000000D01*
X207500000Y-70000000D02*
X205500000Y-68000000D01*
X247500000Y-88000000D02*
X247500000Y-104000000D01*
X237500000Y-46000000D02*
X241500000Y-50000000D01*
X241500000Y-242000000D02*
X237500000Y-246000000D01*
X263500000Y-168000000D02*
X217500000Y-168000000D01*
X261500000Y-70000000D02*
X255500000Y-64000000D01*
D96*
%TO.N,/Heater 2*%
X140000000Y-74000000D02*
X144000000Y-74000000D01*
X148000000Y-110000000D02*
X136000000Y-110000000D01*
X118000000Y-104000000D02*
X118000000Y-110000000D01*
X164000000Y-222000000D02*
X164000000Y-204000000D01*
X106000000Y-186000000D02*
X110000000Y-190000000D01*
X130000000Y-200000000D02*
X130000000Y-204000000D01*
X158000000Y-220000000D02*
X154000000Y-216000000D01*
X172000000Y-84000000D02*
X172000000Y-120000000D01*
X92000000Y-142000000D02*
X92000000Y-158000000D01*
X114000000Y-120000000D02*
X112000000Y-122000000D01*
X120000000Y-216000000D02*
X120000000Y-218000000D01*
X150000000Y-58000000D02*
X144000000Y-64000000D01*
X140000000Y-202000000D02*
X148000000Y-194000000D01*
X108000000Y-132000000D02*
X110000000Y-130000000D01*
X114000000Y-92000000D02*
X110000000Y-96000000D01*
X142000000Y-202000000D02*
X142000000Y-204000000D01*
X92000000Y-140000000D02*
X92000000Y-132000000D01*
X146000000Y-204000000D02*
X148000000Y-206000000D01*
X132000000Y-76000000D02*
X134000000Y-76000000D01*
X100000000Y-104000000D02*
X104000000Y-100000000D01*
X184000000Y-248000000D02*
X184000000Y-204000000D01*
X126000000Y-72000000D02*
X124000000Y-72000000D01*
X132000000Y-236000000D02*
X126000000Y-230000000D01*
X150000000Y-124000000D02*
X150000000Y-94000000D01*
X128000000Y-104000000D02*
X132000000Y-100000000D01*
X148000000Y-246000000D02*
X154000000Y-246000000D01*
X90000000Y-122000000D02*
X92000000Y-120000000D01*
X188000000Y-124000000D02*
X188000000Y-134000000D01*
X144000000Y-204000000D02*
X144000000Y-202000000D01*
X154000000Y-200000000D02*
X148000000Y-200000000D01*
X136000000Y-140000000D02*
X182000000Y-140000000D01*
X182000000Y-204000000D02*
X182000000Y-246000000D01*
X100000000Y-160000000D02*
X98000000Y-158000000D01*
X124000000Y-210000000D02*
X124000000Y-208000000D01*
X196000000Y-84000000D02*
X196000000Y-120000000D01*
X188000000Y-162000000D02*
X186000000Y-160000000D01*
X186000000Y-144000000D02*
X186000000Y-140000000D01*
X128000000Y-208000000D02*
X124000000Y-204000000D01*
X136000000Y-168000000D02*
X120000000Y-152000000D01*
X114000000Y-88000000D02*
X114000000Y-92000000D01*
X152000000Y-204000000D02*
X148000000Y-204000000D01*
X114000000Y-110000000D02*
X110000000Y-114000000D01*
X182000000Y-124000000D02*
X186000000Y-120000000D01*
X194000000Y-84000000D02*
X190000000Y-80000000D01*
X110000000Y-210000000D02*
X116000000Y-216000000D01*
X122000000Y-228000000D02*
X122000000Y-226000000D01*
X156000000Y-84000000D02*
X154000000Y-86000000D01*
X124000000Y-66000000D02*
X126000000Y-66000000D01*
X158000000Y-222000000D02*
X164000000Y-222000000D01*
X118000000Y-228000000D02*
X118000000Y-226000000D01*
X178000000Y-56000000D02*
X176000000Y-56000000D01*
X172000000Y-124000000D02*
X172000000Y-126000000D01*
X128000000Y-110000000D02*
X128000000Y-104000000D01*
X148000000Y-244000000D02*
X142000000Y-238000000D01*
X124000000Y-186000000D02*
X124000000Y-180000000D01*
X98000000Y-180000000D02*
X98000000Y-186000000D01*
X100000000Y-178000000D02*
X102000000Y-180000000D01*
X158000000Y-46000000D02*
X154000000Y-50000000D01*
X188000000Y-80000000D02*
X192000000Y-84000000D01*
X88000000Y-142000000D02*
X88000000Y-158000000D01*
X144000000Y-72000000D02*
X140000000Y-72000000D01*
X112000000Y-152000000D02*
X112000000Y-148000000D01*
X108000000Y-200000000D02*
X104000000Y-196000000D01*
X174000000Y-178000000D02*
X174000000Y-200000000D01*
X158000000Y-84000000D02*
X156000000Y-84000000D01*
X116000000Y-218000000D02*
X124000000Y-226000000D01*
X142000000Y-234000000D02*
X140000000Y-234000000D01*
X106000000Y-208000000D02*
X106000000Y-210000000D01*
X96000000Y-132000000D02*
X98000000Y-130000000D01*
X136000000Y-90000000D02*
X140000000Y-86000000D01*
X138000000Y-90000000D02*
X138000000Y-92000000D01*
X126000000Y-196000000D02*
X130000000Y-200000000D01*
X112000000Y-148000000D02*
X136000000Y-124000000D01*
X150000000Y-94000000D02*
X146000000Y-98000000D01*
X126000000Y-176000000D02*
X128000000Y-176000000D01*
X100000000Y-120000000D02*
X100000000Y-114000000D01*
X174000000Y-62000000D02*
X172000000Y-64000000D01*
X164000000Y-46000000D02*
X158000000Y-46000000D01*
X136000000Y-92000000D02*
X136000000Y-90000000D01*
X90000000Y-168000000D02*
X92000000Y-170000000D01*
X118000000Y-226000000D02*
X110000000Y-218000000D01*
X186000000Y-70000000D02*
X190000000Y-66000000D01*
X144000000Y-88000000D02*
X140000000Y-88000000D01*
X156000000Y-106000000D02*
X152000000Y-106000000D01*
X142000000Y-224000000D02*
X148000000Y-230000000D01*
X154000000Y-56000000D02*
X158000000Y-52000000D01*
X132000000Y-240000000D02*
X126000000Y-234000000D01*
X100000000Y-140000000D02*
X100000000Y-132000000D01*
X196000000Y-36000000D02*
X196000000Y-66000000D01*
X116000000Y-190000000D02*
X112000000Y-186000000D01*
X134000000Y-236000000D02*
X132000000Y-236000000D01*
X144000000Y-90000000D02*
X150000000Y-84000000D01*
X140000000Y-228000000D02*
X142000000Y-228000000D01*
X136000000Y-108000000D02*
X148000000Y-108000000D01*
X164000000Y-68000000D02*
X166000000Y-66000000D01*
X180000000Y-84000000D02*
X180000000Y-120000000D01*
X192000000Y-204000000D02*
X190000000Y-204000000D01*
X154000000Y-74000000D02*
X150000000Y-74000000D01*
X124000000Y-178000000D02*
X126000000Y-180000000D01*
X108000000Y-210000000D02*
X108000000Y-208000000D01*
X124000000Y-218000000D02*
X132000000Y-226000000D01*
X120000000Y-74000000D02*
X124000000Y-70000000D01*
X154000000Y-230000000D02*
X158000000Y-234000000D01*
X142000000Y-220000000D02*
X148000000Y-226000000D01*
X122000000Y-114000000D02*
X122000000Y-120000000D01*
X136000000Y-100000000D02*
X136000000Y-96000000D01*
X140000000Y-224000000D02*
X142000000Y-224000000D01*
X126000000Y-68000000D02*
X124000000Y-68000000D01*
X166000000Y-48000000D02*
X164000000Y-50000000D01*
X108000000Y-142000000D02*
X108000000Y-158000000D01*
X112000000Y-130000000D02*
X110000000Y-132000000D01*
X148000000Y-196000000D02*
X142000000Y-202000000D01*
X116000000Y-148000000D02*
X136000000Y-128000000D01*
X92000000Y-114000000D02*
X96000000Y-110000000D01*
X164000000Y-48000000D02*
X166000000Y-46000000D01*
X92000000Y-122000000D02*
X92000000Y-130000000D01*
X176000000Y-40000000D02*
X172000000Y-44000000D01*
X168000000Y-70000000D02*
X168000000Y-80000000D01*
X136000000Y-144000000D02*
X186000000Y-144000000D01*
X192000000Y-258000000D02*
X176000000Y-258000000D01*
X132000000Y-74000000D02*
X118000000Y-88000000D01*
X132000000Y-238000000D02*
X134000000Y-238000000D01*
X134000000Y-148000000D02*
X134000000Y-152000000D01*
X110000000Y-218000000D02*
X110000000Y-216000000D01*
X134000000Y-60000000D02*
X138000000Y-56000000D01*
X130000000Y-88000000D02*
X130000000Y-92000000D01*
X176000000Y-256000000D02*
X192000000Y-256000000D01*
X154000000Y-62000000D02*
X150000000Y-62000000D01*
X176000000Y-250000000D02*
X172000000Y-246000000D01*
X122000000Y-96000000D02*
X122000000Y-100000000D01*
X104000000Y-168000000D02*
X104000000Y-160000000D01*
X172000000Y-58000000D02*
X176000000Y-54000000D01*
X158000000Y-76000000D02*
X160000000Y-76000000D01*
X126000000Y-190000000D02*
X126000000Y-196000000D01*
X148000000Y-234000000D02*
X154000000Y-234000000D01*
X168000000Y-184000000D02*
X140000000Y-184000000D01*
X126000000Y-210000000D02*
X132000000Y-216000000D01*
X112000000Y-114000000D02*
X116000000Y-110000000D01*
X132000000Y-222000000D02*
X134000000Y-222000000D01*
X150000000Y-70000000D02*
X144000000Y-76000000D01*
X118000000Y-92000000D02*
X114000000Y-96000000D01*
X114000000Y-216000000D02*
X108000000Y-210000000D01*
X106000000Y-158000000D02*
X106000000Y-142000000D01*
X138000000Y-100000000D02*
X134000000Y-104000000D01*
X148000000Y-248000000D02*
X142000000Y-242000000D01*
X116000000Y-92000000D02*
X116000000Y-88000000D01*
X154000000Y-86000000D02*
X150000000Y-86000000D01*
X176000000Y-258000000D02*
X172000000Y-254000000D01*
X126000000Y-120000000D02*
X124000000Y-122000000D01*
X118000000Y-88000000D02*
X118000000Y-92000000D01*
X126000000Y-204000000D02*
X130000000Y-208000000D01*
X158000000Y-240000000D02*
X154000000Y-236000000D01*
X116000000Y-76000000D02*
X116000000Y-74000000D01*
X136000000Y-134000000D02*
X122000000Y-148000000D01*
X92000000Y-132000000D02*
X94000000Y-130000000D01*
X144000000Y-60000000D02*
X140000000Y-60000000D01*
X180000000Y-134000000D02*
X136000000Y-134000000D01*
X164000000Y-84000000D02*
X164000000Y-114000000D01*
X138000000Y-200000000D02*
X146000000Y-192000000D01*
X132000000Y-72000000D02*
X134000000Y-72000000D01*
X148000000Y-108000000D02*
X148000000Y-110000000D01*
X104000000Y-120000000D02*
X104000000Y-114000000D01*
X124000000Y-230000000D02*
X122000000Y-228000000D01*
X154000000Y-204000000D02*
X154000000Y-208000000D01*
X166000000Y-66000000D02*
X172000000Y-66000000D01*
X92000000Y-130000000D02*
X90000000Y-132000000D01*
X92000000Y-120000000D02*
X92000000Y-114000000D01*
X166000000Y-204000000D02*
X166000000Y-226000000D01*
X158000000Y-58000000D02*
X154000000Y-62000000D01*
X154000000Y-104000000D02*
X154000000Y-90000000D01*
X126000000Y-200000000D02*
X126000000Y-204000000D01*
X106000000Y-120000000D02*
X104000000Y-122000000D01*
X154000000Y-68000000D02*
X158000000Y-64000000D01*
X184000000Y-66000000D02*
X180000000Y-70000000D01*
X134000000Y-224000000D02*
X132000000Y-224000000D01*
X166000000Y-254000000D02*
X164000000Y-252000000D01*
X186000000Y-250000000D02*
X176000000Y-250000000D01*
X144000000Y-76000000D02*
X140000000Y-76000000D01*
X140000000Y-246000000D02*
X134000000Y-240000000D01*
X166000000Y-44000000D02*
X164000000Y-46000000D01*
X144000000Y-54000000D02*
X150000000Y-48000000D01*
X190000000Y-254000000D02*
X176000000Y-254000000D01*
X96000000Y-170000000D02*
X96000000Y-178000000D01*
X164000000Y-204000000D02*
X162000000Y-204000000D01*
X130000000Y-148000000D02*
X130000000Y-152000000D01*
X136000000Y-104000000D02*
X140000000Y-100000000D01*
X166000000Y-258000000D02*
X164000000Y-256000000D01*
X140000000Y-230000000D02*
X134000000Y-224000000D01*
X192000000Y-38000000D02*
X194000000Y-36000000D01*
X158000000Y-48000000D02*
X164000000Y-48000000D01*
X190000000Y-138000000D02*
X188000000Y-140000000D01*
X104000000Y-140000000D02*
X104000000Y-132000000D01*
X138000000Y-92000000D02*
X134000000Y-96000000D01*
X116000000Y-88000000D02*
X132000000Y-72000000D01*
X154000000Y-228000000D02*
X148000000Y-228000000D01*
X188000000Y-84000000D02*
X188000000Y-120000000D01*
X88000000Y-160000000D02*
X86000000Y-158000000D01*
X140000000Y-238000000D02*
X134000000Y-232000000D01*
X156000000Y-212000000D02*
X156000000Y-204000000D01*
X100000000Y-130000000D02*
X98000000Y-132000000D01*
X140000000Y-236000000D02*
X142000000Y-236000000D01*
X158000000Y-216000000D02*
X154000000Y-212000000D01*
X94000000Y-170000000D02*
X92000000Y-168000000D01*
X114000000Y-180000000D02*
X114000000Y-186000000D01*
X140000000Y-60000000D02*
X134000000Y-66000000D01*
X114000000Y-114000000D02*
X114000000Y-120000000D01*
X128000000Y-88000000D02*
X132000000Y-84000000D01*
X124000000Y-88000000D02*
X132000000Y-80000000D01*
X134000000Y-222000000D02*
X140000000Y-228000000D01*
X154000000Y-238000000D02*
X158000000Y-242000000D01*
X166000000Y-54000000D02*
X172000000Y-54000000D01*
X194000000Y-164000000D02*
X194000000Y-200000000D01*
X180000000Y-136000000D02*
X182000000Y-134000000D01*
X134000000Y-88000000D02*
X140000000Y-82000000D01*
X154000000Y-248000000D02*
X148000000Y-248000000D01*
X182000000Y-52000000D02*
X176000000Y-52000000D01*
X148000000Y-112000000D02*
X148000000Y-114000000D01*
X172000000Y-254000000D02*
X166000000Y-254000000D01*
X114000000Y-130000000D02*
X114000000Y-122000000D01*
X148000000Y-228000000D02*
X142000000Y-222000000D01*
X188000000Y-66000000D02*
X184000000Y-70000000D01*
X168000000Y-80000000D02*
X172000000Y-84000000D01*
X92000000Y-180000000D02*
X90000000Y-178000000D01*
X132000000Y-204000000D02*
X132000000Y-200000000D01*
X102000000Y-96000000D02*
X102000000Y-100000000D01*
X122000000Y-186000000D02*
X126000000Y-190000000D01*
X134000000Y-110000000D02*
X136000000Y-108000000D01*
X166000000Y-238000000D02*
X164000000Y-236000000D01*
X132000000Y-230000000D02*
X134000000Y-230000000D01*
X124000000Y-176000000D02*
X124000000Y-178000000D01*
X190000000Y-164000000D02*
X190000000Y-200000000D01*
X174000000Y-84000000D02*
X170000000Y-80000000D01*
X102000000Y-132000000D02*
X102000000Y-140000000D01*
X150000000Y-76000000D02*
X154000000Y-76000000D01*
X128000000Y-216000000D02*
X128000000Y-218000000D01*
X96000000Y-178000000D02*
X98000000Y-180000000D01*
X114000000Y-160000000D02*
X114000000Y-168000000D01*
X164000000Y-80000000D02*
X168000000Y-84000000D01*
X132000000Y-66000000D02*
X126000000Y-72000000D01*
X126000000Y-232000000D02*
X132000000Y-238000000D01*
X118000000Y-200000000D02*
X118000000Y-204000000D01*
X118000000Y-218000000D02*
X118000000Y-216000000D01*
X100000000Y-132000000D02*
X102000000Y-130000000D01*
X128000000Y-118000000D02*
X128000000Y-114000000D01*
X98000000Y-186000000D02*
X102000000Y-190000000D01*
X134000000Y-82000000D02*
X132000000Y-82000000D01*
X154000000Y-216000000D02*
X148000000Y-216000000D01*
X134000000Y-240000000D02*
X132000000Y-240000000D01*
X166000000Y-244000000D02*
X172000000Y-244000000D01*
X96000000Y-190000000D02*
X92000000Y-186000000D01*
X112000000Y-110000000D02*
X112000000Y-104000000D01*
X134000000Y-70000000D02*
X132000000Y-70000000D01*
X178000000Y-204000000D02*
X178000000Y-242000000D01*
X180000000Y-200000000D02*
X180000000Y-172000000D01*
X108000000Y-204000000D02*
X108000000Y-200000000D01*
X158000000Y-224000000D02*
X154000000Y-220000000D01*
X140000000Y-58000000D02*
X144000000Y-58000000D01*
X116000000Y-96000000D02*
X120000000Y-92000000D01*
X164000000Y-246000000D02*
X166000000Y-248000000D01*
X192000000Y-262000000D02*
X176000000Y-262000000D01*
X136000000Y-142000000D02*
X130000000Y-148000000D01*
X112000000Y-132000000D02*
X114000000Y-130000000D01*
X176000000Y-246000000D02*
X172000000Y-242000000D01*
X118000000Y-122000000D02*
X120000000Y-120000000D01*
X168000000Y-228000000D02*
X168000000Y-204000000D01*
X116000000Y-152000000D02*
X116000000Y-148000000D01*
X186000000Y-124000000D02*
X190000000Y-120000000D01*
X132000000Y-88000000D02*
X134000000Y-88000000D01*
X110000000Y-114000000D02*
X110000000Y-120000000D01*
X176000000Y-80000000D02*
X180000000Y-84000000D01*
X100000000Y-110000000D02*
X100000000Y-104000000D01*
X106000000Y-104000000D02*
X106000000Y-110000000D01*
X102000000Y-110000000D02*
X98000000Y-114000000D01*
X118000000Y-152000000D02*
X136000000Y-170000000D01*
X98000000Y-142000000D02*
X100000000Y-140000000D01*
X174000000Y-204000000D02*
X174000000Y-236000000D01*
X126000000Y-110000000D02*
X122000000Y-114000000D01*
X134000000Y-228000000D02*
X132000000Y-228000000D01*
X168000000Y-200000000D02*
X168000000Y-184000000D01*
X132000000Y-82000000D02*
X126000000Y-88000000D01*
X172000000Y-240000000D02*
X176000000Y-244000000D01*
X126000000Y-178000000D02*
X124000000Y-176000000D01*
X158000000Y-234000000D02*
X164000000Y-234000000D01*
X136000000Y-176000000D02*
X112000000Y-152000000D01*
X148000000Y-240000000D02*
X142000000Y-234000000D01*
X198000000Y-157500000D02*
X198000000Y-200000000D01*
X134000000Y-230000000D02*
X140000000Y-236000000D01*
X100000000Y-142000000D02*
X100000000Y-158000000D01*
X190000000Y-200000000D02*
X188000000Y-200000000D01*
X178000000Y-120000000D02*
X178000000Y-84000000D01*
X134000000Y-62000000D02*
X132000000Y-62000000D01*
X134000000Y-204000000D02*
X138000000Y-208000000D01*
X172000000Y-252000000D02*
X176000000Y-256000000D01*
X150000000Y-56000000D02*
X154000000Y-56000000D01*
X160000000Y-200000000D02*
X160000000Y-192000000D01*
X106000000Y-140000000D02*
X104000000Y-142000000D01*
X100000000Y-100000000D02*
X100000000Y-96000000D01*
X194000000Y-162000000D02*
X190000000Y-158000000D01*
X114000000Y-170000000D02*
X112000000Y-168000000D01*
X124000000Y-216000000D02*
X124000000Y-218000000D01*
X112000000Y-160000000D02*
X110000000Y-158000000D01*
X164000000Y-188000000D02*
X144000000Y-188000000D01*
X112000000Y-180000000D02*
X110000000Y-178000000D01*
X106000000Y-100000000D02*
X102000000Y-104000000D01*
X102000000Y-120000000D02*
X100000000Y-122000000D01*
X136000000Y-126000000D02*
X114000000Y-148000000D01*
X152000000Y-124000000D02*
X170000000Y-124000000D01*
X148000000Y-122000000D02*
X136000000Y-122000000D01*
X172000000Y-120000000D02*
X170000000Y-122000000D01*
X134000000Y-182000000D02*
X130000000Y-178000000D01*
X150000000Y-84000000D02*
X154000000Y-84000000D01*
X102000000Y-160000000D02*
X102000000Y-168000000D01*
X150000000Y-80000000D02*
X154000000Y-80000000D01*
X134000000Y-210000000D02*
X140000000Y-216000000D01*
X166000000Y-46000000D02*
X172000000Y-46000000D01*
X186000000Y-134000000D02*
X186000000Y-124000000D01*
X176000000Y-50000000D02*
X184000000Y-50000000D01*
X108000000Y-104000000D02*
X112000000Y-100000000D01*
X192000000Y-156000000D02*
X193000000Y-155000000D01*
X102000000Y-142000000D02*
X104000000Y-140000000D01*
X148000000Y-204000000D02*
X148000000Y-202000000D01*
X170000000Y-182000000D02*
X170000000Y-200000000D01*
X140000000Y-226000000D02*
X134000000Y-220000000D01*
X132000000Y-104000000D02*
X136000000Y-100000000D01*
X96000000Y-110000000D02*
X96000000Y-104000000D01*
X124000000Y-72000000D02*
X122000000Y-74000000D01*
X102000000Y-200000000D02*
X102000000Y-204000000D01*
X116000000Y-208000000D02*
X112000000Y-204000000D01*
X126000000Y-66000000D02*
X132000000Y-60000000D01*
X132000000Y-62000000D02*
X126000000Y-68000000D01*
X196000000Y-204000000D02*
X194000000Y-204000000D01*
X158000000Y-54000000D02*
X154000000Y-58000000D01*
X150000000Y-82000000D02*
X144000000Y-88000000D01*
X158000000Y-72000000D02*
X164000000Y-72000000D01*
X120000000Y-92000000D02*
X120000000Y-88000000D01*
X128000000Y-218000000D02*
X132000000Y-222000000D01*
X172000000Y-126000000D02*
X136000000Y-126000000D01*
X140000000Y-82000000D02*
X144000000Y-82000000D01*
X112000000Y-204000000D02*
X112000000Y-200000000D01*
X170000000Y-124000000D02*
X174000000Y-120000000D01*
X140000000Y-72000000D02*
X134000000Y-78000000D01*
X122000000Y-120000000D02*
X120000000Y-122000000D01*
X176000000Y-204000000D02*
X174000000Y-204000000D01*
X124000000Y-114000000D02*
X128000000Y-110000000D01*
X176000000Y-38000000D02*
X192000000Y-38000000D01*
X168000000Y-118000000D02*
X152000000Y-118000000D01*
X134000000Y-74000000D02*
X132000000Y-74000000D01*
X188000000Y-252000000D02*
X188000000Y-204000000D01*
X112000000Y-122000000D02*
X112000000Y-130000000D01*
X128000000Y-210000000D02*
X128000000Y-208000000D01*
X118000000Y-170000000D02*
X116000000Y-168000000D01*
X104000000Y-200000000D02*
X100000000Y-196000000D01*
X176000000Y-52000000D02*
X172000000Y-56000000D01*
X122000000Y-110000000D02*
X118000000Y-114000000D01*
X118000000Y-130000000D02*
X118000000Y-122000000D01*
X110000000Y-88000000D02*
X110000000Y-92000000D01*
X164000000Y-52000000D02*
X166000000Y-50000000D01*
X176000000Y-242000000D02*
X172000000Y-238000000D01*
X140000000Y-232000000D02*
X142000000Y-232000000D01*
X164000000Y-114000000D02*
X152000000Y-114000000D01*
X164000000Y-240000000D02*
X158000000Y-240000000D01*
X172000000Y-42000000D02*
X176000000Y-38000000D01*
X122000000Y-100000000D02*
X118000000Y-104000000D01*
X154000000Y-48000000D02*
X158000000Y-44000000D01*
X110000000Y-158000000D02*
X110000000Y-152000000D01*
X188000000Y-134000000D02*
X186000000Y-136000000D01*
X108000000Y-92000000D02*
X108000000Y-88000000D01*
X126000000Y-88000000D02*
X126000000Y-92000000D01*
X158000000Y-242000000D02*
X164000000Y-242000000D01*
X176000000Y-176000000D02*
X136000000Y-176000000D01*
X160000000Y-110000000D02*
X152000000Y-110000000D01*
X142000000Y-240000000D02*
X148000000Y-246000000D01*
X192000000Y-66000000D02*
X188000000Y-70000000D01*
X102000000Y-180000000D02*
X102000000Y-186000000D01*
X154000000Y-232000000D02*
X148000000Y-232000000D01*
X148000000Y-118000000D02*
X136000000Y-118000000D01*
X193000000Y-155000000D02*
X193000000Y-152500000D01*
X130000000Y-204000000D02*
X134000000Y-208000000D01*
X186000000Y-160000000D02*
X136000000Y-160000000D01*
X116000000Y-114000000D02*
X120000000Y-110000000D01*
X164000000Y-242000000D02*
X166000000Y-244000000D01*
X130000000Y-208000000D02*
X130000000Y-210000000D01*
X148000000Y-238000000D02*
X154000000Y-238000000D01*
X140000000Y-62000000D02*
X144000000Y-62000000D01*
X102000000Y-100000000D02*
X98000000Y-104000000D01*
X176000000Y-262000000D02*
X172000000Y-258000000D01*
X116000000Y-186000000D02*
X116000000Y-180000000D01*
X94000000Y-140000000D02*
X92000000Y-142000000D01*
X154000000Y-252000000D02*
X148000000Y-252000000D01*
X184000000Y-142000000D02*
X136000000Y-142000000D01*
X170000000Y-230000000D02*
X166000000Y-230000000D01*
X148000000Y-210000000D02*
X154000000Y-210000000D01*
X114000000Y-204000000D02*
X118000000Y-208000000D01*
X110000000Y-216000000D02*
X106000000Y-212000000D01*
X136000000Y-132000000D02*
X178000000Y-132000000D01*
X134000000Y-100000000D02*
X130000000Y-104000000D01*
X148000000Y-198000000D02*
X154000000Y-198000000D01*
X176000000Y-124000000D02*
X176000000Y-130000000D01*
X190000000Y-44000000D02*
X176000000Y-44000000D01*
X110000000Y-200000000D02*
X110000000Y-204000000D01*
X144000000Y-84000000D02*
X140000000Y-84000000D01*
X158000000Y-194000000D02*
X158000000Y-200000000D01*
X96000000Y-186000000D02*
X96000000Y-180000000D01*
X118000000Y-180000000D02*
X118000000Y-186000000D01*
X106000000Y-204000000D02*
X110000000Y-208000000D01*
X132000000Y-220000000D02*
X130000000Y-218000000D01*
X188000000Y-144000000D02*
X186000000Y-146000000D01*
X96000000Y-104000000D02*
X100000000Y-100000000D01*
X116000000Y-210000000D02*
X116000000Y-208000000D01*
X120000000Y-148000000D02*
X136000000Y-132000000D01*
X112000000Y-218000000D02*
X120000000Y-226000000D01*
X118000000Y-100000000D02*
X114000000Y-104000000D01*
X128000000Y-190000000D02*
X128000000Y-184000000D01*
X88000000Y-168000000D02*
X88000000Y-160000000D01*
X126000000Y-74000000D02*
X132000000Y-68000000D01*
X194000000Y-200000000D02*
X192000000Y-200000000D01*
X114000000Y-152000000D02*
X136000000Y-174000000D01*
X108000000Y-158000000D02*
X110000000Y-160000000D01*
X110000000Y-96000000D02*
X110000000Y-100000000D01*
X108000000Y-130000000D02*
X106000000Y-132000000D01*
X130000000Y-182000000D02*
X134000000Y-182000000D01*
X156000000Y-204000000D02*
X154000000Y-204000000D01*
X176000000Y-120000000D02*
X172000000Y-124000000D01*
X126000000Y-100000000D02*
X122000000Y-104000000D01*
X132000000Y-196000000D02*
X138000000Y-196000000D01*
X136000000Y-114000000D02*
X122000000Y-128000000D01*
X132000000Y-78000000D02*
X122000000Y-88000000D01*
X116000000Y-178000000D02*
X118000000Y-180000000D01*
X108000000Y-88000000D02*
X120000000Y-76000000D01*
X108000000Y-110000000D02*
X108000000Y-104000000D01*
X112000000Y-142000000D02*
X112000000Y-144000000D01*
X190000000Y-80000000D02*
X190000000Y-70000000D01*
X190000000Y-66000000D02*
X190000000Y-44000000D01*
X120000000Y-114000000D02*
X124000000Y-110000000D01*
X140000000Y-64000000D02*
X134000000Y-70000000D01*
X112000000Y-208000000D02*
X108000000Y-204000000D01*
X192000000Y-134000000D02*
X190000000Y-136000000D01*
X182000000Y-138000000D02*
X136000000Y-138000000D01*
X134000000Y-232000000D02*
X132000000Y-232000000D01*
X182000000Y-70000000D02*
X186000000Y-66000000D01*
X192000000Y-40000000D02*
X176000000Y-40000000D01*
X146000000Y-192000000D02*
X146000000Y-190000000D01*
X134000000Y-90000000D02*
X134000000Y-92000000D01*
X144000000Y-202000000D02*
X148000000Y-198000000D01*
X170000000Y-200000000D02*
X168000000Y-200000000D01*
X184000000Y-168000000D02*
X136000000Y-168000000D01*
X104000000Y-132000000D02*
X106000000Y-130000000D01*
X116000000Y-170000000D02*
X116000000Y-178000000D01*
X166000000Y-200000000D02*
X164000000Y-200000000D01*
X124000000Y-232000000D02*
X126000000Y-232000000D01*
X192000000Y-200000000D02*
X192000000Y-164000000D01*
X110000000Y-120000000D02*
X108000000Y-122000000D01*
X140000000Y-216000000D02*
X142000000Y-216000000D01*
X120000000Y-76000000D02*
X120000000Y-74000000D01*
X184000000Y-200000000D02*
X184000000Y-168000000D01*
X190000000Y-160000000D02*
X194000000Y-164000000D01*
X88000000Y-140000000D02*
X88000000Y-132000000D01*
X192000000Y-80000000D02*
X196000000Y-84000000D01*
X186000000Y-136000000D02*
X186000000Y-138000000D01*
X172000000Y-180000000D02*
X136000000Y-180000000D01*
X124000000Y-208000000D02*
X120000000Y-204000000D01*
X194000000Y-204000000D02*
X194000000Y-260000000D01*
X158000000Y-78000000D02*
X154000000Y-82000000D01*
X148000000Y-100000000D02*
X148000000Y-102000000D01*
X196000000Y-66000000D02*
X192000000Y-70000000D01*
X122000000Y-148000000D02*
X122000000Y-152000000D01*
X122000000Y-208000000D02*
X122000000Y-210000000D01*
X122000000Y-204000000D02*
X126000000Y-208000000D01*
X110000000Y-130000000D02*
X110000000Y-122000000D01*
X176000000Y-240000000D02*
X176000000Y-204000000D01*
X188000000Y-166000000D02*
X186000000Y-164000000D01*
X116000000Y-122000000D02*
X116000000Y-130000000D01*
X142000000Y-246000000D02*
X140000000Y-246000000D01*
X122000000Y-196000000D02*
X126000000Y-200000000D01*
X148000000Y-220000000D02*
X142000000Y-214000000D01*
X158000000Y-236000000D02*
X154000000Y-232000000D01*
X150000000Y-90000000D02*
X144000000Y-96000000D01*
X154000000Y-84000000D02*
X156000000Y-82000000D01*
X164000000Y-228000000D02*
X158000000Y-228000000D01*
X186000000Y-162000000D02*
X188000000Y-164000000D01*
X192000000Y-124000000D02*
X192000000Y-134000000D01*
X136000000Y-122000000D02*
X110000000Y-148000000D01*
X172000000Y-242000000D02*
X166000000Y-242000000D01*
X166000000Y-62000000D02*
X172000000Y-62000000D01*
X152000000Y-112000000D02*
X162000000Y-112000000D01*
X142000000Y-226000000D02*
X140000000Y-226000000D01*
X110000000Y-92000000D02*
X106000000Y-96000000D01*
X114000000Y-96000000D02*
X114000000Y-100000000D01*
X116000000Y-138000000D02*
X116000000Y-132000000D01*
X94000000Y-120000000D02*
X92000000Y-122000000D01*
X144000000Y-78000000D02*
X150000000Y-72000000D01*
X100000000Y-122000000D02*
X100000000Y-130000000D01*
X124000000Y-70000000D02*
X126000000Y-70000000D01*
X148000000Y-114000000D02*
X136000000Y-114000000D01*
X110000000Y-204000000D02*
X114000000Y-208000000D01*
X118000000Y-74000000D02*
X118000000Y-76000000D01*
X108000000Y-178000000D02*
X110000000Y-180000000D01*
X192000000Y-256000000D02*
X192000000Y-204000000D01*
X180000000Y-70000000D02*
X180000000Y-80000000D01*
X132000000Y-198000000D02*
X134000000Y-200000000D01*
X140000000Y-76000000D02*
X134000000Y-82000000D01*
X136000000Y-170000000D02*
X182000000Y-170000000D01*
X164000000Y-70000000D02*
X158000000Y-70000000D01*
X134000000Y-220000000D02*
X132000000Y-220000000D01*
X176000000Y-42000000D02*
X192000000Y-42000000D01*
X104000000Y-158000000D02*
X106000000Y-160000000D01*
X182000000Y-246000000D02*
X176000000Y-246000000D01*
X130000000Y-180000000D02*
X126000000Y-184000000D01*
X196000000Y-120000000D02*
X192000000Y-124000000D01*
X102000000Y-130000000D02*
X102000000Y-122000000D01*
X172000000Y-66000000D02*
X168000000Y-70000000D01*
X114000000Y-196000000D02*
X118000000Y-200000000D01*
X98000000Y-132000000D02*
X98000000Y-140000000D01*
X134000000Y-208000000D02*
X134000000Y-210000000D01*
X116000000Y-104000000D02*
X120000000Y-100000000D01*
X154000000Y-244000000D02*
X148000000Y-244000000D01*
X158000000Y-44000000D02*
X164000000Y-44000000D01*
X166000000Y-60000000D02*
X164000000Y-62000000D01*
X162000000Y-190000000D02*
X162000000Y-200000000D01*
X110000000Y-168000000D02*
X112000000Y-170000000D01*
X86000000Y-142000000D02*
X88000000Y-140000000D01*
X140000000Y-70000000D02*
X144000000Y-70000000D01*
X172000000Y-200000000D02*
X172000000Y-180000000D01*
X172000000Y-204000000D02*
X170000000Y-204000000D01*
X176000000Y-54000000D02*
X180000000Y-54000000D01*
X134000000Y-80000000D02*
X140000000Y-74000000D01*
X128000000Y-152000000D02*
X128000000Y-148000000D01*
X154000000Y-76000000D02*
X158000000Y-72000000D01*
X188000000Y-164000000D02*
X190000000Y-164000000D01*
X136000000Y-210000000D02*
X136000000Y-208000000D01*
X136000000Y-120000000D02*
X148000000Y-120000000D01*
X136000000Y-160000000D02*
X128000000Y-152000000D01*
X116000000Y-216000000D02*
X116000000Y-218000000D01*
X96000000Y-180000000D02*
X94000000Y-178000000D01*
X120000000Y-110000000D02*
X120000000Y-104000000D01*
X134000000Y-226000000D02*
X140000000Y-232000000D01*
X164000000Y-50000000D02*
X158000000Y-50000000D01*
X152000000Y-122000000D02*
X152000000Y-124000000D01*
X110000000Y-122000000D02*
X112000000Y-120000000D01*
X148000000Y-204000000D02*
X148000000Y-204000000D01*
X98000000Y-158000000D02*
X98000000Y-142000000D01*
X172000000Y-80000000D02*
X176000000Y-84000000D01*
X120000000Y-180000000D02*
X118000000Y-178000000D01*
X154000000Y-60000000D02*
X158000000Y-56000000D01*
X128000000Y-96000000D02*
X132000000Y-92000000D01*
X134000000Y-218000000D02*
X140000000Y-224000000D01*
X142000000Y-102000000D02*
X144000000Y-100000000D01*
X124000000Y-110000000D02*
X124000000Y-104000000D01*
X162000000Y-204000000D02*
X162000000Y-220000000D01*
X94000000Y-186000000D02*
X98000000Y-190000000D01*
X144000000Y-58000000D02*
X150000000Y-52000000D01*
X132000000Y-218000000D02*
X134000000Y-218000000D01*
X182000000Y-134000000D02*
X182000000Y-124000000D01*
X148000000Y-226000000D02*
X154000000Y-226000000D01*
X124000000Y-122000000D02*
X124000000Y-124000000D01*
X100000000Y-196000000D02*
X100000000Y-190000000D01*
X140000000Y-214000000D02*
X136000000Y-210000000D01*
X140000000Y-88000000D02*
X138000000Y-90000000D01*
X148000000Y-224000000D02*
X142000000Y-218000000D01*
X148000000Y-206000000D02*
X152000000Y-206000000D01*
X168000000Y-204000000D02*
X166000000Y-204000000D01*
X152000000Y-104000000D02*
X154000000Y-104000000D01*
X118000000Y-76000000D02*
X106000000Y-88000000D01*
X110000000Y-178000000D02*
X110000000Y-170000000D01*
X100000000Y-158000000D02*
X102000000Y-160000000D01*
X98000000Y-104000000D02*
X98000000Y-110000000D01*
X116000000Y-132000000D02*
X118000000Y-130000000D01*
X98000000Y-170000000D02*
X96000000Y-168000000D01*
X118000000Y-114000000D02*
X118000000Y-120000000D01*
X148000000Y-230000000D02*
X154000000Y-230000000D01*
X172000000Y-60000000D02*
X166000000Y-60000000D01*
X144000000Y-68000000D02*
X140000000Y-68000000D01*
X108000000Y-96000000D02*
X112000000Y-92000000D01*
X140000000Y-96000000D02*
X142000000Y-94000000D01*
X88000000Y-158000000D02*
X90000000Y-160000000D01*
X150000000Y-86000000D02*
X144000000Y-92000000D01*
X158000000Y-248000000D02*
X154000000Y-244000000D01*
X166000000Y-240000000D02*
X172000000Y-240000000D01*
X114000000Y-132000000D02*
X114000000Y-140000000D01*
X194000000Y-262000000D02*
X196000000Y-262000000D01*
X112000000Y-120000000D02*
X112000000Y-114000000D01*
X158000000Y-246000000D02*
X164000000Y-246000000D01*
X128000000Y-100000000D02*
X128000000Y-96000000D01*
X134000000Y-86000000D02*
X132000000Y-86000000D01*
X126000000Y-230000000D02*
X124000000Y-230000000D01*
X146000000Y-190000000D02*
X162000000Y-190000000D01*
X186000000Y-156000000D02*
X136000000Y-156000000D01*
X146000000Y-202000000D02*
X146000000Y-204000000D01*
X136000000Y-154000000D02*
X186000000Y-154000000D01*
X198000000Y-202000000D02*
X198000000Y-262000000D01*
X186000000Y-84000000D02*
X182000000Y-80000000D01*
X154000000Y-54000000D02*
X150000000Y-54000000D01*
X174000000Y-236000000D02*
X172000000Y-234000000D01*
X172000000Y-258000000D02*
X166000000Y-258000000D01*
X100000000Y-170000000D02*
X100000000Y-178000000D01*
X154000000Y-198000000D02*
X154000000Y-200000000D01*
X130000000Y-104000000D02*
X130000000Y-110000000D01*
X86000000Y-158000000D02*
X86000000Y-142000000D01*
X166000000Y-252000000D02*
X172000000Y-252000000D01*
X188000000Y-200000000D02*
X188000000Y-166000000D01*
X148000000Y-242000000D02*
X154000000Y-242000000D01*
X160000000Y-76000000D02*
X160000000Y-80000000D01*
X132000000Y-96000000D02*
X136000000Y-92000000D01*
X174000000Y-120000000D02*
X174000000Y-84000000D01*
X166000000Y-250000000D02*
X164000000Y-248000000D01*
X90000000Y-132000000D02*
X90000000Y-140000000D01*
X136000000Y-164000000D02*
X124000000Y-152000000D01*
X128000000Y-92000000D02*
X128000000Y-88000000D01*
X190000000Y-134000000D02*
X190000000Y-124000000D01*
X136000000Y-96000000D02*
X140000000Y-92000000D01*
X188000000Y-138000000D02*
X188000000Y-136000000D01*
X96000000Y-142000000D02*
X96000000Y-158000000D01*
X110000000Y-104000000D02*
X110000000Y-110000000D01*
X166000000Y-230000000D02*
X164000000Y-228000000D01*
X142000000Y-228000000D02*
X148000000Y-234000000D01*
X170000000Y-122000000D02*
X152000000Y-122000000D01*
X120000000Y-204000000D02*
X120000000Y-200000000D01*
X122000000Y-74000000D02*
X122000000Y-76000000D01*
X112000000Y-88000000D02*
X124000000Y-76000000D01*
X128000000Y-180000000D02*
X130000000Y-180000000D01*
X122000000Y-190000000D02*
X122000000Y-196000000D01*
X180000000Y-54000000D02*
X180000000Y-66000000D01*
X126000000Y-96000000D02*
X126000000Y-100000000D01*
X174000000Y-80000000D02*
X174000000Y-70000000D01*
X120000000Y-120000000D02*
X120000000Y-114000000D01*
X126000000Y-92000000D02*
X122000000Y-96000000D01*
X106000000Y-210000000D02*
X112000000Y-216000000D01*
X164000000Y-230000000D02*
X166000000Y-232000000D01*
X164000000Y-250000000D02*
X166000000Y-252000000D01*
X150000000Y-74000000D02*
X144000000Y-80000000D01*
X184000000Y-124000000D02*
X184000000Y-134000000D01*
X102000000Y-178000000D02*
X102000000Y-170000000D01*
X140000000Y-68000000D02*
X134000000Y-74000000D01*
X118000000Y-190000000D02*
X118000000Y-196000000D01*
X118000000Y-178000000D02*
X118000000Y-170000000D01*
X162000000Y-84000000D02*
X158000000Y-80000000D01*
X192000000Y-42000000D02*
X192000000Y-66000000D01*
X118000000Y-134000000D02*
X136000000Y-116000000D01*
X138000000Y-210000000D02*
X140000000Y-212000000D01*
X120000000Y-218000000D02*
X132000000Y-230000000D01*
X100000000Y-96000000D02*
X104000000Y-92000000D01*
X94000000Y-180000000D02*
X94000000Y-186000000D01*
X158000000Y-238000000D02*
X164000000Y-238000000D01*
X106000000Y-92000000D02*
X102000000Y-96000000D01*
X124000000Y-124000000D02*
X136000000Y-112000000D01*
X134000000Y-84000000D02*
X140000000Y-78000000D01*
X138000000Y-202000000D02*
X138000000Y-204000000D01*
X194000000Y-66000000D02*
X194000000Y-38000000D01*
X112000000Y-158000000D02*
X114000000Y-160000000D01*
X180000000Y-66000000D02*
X176000000Y-70000000D01*
X154000000Y-210000000D02*
X156000000Y-212000000D01*
X138000000Y-198000000D02*
X132000000Y-198000000D01*
X150000000Y-60000000D02*
X154000000Y-60000000D01*
X90000000Y-160000000D02*
X90000000Y-168000000D01*
X120000000Y-228000000D02*
X124000000Y-232000000D01*
X184000000Y-50000000D02*
X184000000Y-66000000D01*
X98000000Y-110000000D02*
X94000000Y-114000000D01*
X142000000Y-242000000D02*
X140000000Y-242000000D01*
X110000000Y-140000000D02*
X108000000Y-142000000D01*
X158000000Y-62000000D02*
X154000000Y-66000000D01*
X108000000Y-140000000D02*
X108000000Y-132000000D01*
X106000000Y-170000000D02*
X104000000Y-168000000D01*
X124000000Y-196000000D02*
X124000000Y-190000000D01*
X160000000Y-84000000D02*
X160000000Y-110000000D01*
X136000000Y-158000000D02*
X186000000Y-158000000D01*
X138000000Y-104000000D02*
X148000000Y-104000000D01*
X140000000Y-192000000D02*
X138000000Y-194000000D01*
X164000000Y-244000000D02*
X158000000Y-244000000D01*
X194000000Y-120000000D02*
X194000000Y-84000000D01*
X136000000Y-182000000D02*
X170000000Y-182000000D01*
X142000000Y-218000000D02*
X140000000Y-218000000D01*
X104000000Y-96000000D02*
X108000000Y-92000000D01*
X160000000Y-192000000D02*
X148000000Y-192000000D01*
X114000000Y-140000000D02*
X112000000Y-142000000D01*
X104000000Y-186000000D02*
X104000000Y-180000000D01*
X174000000Y-124000000D02*
X178000000Y-120000000D01*
X124000000Y-200000000D02*
X120000000Y-196000000D01*
X164000000Y-72000000D02*
X164000000Y-80000000D01*
X124000000Y-120000000D02*
X124000000Y-114000000D01*
X98000000Y-168000000D02*
X100000000Y-170000000D01*
X146000000Y-100000000D02*
X148000000Y-100000000D01*
X124000000Y-92000000D02*
X124000000Y-88000000D01*
X142000000Y-92000000D02*
X138000000Y-96000000D01*
X140000000Y-212000000D02*
X142000000Y-212000000D01*
X122000000Y-104000000D02*
X122000000Y-110000000D01*
X148000000Y-214000000D02*
X154000000Y-214000000D01*
X144000000Y-94000000D02*
X150000000Y-88000000D01*
X176000000Y-84000000D02*
X176000000Y-120000000D01*
X96000000Y-196000000D02*
X96000000Y-190000000D01*
X132000000Y-92000000D02*
X132000000Y-88000000D01*
X182000000Y-120000000D02*
X182000000Y-84000000D01*
X158000000Y-70000000D02*
X154000000Y-74000000D01*
X136000000Y-172000000D02*
X116000000Y-152000000D01*
X176000000Y-252000000D02*
X188000000Y-252000000D01*
X148000000Y-192000000D02*
X138000000Y-202000000D01*
X164000000Y-254000000D02*
X166000000Y-256000000D01*
X122000000Y-88000000D02*
X122000000Y-92000000D01*
X118000000Y-110000000D02*
X114000000Y-114000000D01*
X166000000Y-228000000D02*
X168000000Y-228000000D01*
X134000000Y-200000000D02*
X134000000Y-204000000D01*
X126000000Y-188000000D02*
X124000000Y-186000000D01*
X112000000Y-196000000D02*
X112000000Y-190000000D01*
X98000000Y-122000000D02*
X100000000Y-120000000D01*
X98000000Y-160000000D02*
X98000000Y-168000000D01*
X164000000Y-54000000D02*
X158000000Y-54000000D01*
X176000000Y-56000000D02*
X172000000Y-60000000D01*
X154000000Y-236000000D02*
X148000000Y-236000000D01*
X150000000Y-54000000D02*
X144000000Y-60000000D01*
X108000000Y-114000000D02*
X112000000Y-110000000D01*
X182000000Y-66000000D02*
X182000000Y-52000000D01*
X144000000Y-82000000D02*
X150000000Y-76000000D01*
X120000000Y-178000000D02*
X122000000Y-180000000D01*
X98000000Y-196000000D02*
X102000000Y-200000000D01*
X114000000Y-210000000D02*
X120000000Y-216000000D01*
X122000000Y-216000000D02*
X116000000Y-210000000D01*
X138000000Y-54000000D02*
X144000000Y-54000000D01*
X194000000Y-264000000D02*
X192000000Y-262000000D01*
X172000000Y-244000000D02*
X176000000Y-248000000D01*
X178000000Y-84000000D02*
X174000000Y-80000000D01*
X120000000Y-100000000D02*
X120000000Y-96000000D01*
X162000000Y-74000000D02*
X158000000Y-74000000D01*
X144000000Y-92000000D02*
X142000000Y-92000000D01*
X116000000Y-196000000D02*
X116000000Y-190000000D01*
X164000000Y-224000000D02*
X158000000Y-224000000D01*
X124000000Y-226000000D02*
X124000000Y-228000000D01*
X116000000Y-130000000D02*
X114000000Y-132000000D01*
X196000000Y-264000000D02*
X194000000Y-264000000D01*
X158000000Y-68000000D02*
X164000000Y-68000000D01*
X106000000Y-180000000D02*
X106000000Y-186000000D01*
X176000000Y-248000000D02*
X184000000Y-248000000D01*
X126000000Y-208000000D02*
X126000000Y-210000000D01*
X102000000Y-170000000D02*
X100000000Y-168000000D01*
X118000000Y-186000000D02*
X122000000Y-190000000D01*
X176000000Y-66000000D02*
X172000000Y-70000000D01*
X108000000Y-160000000D02*
X106000000Y-158000000D01*
X154000000Y-220000000D02*
X148000000Y-220000000D01*
X104000000Y-114000000D02*
X108000000Y-110000000D01*
X132000000Y-200000000D02*
X128000000Y-196000000D01*
X186000000Y-140000000D02*
X188000000Y-138000000D01*
X90000000Y-142000000D02*
X92000000Y-140000000D01*
X156000000Y-82000000D02*
X158000000Y-82000000D01*
X146000000Y-98000000D02*
X146000000Y-100000000D01*
X106000000Y-168000000D02*
X108000000Y-170000000D01*
X144000000Y-188000000D02*
X144000000Y-192000000D01*
X114000000Y-178000000D02*
X114000000Y-170000000D01*
X170000000Y-120000000D02*
X170000000Y-84000000D01*
X96000000Y-158000000D02*
X98000000Y-160000000D01*
X98000000Y-130000000D02*
X98000000Y-122000000D01*
X126000000Y-234000000D02*
X124000000Y-234000000D01*
X112000000Y-104000000D02*
X116000000Y-100000000D01*
X132000000Y-224000000D02*
X126000000Y-218000000D01*
X112000000Y-200000000D02*
X108000000Y-196000000D01*
X144000000Y-74000000D02*
X150000000Y-68000000D01*
X134000000Y-234000000D02*
X140000000Y-240000000D01*
X190000000Y-70000000D02*
X194000000Y-66000000D01*
X166000000Y-248000000D02*
X172000000Y-248000000D01*
X136000000Y-138000000D02*
X126000000Y-148000000D01*
X166000000Y-186000000D02*
X166000000Y-200000000D01*
X102000000Y-196000000D02*
X106000000Y-200000000D01*
X124000000Y-148000000D02*
X136000000Y-136000000D01*
X130000000Y-210000000D02*
X140000000Y-220000000D01*
X132000000Y-226000000D02*
X134000000Y-226000000D01*
X174000000Y-70000000D02*
X178000000Y-66000000D01*
X174000000Y-128000000D02*
X174000000Y-124000000D01*
X122000000Y-218000000D02*
X122000000Y-216000000D01*
X176000000Y-70000000D02*
X176000000Y-80000000D01*
X176000000Y-130000000D02*
X136000000Y-130000000D01*
X154000000Y-208000000D02*
X148000000Y-208000000D01*
X182000000Y-200000000D02*
X180000000Y-200000000D01*
X148000000Y-212000000D02*
X140000000Y-204000000D01*
X198000000Y-262000000D02*
X196000000Y-264000000D01*
X166000000Y-52000000D02*
X164000000Y-54000000D01*
X142000000Y-212000000D02*
X148000000Y-218000000D01*
X176000000Y-48000000D02*
X172000000Y-52000000D01*
X122000000Y-200000000D02*
X122000000Y-204000000D01*
X118000000Y-148000000D02*
X118000000Y-152000000D01*
X186000000Y-138000000D02*
X184000000Y-140000000D01*
X158000000Y-226000000D02*
X164000000Y-226000000D01*
X186000000Y-164000000D02*
X136000000Y-164000000D01*
X148000000Y-104000000D02*
X148000000Y-106000000D01*
X172000000Y-52000000D02*
X166000000Y-52000000D01*
X186000000Y-48000000D02*
X176000000Y-48000000D01*
X110000000Y-186000000D02*
X114000000Y-190000000D01*
X186000000Y-80000000D02*
X186000000Y-70000000D01*
X138000000Y-96000000D02*
X138000000Y-100000000D01*
X170000000Y-70000000D02*
X174000000Y-66000000D01*
X160000000Y-218000000D02*
X160000000Y-204000000D01*
X172000000Y-64000000D02*
X166000000Y-64000000D01*
X108000000Y-122000000D02*
X108000000Y-130000000D01*
X166000000Y-232000000D02*
X172000000Y-232000000D01*
X138000000Y-208000000D02*
X138000000Y-210000000D01*
X172000000Y-232000000D02*
X172000000Y-204000000D01*
X130000000Y-216000000D02*
X124000000Y-210000000D01*
X140000000Y-66000000D02*
X144000000Y-66000000D01*
X152000000Y-92000000D02*
X152000000Y-104000000D01*
X150000000Y-62000000D02*
X144000000Y-68000000D01*
X90000000Y-178000000D02*
X90000000Y-170000000D01*
X110000000Y-196000000D02*
X114000000Y-200000000D01*
X186000000Y-66000000D02*
X186000000Y-48000000D01*
X114000000Y-208000000D02*
X114000000Y-210000000D01*
X106000000Y-190000000D02*
X106000000Y-196000000D01*
X148000000Y-194000000D02*
X158000000Y-194000000D01*
X190000000Y-120000000D02*
X190000000Y-84000000D01*
X140000000Y-218000000D02*
X132000000Y-210000000D01*
X102000000Y-168000000D02*
X104000000Y-170000000D01*
X120000000Y-170000000D02*
X120000000Y-178000000D01*
X112000000Y-210000000D02*
X112000000Y-208000000D01*
X106000000Y-132000000D02*
X106000000Y-140000000D01*
X142000000Y-192000000D02*
X142000000Y-186000000D01*
X188000000Y-160000000D02*
X190000000Y-160000000D01*
X166000000Y-246000000D02*
X164000000Y-244000000D01*
X154000000Y-88000000D02*
X156000000Y-86000000D01*
X102000000Y-158000000D02*
X102000000Y-142000000D01*
X154000000Y-58000000D02*
X150000000Y-58000000D01*
X130000000Y-178000000D02*
X126000000Y-178000000D01*
X184000000Y-138000000D02*
X184000000Y-136000000D01*
X130000000Y-152000000D02*
X136000000Y-158000000D01*
X154000000Y-82000000D02*
X150000000Y-82000000D01*
X104000000Y-110000000D02*
X104000000Y-104000000D01*
X148000000Y-120000000D02*
X148000000Y-122000000D01*
X132000000Y-84000000D02*
X134000000Y-84000000D01*
X106000000Y-178000000D02*
X106000000Y-170000000D01*
X174000000Y-200000000D02*
X172000000Y-200000000D01*
X132000000Y-194000000D02*
X128000000Y-190000000D01*
X116000000Y-110000000D02*
X116000000Y-104000000D01*
X132000000Y-86000000D02*
X130000000Y-88000000D01*
X136000000Y-180000000D02*
X112000000Y-156000000D01*
X136000000Y-110000000D02*
X128000000Y-118000000D01*
X142000000Y-96000000D02*
X142000000Y-100000000D01*
X180000000Y-120000000D02*
X176000000Y-124000000D01*
X108000000Y-186000000D02*
X108000000Y-180000000D01*
X126000000Y-218000000D02*
X126000000Y-216000000D01*
X136000000Y-208000000D02*
X132000000Y-204000000D01*
X158000000Y-218000000D02*
X160000000Y-218000000D01*
X134000000Y-64000000D02*
X140000000Y-58000000D01*
X188000000Y-156000000D02*
X192000000Y-156000000D01*
X188000000Y-136000000D02*
X190000000Y-134000000D01*
X148000000Y-208000000D02*
X144000000Y-204000000D01*
X98000000Y-190000000D02*
X98000000Y-196000000D01*
X150000000Y-78000000D02*
X144000000Y-84000000D01*
X196000000Y-200000000D02*
X196000000Y-162000000D01*
X140000000Y-84000000D02*
X134000000Y-90000000D01*
X148000000Y-106000000D02*
X136000000Y-106000000D01*
X198000000Y-200000000D02*
X196000000Y-200000000D01*
X132000000Y-64000000D02*
X134000000Y-64000000D01*
X92000000Y-158000000D02*
X94000000Y-160000000D01*
X144000000Y-64000000D02*
X140000000Y-64000000D01*
X106000000Y-142000000D02*
X108000000Y-140000000D01*
X180000000Y-80000000D02*
X184000000Y-84000000D01*
X106000000Y-110000000D02*
X102000000Y-114000000D01*
X130000000Y-92000000D02*
X126000000Y-96000000D01*
X140000000Y-208000000D02*
X136000000Y-204000000D01*
X190000000Y-204000000D02*
X190000000Y-254000000D01*
X132000000Y-60000000D02*
X134000000Y-60000000D01*
X160000000Y-204000000D02*
X158000000Y-204000000D01*
X172000000Y-48000000D02*
X166000000Y-48000000D01*
X128000000Y-176000000D02*
X118000000Y-166000000D01*
X108000000Y-168000000D02*
X108000000Y-160000000D01*
X126000000Y-114000000D02*
X126000000Y-120000000D01*
X96000000Y-120000000D02*
X96000000Y-114000000D01*
X100000000Y-186000000D02*
X100000000Y-180000000D01*
X158000000Y-60000000D02*
X164000000Y-60000000D01*
X188000000Y-204000000D02*
X186000000Y-204000000D01*
X158000000Y-232000000D02*
X154000000Y-228000000D01*
X104000000Y-100000000D02*
X104000000Y-96000000D01*
X108000000Y-196000000D02*
X108000000Y-190000000D01*
X112000000Y-140000000D02*
X112000000Y-132000000D01*
X122000000Y-172000000D02*
X126000000Y-176000000D01*
X122000000Y-152000000D02*
X136000000Y-166000000D01*
X172000000Y-54000000D02*
X176000000Y-50000000D01*
X186000000Y-146000000D02*
X136000000Y-146000000D01*
X104000000Y-180000000D02*
X102000000Y-178000000D01*
X136000000Y-130000000D02*
X118000000Y-148000000D01*
X158000000Y-56000000D02*
X164000000Y-56000000D01*
X122000000Y-92000000D02*
X118000000Y-96000000D01*
X92000000Y-160000000D02*
X90000000Y-158000000D01*
X136000000Y-116000000D02*
X148000000Y-116000000D01*
X176000000Y-44000000D02*
X172000000Y-48000000D01*
X186000000Y-158000000D02*
X188000000Y-160000000D01*
X112000000Y-178000000D02*
X114000000Y-180000000D01*
X110000000Y-170000000D02*
X108000000Y-168000000D01*
X118000000Y-166000000D02*
X118000000Y-168000000D01*
X154000000Y-70000000D02*
X150000000Y-70000000D01*
X162000000Y-80000000D02*
X162000000Y-74000000D01*
X120000000Y-210000000D02*
X120000000Y-208000000D01*
X132000000Y-148000000D02*
X136000000Y-144000000D01*
X122000000Y-128000000D02*
X122000000Y-122000000D01*
X166000000Y-234000000D02*
X164000000Y-232000000D01*
X194000000Y-36000000D02*
X196000000Y-36000000D01*
X144000000Y-192000000D02*
X138000000Y-198000000D01*
X118000000Y-216000000D02*
X112000000Y-210000000D01*
X148000000Y-218000000D02*
X154000000Y-218000000D01*
X120000000Y-104000000D02*
X124000000Y-100000000D01*
X172000000Y-256000000D02*
X176000000Y-260000000D01*
X112000000Y-186000000D02*
X112000000Y-180000000D01*
X114000000Y-168000000D02*
X116000000Y-170000000D01*
X90000000Y-158000000D02*
X90000000Y-142000000D01*
X164000000Y-238000000D02*
X166000000Y-240000000D01*
X128000000Y-114000000D02*
X132000000Y-110000000D01*
X142000000Y-238000000D02*
X140000000Y-238000000D01*
X186000000Y-166000000D02*
X186000000Y-200000000D01*
X164000000Y-62000000D02*
X158000000Y-62000000D01*
X140000000Y-86000000D02*
X144000000Y-86000000D01*
X186000000Y-154000000D02*
X188000000Y-156000000D01*
X178000000Y-124000000D02*
X182000000Y-120000000D01*
X118000000Y-210000000D02*
X124000000Y-216000000D01*
X190000000Y-162000000D02*
X188000000Y-162000000D01*
X94000000Y-130000000D02*
X94000000Y-122000000D01*
X158000000Y-52000000D02*
X164000000Y-52000000D01*
X154000000Y-50000000D02*
X150000000Y-50000000D01*
X158000000Y-256000000D02*
X154000000Y-252000000D01*
X158000000Y-254000000D02*
X164000000Y-254000000D01*
X120000000Y-96000000D02*
X124000000Y-92000000D01*
X140000000Y-100000000D02*
X140000000Y-96000000D01*
X124000000Y-68000000D02*
X118000000Y-74000000D01*
X90000000Y-130000000D02*
X90000000Y-122000000D01*
X142000000Y-186000000D02*
X166000000Y-186000000D01*
X140000000Y-220000000D02*
X142000000Y-220000000D01*
X178000000Y-66000000D02*
X178000000Y-56000000D01*
X104000000Y-208000000D02*
X100000000Y-204000000D01*
X164000000Y-256000000D02*
X158000000Y-256000000D01*
X158000000Y-200000000D02*
X156000000Y-200000000D01*
X192000000Y-84000000D02*
X192000000Y-120000000D01*
X176000000Y-200000000D02*
X176000000Y-176000000D01*
X122000000Y-180000000D02*
X122000000Y-186000000D01*
X186000000Y-200000000D02*
X184000000Y-200000000D01*
X166000000Y-80000000D02*
X166000000Y-70000000D01*
X106000000Y-212000000D02*
X104000000Y-212000000D01*
X100000000Y-180000000D02*
X98000000Y-178000000D01*
X94000000Y-114000000D02*
X94000000Y-120000000D01*
X142000000Y-236000000D02*
X148000000Y-242000000D01*
X170000000Y-204000000D02*
X170000000Y-230000000D01*
X136000000Y-124000000D02*
X150000000Y-124000000D01*
X90000000Y-140000000D02*
X88000000Y-142000000D01*
X148000000Y-232000000D02*
X142000000Y-226000000D01*
X166000000Y-42000000D02*
X172000000Y-42000000D01*
X156000000Y-86000000D02*
X156000000Y-106000000D01*
X140000000Y-244000000D02*
X142000000Y-244000000D01*
X182000000Y-84000000D02*
X178000000Y-80000000D01*
X118000000Y-120000000D02*
X116000000Y-122000000D01*
X196000000Y-262000000D02*
X196000000Y-204000000D01*
X154000000Y-80000000D02*
X158000000Y-76000000D01*
X124000000Y-228000000D02*
X126000000Y-228000000D01*
X172000000Y-250000000D02*
X166000000Y-250000000D01*
X122000000Y-76000000D02*
X110000000Y-88000000D01*
X166000000Y-58000000D02*
X172000000Y-58000000D01*
X124000000Y-74000000D02*
X126000000Y-74000000D01*
X140000000Y-234000000D02*
X134000000Y-228000000D01*
X96000000Y-122000000D02*
X96000000Y-130000000D01*
X140000000Y-222000000D02*
X128000000Y-210000000D01*
X128000000Y-192000000D02*
X132000000Y-196000000D01*
X140000000Y-56000000D02*
X134000000Y-62000000D01*
X152000000Y-110000000D02*
X152000000Y-112000000D01*
X184000000Y-134000000D02*
X182000000Y-136000000D01*
X188000000Y-46000000D02*
X188000000Y-66000000D01*
X120000000Y-196000000D02*
X120000000Y-190000000D01*
X112000000Y-92000000D02*
X112000000Y-88000000D01*
X110000000Y-148000000D02*
X110000000Y-142000000D01*
X158000000Y-252000000D02*
X154000000Y-248000000D01*
X98000000Y-178000000D02*
X98000000Y-170000000D01*
X140000000Y-80000000D02*
X134000000Y-86000000D01*
X136000000Y-146000000D02*
X134000000Y-148000000D01*
X178000000Y-242000000D02*
X176000000Y-242000000D01*
X166000000Y-70000000D02*
X168000000Y-68000000D01*
X164000000Y-200000000D02*
X164000000Y-188000000D01*
X98000000Y-140000000D02*
X96000000Y-142000000D01*
X126000000Y-184000000D02*
X126000000Y-188000000D01*
X106000000Y-114000000D02*
X106000000Y-120000000D01*
X138000000Y-56000000D02*
X138000000Y-54000000D01*
X166000000Y-116000000D02*
X166000000Y-84000000D01*
X154000000Y-242000000D02*
X158000000Y-246000000D01*
X158000000Y-230000000D02*
X164000000Y-230000000D01*
X104000000Y-160000000D02*
X102000000Y-158000000D01*
X154000000Y-240000000D02*
X148000000Y-240000000D01*
X166000000Y-256000000D02*
X172000000Y-256000000D01*
X110000000Y-160000000D02*
X110000000Y-168000000D01*
X132000000Y-208000000D02*
X128000000Y-204000000D01*
X126000000Y-180000000D02*
X126000000Y-182000000D01*
X152000000Y-120000000D02*
X170000000Y-120000000D01*
X134000000Y-152000000D02*
X136000000Y-154000000D01*
X176000000Y-244000000D02*
X180000000Y-244000000D01*
X154000000Y-246000000D02*
X158000000Y-250000000D01*
X148000000Y-216000000D02*
X142000000Y-210000000D01*
X116000000Y-204000000D02*
X116000000Y-200000000D01*
X124000000Y-76000000D02*
X124000000Y-74000000D01*
X190000000Y-158000000D02*
X188000000Y-158000000D01*
X144000000Y-98000000D02*
X150000000Y-92000000D01*
X184000000Y-120000000D02*
X180000000Y-124000000D01*
X196000000Y-162000000D02*
X194000000Y-162000000D01*
X144000000Y-80000000D02*
X140000000Y-80000000D01*
X158000000Y-80000000D02*
X158000000Y-78000000D01*
X154000000Y-226000000D02*
X158000000Y-230000000D01*
X132000000Y-210000000D02*
X132000000Y-208000000D01*
X110000000Y-190000000D02*
X110000000Y-196000000D01*
X172000000Y-238000000D02*
X166000000Y-238000000D01*
X106000000Y-196000000D02*
X110000000Y-200000000D01*
X136000000Y-156000000D02*
X132000000Y-152000000D01*
X154000000Y-90000000D02*
X150000000Y-90000000D01*
X182000000Y-80000000D02*
X182000000Y-70000000D01*
X100000000Y-168000000D02*
X100000000Y-160000000D01*
X94000000Y-178000000D02*
X94000000Y-170000000D01*
X154000000Y-66000000D02*
X150000000Y-66000000D01*
X136000000Y-174000000D02*
X178000000Y-174000000D01*
X94000000Y-160000000D02*
X94000000Y-168000000D01*
X148000000Y-222000000D02*
X154000000Y-222000000D01*
X124000000Y-100000000D02*
X124000000Y-96000000D01*
X172000000Y-46000000D02*
X176000000Y-42000000D01*
X136000000Y-178000000D02*
X174000000Y-178000000D01*
X154000000Y-52000000D02*
X158000000Y-48000000D01*
X154000000Y-222000000D02*
X158000000Y-226000000D01*
X140000000Y-90000000D02*
X144000000Y-90000000D01*
X132000000Y-100000000D02*
X132000000Y-96000000D01*
X164000000Y-44000000D02*
X166000000Y-42000000D01*
X160000000Y-80000000D02*
X164000000Y-84000000D01*
X142000000Y-222000000D02*
X140000000Y-222000000D01*
X134000000Y-76000000D02*
X140000000Y-70000000D01*
X120000000Y-130000000D02*
X118000000Y-132000000D01*
X154000000Y-78000000D02*
X150000000Y-78000000D01*
X94000000Y-158000000D02*
X94000000Y-142000000D01*
X164000000Y-232000000D02*
X158000000Y-232000000D01*
X178000000Y-132000000D02*
X178000000Y-124000000D01*
X154000000Y-224000000D02*
X148000000Y-224000000D01*
X180000000Y-172000000D02*
X136000000Y-172000000D01*
X158000000Y-64000000D02*
X164000000Y-64000000D01*
X126000000Y-104000000D02*
X126000000Y-110000000D01*
X150000000Y-88000000D02*
X154000000Y-88000000D01*
X158000000Y-250000000D02*
X164000000Y-250000000D01*
X166000000Y-236000000D02*
X172000000Y-236000000D01*
X130000000Y-100000000D02*
X126000000Y-104000000D01*
X164000000Y-236000000D02*
X158000000Y-236000000D01*
X158000000Y-50000000D02*
X154000000Y-54000000D01*
X124000000Y-180000000D02*
X122000000Y-178000000D01*
X114000000Y-218000000D02*
X114000000Y-216000000D01*
X102000000Y-204000000D02*
X106000000Y-208000000D01*
X120000000Y-186000000D02*
X120000000Y-180000000D01*
X114000000Y-148000000D02*
X114000000Y-152000000D01*
X142000000Y-216000000D02*
X148000000Y-222000000D01*
X102000000Y-114000000D02*
X102000000Y-120000000D01*
X158000000Y-228000000D02*
X154000000Y-224000000D01*
X112000000Y-168000000D02*
X112000000Y-160000000D01*
X110000000Y-142000000D02*
X112000000Y-140000000D01*
X188000000Y-70000000D02*
X188000000Y-80000000D01*
X122000000Y-178000000D02*
X122000000Y-172000000D01*
X148000000Y-250000000D02*
X154000000Y-250000000D01*
X150000000Y-66000000D02*
X144000000Y-72000000D01*
X90000000Y-170000000D02*
X88000000Y-168000000D01*
X124000000Y-234000000D02*
X118000000Y-228000000D01*
X162000000Y-112000000D02*
X162000000Y-84000000D01*
X134000000Y-238000000D02*
X140000000Y-244000000D01*
X176000000Y-58000000D02*
X176000000Y-66000000D01*
X150000000Y-50000000D02*
X144000000Y-56000000D01*
X170000000Y-84000000D02*
X166000000Y-80000000D01*
X136000000Y-128000000D02*
X174000000Y-128000000D01*
X154000000Y-72000000D02*
X158000000Y-68000000D01*
X164000000Y-60000000D02*
X166000000Y-58000000D01*
X128000000Y-148000000D02*
X136000000Y-140000000D01*
X182000000Y-140000000D02*
X184000000Y-138000000D01*
X108000000Y-170000000D02*
X108000000Y-178000000D01*
X132000000Y-70000000D02*
X114000000Y-88000000D01*
X172000000Y-44000000D02*
X166000000Y-44000000D01*
X110000000Y-110000000D02*
X106000000Y-114000000D01*
X164000000Y-234000000D02*
X166000000Y-236000000D01*
X142000000Y-230000000D02*
X140000000Y-230000000D01*
X132000000Y-234000000D02*
X134000000Y-234000000D01*
X180000000Y-244000000D02*
X180000000Y-204000000D01*
X114000000Y-186000000D02*
X118000000Y-190000000D01*
X122000000Y-226000000D02*
X114000000Y-218000000D01*
X128000000Y-200000000D02*
X124000000Y-196000000D01*
X124000000Y-204000000D02*
X124000000Y-200000000D01*
X190000000Y-84000000D02*
X186000000Y-80000000D01*
X114000000Y-200000000D02*
X114000000Y-204000000D01*
X178000000Y-200000000D02*
X176000000Y-200000000D01*
X196500000Y-156000000D02*
X198000000Y-157500000D01*
X193000000Y-152500000D02*
X196000000Y-149500000D01*
X116000000Y-100000000D02*
X116000000Y-96000000D01*
X112000000Y-170000000D02*
X112000000Y-178000000D01*
X134000000Y-92000000D02*
X130000000Y-96000000D01*
X172000000Y-234000000D02*
X166000000Y-234000000D01*
X94000000Y-168000000D02*
X96000000Y-170000000D01*
X158000000Y-204000000D02*
X158000000Y-216000000D01*
X194000000Y-260000000D02*
X192000000Y-258000000D01*
X132000000Y-80000000D02*
X134000000Y-80000000D01*
X134000000Y-96000000D02*
X134000000Y-100000000D01*
X100000000Y-204000000D02*
X100000000Y-200000000D01*
X196000000Y-149500000D02*
X196500000Y-149500000D01*
X102000000Y-122000000D02*
X104000000Y-120000000D01*
X188000000Y-120000000D02*
X184000000Y-124000000D01*
X108000000Y-180000000D02*
X106000000Y-178000000D01*
X166000000Y-84000000D02*
X162000000Y-80000000D01*
X110000000Y-132000000D02*
X110000000Y-140000000D01*
X168000000Y-84000000D02*
X168000000Y-118000000D01*
X116000000Y-74000000D02*
X124000000Y-66000000D01*
X128000000Y-204000000D02*
X128000000Y-200000000D01*
X104000000Y-88000000D02*
X116000000Y-76000000D01*
X100000000Y-190000000D02*
X96000000Y-186000000D01*
X148000000Y-236000000D02*
X142000000Y-230000000D01*
X128000000Y-196000000D02*
X128000000Y-192000000D01*
X126000000Y-216000000D02*
X120000000Y-210000000D01*
X184000000Y-204000000D02*
X182000000Y-204000000D01*
X130000000Y-110000000D02*
X126000000Y-114000000D01*
X112000000Y-100000000D02*
X112000000Y-96000000D01*
X124000000Y-152000000D02*
X124000000Y-148000000D01*
X156000000Y-196000000D02*
X148000000Y-196000000D01*
X172000000Y-56000000D02*
X166000000Y-56000000D01*
X182000000Y-170000000D02*
X182000000Y-200000000D01*
X132000000Y-110000000D02*
X132000000Y-104000000D01*
X104000000Y-142000000D02*
X104000000Y-158000000D01*
X132000000Y-228000000D02*
X122000000Y-218000000D01*
X92000000Y-170000000D02*
X92000000Y-178000000D01*
X152000000Y-118000000D02*
X152000000Y-120000000D01*
X118000000Y-196000000D02*
X122000000Y-200000000D01*
X124000000Y-190000000D02*
X120000000Y-186000000D01*
X144000000Y-86000000D02*
X150000000Y-80000000D01*
X142000000Y-244000000D02*
X148000000Y-250000000D01*
X162000000Y-200000000D02*
X160000000Y-200000000D01*
X96000000Y-168000000D02*
X96000000Y-160000000D01*
X120000000Y-226000000D02*
X120000000Y-228000000D01*
X158000000Y-108000000D02*
X158000000Y-84000000D01*
X134000000Y-68000000D02*
X140000000Y-62000000D01*
X134000000Y-66000000D02*
X132000000Y-66000000D01*
X94000000Y-122000000D02*
X96000000Y-120000000D01*
X92000000Y-178000000D02*
X94000000Y-180000000D01*
X106000000Y-130000000D02*
X106000000Y-122000000D01*
X164000000Y-226000000D02*
X166000000Y-228000000D01*
X128000000Y-184000000D02*
X130000000Y-182000000D01*
X188000000Y-158000000D02*
X186000000Y-156000000D01*
X180000000Y-204000000D02*
X178000000Y-204000000D01*
X140000000Y-242000000D02*
X134000000Y-236000000D01*
X178000000Y-80000000D02*
X178000000Y-70000000D01*
X134000000Y-104000000D02*
X134000000Y-110000000D01*
X144000000Y-66000000D02*
X150000000Y-60000000D01*
X94000000Y-142000000D02*
X96000000Y-140000000D01*
X154000000Y-234000000D02*
X158000000Y-238000000D01*
X172000000Y-62000000D02*
X176000000Y-58000000D01*
X104000000Y-196000000D02*
X104000000Y-190000000D01*
X162000000Y-220000000D02*
X158000000Y-220000000D01*
X140000000Y-184000000D02*
X140000000Y-192000000D01*
X172000000Y-246000000D02*
X166000000Y-246000000D01*
X152000000Y-114000000D02*
X152000000Y-116000000D01*
X144000000Y-56000000D02*
X140000000Y-56000000D01*
X126000000Y-228000000D02*
X132000000Y-234000000D01*
X120000000Y-122000000D02*
X120000000Y-130000000D01*
X144000000Y-96000000D02*
X142000000Y-96000000D01*
X142000000Y-210000000D02*
X140000000Y-210000000D01*
X126000000Y-148000000D02*
X126000000Y-152000000D01*
X170000000Y-80000000D02*
X170000000Y-70000000D01*
X122000000Y-210000000D02*
X128000000Y-216000000D01*
X102000000Y-104000000D02*
X102000000Y-110000000D01*
X192000000Y-70000000D02*
X192000000Y-80000000D01*
X110000000Y-180000000D02*
X110000000Y-186000000D01*
X174000000Y-66000000D02*
X174000000Y-62000000D01*
X88000000Y-132000000D02*
X90000000Y-130000000D01*
X154000000Y-214000000D02*
X158000000Y-218000000D01*
X100000000Y-114000000D02*
X104000000Y-110000000D01*
X136000000Y-200000000D02*
X138000000Y-200000000D01*
X184000000Y-140000000D02*
X184000000Y-142000000D01*
X104000000Y-190000000D02*
X100000000Y-186000000D01*
X164000000Y-58000000D02*
X158000000Y-58000000D01*
X120000000Y-88000000D02*
X132000000Y-76000000D01*
X132000000Y-232000000D02*
X118000000Y-218000000D01*
X96000000Y-140000000D02*
X96000000Y-132000000D01*
X154000000Y-64000000D02*
X158000000Y-60000000D01*
X126000000Y-152000000D02*
X136000000Y-162000000D01*
X192000000Y-260000000D02*
X194000000Y-262000000D01*
X112000000Y-190000000D02*
X108000000Y-186000000D01*
X96000000Y-130000000D02*
X94000000Y-132000000D01*
X104000000Y-104000000D02*
X108000000Y-100000000D01*
X166000000Y-68000000D02*
X164000000Y-70000000D01*
X100000000Y-200000000D02*
X96000000Y-196000000D01*
X142000000Y-94000000D02*
X144000000Y-94000000D01*
X144000000Y-70000000D02*
X150000000Y-64000000D01*
X148000000Y-102000000D02*
X142000000Y-102000000D01*
X144000000Y-100000000D02*
X144000000Y-98000000D01*
X140000000Y-92000000D02*
X140000000Y-90000000D01*
X136000000Y-204000000D02*
X136000000Y-200000000D01*
X178000000Y-70000000D02*
X182000000Y-66000000D01*
X120000000Y-200000000D02*
X116000000Y-196000000D01*
X118000000Y-96000000D02*
X118000000Y-100000000D01*
X104000000Y-122000000D02*
X104000000Y-130000000D01*
X136000000Y-106000000D02*
X136000000Y-104000000D01*
X172000000Y-50000000D02*
X176000000Y-46000000D01*
X166000000Y-242000000D02*
X164000000Y-240000000D01*
X138000000Y-194000000D02*
X132000000Y-194000000D01*
X148000000Y-200000000D02*
X146000000Y-202000000D01*
X118000000Y-132000000D02*
X118000000Y-134000000D01*
X136000000Y-112000000D02*
X148000000Y-112000000D01*
X106000000Y-160000000D02*
X106000000Y-168000000D01*
X184000000Y-80000000D02*
X188000000Y-84000000D01*
X110000000Y-152000000D02*
X136000000Y-178000000D01*
X166000000Y-56000000D02*
X164000000Y-58000000D01*
X140000000Y-78000000D02*
X144000000Y-78000000D01*
X142000000Y-100000000D02*
X138000000Y-104000000D01*
X116000000Y-120000000D02*
X116000000Y-114000000D01*
X158000000Y-66000000D02*
X154000000Y-70000000D01*
X140000000Y-240000000D02*
X142000000Y-240000000D01*
X180000000Y-124000000D02*
X180000000Y-134000000D01*
X114000000Y-104000000D02*
X114000000Y-110000000D01*
X142000000Y-232000000D02*
X148000000Y-238000000D01*
X102000000Y-186000000D02*
X106000000Y-190000000D01*
X124000000Y-104000000D02*
X128000000Y-100000000D01*
X136000000Y-136000000D02*
X180000000Y-136000000D01*
X150000000Y-52000000D02*
X154000000Y-52000000D01*
X158000000Y-74000000D02*
X154000000Y-78000000D01*
X130000000Y-96000000D02*
X130000000Y-100000000D01*
X166000000Y-64000000D02*
X164000000Y-66000000D01*
X104000000Y-178000000D02*
X106000000Y-180000000D01*
X96000000Y-160000000D02*
X94000000Y-158000000D01*
X136000000Y-162000000D02*
X186000000Y-162000000D01*
X192000000Y-164000000D02*
X190000000Y-162000000D01*
X118000000Y-204000000D02*
X122000000Y-208000000D01*
X120000000Y-152000000D02*
X120000000Y-148000000D01*
X164000000Y-252000000D02*
X158000000Y-252000000D01*
X186000000Y-120000000D02*
X186000000Y-84000000D01*
X132000000Y-216000000D02*
X132000000Y-218000000D01*
X134000000Y-72000000D02*
X140000000Y-66000000D01*
X140000000Y-204000000D02*
X140000000Y-202000000D01*
X122000000Y-122000000D02*
X124000000Y-120000000D01*
X184000000Y-70000000D02*
X184000000Y-80000000D01*
X118000000Y-168000000D02*
X120000000Y-170000000D01*
X164000000Y-248000000D02*
X158000000Y-248000000D01*
X164000000Y-56000000D02*
X166000000Y-54000000D01*
X108000000Y-190000000D02*
X104000000Y-186000000D01*
X176000000Y-254000000D02*
X172000000Y-250000000D01*
X112000000Y-156000000D02*
X112000000Y-158000000D01*
X142000000Y-204000000D02*
X148000000Y-210000000D01*
X92000000Y-168000000D02*
X92000000Y-160000000D01*
X112000000Y-216000000D02*
X112000000Y-218000000D01*
X108000000Y-208000000D02*
X104000000Y-204000000D01*
X132000000Y-152000000D02*
X132000000Y-148000000D01*
X106000000Y-88000000D02*
X106000000Y-92000000D01*
X138000000Y-196000000D02*
X142000000Y-192000000D01*
X154000000Y-250000000D02*
X158000000Y-254000000D01*
X112000000Y-96000000D02*
X116000000Y-92000000D01*
X112000000Y-144000000D02*
X136000000Y-120000000D01*
X108000000Y-100000000D02*
X108000000Y-96000000D01*
X108000000Y-120000000D02*
X108000000Y-114000000D01*
X194000000Y-38000000D02*
X192000000Y-40000000D01*
X98000000Y-114000000D02*
X98000000Y-120000000D01*
X190000000Y-124000000D02*
X194000000Y-120000000D01*
X126000000Y-182000000D02*
X128000000Y-180000000D01*
X150000000Y-64000000D02*
X154000000Y-64000000D01*
X164000000Y-66000000D02*
X158000000Y-66000000D01*
X114000000Y-100000000D02*
X110000000Y-104000000D01*
X152000000Y-106000000D02*
X152000000Y-108000000D01*
X176000000Y-46000000D02*
X188000000Y-46000000D01*
X120000000Y-208000000D02*
X116000000Y-204000000D01*
X124000000Y-96000000D02*
X128000000Y-92000000D01*
X154000000Y-212000000D02*
X148000000Y-212000000D01*
X132000000Y-68000000D02*
X134000000Y-68000000D01*
X134000000Y-78000000D02*
X132000000Y-78000000D01*
X136000000Y-166000000D02*
X186000000Y-166000000D01*
X158000000Y-82000000D02*
X160000000Y-84000000D01*
X150000000Y-68000000D02*
X154000000Y-68000000D01*
X106000000Y-96000000D02*
X106000000Y-100000000D01*
X110000000Y-100000000D02*
X106000000Y-104000000D01*
X150000000Y-92000000D02*
X152000000Y-92000000D01*
X138000000Y-204000000D02*
X148000000Y-214000000D01*
X116000000Y-162000000D02*
X136000000Y-182000000D01*
X158000000Y-244000000D02*
X154000000Y-240000000D01*
X104000000Y-212000000D02*
X104000000Y-208000000D01*
X94000000Y-132000000D02*
X94000000Y-140000000D01*
X168000000Y-68000000D02*
X166000000Y-68000000D01*
X188000000Y-140000000D02*
X188000000Y-144000000D01*
X148000000Y-202000000D02*
X198000000Y-202000000D01*
X116000000Y-200000000D02*
X112000000Y-196000000D01*
X126000000Y-70000000D02*
X132000000Y-64000000D01*
X118000000Y-208000000D02*
X118000000Y-210000000D01*
X104000000Y-170000000D02*
X104000000Y-178000000D01*
X142000000Y-214000000D02*
X140000000Y-214000000D01*
X102000000Y-190000000D02*
X102000000Y-196000000D01*
X148000000Y-116000000D02*
X148000000Y-118000000D01*
X184000000Y-136000000D02*
X186000000Y-134000000D01*
X114000000Y-122000000D02*
X116000000Y-120000000D01*
X192000000Y-120000000D02*
X188000000Y-124000000D01*
X130000000Y-218000000D02*
X130000000Y-216000000D01*
X120000000Y-190000000D02*
X116000000Y-186000000D01*
X96000000Y-114000000D02*
X100000000Y-110000000D01*
X104000000Y-204000000D02*
X104000000Y-200000000D01*
X154000000Y-218000000D02*
X158000000Y-222000000D01*
X116000000Y-180000000D02*
X114000000Y-178000000D01*
X92000000Y-186000000D02*
X92000000Y-180000000D01*
X114000000Y-190000000D02*
X114000000Y-196000000D01*
X178000000Y-174000000D02*
X178000000Y-200000000D01*
X140000000Y-210000000D02*
X140000000Y-208000000D01*
X164000000Y-64000000D02*
X166000000Y-62000000D01*
X172000000Y-248000000D02*
X176000000Y-252000000D01*
X182000000Y-136000000D02*
X182000000Y-138000000D01*
X152000000Y-206000000D02*
X152000000Y-204000000D01*
X152000000Y-108000000D02*
X158000000Y-108000000D01*
X98000000Y-120000000D02*
X96000000Y-122000000D01*
X148000000Y-252000000D02*
X142000000Y-246000000D01*
X150000000Y-48000000D02*
X154000000Y-48000000D01*
X104000000Y-130000000D02*
X102000000Y-132000000D01*
X110000000Y-208000000D02*
X110000000Y-210000000D01*
X136000000Y-118000000D02*
X116000000Y-138000000D01*
X150000000Y-72000000D02*
X154000000Y-72000000D01*
X172000000Y-236000000D02*
X176000000Y-240000000D01*
X166000000Y-226000000D02*
X164000000Y-224000000D01*
X176000000Y-260000000D02*
X192000000Y-260000000D01*
X102000000Y-140000000D02*
X100000000Y-142000000D01*
X116000000Y-168000000D02*
X116000000Y-162000000D01*
X104000000Y-92000000D02*
X104000000Y-88000000D01*
X156000000Y-200000000D02*
X156000000Y-196000000D01*
X152000000Y-116000000D02*
X166000000Y-116000000D01*
X184000000Y-84000000D02*
X184000000Y-120000000D01*
X172000000Y-70000000D02*
X172000000Y-80000000D01*
X144000000Y-62000000D02*
X150000000Y-56000000D01*
X186000000Y-204000000D02*
X186000000Y-250000000D01*
X190000000Y-136000000D02*
X190000000Y-138000000D01*
X106000000Y-200000000D02*
X106000000Y-204000000D01*
X106000000Y-122000000D02*
X108000000Y-120000000D01*
X166000000Y-50000000D02*
X172000000Y-50000000D01*
%TD*%
M02*
