%TF.GenerationSoftware,KiCad,Pcbnew,9.0.6*%
%TF.CreationDate,2025-11-01T11:07:57-07:00*%
%TF.ProjectId,ceramic printer,63657261-6d69-4632-9070-72696e746572,rev?*%
%TF.SameCoordinates,Original*%
%TF.FileFunction,Legend,Top*%
%TF.FilePolarity,Positive*%
%FSLAX46Y46*%
G04 Gerber Fmt 4.6, Leading zero omitted, Abs format (unit mm)*
G04 Created by KiCad (PCBNEW 9.0.6) date 2025-11-01 11:07:57*
%MOMM*%
%LPD*%
G01*
G04 APERTURE LIST*
%ADD10C,0.150000*%
%ADD11C,0.120000*%
G04 APERTURE END LIST*
D10*
X193214285Y-159954819D02*
X193214285Y-158954819D01*
X193214285Y-159431009D02*
X193785713Y-159431009D01*
X193785713Y-159954819D02*
X193785713Y-158954819D01*
X194642856Y-159907200D02*
X194547618Y-159954819D01*
X194547618Y-159954819D02*
X194357142Y-159954819D01*
X194357142Y-159954819D02*
X194261904Y-159907200D01*
X194261904Y-159907200D02*
X194214285Y-159811961D01*
X194214285Y-159811961D02*
X194214285Y-159431009D01*
X194214285Y-159431009D02*
X194261904Y-159335771D01*
X194261904Y-159335771D02*
X194357142Y-159288152D01*
X194357142Y-159288152D02*
X194547618Y-159288152D01*
X194547618Y-159288152D02*
X194642856Y-159335771D01*
X194642856Y-159335771D02*
X194690475Y-159431009D01*
X194690475Y-159431009D02*
X194690475Y-159526247D01*
X194690475Y-159526247D02*
X194214285Y-159621485D01*
X195547618Y-159954819D02*
X195547618Y-159431009D01*
X195547618Y-159431009D02*
X195499999Y-159335771D01*
X195499999Y-159335771D02*
X195404761Y-159288152D01*
X195404761Y-159288152D02*
X195214285Y-159288152D01*
X195214285Y-159288152D02*
X195119047Y-159335771D01*
X195547618Y-159907200D02*
X195452380Y-159954819D01*
X195452380Y-159954819D02*
X195214285Y-159954819D01*
X195214285Y-159954819D02*
X195119047Y-159907200D01*
X195119047Y-159907200D02*
X195071428Y-159811961D01*
X195071428Y-159811961D02*
X195071428Y-159716723D01*
X195071428Y-159716723D02*
X195119047Y-159621485D01*
X195119047Y-159621485D02*
X195214285Y-159573866D01*
X195214285Y-159573866D02*
X195452380Y-159573866D01*
X195452380Y-159573866D02*
X195547618Y-159526247D01*
X195880952Y-159288152D02*
X196261904Y-159288152D01*
X196023809Y-158954819D02*
X196023809Y-159811961D01*
X196023809Y-159811961D02*
X196071428Y-159907200D01*
X196071428Y-159907200D02*
X196166666Y-159954819D01*
X196166666Y-159954819D02*
X196261904Y-159954819D01*
X196976190Y-159907200D02*
X196880952Y-159954819D01*
X196880952Y-159954819D02*
X196690476Y-159954819D01*
X196690476Y-159954819D02*
X196595238Y-159907200D01*
X196595238Y-159907200D02*
X196547619Y-159811961D01*
X196547619Y-159811961D02*
X196547619Y-159431009D01*
X196547619Y-159431009D02*
X196595238Y-159335771D01*
X196595238Y-159335771D02*
X196690476Y-159288152D01*
X196690476Y-159288152D02*
X196880952Y-159288152D01*
X196880952Y-159288152D02*
X196976190Y-159335771D01*
X196976190Y-159335771D02*
X197023809Y-159431009D01*
X197023809Y-159431009D02*
X197023809Y-159526247D01*
X197023809Y-159526247D02*
X196547619Y-159621485D01*
X197452381Y-159954819D02*
X197452381Y-159288152D01*
X197452381Y-159478628D02*
X197500000Y-159383390D01*
X197500000Y-159383390D02*
X197547619Y-159335771D01*
X197547619Y-159335771D02*
X197642857Y-159288152D01*
X197642857Y-159288152D02*
X197738095Y-159288152D01*
X198023810Y-159050057D02*
X198071429Y-159002438D01*
X198071429Y-159002438D02*
X198166667Y-158954819D01*
X198166667Y-158954819D02*
X198404762Y-158954819D01*
X198404762Y-158954819D02*
X198500000Y-159002438D01*
X198500000Y-159002438D02*
X198547619Y-159050057D01*
X198547619Y-159050057D02*
X198595238Y-159145295D01*
X198595238Y-159145295D02*
X198595238Y-159240533D01*
X198595238Y-159240533D02*
X198547619Y-159383390D01*
X198547619Y-159383390D02*
X197976191Y-159954819D01*
X197976191Y-159954819D02*
X198595238Y-159954819D01*
X199023810Y-159573866D02*
X199785715Y-159573866D01*
X158846703Y-34035824D02*
X158521135Y-33090305D01*
X158521135Y-33090305D02*
X158746258Y-33012789D01*
X158746258Y-33012789D02*
X158896835Y-33011304D01*
X158896835Y-33011304D02*
X159017891Y-33070347D01*
X159017891Y-33070347D02*
X159093922Y-33144893D01*
X159093922Y-33144893D02*
X159200960Y-33309488D01*
X159200960Y-33309488D02*
X159247470Y-33444562D01*
X159247470Y-33444562D02*
X159264458Y-33640164D01*
X159264458Y-33640164D02*
X159250440Y-33745717D01*
X159250440Y-33745717D02*
X159191397Y-33866773D01*
X159191397Y-33866773D02*
X159071826Y-33958307D01*
X159071826Y-33958307D02*
X158846703Y-34035824D01*
X159916900Y-32609704D02*
X159466653Y-32764737D01*
X159466653Y-32764737D02*
X159576661Y-33230487D01*
X159576661Y-33230487D02*
X159606182Y-33169959D01*
X159606182Y-33169959D02*
X159680729Y-33093928D01*
X159680729Y-33093928D02*
X159905852Y-33016412D01*
X159905852Y-33016412D02*
X160011405Y-33030430D01*
X160011405Y-33030430D02*
X160071933Y-33059951D01*
X160071933Y-33059951D02*
X160147964Y-33134497D01*
X160147964Y-33134497D02*
X160225480Y-33359621D01*
X160225480Y-33359621D02*
X160211462Y-33465174D01*
X160211462Y-33465174D02*
X160181940Y-33525701D01*
X160181940Y-33525701D02*
X160107394Y-33601733D01*
X160107394Y-33601733D02*
X159882271Y-33679249D01*
X159882271Y-33679249D02*
X159776718Y-33665231D01*
X159776718Y-33665231D02*
X159716190Y-33635709D01*
X156509411Y-36850098D02*
X155969114Y-37036137D01*
X156239263Y-36943117D02*
X155913694Y-35997599D01*
X155913694Y-35997599D02*
X155870155Y-36163679D01*
X155870155Y-36163679D02*
X155811112Y-36284735D01*
X155811112Y-36284735D02*
X155736566Y-36360766D01*
X290627893Y-66764285D02*
X291371038Y-66095154D01*
X291371038Y-66095154D02*
X291530355Y-66272093D01*
X291530355Y-66272093D02*
X291590557Y-66410120D01*
X291590557Y-66410120D02*
X291583508Y-66544623D01*
X291583508Y-66544623D02*
X291544596Y-66643737D01*
X291544596Y-66643737D02*
X291434908Y-66806579D01*
X291434908Y-66806579D02*
X291328744Y-66902169D01*
X291328744Y-66902169D02*
X291155330Y-66994234D01*
X291155330Y-66994234D02*
X291052690Y-67022573D01*
X291052690Y-67022573D02*
X290918188Y-67015524D01*
X290918188Y-67015524D02*
X290787210Y-66941224D01*
X290787210Y-66941224D02*
X290627893Y-66764285D01*
X292326939Y-67156790D02*
X292199486Y-67015238D01*
X292199486Y-67015238D02*
X292100371Y-66976326D01*
X292100371Y-66976326D02*
X292033120Y-66972801D01*
X292033120Y-66972801D02*
X291863229Y-66997616D01*
X291863229Y-66997616D02*
X291689815Y-67089681D01*
X291689815Y-67089681D02*
X291406712Y-67344588D01*
X291406712Y-67344588D02*
X291367800Y-67443703D01*
X291367800Y-67443703D02*
X291364275Y-67510954D01*
X291364275Y-67510954D02*
X291392614Y-67613593D01*
X291392614Y-67613593D02*
X291520067Y-67755144D01*
X291520067Y-67755144D02*
X291619182Y-67794057D01*
X291619182Y-67794057D02*
X291686433Y-67797581D01*
X291686433Y-67797581D02*
X291789072Y-67769242D01*
X291789072Y-67769242D02*
X291966012Y-67609926D01*
X291966012Y-67609926D02*
X292004924Y-67510811D01*
X292004924Y-67510811D02*
X292008448Y-67443560D01*
X292008448Y-67443560D02*
X291980109Y-67340921D01*
X291980109Y-67340921D02*
X291852656Y-67199369D01*
X291852656Y-67199369D02*
X291753541Y-67160457D01*
X291753541Y-67160457D02*
X291686290Y-67156933D01*
X291686290Y-67156933D02*
X291583651Y-67185271D01*
X292964206Y-67864547D02*
X292836753Y-67722995D01*
X292836753Y-67722995D02*
X292737638Y-67684083D01*
X292737638Y-67684083D02*
X292670387Y-67680558D01*
X292670387Y-67680558D02*
X292500497Y-67705373D01*
X292500497Y-67705373D02*
X292327082Y-67797438D01*
X292327082Y-67797438D02*
X292043979Y-68052345D01*
X292043979Y-68052345D02*
X292005067Y-68151460D01*
X292005067Y-68151460D02*
X292001542Y-68218711D01*
X292001542Y-68218711D02*
X292029881Y-68321350D01*
X292029881Y-68321350D02*
X292157335Y-68462901D01*
X292157335Y-68462901D02*
X292256449Y-68501814D01*
X292256449Y-68501814D02*
X292323701Y-68505338D01*
X292323701Y-68505338D02*
X292426340Y-68476999D01*
X292426340Y-68476999D02*
X292603279Y-68317683D01*
X292603279Y-68317683D02*
X292642191Y-68218568D01*
X292642191Y-68218568D02*
X292645716Y-68151317D01*
X292645716Y-68151317D02*
X292617377Y-68048678D01*
X292617377Y-68048678D02*
X292489923Y-67907126D01*
X292489923Y-67907126D02*
X292390809Y-67868214D01*
X292390809Y-67868214D02*
X292323558Y-67864690D01*
X292323558Y-67864690D02*
X292220918Y-67893028D01*
X287442723Y-66066301D02*
X287060362Y-65641647D01*
X287251542Y-65853974D02*
X287994687Y-65184844D01*
X287994687Y-65184844D02*
X287824797Y-65209658D01*
X287824797Y-65209658D02*
X287690295Y-65202609D01*
X287690295Y-65202609D02*
X287591180Y-65163697D01*
X316647703Y-110822132D02*
X317598759Y-110513115D01*
X317598759Y-110513115D02*
X317672335Y-110739557D01*
X317672335Y-110739557D02*
X317671192Y-110890137D01*
X317671192Y-110890137D02*
X317610045Y-111010144D01*
X317610045Y-111010144D02*
X317534183Y-111084863D01*
X317534183Y-111084863D02*
X317367745Y-111189012D01*
X317367745Y-111189012D02*
X317231880Y-111233157D01*
X317231880Y-111233157D02*
X317036011Y-111246729D01*
X317036011Y-111246729D02*
X316930719Y-111230871D01*
X316930719Y-111230871D02*
X316810712Y-111169724D01*
X316810712Y-111169724D02*
X316721278Y-111048574D01*
X316721278Y-111048574D02*
X316647703Y-110822132D01*
X318040212Y-111871767D02*
X317981352Y-111690613D01*
X317981352Y-111690613D02*
X317906633Y-111614752D01*
X317906633Y-111614752D02*
X317846630Y-111584178D01*
X317846630Y-111584178D02*
X317681334Y-111537747D01*
X317681334Y-111537747D02*
X317485466Y-111551319D01*
X317485466Y-111551319D02*
X317123158Y-111669040D01*
X317123158Y-111669040D02*
X317047297Y-111743758D01*
X317047297Y-111743758D02*
X317016723Y-111803762D01*
X317016723Y-111803762D02*
X317000865Y-111909054D01*
X317000865Y-111909054D02*
X317059726Y-112090207D01*
X317059726Y-112090207D02*
X317134444Y-112166069D01*
X317134444Y-112166069D02*
X317194448Y-112196642D01*
X317194448Y-112196642D02*
X317299740Y-112212501D01*
X317299740Y-112212501D02*
X317526182Y-112138925D01*
X317526182Y-112138925D02*
X317602043Y-112064206D01*
X317602043Y-112064206D02*
X317632617Y-112004203D01*
X317632617Y-112004203D02*
X317648475Y-111898911D01*
X317648475Y-111898911D02*
X317589614Y-111717757D01*
X317589614Y-111717757D02*
X317514896Y-111641896D01*
X317514896Y-111641896D02*
X317454892Y-111611322D01*
X317454892Y-111611322D02*
X317349600Y-111595464D01*
X317412888Y-113177129D02*
X317236307Y-112633668D01*
X317324597Y-112905399D02*
X318275654Y-112596382D01*
X318275654Y-112596382D02*
X318110358Y-112549950D01*
X318110358Y-112549950D02*
X317990351Y-112488803D01*
X317990351Y-112488803D02*
X317915633Y-112412942D01*
X314021801Y-108888965D02*
X313845219Y-108345504D01*
X313933510Y-108617235D02*
X314884567Y-108308218D01*
X314884567Y-108308218D02*
X314719271Y-108261786D01*
X314719271Y-108261786D02*
X314599264Y-108200640D01*
X314599264Y-108200640D02*
X314524546Y-108124778D01*
X123005871Y-54011579D02*
X122390210Y-53223569D01*
X122390210Y-53223569D02*
X122577832Y-53076982D01*
X122577832Y-53076982D02*
X122719722Y-53026555D01*
X122719722Y-53026555D02*
X122853405Y-53042969D01*
X122853405Y-53042969D02*
X122949564Y-53088701D01*
X122949564Y-53088701D02*
X123104357Y-53209481D01*
X123104357Y-53209481D02*
X123192308Y-53322054D01*
X123192308Y-53322054D02*
X123272053Y-53501468D01*
X123272053Y-53501468D02*
X123293163Y-53605834D01*
X123293163Y-53605834D02*
X123276749Y-53739517D01*
X123276749Y-53739517D02*
X123193493Y-53864993D01*
X123193493Y-53864993D02*
X123005871Y-54011579D01*
X123831407Y-53366601D02*
X123981504Y-53249332D01*
X123981504Y-53249332D02*
X124027235Y-53153173D01*
X124027235Y-53153173D02*
X124035442Y-53086331D01*
X124035442Y-53086331D02*
X124022539Y-52915124D01*
X124022539Y-52915124D02*
X123942795Y-52735710D01*
X123942795Y-52735710D02*
X123708257Y-52435515D01*
X123708257Y-52435515D02*
X123612098Y-52389784D01*
X123612098Y-52389784D02*
X123545257Y-52381576D01*
X123545257Y-52381576D02*
X123440891Y-52402687D01*
X123440891Y-52402687D02*
X123290794Y-52519955D01*
X123290794Y-52519955D02*
X123245062Y-52616114D01*
X123245062Y-52616114D02*
X123236855Y-52682956D01*
X123236855Y-52682956D02*
X123257965Y-52787322D01*
X123257965Y-52787322D02*
X123404551Y-52974943D01*
X123404551Y-52974943D02*
X123500710Y-53020675D01*
X123500710Y-53020675D02*
X123567552Y-53028882D01*
X123567552Y-53028882D02*
X123671917Y-53007772D01*
X123671917Y-53007772D02*
X123822015Y-52890503D01*
X123822015Y-52890503D02*
X123867746Y-52794344D01*
X123867746Y-52794344D02*
X123875953Y-52727502D01*
X123875953Y-52727502D02*
X123854843Y-52623137D01*
X121712156Y-57433475D02*
X121261865Y-57785282D01*
X121487010Y-57609379D02*
X120871349Y-56821368D01*
X120871349Y-56821368D02*
X120884252Y-56992575D01*
X120884252Y-56992575D02*
X120867838Y-57126258D01*
X120867838Y-57126258D02*
X120822106Y-57222417D01*
X118078471Y-243027496D02*
X118734530Y-242272786D01*
X118734530Y-242272786D02*
X118914223Y-242428991D01*
X118914223Y-242428991D02*
X118990798Y-242558652D01*
X118990798Y-242558652D02*
X119000193Y-242693011D01*
X119000193Y-242693011D02*
X118973650Y-242796129D01*
X118973650Y-242796129D02*
X118884625Y-242971124D01*
X118884625Y-242971124D02*
X118790902Y-243078940D01*
X118790902Y-243078940D02*
X118630000Y-243191453D01*
X118630000Y-243191453D02*
X118531579Y-243232089D01*
X118531579Y-243232089D02*
X118397221Y-243241484D01*
X118397221Y-243241484D02*
X118258164Y-243183700D01*
X118258164Y-243183700D02*
X118078471Y-243027496D01*
X119417363Y-242866363D02*
X119884564Y-243272495D01*
X119884564Y-243272495D02*
X119383067Y-243341317D01*
X119383067Y-243341317D02*
X119490882Y-243435040D01*
X119490882Y-243435040D02*
X119531519Y-243533460D01*
X119531519Y-243533460D02*
X119536216Y-243600640D01*
X119536216Y-243600640D02*
X119509673Y-243703758D01*
X119509673Y-243703758D02*
X119353469Y-243883450D01*
X119353469Y-243883450D02*
X119255048Y-243924087D01*
X119255048Y-243924087D02*
X119187869Y-243928784D01*
X119187869Y-243928784D02*
X119084751Y-243902241D01*
X119084751Y-243902241D02*
X118869119Y-243714796D01*
X118869119Y-243714796D02*
X118828483Y-243616375D01*
X118828483Y-243616375D02*
X118823786Y-243549196D01*
X120351765Y-243678627D02*
X120423642Y-243741109D01*
X120423642Y-243741109D02*
X120464278Y-243839529D01*
X120464278Y-243839529D02*
X120468976Y-243906709D01*
X120468976Y-243906709D02*
X120442433Y-244009827D01*
X120442433Y-244009827D02*
X120353408Y-244184822D01*
X120353408Y-244184822D02*
X120197203Y-244364514D01*
X120197203Y-244364514D02*
X120036301Y-244477028D01*
X120036301Y-244477028D02*
X119937881Y-244517664D01*
X119937881Y-244517664D02*
X119870701Y-244522362D01*
X119870701Y-244522362D02*
X119767583Y-244495818D01*
X119767583Y-244495818D02*
X119695706Y-244433336D01*
X119695706Y-244433336D02*
X119655070Y-244334916D01*
X119655070Y-244334916D02*
X119650372Y-244267737D01*
X119650372Y-244267737D02*
X119676916Y-244164619D01*
X119676916Y-244164619D02*
X119765941Y-243989624D01*
X119765941Y-243989624D02*
X119922145Y-243809931D01*
X119922145Y-243809931D02*
X120083047Y-243697417D01*
X120083047Y-243697417D02*
X120181468Y-243656781D01*
X120181468Y-243656781D02*
X120248647Y-243652084D01*
X120248647Y-243652084D02*
X120351765Y-243678627D01*
X123589093Y-245300282D02*
X123157830Y-244925391D01*
X123373462Y-245112836D02*
X124029521Y-244358127D01*
X124029521Y-244358127D02*
X123863921Y-244403460D01*
X123863921Y-244403460D02*
X123729562Y-244412856D01*
X123729562Y-244412856D02*
X123626444Y-244386312D01*
X131278247Y-47937667D02*
X130719054Y-47108629D01*
X130719054Y-47108629D02*
X130916444Y-46975488D01*
X130916444Y-46975488D02*
X131061506Y-46935081D01*
X131061506Y-46935081D02*
X131193718Y-46960781D01*
X131193718Y-46960781D02*
X131286453Y-47013109D01*
X131286453Y-47013109D02*
X131432444Y-47144392D01*
X131432444Y-47144392D02*
X131512328Y-47262826D01*
X131512328Y-47262826D02*
X131579363Y-47447366D01*
X131579363Y-47447366D02*
X131593142Y-47552951D01*
X131593142Y-47552951D02*
X131567442Y-47685163D01*
X131567442Y-47685163D02*
X131475637Y-47804526D01*
X131475637Y-47804526D02*
X131278247Y-47937667D01*
X131906180Y-46824854D02*
X131800595Y-46838632D01*
X131800595Y-46838632D02*
X131734489Y-46825782D01*
X131734489Y-46825782D02*
X131641755Y-46773455D01*
X131641755Y-46773455D02*
X131615126Y-46733977D01*
X131615126Y-46733977D02*
X131601348Y-46628392D01*
X131601348Y-46628392D02*
X131614198Y-46562286D01*
X131614198Y-46562286D02*
X131666525Y-46469552D01*
X131666525Y-46469552D02*
X131824437Y-46363039D01*
X131824437Y-46363039D02*
X131930022Y-46349260D01*
X131930022Y-46349260D02*
X131996128Y-46362110D01*
X131996128Y-46362110D02*
X132088862Y-46414438D01*
X132088862Y-46414438D02*
X132115490Y-46453916D01*
X132115490Y-46453916D02*
X132129269Y-46559500D01*
X132129269Y-46559500D02*
X132116419Y-46625606D01*
X132116419Y-46625606D02*
X132064091Y-46718341D01*
X132064091Y-46718341D02*
X131906180Y-46824854D01*
X131906180Y-46824854D02*
X131853852Y-46917588D01*
X131853852Y-46917588D02*
X131841002Y-46983694D01*
X131841002Y-46983694D02*
X131854781Y-47089278D01*
X131854781Y-47089278D02*
X131961293Y-47247190D01*
X131961293Y-47247190D02*
X132054028Y-47299518D01*
X132054028Y-47299518D02*
X132120134Y-47312368D01*
X132120134Y-47312368D02*
X132225718Y-47298589D01*
X132225718Y-47298589D02*
X132383630Y-47192076D01*
X132383630Y-47192076D02*
X132435958Y-47099342D01*
X132435958Y-47099342D02*
X132448808Y-47033236D01*
X132448808Y-47033236D02*
X132435029Y-46927652D01*
X132435029Y-46927652D02*
X132328516Y-46769740D01*
X132328516Y-46769740D02*
X132235782Y-46717412D01*
X132235782Y-46717412D02*
X132169676Y-46704562D01*
X132169676Y-46704562D02*
X132064091Y-46718341D01*
X129748984Y-51260982D02*
X129275249Y-51580521D01*
X129512116Y-51420751D02*
X128952924Y-50591714D01*
X128952924Y-50591714D02*
X128953852Y-50763404D01*
X128953852Y-50763404D02*
X128928153Y-50895617D01*
X128928153Y-50895617D02*
X128875825Y-50988351D01*
X110574926Y-235833363D02*
X111294266Y-235138705D01*
X111294266Y-235138705D02*
X111459661Y-235309976D01*
X111459661Y-235309976D02*
X111524644Y-235445818D01*
X111524644Y-235445818D02*
X111522293Y-235580485D01*
X111522293Y-235580485D02*
X111486863Y-235680897D01*
X111486863Y-235680897D02*
X111382925Y-235847467D01*
X111382925Y-235847467D02*
X111280162Y-235946704D01*
X111280162Y-235946704D02*
X111110066Y-236044765D01*
X111110066Y-236044765D02*
X111008479Y-236076669D01*
X111008479Y-236076669D02*
X110873812Y-236074319D01*
X110873812Y-236074319D02*
X110740321Y-236004635D01*
X110740321Y-236004635D02*
X110574926Y-235833363D01*
X111887337Y-235889948D02*
X111954670Y-235891124D01*
X111954670Y-235891124D02*
X112055082Y-235926553D01*
X112055082Y-235926553D02*
X112220477Y-236097825D01*
X112220477Y-236097825D02*
X112252381Y-236199412D01*
X112252381Y-236199412D02*
X112251206Y-236266745D01*
X112251206Y-236266745D02*
X112215776Y-236367158D01*
X112215776Y-236367158D02*
X112147267Y-236433316D01*
X112147267Y-236433316D02*
X112011426Y-236498298D01*
X112011426Y-236498298D02*
X111203427Y-236484195D01*
X111203427Y-236484195D02*
X111633453Y-236929500D01*
X111964243Y-237272043D02*
X112096559Y-237409060D01*
X112096559Y-237409060D02*
X112196971Y-237444490D01*
X112196971Y-237444490D02*
X112264304Y-237445665D01*
X112264304Y-237445665D02*
X112433225Y-237414937D01*
X112433225Y-237414937D02*
X112603321Y-237316875D01*
X112603321Y-237316875D02*
X112877355Y-237052243D01*
X112877355Y-237052243D02*
X112912785Y-236951831D01*
X112912785Y-236951831D02*
X112913960Y-236884498D01*
X112913960Y-236884498D02*
X112882057Y-236782910D01*
X112882057Y-236782910D02*
X112749741Y-236645893D01*
X112749741Y-236645893D02*
X112649329Y-236610464D01*
X112649329Y-236610464D02*
X112581995Y-236609288D01*
X112581995Y-236609288D02*
X112480408Y-236641192D01*
X112480408Y-236641192D02*
X112309136Y-236806587D01*
X112309136Y-236806587D02*
X112273707Y-236906999D01*
X112273707Y-236906999D02*
X112272532Y-236974332D01*
X112272532Y-236974332D02*
X112304435Y-237075920D01*
X112304435Y-237075920D02*
X112436751Y-237212937D01*
X112436751Y-237212937D02*
X112537163Y-237248366D01*
X112537163Y-237248366D02*
X112604497Y-237249542D01*
X112604497Y-237249542D02*
X112706084Y-237217638D01*
X115866492Y-238577782D02*
X115469545Y-238166731D01*
X115668018Y-238372257D02*
X116387358Y-237677598D01*
X116387358Y-237677598D02*
X116218437Y-237708327D01*
X116218437Y-237708327D02*
X116083771Y-237705976D01*
X116083771Y-237705976D02*
X115983359Y-237670546D01*
X140067714Y-42537659D02*
X139582904Y-41663039D01*
X139582904Y-41663039D02*
X139791147Y-41547608D01*
X139791147Y-41547608D02*
X139939179Y-41519998D01*
X139939179Y-41519998D02*
X140068648Y-41557123D01*
X140068648Y-41557123D02*
X140156469Y-41617334D01*
X140156469Y-41617334D02*
X140290463Y-41760842D01*
X140290463Y-41760842D02*
X140359721Y-41885788D01*
X140359721Y-41885788D02*
X140410417Y-42075468D01*
X140410417Y-42075468D02*
X140414941Y-42181851D01*
X140414941Y-42181851D02*
X140377816Y-42311321D01*
X140377816Y-42311321D02*
X140275957Y-42422228D01*
X140275957Y-42422228D02*
X140067714Y-42537659D01*
X140374227Y-41224402D02*
X140957307Y-40901195D01*
X140957307Y-40901195D02*
X141067279Y-41983591D01*
X138254623Y-45715044D02*
X137754840Y-45992078D01*
X138004732Y-45853561D02*
X137519922Y-44978941D01*
X137519922Y-44978941D02*
X137505883Y-45150059D01*
X137505883Y-45150059D02*
X137468759Y-45279529D01*
X137468759Y-45279529D02*
X137408548Y-45367350D01*
X283334434Y-59468553D02*
X284016433Y-58737199D01*
X284016433Y-58737199D02*
X284190564Y-58899580D01*
X284190564Y-58899580D02*
X284262567Y-59031835D01*
X284262567Y-59031835D02*
X284267268Y-59166440D01*
X284267268Y-59166440D02*
X284237142Y-59268569D01*
X284237142Y-59268569D02*
X284142064Y-59440350D01*
X284142064Y-59440350D02*
X284044636Y-59544829D01*
X284044636Y-59544829D02*
X283879905Y-59651659D01*
X283879905Y-59651659D02*
X283780126Y-59688835D01*
X283780126Y-59688835D02*
X283645521Y-59693536D01*
X283645521Y-59693536D02*
X283508566Y-59630934D01*
X283508566Y-59630934D02*
X283334434Y-59468553D01*
X285061224Y-59711483D02*
X284921918Y-59581578D01*
X284921918Y-59581578D02*
X284819789Y-59551453D01*
X284819789Y-59551453D02*
X284752487Y-59553803D01*
X284752487Y-59553803D02*
X284585406Y-59593330D01*
X284585406Y-59593330D02*
X284420675Y-59700159D01*
X284420675Y-59700159D02*
X284160866Y-59978770D01*
X284160866Y-59978770D02*
X284130740Y-60080899D01*
X284130740Y-60080899D02*
X284133090Y-60148201D01*
X284133090Y-60148201D02*
X284170267Y-60247980D01*
X284170267Y-60247980D02*
X284309573Y-60377884D01*
X284309573Y-60377884D02*
X284411701Y-60408010D01*
X284411701Y-60408010D02*
X284479004Y-60405660D01*
X284479004Y-60405660D02*
X284578782Y-60368483D01*
X284578782Y-60368483D02*
X284741163Y-60194351D01*
X284741163Y-60194351D02*
X284771289Y-60092223D01*
X284771289Y-60092223D02*
X284768939Y-60024920D01*
X284768939Y-60024920D02*
X284731762Y-59925142D01*
X284731762Y-59925142D02*
X284592457Y-59795237D01*
X284592457Y-59795237D02*
X284490328Y-59765111D01*
X284490328Y-59765111D02*
X284423025Y-59767462D01*
X284423025Y-59767462D02*
X284323247Y-59804638D01*
X285374661Y-60003768D02*
X285862230Y-60458433D01*
X285862230Y-60458433D02*
X284866794Y-60897502D01*
X280100551Y-59050830D02*
X279682635Y-58661117D01*
X279891593Y-58855973D02*
X280573591Y-58124620D01*
X280573591Y-58124620D02*
X280406510Y-58164147D01*
X280406510Y-58164147D02*
X280271905Y-58168847D01*
X280271905Y-58168847D02*
X280169776Y-58138721D01*
X78011644Y-172048438D02*
X78993271Y-171857629D01*
X78993271Y-171857629D02*
X79038702Y-172091350D01*
X79038702Y-172091350D02*
X79019216Y-172240669D01*
X79019216Y-172240669D02*
X78943900Y-172352329D01*
X78943900Y-172352329D02*
X78859498Y-172417246D01*
X78859498Y-172417246D02*
X78681608Y-172500334D01*
X78681608Y-172500334D02*
X78541375Y-172527593D01*
X78541375Y-172527593D02*
X78345312Y-172517193D01*
X78345312Y-172517193D02*
X78242738Y-172488621D01*
X78242738Y-172488621D02*
X78131077Y-172413305D01*
X78131077Y-172413305D02*
X78057075Y-172282159D01*
X78057075Y-172282159D02*
X78011644Y-172048438D01*
X79081506Y-172810684D02*
X79137336Y-172848342D01*
X79137336Y-172848342D02*
X79202253Y-172932745D01*
X79202253Y-172932745D02*
X79247683Y-173166465D01*
X79247683Y-173166465D02*
X79219111Y-173269040D01*
X79219111Y-173269040D02*
X79181453Y-173324870D01*
X79181453Y-173324870D02*
X79097051Y-173389787D01*
X79097051Y-173389787D02*
X79003563Y-173407959D01*
X79003563Y-173407959D02*
X78854244Y-173388473D01*
X78854244Y-173388473D02*
X78184281Y-172936577D01*
X78184281Y-172936577D02*
X78302401Y-173544251D01*
X79263229Y-173745568D02*
X79319059Y-173783226D01*
X79319059Y-173783226D02*
X79383975Y-173867628D01*
X79383975Y-173867628D02*
X79429406Y-174101348D01*
X79429406Y-174101348D02*
X79400834Y-174203923D01*
X79400834Y-174203923D02*
X79363176Y-174259753D01*
X79363176Y-174259753D02*
X79278774Y-174324670D01*
X79278774Y-174324670D02*
X79185286Y-174342842D01*
X79185286Y-174342842D02*
X79035967Y-174323356D01*
X79035967Y-174323356D02*
X78366004Y-173871460D01*
X78366004Y-173871460D02*
X78484124Y-174479134D01*
X80954807Y-177232095D02*
X80845773Y-176671166D01*
X80900290Y-176951631D02*
X81881917Y-176760822D01*
X81881917Y-176760822D02*
X81723512Y-176694592D01*
X81723512Y-176694592D02*
X81611852Y-176619276D01*
X81611852Y-176619276D02*
X81546935Y-176534873D01*
X188958008Y-27451635D02*
X188870852Y-26455440D01*
X188870852Y-26455440D02*
X189108041Y-26434689D01*
X189108041Y-26434689D02*
X189254505Y-26469676D01*
X189254505Y-26469676D02*
X189357681Y-26556251D01*
X189357681Y-26556251D02*
X189413419Y-26646977D01*
X189413419Y-26646977D02*
X189477458Y-26832578D01*
X189477458Y-26832578D02*
X189489909Y-26974891D01*
X189489909Y-26974891D02*
X189459072Y-27168793D01*
X189459072Y-27168793D02*
X189419935Y-27267819D01*
X189419935Y-27267819D02*
X189333360Y-27370995D01*
X189333360Y-27370995D02*
X189195197Y-27430884D01*
X189195197Y-27430884D02*
X188958008Y-27451635D01*
X189827909Y-26467311D02*
X189871197Y-26415722D01*
X189871197Y-26415722D02*
X189961922Y-26359984D01*
X189961922Y-26359984D02*
X190199111Y-26339233D01*
X190199111Y-26339233D02*
X190298137Y-26378370D01*
X190298137Y-26378370D02*
X190349725Y-26421658D01*
X190349725Y-26421658D02*
X190405464Y-26512383D01*
X190405464Y-26512383D02*
X190413764Y-26607259D01*
X190413764Y-26607259D02*
X190378777Y-26753722D01*
X190378777Y-26753722D02*
X189859327Y-27372780D01*
X189859327Y-27372780D02*
X190476018Y-27318826D01*
X186009310Y-29616870D02*
X185440056Y-29666673D01*
X185724683Y-29641772D02*
X185637527Y-28645577D01*
X185637527Y-28645577D02*
X185555102Y-28796191D01*
X185555102Y-28796191D02*
X185468527Y-28899367D01*
X185468527Y-28899367D02*
X185377802Y-28955106D01*
X203454819Y-132001904D02*
X204264342Y-132001904D01*
X204264342Y-132001904D02*
X204359580Y-131954285D01*
X204359580Y-131954285D02*
X204407200Y-131906666D01*
X204407200Y-131906666D02*
X204454819Y-131811428D01*
X204454819Y-131811428D02*
X204454819Y-131620952D01*
X204454819Y-131620952D02*
X204407200Y-131525714D01*
X204407200Y-131525714D02*
X204359580Y-131478095D01*
X204359580Y-131478095D02*
X204264342Y-131430476D01*
X204264342Y-131430476D02*
X203454819Y-131430476D01*
X203550057Y-131001904D02*
X203502438Y-130954285D01*
X203502438Y-130954285D02*
X203454819Y-130859047D01*
X203454819Y-130859047D02*
X203454819Y-130620952D01*
X203454819Y-130620952D02*
X203502438Y-130525714D01*
X203502438Y-130525714D02*
X203550057Y-130478095D01*
X203550057Y-130478095D02*
X203645295Y-130430476D01*
X203645295Y-130430476D02*
X203740533Y-130430476D01*
X203740533Y-130430476D02*
X203883390Y-130478095D01*
X203883390Y-130478095D02*
X204454819Y-131049523D01*
X204454819Y-131049523D02*
X204454819Y-130430476D01*
X143818727Y-260507659D02*
X144257098Y-259608865D01*
X144257098Y-259608865D02*
X144471097Y-259713239D01*
X144471097Y-259713239D02*
X144578621Y-259818664D01*
X144578621Y-259818664D02*
X144622471Y-259946013D01*
X144622471Y-259946013D02*
X144623521Y-260052487D01*
X144623521Y-260052487D02*
X144582822Y-260244561D01*
X144582822Y-260244561D02*
X144520197Y-260372960D01*
X144520197Y-260372960D02*
X144393898Y-260523284D01*
X144393898Y-260523284D02*
X144309349Y-260588008D01*
X144309349Y-260588008D02*
X144182000Y-260631858D01*
X144182000Y-260631858D02*
X144032726Y-260612033D01*
X144032726Y-260612033D02*
X143818727Y-260507659D01*
X145070293Y-260005487D02*
X145626689Y-260276859D01*
X145626689Y-260276859D02*
X145160093Y-260473133D01*
X145160093Y-260473133D02*
X145288492Y-260535758D01*
X145288492Y-260535758D02*
X145353216Y-260620307D01*
X145353216Y-260620307D02*
X145375141Y-260683982D01*
X145375141Y-260683982D02*
X145376191Y-260790456D01*
X145376191Y-260790456D02*
X145271817Y-261004455D01*
X145271817Y-261004455D02*
X145187268Y-261069179D01*
X145187268Y-261069179D02*
X145123593Y-261091104D01*
X145123593Y-261091104D02*
X145017119Y-261092154D01*
X145017119Y-261092154D02*
X144760321Y-260966905D01*
X144760321Y-260966905D02*
X144695596Y-260882356D01*
X144695596Y-260882356D02*
X144673671Y-260818681D01*
X145926287Y-260422983D02*
X146482684Y-260694356D01*
X146482684Y-260694356D02*
X146016087Y-260890630D01*
X146016087Y-260890630D02*
X146144486Y-260953254D01*
X146144486Y-260953254D02*
X146209211Y-261037804D01*
X146209211Y-261037804D02*
X146231136Y-261101478D01*
X146231136Y-261101478D02*
X146232186Y-261207952D01*
X146232186Y-261207952D02*
X146127812Y-261421951D01*
X146127812Y-261421951D02*
X146043262Y-261486676D01*
X146043262Y-261486676D02*
X145979588Y-261508600D01*
X145979588Y-261508600D02*
X145873114Y-261509651D01*
X145873114Y-261509651D02*
X145616315Y-261384402D01*
X145616315Y-261384402D02*
X145551591Y-261299852D01*
X145551591Y-261299852D02*
X145529666Y-261236178D01*
X149729820Y-261276747D02*
X149216223Y-261026249D01*
X149473021Y-261151498D02*
X149911393Y-260252704D01*
X149911393Y-260252704D02*
X149763169Y-260339354D01*
X149763169Y-260339354D02*
X149635820Y-260383204D01*
X149635820Y-260383204D02*
X149529345Y-260384254D01*
X193623332Y-273804731D02*
X193658232Y-272805340D01*
X193658232Y-272805340D02*
X193896182Y-272813649D01*
X193896182Y-272813649D02*
X194037290Y-272866225D01*
X194037290Y-272866225D02*
X194129147Y-272964729D01*
X194129147Y-272964729D02*
X194173413Y-273061571D01*
X194173413Y-273061571D02*
X194214356Y-273253593D01*
X194214356Y-273253593D02*
X194209370Y-273396363D01*
X194209370Y-273396363D02*
X194155132Y-273585061D01*
X194155132Y-273585061D02*
X194104219Y-273678579D01*
X194104219Y-273678579D02*
X194005715Y-273770436D01*
X194005715Y-273770436D02*
X193861283Y-273813040D01*
X193861283Y-273813040D02*
X193623332Y-273804731D01*
X194562443Y-272836915D02*
X195181113Y-272858520D01*
X195181113Y-272858520D02*
X194834688Y-273227607D01*
X194834688Y-273227607D02*
X194977458Y-273232593D01*
X194977458Y-273232593D02*
X195070976Y-273283506D01*
X195070976Y-273283506D02*
X195116904Y-273332758D01*
X195116904Y-273332758D02*
X195161171Y-273429600D01*
X195161171Y-273429600D02*
X195152861Y-273667551D01*
X195152861Y-273667551D02*
X195101947Y-273761069D01*
X195101947Y-273761069D02*
X195052696Y-273806997D01*
X195052696Y-273806997D02*
X194955854Y-273851263D01*
X194955854Y-273851263D02*
X194670313Y-273841292D01*
X194670313Y-273841292D02*
X194576795Y-273790378D01*
X194576795Y-273790378D02*
X194530867Y-273741126D01*
X195737237Y-273306773D02*
X195643719Y-273255859D01*
X195643719Y-273255859D02*
X195597790Y-273206607D01*
X195597790Y-273206607D02*
X195553524Y-273109765D01*
X195553524Y-273109765D02*
X195555186Y-273062175D01*
X195555186Y-273062175D02*
X195606100Y-272968657D01*
X195606100Y-272968657D02*
X195655352Y-272922729D01*
X195655352Y-272922729D02*
X195752194Y-272878462D01*
X195752194Y-272878462D02*
X195942554Y-272885110D01*
X195942554Y-272885110D02*
X196036072Y-272936024D01*
X196036072Y-272936024D02*
X196082000Y-272985276D01*
X196082000Y-272985276D02*
X196126267Y-273082118D01*
X196126267Y-273082118D02*
X196124605Y-273129708D01*
X196124605Y-273129708D02*
X196073691Y-273223226D01*
X196073691Y-273223226D02*
X196024439Y-273269154D01*
X196024439Y-273269154D02*
X195927597Y-273313420D01*
X195927597Y-273313420D02*
X195737237Y-273306773D01*
X195737237Y-273306773D02*
X195640395Y-273351039D01*
X195640395Y-273351039D02*
X195591143Y-273396967D01*
X195591143Y-273396967D02*
X195540229Y-273490485D01*
X195540229Y-273490485D02*
X195533582Y-273680846D01*
X195533582Y-273680846D02*
X195577848Y-273777688D01*
X195577848Y-273777688D02*
X195623776Y-273826939D01*
X195623776Y-273826939D02*
X195717294Y-273877853D01*
X195717294Y-273877853D02*
X195907654Y-273884501D01*
X195907654Y-273884501D02*
X196004496Y-273840235D01*
X196004496Y-273840235D02*
X196053748Y-273794306D01*
X196053748Y-273794306D02*
X196104662Y-273700788D01*
X196104662Y-273700788D02*
X196111310Y-273510428D01*
X196111310Y-273510428D02*
X196067043Y-273413586D01*
X196067043Y-273413586D02*
X196021115Y-273364334D01*
X196021115Y-273364334D02*
X195927597Y-273313420D01*
X199336199Y-272103071D02*
X198765119Y-272083128D01*
X199050659Y-272093100D02*
X199085559Y-271093709D01*
X199085559Y-271093709D02*
X198985393Y-271233155D01*
X198985393Y-271233155D02*
X198886889Y-271325011D01*
X198886889Y-271325011D02*
X198790047Y-271369278D01*
X78102757Y-133248660D02*
X77112489Y-133109487D01*
X77112489Y-133109487D02*
X77145626Y-132873709D01*
X77145626Y-132873709D02*
X77212663Y-132738870D01*
X77212663Y-132738870D02*
X77320229Y-132657813D01*
X77320229Y-132657813D02*
X77421168Y-132623912D01*
X77421168Y-132623912D02*
X77616417Y-132603266D01*
X77616417Y-132603266D02*
X77757884Y-132623147D01*
X77757884Y-132623147D02*
X77939879Y-132696812D01*
X77939879Y-132696812D02*
X78027563Y-132757222D01*
X78027563Y-132757222D02*
X78108620Y-132864788D01*
X78108620Y-132864788D02*
X78135894Y-133012882D01*
X78135894Y-133012882D02*
X78102757Y-133248660D01*
X78314831Y-131739681D02*
X78235303Y-132305548D01*
X78275067Y-132022614D02*
X77284799Y-131883441D01*
X77284799Y-131883441D02*
X77413011Y-131997634D01*
X77413011Y-131997634D02*
X77494068Y-132105200D01*
X77494068Y-132105200D02*
X77527969Y-132206139D01*
X77828491Y-131094286D02*
X77768080Y-131181970D01*
X77768080Y-131181970D02*
X77714298Y-131222498D01*
X77714298Y-131222498D02*
X77613359Y-131256399D01*
X77613359Y-131256399D02*
X77566203Y-131249772D01*
X77566203Y-131249772D02*
X77478519Y-131189361D01*
X77478519Y-131189361D02*
X77437991Y-131135578D01*
X77437991Y-131135578D02*
X77404090Y-131034640D01*
X77404090Y-131034640D02*
X77430599Y-130846017D01*
X77430599Y-130846017D02*
X77491009Y-130758334D01*
X77491009Y-130758334D02*
X77544792Y-130717805D01*
X77544792Y-130717805D02*
X77645731Y-130683904D01*
X77645731Y-130683904D02*
X77692887Y-130690531D01*
X77692887Y-130690531D02*
X77780570Y-130750942D01*
X77780570Y-130750942D02*
X77821099Y-130804725D01*
X77821099Y-130804725D02*
X77855000Y-130905663D01*
X77855000Y-130905663D02*
X77828491Y-131094286D01*
X77828491Y-131094286D02*
X77862392Y-131195224D01*
X77862392Y-131195224D02*
X77902920Y-131249007D01*
X77902920Y-131249007D02*
X77990604Y-131309417D01*
X77990604Y-131309417D02*
X78179227Y-131335926D01*
X78179227Y-131335926D02*
X78280165Y-131302025D01*
X78280165Y-131302025D02*
X78333948Y-131261497D01*
X78333948Y-131261497D02*
X78394358Y-131173813D01*
X78394358Y-131173813D02*
X78420867Y-130985191D01*
X78420867Y-130985191D02*
X78386966Y-130884252D01*
X78386966Y-130884252D02*
X78346438Y-130830469D01*
X78346438Y-130830469D02*
X78258754Y-130770059D01*
X78258754Y-130770059D02*
X78070132Y-130743550D01*
X78070132Y-130743550D02*
X77969193Y-130777451D01*
X77969193Y-130777451D02*
X77915410Y-130817979D01*
X77915410Y-130817979D02*
X77855000Y-130905663D01*
X79615458Y-136137299D02*
X79535931Y-136703166D01*
X79575694Y-136420233D02*
X78585426Y-136281060D01*
X78585426Y-136281060D02*
X78713639Y-136395253D01*
X78713639Y-136395253D02*
X78794695Y-136502818D01*
X78794695Y-136502818D02*
X78828596Y-136603757D01*
X83394575Y-192040172D02*
X84334268Y-191698152D01*
X84334268Y-191698152D02*
X84415701Y-191921889D01*
X84415701Y-191921889D02*
X84419814Y-192072417D01*
X84419814Y-192072417D02*
X84362893Y-192194485D01*
X84362893Y-192194485D02*
X84289685Y-192271806D01*
X84289685Y-192271806D02*
X84126983Y-192381700D01*
X84126983Y-192381700D02*
X83992741Y-192430560D01*
X83992741Y-192430560D02*
X83797465Y-192450959D01*
X83797465Y-192450959D02*
X83691684Y-192438785D01*
X83691684Y-192438785D02*
X83569616Y-192381864D01*
X83569616Y-192381864D02*
X83476009Y-192263909D01*
X83476009Y-192263909D02*
X83394575Y-192040172D01*
X84570507Y-192625671D02*
X84631541Y-192654132D01*
X84631541Y-192654132D02*
X84708861Y-192727339D01*
X84708861Y-192727339D02*
X84790295Y-192951076D01*
X84790295Y-192951076D02*
X84778121Y-193056857D01*
X84778121Y-193056857D02*
X84749660Y-193117891D01*
X84749660Y-193117891D02*
X84676452Y-193195212D01*
X84676452Y-193195212D02*
X84586958Y-193227785D01*
X84586958Y-193227785D02*
X84436429Y-193231898D01*
X84436429Y-193231898D02*
X83704022Y-192890370D01*
X83704022Y-192890370D02*
X83915749Y-193472085D01*
X84835371Y-194049522D02*
X84208909Y-194277536D01*
X85111915Y-193695493D02*
X84359273Y-193716056D01*
X84359273Y-193716056D02*
X84571000Y-194297771D01*
X87112405Y-196699597D02*
X86916965Y-196162630D01*
X87014685Y-196431113D02*
X87954377Y-196089093D01*
X87954377Y-196089093D02*
X87787562Y-196048459D01*
X87787562Y-196048459D02*
X87665494Y-195991537D01*
X87665494Y-195991537D02*
X87588174Y-195918330D01*
X97526015Y-219759305D02*
X98345167Y-219185729D01*
X98345167Y-219185729D02*
X98481733Y-219380765D01*
X98481733Y-219380765D02*
X98524665Y-219525100D01*
X98524665Y-219525100D02*
X98501277Y-219657741D01*
X98501277Y-219657741D02*
X98450575Y-219751374D01*
X98450575Y-219751374D02*
X98321860Y-219899634D01*
X98321860Y-219899634D02*
X98204838Y-219981574D01*
X98204838Y-219981574D02*
X98021496Y-220051819D01*
X98021496Y-220051819D02*
X97916168Y-220067438D01*
X97916168Y-220067438D02*
X97783527Y-220044050D01*
X97783527Y-220044050D02*
X97662581Y-219954342D01*
X97662581Y-219954342D02*
X97526015Y-219759305D01*
X98813416Y-220020500D02*
X98879736Y-220032194D01*
X98879736Y-220032194D02*
X98973370Y-220082895D01*
X98973370Y-220082895D02*
X99109935Y-220277932D01*
X99109935Y-220277932D02*
X99125555Y-220383259D01*
X99125555Y-220383259D02*
X99113860Y-220449580D01*
X99113860Y-220449580D02*
X99063159Y-220543213D01*
X99063159Y-220543213D02*
X98985145Y-220597840D01*
X98985145Y-220597840D02*
X98840810Y-220640772D01*
X98840810Y-220640772D02*
X98044965Y-220500443D01*
X98044965Y-220500443D02*
X98400036Y-221007537D01*
X99410380Y-220707011D02*
X99792765Y-221253113D01*
X99792765Y-221253113D02*
X98727794Y-221475624D01*
X102323111Y-223297719D02*
X101995353Y-222829632D01*
X102159232Y-223063675D02*
X102978384Y-222490099D01*
X102978384Y-222490099D02*
X102806736Y-222494024D01*
X102806736Y-222494024D02*
X102674095Y-222470636D01*
X102674095Y-222470636D02*
X102580461Y-222419934D01*
X267103154Y-46845910D02*
X267662347Y-46016872D01*
X267662347Y-46016872D02*
X267859737Y-46150013D01*
X267859737Y-46150013D02*
X267951543Y-46269376D01*
X267951543Y-46269376D02*
X267977242Y-46401588D01*
X267977242Y-46401588D02*
X267963464Y-46507172D01*
X267963464Y-46507172D02*
X267896429Y-46691713D01*
X267896429Y-46691713D02*
X267816544Y-46810147D01*
X267816544Y-46810147D02*
X267670553Y-46941430D01*
X267670553Y-46941430D02*
X267577819Y-46993758D01*
X267577819Y-46993758D02*
X267445606Y-47019457D01*
X267445606Y-47019457D02*
X267300544Y-46979051D01*
X267300544Y-46979051D02*
X267103154Y-46845910D01*
X268846687Y-46815719D02*
X268688775Y-46709206D01*
X268688775Y-46709206D02*
X268583191Y-46695428D01*
X268583191Y-46695428D02*
X268517084Y-46708277D01*
X268517084Y-46708277D02*
X268358244Y-46773455D01*
X268358244Y-46773455D02*
X268212253Y-46904739D01*
X268212253Y-46904739D02*
X267999227Y-47220562D01*
X267999227Y-47220562D02*
X267985448Y-47326147D01*
X267985448Y-47326147D02*
X267998298Y-47392253D01*
X267998298Y-47392253D02*
X268050626Y-47484987D01*
X268050626Y-47484987D02*
X268208538Y-47591500D01*
X268208538Y-47591500D02*
X268314122Y-47605279D01*
X268314122Y-47605279D02*
X268380228Y-47592429D01*
X268380228Y-47592429D02*
X268472963Y-47540101D01*
X268472963Y-47540101D02*
X268606104Y-47342711D01*
X268606104Y-47342711D02*
X268619882Y-47237127D01*
X268619882Y-47237127D02*
X268607033Y-47171021D01*
X268607033Y-47171021D02*
X268554705Y-47078286D01*
X268554705Y-47078286D02*
X268396793Y-46971773D01*
X268396793Y-46971773D02*
X268291209Y-46957995D01*
X268291209Y-46957995D02*
X268225103Y-46970845D01*
X268225103Y-46970845D02*
X268132368Y-47023172D01*
X268761230Y-47964295D02*
X268919141Y-48070808D01*
X268919141Y-48070808D02*
X269024726Y-48084587D01*
X269024726Y-48084587D02*
X269090832Y-48071737D01*
X269090832Y-48071737D02*
X269249673Y-48006560D01*
X269249673Y-48006560D02*
X269395663Y-47875276D01*
X269395663Y-47875276D02*
X269608689Y-47559452D01*
X269608689Y-47559452D02*
X269622468Y-47453868D01*
X269622468Y-47453868D02*
X269609618Y-47387762D01*
X269609618Y-47387762D02*
X269557290Y-47295027D01*
X269557290Y-47295027D02*
X269399378Y-47188514D01*
X269399378Y-47188514D02*
X269293794Y-47174736D01*
X269293794Y-47174736D02*
X269227688Y-47187586D01*
X269227688Y-47187586D02*
X269134954Y-47239913D01*
X269134954Y-47239913D02*
X269001812Y-47437303D01*
X269001812Y-47437303D02*
X268988034Y-47542887D01*
X268988034Y-47542887D02*
X269000884Y-47608994D01*
X269000884Y-47608994D02*
X269053211Y-47701728D01*
X269053211Y-47701728D02*
X269211123Y-47808241D01*
X269211123Y-47808241D02*
X269316708Y-47822019D01*
X269316708Y-47822019D02*
X269382814Y-47809170D01*
X269382814Y-47809170D02*
X269475548Y-47756842D01*
X263843738Y-46939220D02*
X263370002Y-46619681D01*
X263606870Y-46779451D02*
X264166063Y-45950413D01*
X264166063Y-45950413D02*
X264007223Y-46015591D01*
X264007223Y-46015591D02*
X263875010Y-46041290D01*
X263875010Y-46041290D02*
X263769426Y-46027512D01*
X138604819Y-151285713D02*
X138604819Y-150714285D01*
X139604819Y-150999999D02*
X138604819Y-150999999D01*
X139604819Y-150380951D02*
X138604819Y-150380951D01*
X139081009Y-150380951D02*
X139081009Y-149809523D01*
X139604819Y-149809523D02*
X138604819Y-149809523D01*
X138700057Y-149380951D02*
X138652438Y-149333332D01*
X138652438Y-149333332D02*
X138604819Y-149238094D01*
X138604819Y-149238094D02*
X138604819Y-148999999D01*
X138604819Y-148999999D02*
X138652438Y-148904761D01*
X138652438Y-148904761D02*
X138700057Y-148857142D01*
X138700057Y-148857142D02*
X138795295Y-148809523D01*
X138795295Y-148809523D02*
X138890533Y-148809523D01*
X138890533Y-148809523D02*
X139033390Y-148857142D01*
X139033390Y-148857142D02*
X139604819Y-149428570D01*
X139604819Y-149428570D02*
X139604819Y-148809523D01*
X186954819Y-154190476D02*
X186954819Y-153619048D01*
X187954819Y-153904762D02*
X186954819Y-153904762D01*
X187954819Y-153285714D02*
X186954819Y-153285714D01*
X187954819Y-152857143D02*
X187431009Y-152857143D01*
X187431009Y-152857143D02*
X187335771Y-152904762D01*
X187335771Y-152904762D02*
X187288152Y-153000000D01*
X187288152Y-153000000D02*
X187288152Y-153142857D01*
X187288152Y-153142857D02*
X187335771Y-153238095D01*
X187335771Y-153238095D02*
X187383390Y-153285714D01*
X187907200Y-152000000D02*
X187954819Y-152095238D01*
X187954819Y-152095238D02*
X187954819Y-152285714D01*
X187954819Y-152285714D02*
X187907200Y-152380952D01*
X187907200Y-152380952D02*
X187811961Y-152428571D01*
X187811961Y-152428571D02*
X187431009Y-152428571D01*
X187431009Y-152428571D02*
X187335771Y-152380952D01*
X187335771Y-152380952D02*
X187288152Y-152285714D01*
X187288152Y-152285714D02*
X187288152Y-152095238D01*
X187288152Y-152095238D02*
X187335771Y-152000000D01*
X187335771Y-152000000D02*
X187431009Y-151952381D01*
X187431009Y-151952381D02*
X187526247Y-151952381D01*
X187526247Y-151952381D02*
X187621485Y-152428571D01*
X187954819Y-151523809D02*
X187288152Y-151523809D01*
X187478628Y-151523809D02*
X187383390Y-151476190D01*
X187383390Y-151476190D02*
X187335771Y-151428571D01*
X187335771Y-151428571D02*
X187288152Y-151333333D01*
X187288152Y-151333333D02*
X187288152Y-151238095D01*
X187954819Y-150904761D02*
X187288152Y-150904761D01*
X187383390Y-150904761D02*
X187335771Y-150857142D01*
X187335771Y-150857142D02*
X187288152Y-150761904D01*
X187288152Y-150761904D02*
X187288152Y-150619047D01*
X187288152Y-150619047D02*
X187335771Y-150523809D01*
X187335771Y-150523809D02*
X187431009Y-150476190D01*
X187431009Y-150476190D02*
X187954819Y-150476190D01*
X187431009Y-150476190D02*
X187335771Y-150428571D01*
X187335771Y-150428571D02*
X187288152Y-150333333D01*
X187288152Y-150333333D02*
X187288152Y-150190476D01*
X187288152Y-150190476D02*
X187335771Y-150095237D01*
X187335771Y-150095237D02*
X187431009Y-150047618D01*
X187431009Y-150047618D02*
X187954819Y-150047618D01*
X187954819Y-149571428D02*
X187288152Y-149571428D01*
X186954819Y-149571428D02*
X187002438Y-149619047D01*
X187002438Y-149619047D02*
X187050057Y-149571428D01*
X187050057Y-149571428D02*
X187002438Y-149523809D01*
X187002438Y-149523809D02*
X186954819Y-149571428D01*
X186954819Y-149571428D02*
X187050057Y-149571428D01*
X187907200Y-149142857D02*
X187954819Y-149047619D01*
X187954819Y-149047619D02*
X187954819Y-148857143D01*
X187954819Y-148857143D02*
X187907200Y-148761905D01*
X187907200Y-148761905D02*
X187811961Y-148714286D01*
X187811961Y-148714286D02*
X187764342Y-148714286D01*
X187764342Y-148714286D02*
X187669104Y-148761905D01*
X187669104Y-148761905D02*
X187621485Y-148857143D01*
X187621485Y-148857143D02*
X187621485Y-149000000D01*
X187621485Y-149000000D02*
X187573866Y-149095238D01*
X187573866Y-149095238D02*
X187478628Y-149142857D01*
X187478628Y-149142857D02*
X187431009Y-149142857D01*
X187431009Y-149142857D02*
X187335771Y-149095238D01*
X187335771Y-149095238D02*
X187288152Y-149000000D01*
X187288152Y-149000000D02*
X187288152Y-148857143D01*
X187288152Y-148857143D02*
X187335771Y-148761905D01*
X187288152Y-148428571D02*
X187288152Y-148047619D01*
X186954819Y-148285714D02*
X187811961Y-148285714D01*
X187811961Y-148285714D02*
X187907200Y-148238095D01*
X187907200Y-148238095D02*
X187954819Y-148142857D01*
X187954819Y-148142857D02*
X187954819Y-148047619D01*
X187954819Y-147571428D02*
X187907200Y-147666666D01*
X187907200Y-147666666D02*
X187859580Y-147714285D01*
X187859580Y-147714285D02*
X187764342Y-147761904D01*
X187764342Y-147761904D02*
X187478628Y-147761904D01*
X187478628Y-147761904D02*
X187383390Y-147714285D01*
X187383390Y-147714285D02*
X187335771Y-147666666D01*
X187335771Y-147666666D02*
X187288152Y-147571428D01*
X187288152Y-147571428D02*
X187288152Y-147428571D01*
X187288152Y-147428571D02*
X187335771Y-147333333D01*
X187335771Y-147333333D02*
X187383390Y-147285714D01*
X187383390Y-147285714D02*
X187478628Y-147238095D01*
X187478628Y-147238095D02*
X187764342Y-147238095D01*
X187764342Y-147238095D02*
X187859580Y-147285714D01*
X187859580Y-147285714D02*
X187907200Y-147333333D01*
X187907200Y-147333333D02*
X187954819Y-147428571D01*
X187954819Y-147428571D02*
X187954819Y-147571428D01*
X187954819Y-146809523D02*
X187288152Y-146809523D01*
X187478628Y-146809523D02*
X187383390Y-146761904D01*
X187383390Y-146761904D02*
X187335771Y-146714285D01*
X187335771Y-146714285D02*
X187288152Y-146619047D01*
X187288152Y-146619047D02*
X187288152Y-146523809D01*
X187050057Y-145476189D02*
X187002438Y-145428570D01*
X187002438Y-145428570D02*
X186954819Y-145333332D01*
X186954819Y-145333332D02*
X186954819Y-145095237D01*
X186954819Y-145095237D02*
X187002438Y-144999999D01*
X187002438Y-144999999D02*
X187050057Y-144952380D01*
X187050057Y-144952380D02*
X187145295Y-144904761D01*
X187145295Y-144904761D02*
X187240533Y-144904761D01*
X187240533Y-144904761D02*
X187383390Y-144952380D01*
X187383390Y-144952380D02*
X187954819Y-145523808D01*
X187954819Y-145523808D02*
X187954819Y-144904761D01*
X322716258Y-141041350D02*
X323713822Y-140971594D01*
X323713822Y-140971594D02*
X323730431Y-141209109D01*
X323730431Y-141209109D02*
X323692893Y-141354940D01*
X323692893Y-141354940D02*
X323604530Y-141456589D01*
X323604530Y-141456589D02*
X323512846Y-141510736D01*
X323512846Y-141510736D02*
X323326156Y-141571526D01*
X323326156Y-141571526D02*
X323183646Y-141581491D01*
X323183646Y-141581491D02*
X322990312Y-141547275D01*
X322990312Y-141547275D02*
X322891985Y-141506416D01*
X322891985Y-141506416D02*
X322790335Y-141418053D01*
X322790335Y-141418053D02*
X322732867Y-141278866D01*
X322732867Y-141278866D02*
X322716258Y-141041350D01*
X323816796Y-142444188D02*
X323783579Y-141969158D01*
X323783579Y-141969158D02*
X323305226Y-141954872D01*
X323305226Y-141954872D02*
X323356051Y-141999053D01*
X323356051Y-141999053D02*
X323410198Y-142090738D01*
X323410198Y-142090738D02*
X323426806Y-142328253D01*
X323426806Y-142328253D02*
X323385947Y-142426581D01*
X323385947Y-142426581D02*
X323341765Y-142477406D01*
X323341765Y-142477406D02*
X323250081Y-142531552D01*
X323250081Y-142531552D02*
X323012566Y-142548161D01*
X323012566Y-142548161D02*
X322914238Y-142507301D01*
X322914238Y-142507301D02*
X322863413Y-142463120D01*
X322863413Y-142463120D02*
X322809267Y-142371436D01*
X322809267Y-142371436D02*
X322792658Y-142133920D01*
X322792658Y-142133920D02*
X322833518Y-142035593D01*
X322833518Y-142035593D02*
X322877699Y-141984768D01*
X323432451Y-143091624D02*
X323473311Y-142993296D01*
X323473311Y-142993296D02*
X323517492Y-142942471D01*
X323517492Y-142942471D02*
X323609176Y-142888325D01*
X323609176Y-142888325D02*
X323656679Y-142885003D01*
X323656679Y-142885003D02*
X323755007Y-142925862D01*
X323755007Y-142925862D02*
X323805832Y-142970044D01*
X323805832Y-142970044D02*
X323859979Y-143061728D01*
X323859979Y-143061728D02*
X323873265Y-143251740D01*
X323873265Y-143251740D02*
X323832406Y-143350068D01*
X323832406Y-143350068D02*
X323788225Y-143400893D01*
X323788225Y-143400893D02*
X323696540Y-143455039D01*
X323696540Y-143455039D02*
X323649037Y-143458361D01*
X323649037Y-143458361D02*
X323550709Y-143417502D01*
X323550709Y-143417502D02*
X323499885Y-143373320D01*
X323499885Y-143373320D02*
X323445738Y-143281636D01*
X323445738Y-143281636D02*
X323432451Y-143091624D01*
X323432451Y-143091624D02*
X323378305Y-142999939D01*
X323378305Y-142999939D02*
X323327480Y-142955758D01*
X323327480Y-142955758D02*
X323229152Y-142914898D01*
X323229152Y-142914898D02*
X323039140Y-142928185D01*
X323039140Y-142928185D02*
X322947455Y-142982332D01*
X322947455Y-142982332D02*
X322903274Y-143033157D01*
X322903274Y-143033157D02*
X322862415Y-143131484D01*
X322862415Y-143131484D02*
X322875701Y-143321497D01*
X322875701Y-143321497D02*
X322929848Y-143413181D01*
X322929848Y-143413181D02*
X322980673Y-143457362D01*
X322980673Y-143457362D02*
X323079001Y-143498222D01*
X323079001Y-143498222D02*
X323269013Y-143484935D01*
X323269013Y-143484935D02*
X323360697Y-143430788D01*
X323360697Y-143430788D02*
X323404878Y-143379964D01*
X323404878Y-143379964D02*
X323445738Y-143281636D01*
X320636032Y-138530344D02*
X320596171Y-137960307D01*
X320616101Y-138245326D02*
X321613665Y-138175569D01*
X321613665Y-138175569D02*
X321464513Y-138090528D01*
X321464513Y-138090528D02*
X321362863Y-138002166D01*
X321362863Y-138002166D02*
X321308717Y-137910481D01*
X263159236Y-256659044D02*
X262644198Y-255801877D01*
X262644198Y-255801877D02*
X262848285Y-255679249D01*
X262848285Y-255679249D02*
X262995263Y-255646489D01*
X262995263Y-255646489D02*
X263125949Y-255679073D01*
X263125949Y-255679073D02*
X263215818Y-255736182D01*
X263215818Y-255736182D02*
X263354738Y-255874927D01*
X263354738Y-255874927D02*
X263428315Y-255997379D01*
X263428315Y-255997379D02*
X263485600Y-256185175D01*
X263485600Y-256185175D02*
X263493834Y-256291335D01*
X263493834Y-256291335D02*
X263461250Y-256422021D01*
X263461250Y-256422021D02*
X263363323Y-256536416D01*
X263363323Y-256536416D02*
X263159236Y-256659044D01*
X264040402Y-255351830D02*
X264383760Y-255923275D01*
X263640109Y-255147919D02*
X263803906Y-255882809D01*
X263803906Y-255882809D02*
X264334533Y-255563976D01*
X264725890Y-254551070D02*
X264317715Y-254796326D01*
X264317715Y-254796326D02*
X264522153Y-255229027D01*
X264522153Y-255229027D02*
X264538445Y-255163683D01*
X264538445Y-255163683D02*
X264595555Y-255073815D01*
X264595555Y-255073815D02*
X264799642Y-254951187D01*
X264799642Y-254951187D02*
X264905803Y-254942953D01*
X264905803Y-254942953D02*
X264971146Y-254959245D01*
X264971146Y-254959245D02*
X265061015Y-255016354D01*
X265061015Y-255016354D02*
X265183643Y-255220442D01*
X265183643Y-255220442D02*
X265191876Y-255326602D01*
X265191876Y-255326602D02*
X265175585Y-255391945D01*
X265175585Y-255391945D02*
X265118475Y-255481814D01*
X265118475Y-255481814D02*
X264914388Y-255604442D01*
X264914388Y-255604442D02*
X264808227Y-255612676D01*
X264808227Y-255612676D02*
X264742884Y-255596384D01*
X267023658Y-252120461D02*
X266533848Y-252414768D01*
X266778753Y-252267614D02*
X266263715Y-251410447D01*
X266263715Y-251410447D02*
X266255657Y-251581951D01*
X266255657Y-251581951D02*
X266223073Y-251712637D01*
X266223073Y-251712637D02*
X266165964Y-251802506D01*
X315774802Y-194322282D02*
X314835110Y-193980262D01*
X314835110Y-193980262D02*
X314916543Y-193756526D01*
X314916543Y-193756526D02*
X315010150Y-193638571D01*
X315010150Y-193638571D02*
X315132218Y-193581649D01*
X315132218Y-193581649D02*
X315238000Y-193569475D01*
X315238000Y-193569475D02*
X315433275Y-193589875D01*
X315433275Y-193589875D02*
X315567517Y-193638735D01*
X315567517Y-193638735D02*
X315730219Y-193748629D01*
X315730219Y-193748629D02*
X315803427Y-193825949D01*
X315803427Y-193825949D02*
X315860349Y-193948017D01*
X315860349Y-193948017D02*
X315856236Y-194098546D01*
X315856236Y-194098546D02*
X315774802Y-194322282D01*
X315339997Y-192593097D02*
X315177130Y-193040569D01*
X315177130Y-193040569D02*
X315608316Y-193248183D01*
X315608316Y-193248183D02*
X315579855Y-193187149D01*
X315579855Y-193187149D02*
X315567681Y-193081368D01*
X315567681Y-193081368D02*
X315649115Y-192857632D01*
X315649115Y-192857632D02*
X315726435Y-192784424D01*
X315726435Y-192784424D02*
X315787469Y-192755963D01*
X315787469Y-192755963D02*
X315893251Y-192743790D01*
X315893251Y-192743790D02*
X316116987Y-192825223D01*
X316116987Y-192825223D02*
X316190195Y-192902544D01*
X316190195Y-192902544D02*
X316218655Y-192963577D01*
X316218655Y-192963577D02*
X316230829Y-193069359D01*
X316230829Y-193069359D02*
X316149396Y-193293095D01*
X316149396Y-193293095D02*
X316072075Y-193366303D01*
X316072075Y-193366303D02*
X316011041Y-193394763D01*
X315470290Y-192235119D02*
X315682017Y-191653404D01*
X315682017Y-191653404D02*
X315925988Y-192096928D01*
X315925988Y-192096928D02*
X315974848Y-191962686D01*
X315974848Y-191962686D02*
X316052169Y-191889479D01*
X316052169Y-191889479D02*
X316113203Y-191861018D01*
X316113203Y-191861018D02*
X316218984Y-191848844D01*
X316218984Y-191848844D02*
X316442720Y-191930277D01*
X316442720Y-191930277D02*
X316515928Y-192007598D01*
X316515928Y-192007598D02*
X316544389Y-192068632D01*
X316544389Y-192068632D02*
X316556563Y-192174413D01*
X316556563Y-192174413D02*
X316458843Y-192442897D01*
X316458843Y-192442897D02*
X316381522Y-192516105D01*
X316381522Y-192516105D02*
X316320488Y-192544565D01*
X315921802Y-188363181D02*
X315726362Y-188900148D01*
X315824082Y-188631664D02*
X314884389Y-188289644D01*
X314884389Y-188289644D02*
X314986058Y-188427999D01*
X314986058Y-188427999D02*
X315042979Y-188550067D01*
X315042979Y-188550067D02*
X315055153Y-188655848D01*
X248937681Y-37098693D02*
X249344417Y-36185147D01*
X249344417Y-36185147D02*
X249561928Y-36281989D01*
X249561928Y-36281989D02*
X249673066Y-36383597D01*
X249673066Y-36383597D02*
X249721334Y-36509338D01*
X249721334Y-36509338D02*
X249726099Y-36615711D01*
X249726099Y-36615711D02*
X249692128Y-36809088D01*
X249692128Y-36809088D02*
X249634022Y-36939594D01*
X249634022Y-36939594D02*
X249513047Y-37094235D01*
X249513047Y-37094235D02*
X249430808Y-37161870D01*
X249430808Y-37161870D02*
X249305066Y-37210138D01*
X249305066Y-37210138D02*
X249155192Y-37195535D01*
X249155192Y-37195535D02*
X248937681Y-37098693D01*
X250170958Y-36553147D02*
X250779989Y-36824305D01*
X250779989Y-36824305D02*
X249981733Y-37563535D01*
X251199793Y-38105850D02*
X250677767Y-37873429D01*
X250938780Y-37989640D02*
X251345517Y-37076094D01*
X251345517Y-37076094D02*
X251200407Y-37167864D01*
X251200407Y-37167864D02*
X251074666Y-37216132D01*
X251074666Y-37216132D02*
X250968293Y-37220897D01*
X245743985Y-37756578D02*
X245221959Y-37524157D01*
X245482972Y-37640368D02*
X245889709Y-36726822D01*
X245889709Y-36726822D02*
X245744599Y-36818592D01*
X245744599Y-36818592D02*
X245618858Y-36866859D01*
X245618858Y-36866859D02*
X245512486Y-36871625D01*
X90396791Y-94047024D02*
X89513844Y-93577552D01*
X89513844Y-93577552D02*
X89625623Y-93367327D01*
X89625623Y-93367327D02*
X89734735Y-93263547D01*
X89734735Y-93263547D02*
X89863537Y-93224168D01*
X89863537Y-93224168D02*
X89969983Y-93226835D01*
X89969983Y-93226835D02*
X90160519Y-93274213D01*
X90160519Y-93274213D02*
X90286655Y-93341280D01*
X90286655Y-93341280D02*
X90432479Y-93472748D01*
X90432479Y-93472748D02*
X90494214Y-93559505D01*
X90494214Y-93559505D02*
X90533592Y-93688307D01*
X90533592Y-93688307D02*
X90508570Y-93836798D01*
X90508570Y-93836798D02*
X90396791Y-94047024D01*
X91112176Y-92701580D02*
X90843907Y-93206121D01*
X90978042Y-92953851D02*
X90095094Y-92484379D01*
X90095094Y-92484379D02*
X90176518Y-92635537D01*
X90176518Y-92635537D02*
X90215897Y-92764338D01*
X90215897Y-92764338D02*
X90213230Y-92870784D01*
X90925949Y-91631787D02*
X91514581Y-91944768D01*
X90477809Y-91663166D02*
X90996707Y-92208728D01*
X90996707Y-92208728D02*
X91287332Y-91662142D01*
X90830292Y-97278831D02*
X90562022Y-97783372D01*
X90696157Y-97531102D02*
X89813210Y-97061630D01*
X89813210Y-97061630D02*
X89894633Y-97212788D01*
X89894633Y-97212788D02*
X89934012Y-97341590D01*
X89934012Y-97341590D02*
X89931346Y-97448036D01*
X280088661Y-244620782D02*
X279432602Y-243866072D01*
X279432602Y-243866072D02*
X279612294Y-243709868D01*
X279612294Y-243709868D02*
X279751351Y-243652084D01*
X279751351Y-243652084D02*
X279885710Y-243661479D01*
X279885710Y-243661479D02*
X279984130Y-243702115D01*
X279984130Y-243702115D02*
X280145032Y-243814628D01*
X280145032Y-243814628D02*
X280238755Y-243922444D01*
X280238755Y-243922444D02*
X280327780Y-244097439D01*
X280327780Y-244097439D02*
X280354323Y-244200557D01*
X280354323Y-244200557D02*
X280344928Y-244334916D01*
X280344928Y-244334916D02*
X280268353Y-244464577D01*
X280268353Y-244464577D02*
X280088661Y-244620782D01*
X280729444Y-243180415D02*
X281166817Y-243683555D01*
X280299824Y-243049111D02*
X280588745Y-243744394D01*
X280588745Y-243744394D02*
X281055946Y-243338262D01*
X280834205Y-242647677D02*
X281337345Y-242210304D01*
X281337345Y-242210304D02*
X281669957Y-243246182D01*
X283106258Y-239480100D02*
X282674996Y-239854991D01*
X282890627Y-239667545D02*
X282234568Y-238912836D01*
X282234568Y-238912836D02*
X282256414Y-239083133D01*
X282256414Y-239083133D02*
X282247018Y-239217492D01*
X282247018Y-239217492D02*
X282206382Y-239315913D01*
X239307283Y-33400191D02*
X239632851Y-32454672D01*
X239632851Y-32454672D02*
X239857975Y-32532188D01*
X239857975Y-32532188D02*
X239977546Y-32623723D01*
X239977546Y-32623723D02*
X240036589Y-32744779D01*
X240036589Y-32744779D02*
X240050607Y-32850331D01*
X240050607Y-32850331D02*
X240033618Y-33045933D01*
X240033618Y-33045933D02*
X239987109Y-33181007D01*
X239987109Y-33181007D02*
X239880071Y-33345603D01*
X239880071Y-33345603D02*
X239804040Y-33420149D01*
X239804040Y-33420149D02*
X239682984Y-33479192D01*
X239682984Y-33479192D02*
X239532407Y-33477707D01*
X239532407Y-33477707D02*
X239307283Y-33400191D01*
X240488320Y-32749234D02*
X241118666Y-32966279D01*
X241118666Y-32966279D02*
X240387876Y-33772268D01*
X241402833Y-33164851D02*
X241463361Y-33135330D01*
X241463361Y-33135330D02*
X241568913Y-33121312D01*
X241568913Y-33121312D02*
X241794037Y-33198828D01*
X241794037Y-33198828D02*
X241868583Y-33274859D01*
X241868583Y-33274859D02*
X241898104Y-33335387D01*
X241898104Y-33335387D02*
X241912122Y-33440940D01*
X241912122Y-33440940D02*
X241881116Y-33530989D01*
X241881116Y-33530989D02*
X241789582Y-33650560D01*
X241789582Y-33650560D02*
X241063246Y-34004817D01*
X241063246Y-34004817D02*
X241648567Y-34206359D01*
X236183080Y-34333921D02*
X235642783Y-34147882D01*
X235912931Y-34240902D02*
X236238500Y-33295383D01*
X236238500Y-33295383D02*
X236101940Y-33399451D01*
X236101940Y-33399451D02*
X235980885Y-33458493D01*
X235980885Y-33458493D02*
X235875332Y-33472512D01*
X149278729Y-37892798D02*
X148871992Y-36979252D01*
X148871992Y-36979252D02*
X149089503Y-36882410D01*
X149089503Y-36882410D02*
X149239378Y-36867807D01*
X149239378Y-36867807D02*
X149365119Y-36916074D01*
X149365119Y-36916074D02*
X149447358Y-36983710D01*
X149447358Y-36983710D02*
X149568334Y-37138351D01*
X149568334Y-37138351D02*
X149626439Y-37268857D01*
X149626439Y-37268857D02*
X149660411Y-37462234D01*
X149660411Y-37462234D02*
X149655645Y-37568607D01*
X149655645Y-37568607D02*
X149607378Y-37694348D01*
X149607378Y-37694348D02*
X149496240Y-37795956D01*
X149496240Y-37795956D02*
X149278729Y-37892798D01*
X150177057Y-36398200D02*
X150003049Y-36475673D01*
X150003049Y-36475673D02*
X149935413Y-36557912D01*
X149935413Y-36557912D02*
X149911279Y-36620783D01*
X149911279Y-36620783D02*
X149882380Y-36790026D01*
X149882380Y-36790026D02*
X149916351Y-36983403D01*
X149916351Y-36983403D02*
X150071299Y-37331421D01*
X150071299Y-37331421D02*
X150153538Y-37399057D01*
X150153538Y-37399057D02*
X150216408Y-37423190D01*
X150216408Y-37423190D02*
X150322781Y-37427956D01*
X150322781Y-37427956D02*
X150496790Y-37350482D01*
X150496790Y-37350482D02*
X150564425Y-37268243D01*
X150564425Y-37268243D02*
X150588559Y-37205372D01*
X150588559Y-37205372D02*
X150593325Y-37099000D01*
X150593325Y-37099000D02*
X150496483Y-36881489D01*
X150496483Y-36881489D02*
X150414244Y-36813853D01*
X150414244Y-36813853D02*
X150351373Y-36789719D01*
X150351373Y-36789719D02*
X150245000Y-36784954D01*
X150245000Y-36784954D02*
X150070992Y-36862428D01*
X150070992Y-36862428D02*
X150003356Y-36944667D01*
X150003356Y-36944667D02*
X149979222Y-37007537D01*
X149979222Y-37007537D02*
X149974457Y-37113910D01*
X147195610Y-40900071D02*
X146673585Y-41132492D01*
X146934598Y-41016281D02*
X146527861Y-40102736D01*
X146527861Y-40102736D02*
X146498962Y-40271979D01*
X146498962Y-40271979D02*
X146450694Y-40397720D01*
X146450694Y-40397720D02*
X146383058Y-40479959D01*
X80284181Y-182193248D02*
X81245443Y-181917611D01*
X81245443Y-181917611D02*
X81311070Y-182146483D01*
X81311070Y-182146483D02*
X81304673Y-182296931D01*
X81304673Y-182296931D02*
X81239375Y-182414731D01*
X81239375Y-182414731D02*
X81160952Y-182486757D01*
X81160952Y-182486757D02*
X80990980Y-182585034D01*
X80990980Y-182585034D02*
X80853657Y-182624410D01*
X80853657Y-182624410D02*
X80657434Y-182631138D01*
X80657434Y-182631138D02*
X80552760Y-182611615D01*
X80552760Y-182611615D02*
X80434960Y-182546318D01*
X80434960Y-182546318D02*
X80349809Y-182422120D01*
X80349809Y-182422120D02*
X80284181Y-182193248D01*
X81416406Y-182859349D02*
X81475306Y-182891998D01*
X81475306Y-182891998D02*
X81547331Y-182970421D01*
X81547331Y-182970421D02*
X81612959Y-183199293D01*
X81612959Y-183199293D02*
X81593436Y-183303967D01*
X81593436Y-183303967D02*
X81560787Y-183362867D01*
X81560787Y-183362867D02*
X81482364Y-183434893D01*
X81482364Y-183434893D02*
X81390815Y-183461144D01*
X81390815Y-183461144D02*
X81240366Y-183454747D01*
X81240366Y-183454747D02*
X80533567Y-183062961D01*
X80533567Y-183062961D02*
X80704200Y-183658028D01*
X81757341Y-183702811D02*
X81927973Y-184297878D01*
X81927973Y-184297878D02*
X81469899Y-184082462D01*
X81469899Y-184082462D02*
X81509276Y-184219785D01*
X81509276Y-184219785D02*
X81489753Y-184324460D01*
X81489753Y-184324460D02*
X81457104Y-184383359D01*
X81457104Y-184383359D02*
X81378681Y-184455385D01*
X81378681Y-184455385D02*
X81149809Y-184521013D01*
X81149809Y-184521013D02*
X81045135Y-184501490D01*
X81045135Y-184501490D02*
X80986235Y-184468841D01*
X80986235Y-184468841D02*
X80914209Y-184390418D01*
X80914209Y-184390418D02*
X80835456Y-184115772D01*
X80835456Y-184115772D02*
X80854979Y-184011097D01*
X80854979Y-184011097D02*
X80887628Y-183952197D01*
X83667929Y-187100666D02*
X83510422Y-186551374D01*
X83589176Y-186826020D02*
X84550437Y-186550383D01*
X84550437Y-186550383D02*
X84386863Y-186498211D01*
X84386863Y-186498211D02*
X84269063Y-186432913D01*
X84269063Y-186432913D02*
X84197037Y-186354490D01*
X126158837Y-249567776D02*
X126746622Y-248758759D01*
X126746622Y-248758759D02*
X126939245Y-248898707D01*
X126939245Y-248898707D02*
X127026829Y-249021201D01*
X127026829Y-249021201D02*
X127047899Y-249154230D01*
X127047899Y-249154230D02*
X127030444Y-249259269D01*
X127030444Y-249259269D02*
X126957009Y-249441357D01*
X126957009Y-249441357D02*
X126873040Y-249556931D01*
X126873040Y-249556931D02*
X126722556Y-249683040D01*
X126722556Y-249683040D02*
X126628052Y-249732099D01*
X126628052Y-249732099D02*
X126495023Y-249753169D01*
X126495023Y-249753169D02*
X126351460Y-249707724D01*
X126351460Y-249707724D02*
X126158837Y-249567776D01*
X127478590Y-249290564D02*
X127979410Y-249654431D01*
X127979410Y-249654431D02*
X127485819Y-249766700D01*
X127485819Y-249766700D02*
X127601393Y-249850669D01*
X127601393Y-249850669D02*
X127650453Y-249945173D01*
X127650453Y-249945173D02*
X127660987Y-250011688D01*
X127660987Y-250011688D02*
X127643533Y-250116727D01*
X127643533Y-250116727D02*
X127503584Y-250309350D01*
X127503584Y-250309350D02*
X127409079Y-250358409D01*
X127409079Y-250358409D02*
X127342565Y-250368944D01*
X127342565Y-250368944D02*
X127237526Y-250351489D01*
X127237526Y-250351489D02*
X127006378Y-250183551D01*
X127006378Y-250183551D02*
X126957319Y-250089046D01*
X126957319Y-250089046D02*
X126946784Y-250022532D01*
X128162117Y-251023244D02*
X127699822Y-250687367D01*
X127930969Y-250855305D02*
X128518755Y-250046288D01*
X128518755Y-250046288D02*
X128357736Y-250105883D01*
X128357736Y-250105883D02*
X128224707Y-250126952D01*
X128224707Y-250126952D02*
X128119668Y-250109497D01*
X131846576Y-251351630D02*
X131384280Y-251015752D01*
X131615428Y-251183691D02*
X132203213Y-250374674D01*
X132203213Y-250374674D02*
X132042195Y-250434268D01*
X132042195Y-250434268D02*
X131909166Y-250455338D01*
X131909166Y-250455338D02*
X131804127Y-250437883D01*
X209097039Y-27281474D02*
X209184195Y-26285279D01*
X209184195Y-26285279D02*
X209421384Y-26306031D01*
X209421384Y-26306031D02*
X209559548Y-26365919D01*
X209559548Y-26365919D02*
X209646123Y-26469095D01*
X209646123Y-26469095D02*
X209685260Y-26568121D01*
X209685260Y-26568121D02*
X209716097Y-26762023D01*
X209716097Y-26762023D02*
X209703646Y-26904337D01*
X209703646Y-26904337D02*
X209639607Y-27089938D01*
X209639607Y-27089938D02*
X209583869Y-27180663D01*
X209583869Y-27180663D02*
X209480692Y-27267238D01*
X209480692Y-27267238D02*
X209334229Y-27302225D01*
X209334229Y-27302225D02*
X209097039Y-27281474D01*
X210085514Y-26364134D02*
X210749644Y-26422238D01*
X210749644Y-26422238D02*
X210235548Y-27381080D01*
X211603525Y-26496943D02*
X211129147Y-26455440D01*
X211129147Y-26455440D02*
X211040206Y-26925669D01*
X211040206Y-26925669D02*
X211091794Y-26882381D01*
X211091794Y-26882381D02*
X211190820Y-26843244D01*
X211190820Y-26843244D02*
X211428009Y-26863995D01*
X211428009Y-26863995D02*
X211518735Y-26919733D01*
X211518735Y-26919733D02*
X211562022Y-26971322D01*
X211562022Y-26971322D02*
X211601160Y-27070347D01*
X211601160Y-27070347D02*
X211580408Y-27307537D01*
X211580408Y-27307537D02*
X211524670Y-27398262D01*
X211524670Y-27398262D02*
X211473082Y-27441550D01*
X211473082Y-27441550D02*
X211374056Y-27480687D01*
X211374056Y-27480687D02*
X211136867Y-27459936D01*
X211136867Y-27459936D02*
X211046141Y-27404197D01*
X211046141Y-27404197D02*
X211002854Y-27352609D01*
X206291528Y-28943282D02*
X205722274Y-28893478D01*
X206006901Y-28918380D02*
X206094057Y-27922185D01*
X206094057Y-27922185D02*
X205986730Y-28056198D01*
X205986730Y-28056198D02*
X205883554Y-28142773D01*
X205883554Y-28142773D02*
X205784528Y-28181911D01*
X107747073Y-68569064D02*
X107003928Y-67899933D01*
X107003928Y-67899933D02*
X107163245Y-67722994D01*
X107163245Y-67722994D02*
X107294223Y-67648694D01*
X107294223Y-67648694D02*
X107428725Y-67641645D01*
X107428725Y-67641645D02*
X107531365Y-67669984D01*
X107531365Y-67669984D02*
X107704779Y-67762049D01*
X107704779Y-67762049D02*
X107810943Y-67857640D01*
X107810943Y-67857640D02*
X107920631Y-68020481D01*
X107920631Y-68020481D02*
X107959543Y-68119595D01*
X107959543Y-68119595D02*
X107966592Y-68254098D01*
X107966592Y-68254098D02*
X107906390Y-68392125D01*
X107906390Y-68392125D02*
X107747073Y-68569064D01*
X108766701Y-67436653D02*
X108384340Y-67861307D01*
X108575521Y-67648980D02*
X107832376Y-66979849D01*
X107832376Y-66979849D02*
X107874813Y-67146215D01*
X107874813Y-67146215D02*
X107881862Y-67280718D01*
X107881862Y-67280718D02*
X107853523Y-67383357D01*
X109403968Y-66728896D02*
X109021608Y-67153550D01*
X109212788Y-66941223D02*
X108469643Y-66272092D01*
X108469643Y-66272092D02*
X108512080Y-66438458D01*
X108512080Y-66438458D02*
X108519129Y-66572961D01*
X108519129Y-66572961D02*
X108490790Y-66675600D01*
X107385852Y-71809747D02*
X107003492Y-72234402D01*
X107194672Y-72022074D02*
X106451527Y-71352944D01*
X106451527Y-71352944D02*
X106493964Y-71519310D01*
X106493964Y-71519310D02*
X106501013Y-71653812D01*
X106501013Y-71653812D02*
X106472674Y-71756451D01*
X211954819Y-154190476D02*
X211954819Y-153619048D01*
X212954819Y-153904762D02*
X211954819Y-153904762D01*
X212954819Y-153285714D02*
X211954819Y-153285714D01*
X212954819Y-152857143D02*
X212431009Y-152857143D01*
X212431009Y-152857143D02*
X212335771Y-152904762D01*
X212335771Y-152904762D02*
X212288152Y-153000000D01*
X212288152Y-153000000D02*
X212288152Y-153142857D01*
X212288152Y-153142857D02*
X212335771Y-153238095D01*
X212335771Y-153238095D02*
X212383390Y-153285714D01*
X212907200Y-152000000D02*
X212954819Y-152095238D01*
X212954819Y-152095238D02*
X212954819Y-152285714D01*
X212954819Y-152285714D02*
X212907200Y-152380952D01*
X212907200Y-152380952D02*
X212811961Y-152428571D01*
X212811961Y-152428571D02*
X212431009Y-152428571D01*
X212431009Y-152428571D02*
X212335771Y-152380952D01*
X212335771Y-152380952D02*
X212288152Y-152285714D01*
X212288152Y-152285714D02*
X212288152Y-152095238D01*
X212288152Y-152095238D02*
X212335771Y-152000000D01*
X212335771Y-152000000D02*
X212431009Y-151952381D01*
X212431009Y-151952381D02*
X212526247Y-151952381D01*
X212526247Y-151952381D02*
X212621485Y-152428571D01*
X212954819Y-151523809D02*
X212288152Y-151523809D01*
X212478628Y-151523809D02*
X212383390Y-151476190D01*
X212383390Y-151476190D02*
X212335771Y-151428571D01*
X212335771Y-151428571D02*
X212288152Y-151333333D01*
X212288152Y-151333333D02*
X212288152Y-151238095D01*
X212954819Y-150904761D02*
X212288152Y-150904761D01*
X212383390Y-150904761D02*
X212335771Y-150857142D01*
X212335771Y-150857142D02*
X212288152Y-150761904D01*
X212288152Y-150761904D02*
X212288152Y-150619047D01*
X212288152Y-150619047D02*
X212335771Y-150523809D01*
X212335771Y-150523809D02*
X212431009Y-150476190D01*
X212431009Y-150476190D02*
X212954819Y-150476190D01*
X212431009Y-150476190D02*
X212335771Y-150428571D01*
X212335771Y-150428571D02*
X212288152Y-150333333D01*
X212288152Y-150333333D02*
X212288152Y-150190476D01*
X212288152Y-150190476D02*
X212335771Y-150095237D01*
X212335771Y-150095237D02*
X212431009Y-150047618D01*
X212431009Y-150047618D02*
X212954819Y-150047618D01*
X212954819Y-149571428D02*
X212288152Y-149571428D01*
X211954819Y-149571428D02*
X212002438Y-149619047D01*
X212002438Y-149619047D02*
X212050057Y-149571428D01*
X212050057Y-149571428D02*
X212002438Y-149523809D01*
X212002438Y-149523809D02*
X211954819Y-149571428D01*
X211954819Y-149571428D02*
X212050057Y-149571428D01*
X212907200Y-149142857D02*
X212954819Y-149047619D01*
X212954819Y-149047619D02*
X212954819Y-148857143D01*
X212954819Y-148857143D02*
X212907200Y-148761905D01*
X212907200Y-148761905D02*
X212811961Y-148714286D01*
X212811961Y-148714286D02*
X212764342Y-148714286D01*
X212764342Y-148714286D02*
X212669104Y-148761905D01*
X212669104Y-148761905D02*
X212621485Y-148857143D01*
X212621485Y-148857143D02*
X212621485Y-149000000D01*
X212621485Y-149000000D02*
X212573866Y-149095238D01*
X212573866Y-149095238D02*
X212478628Y-149142857D01*
X212478628Y-149142857D02*
X212431009Y-149142857D01*
X212431009Y-149142857D02*
X212335771Y-149095238D01*
X212335771Y-149095238D02*
X212288152Y-149000000D01*
X212288152Y-149000000D02*
X212288152Y-148857143D01*
X212288152Y-148857143D02*
X212335771Y-148761905D01*
X212288152Y-148428571D02*
X212288152Y-148047619D01*
X211954819Y-148285714D02*
X212811961Y-148285714D01*
X212811961Y-148285714D02*
X212907200Y-148238095D01*
X212907200Y-148238095D02*
X212954819Y-148142857D01*
X212954819Y-148142857D02*
X212954819Y-148047619D01*
X212954819Y-147571428D02*
X212907200Y-147666666D01*
X212907200Y-147666666D02*
X212859580Y-147714285D01*
X212859580Y-147714285D02*
X212764342Y-147761904D01*
X212764342Y-147761904D02*
X212478628Y-147761904D01*
X212478628Y-147761904D02*
X212383390Y-147714285D01*
X212383390Y-147714285D02*
X212335771Y-147666666D01*
X212335771Y-147666666D02*
X212288152Y-147571428D01*
X212288152Y-147571428D02*
X212288152Y-147428571D01*
X212288152Y-147428571D02*
X212335771Y-147333333D01*
X212335771Y-147333333D02*
X212383390Y-147285714D01*
X212383390Y-147285714D02*
X212478628Y-147238095D01*
X212478628Y-147238095D02*
X212764342Y-147238095D01*
X212764342Y-147238095D02*
X212859580Y-147285714D01*
X212859580Y-147285714D02*
X212907200Y-147333333D01*
X212907200Y-147333333D02*
X212954819Y-147428571D01*
X212954819Y-147428571D02*
X212954819Y-147571428D01*
X212954819Y-146809523D02*
X212288152Y-146809523D01*
X212478628Y-146809523D02*
X212383390Y-146761904D01*
X212383390Y-146761904D02*
X212335771Y-146714285D01*
X212335771Y-146714285D02*
X212288152Y-146619047D01*
X212288152Y-146619047D02*
X212288152Y-146523809D01*
X212954819Y-144904761D02*
X212954819Y-145476189D01*
X212954819Y-145190475D02*
X211954819Y-145190475D01*
X211954819Y-145190475D02*
X212097676Y-145285713D01*
X212097676Y-145285713D02*
X212192914Y-145380951D01*
X212192914Y-145380951D02*
X212240533Y-145476189D01*
X201214285Y-146954819D02*
X201214285Y-145954819D01*
X201214285Y-146431009D02*
X201785713Y-146431009D01*
X201785713Y-146954819D02*
X201785713Y-145954819D01*
X202642856Y-146907200D02*
X202547618Y-146954819D01*
X202547618Y-146954819D02*
X202357142Y-146954819D01*
X202357142Y-146954819D02*
X202261904Y-146907200D01*
X202261904Y-146907200D02*
X202214285Y-146811961D01*
X202214285Y-146811961D02*
X202214285Y-146431009D01*
X202214285Y-146431009D02*
X202261904Y-146335771D01*
X202261904Y-146335771D02*
X202357142Y-146288152D01*
X202357142Y-146288152D02*
X202547618Y-146288152D01*
X202547618Y-146288152D02*
X202642856Y-146335771D01*
X202642856Y-146335771D02*
X202690475Y-146431009D01*
X202690475Y-146431009D02*
X202690475Y-146526247D01*
X202690475Y-146526247D02*
X202214285Y-146621485D01*
X203547618Y-146954819D02*
X203547618Y-146431009D01*
X203547618Y-146431009D02*
X203499999Y-146335771D01*
X203499999Y-146335771D02*
X203404761Y-146288152D01*
X203404761Y-146288152D02*
X203214285Y-146288152D01*
X203214285Y-146288152D02*
X203119047Y-146335771D01*
X203547618Y-146907200D02*
X203452380Y-146954819D01*
X203452380Y-146954819D02*
X203214285Y-146954819D01*
X203214285Y-146954819D02*
X203119047Y-146907200D01*
X203119047Y-146907200D02*
X203071428Y-146811961D01*
X203071428Y-146811961D02*
X203071428Y-146716723D01*
X203071428Y-146716723D02*
X203119047Y-146621485D01*
X203119047Y-146621485D02*
X203214285Y-146573866D01*
X203214285Y-146573866D02*
X203452380Y-146573866D01*
X203452380Y-146573866D02*
X203547618Y-146526247D01*
X203880952Y-146288152D02*
X204261904Y-146288152D01*
X204023809Y-145954819D02*
X204023809Y-146811961D01*
X204023809Y-146811961D02*
X204071428Y-146907200D01*
X204071428Y-146907200D02*
X204166666Y-146954819D01*
X204166666Y-146954819D02*
X204261904Y-146954819D01*
X204976190Y-146907200D02*
X204880952Y-146954819D01*
X204880952Y-146954819D02*
X204690476Y-146954819D01*
X204690476Y-146954819D02*
X204595238Y-146907200D01*
X204595238Y-146907200D02*
X204547619Y-146811961D01*
X204547619Y-146811961D02*
X204547619Y-146431009D01*
X204547619Y-146431009D02*
X204595238Y-146335771D01*
X204595238Y-146335771D02*
X204690476Y-146288152D01*
X204690476Y-146288152D02*
X204880952Y-146288152D01*
X204880952Y-146288152D02*
X204976190Y-146335771D01*
X204976190Y-146335771D02*
X205023809Y-146431009D01*
X205023809Y-146431009D02*
X205023809Y-146526247D01*
X205023809Y-146526247D02*
X204547619Y-146621485D01*
X205452381Y-146954819D02*
X205452381Y-146288152D01*
X205452381Y-146478628D02*
X205500000Y-146383390D01*
X205500000Y-146383390D02*
X205547619Y-146335771D01*
X205547619Y-146335771D02*
X205642857Y-146288152D01*
X205642857Y-146288152D02*
X205738095Y-146288152D01*
X206595238Y-146954819D02*
X206023810Y-146954819D01*
X206309524Y-146954819D02*
X206309524Y-145954819D01*
X206309524Y-145954819D02*
X206214286Y-146097676D01*
X206214286Y-146097676D02*
X206119048Y-146192914D01*
X206119048Y-146192914D02*
X206023810Y-146240533D01*
X207023810Y-146573866D02*
X207785715Y-146573866D01*
X92044883Y-210925807D02*
X92910908Y-210425807D01*
X92910908Y-210425807D02*
X93029956Y-210632003D01*
X93029956Y-210632003D02*
X93060145Y-210779531D01*
X93060145Y-210779531D02*
X93025285Y-210909628D01*
X93025285Y-210909628D02*
X92966616Y-210998487D01*
X92966616Y-210998487D02*
X92825469Y-211134964D01*
X92825469Y-211134964D02*
X92701751Y-211206393D01*
X92701751Y-211206393D02*
X92512984Y-211260391D01*
X92512984Y-211260391D02*
X92406696Y-211266771D01*
X92406696Y-211266771D02*
X92276598Y-211231912D01*
X92276598Y-211231912D02*
X92163930Y-211132003D01*
X92163930Y-211132003D02*
X92044883Y-210925807D01*
X93304620Y-211298212D02*
X93369669Y-211315642D01*
X93369669Y-211315642D02*
X93458527Y-211374311D01*
X93458527Y-211374311D02*
X93577575Y-211580507D01*
X93577575Y-211580507D02*
X93583955Y-211686795D01*
X93583955Y-211686795D02*
X93566525Y-211751844D01*
X93566525Y-211751844D02*
X93507856Y-211840703D01*
X93507856Y-211840703D02*
X93425377Y-211888322D01*
X93425377Y-211888322D02*
X93277850Y-211918511D01*
X93277850Y-211918511D02*
X92497264Y-211709354D01*
X92497264Y-211709354D02*
X92806788Y-212245464D01*
X94101384Y-212487772D02*
X94006146Y-212322815D01*
X94006146Y-212322815D02*
X93917288Y-212264146D01*
X93917288Y-212264146D02*
X93852239Y-212246716D01*
X93852239Y-212246716D02*
X93680902Y-212235666D01*
X93680902Y-212235666D02*
X93492135Y-212289665D01*
X93492135Y-212289665D02*
X93162221Y-212480141D01*
X93162221Y-212480141D02*
X93103552Y-212568999D01*
X93103552Y-212568999D02*
X93086122Y-212634048D01*
X93086122Y-212634048D02*
X93092502Y-212740336D01*
X93092502Y-212740336D02*
X93187740Y-212905293D01*
X93187740Y-212905293D02*
X93276598Y-212963962D01*
X93276598Y-212963962D02*
X93341647Y-212981392D01*
X93341647Y-212981392D02*
X93447935Y-212975013D01*
X93447935Y-212975013D02*
X93654132Y-212855965D01*
X93654132Y-212855965D02*
X93712801Y-212767107D01*
X93712801Y-212767107D02*
X93730231Y-212702058D01*
X93730231Y-212702058D02*
X93723851Y-212595770D01*
X93723851Y-212595770D02*
X93628613Y-212430812D01*
X93628613Y-212430812D02*
X93539754Y-212372143D01*
X93539754Y-212372143D02*
X93474706Y-212354713D01*
X93474706Y-212354713D02*
X93368417Y-212361093D01*
X96515331Y-214868850D02*
X96229617Y-214373979D01*
X96372474Y-214621414D02*
X97238499Y-214121414D01*
X97238499Y-214121414D02*
X97067162Y-214110364D01*
X97067162Y-214110364D02*
X96937065Y-214075505D01*
X96937065Y-214075505D02*
X96848206Y-214016836D01*
X201738095Y-143602438D02*
X201642857Y-143554819D01*
X201642857Y-143554819D02*
X201500000Y-143554819D01*
X201500000Y-143554819D02*
X201357143Y-143602438D01*
X201357143Y-143602438D02*
X201261905Y-143697676D01*
X201261905Y-143697676D02*
X201214286Y-143792914D01*
X201214286Y-143792914D02*
X201166667Y-143983390D01*
X201166667Y-143983390D02*
X201166667Y-144126247D01*
X201166667Y-144126247D02*
X201214286Y-144316723D01*
X201214286Y-144316723D02*
X201261905Y-144411961D01*
X201261905Y-144411961D02*
X201357143Y-144507200D01*
X201357143Y-144507200D02*
X201500000Y-144554819D01*
X201500000Y-144554819D02*
X201595238Y-144554819D01*
X201595238Y-144554819D02*
X201738095Y-144507200D01*
X201738095Y-144507200D02*
X201785714Y-144459580D01*
X201785714Y-144459580D02*
X201785714Y-144126247D01*
X201785714Y-144126247D02*
X201595238Y-144126247D01*
X202214286Y-144554819D02*
X202214286Y-143554819D01*
X202214286Y-143554819D02*
X202785714Y-144554819D01*
X202785714Y-144554819D02*
X202785714Y-143554819D01*
X203261905Y-144554819D02*
X203261905Y-143554819D01*
X203261905Y-143554819D02*
X203500000Y-143554819D01*
X203500000Y-143554819D02*
X203642857Y-143602438D01*
X203642857Y-143602438D02*
X203738095Y-143697676D01*
X203738095Y-143697676D02*
X203785714Y-143792914D01*
X203785714Y-143792914D02*
X203833333Y-143983390D01*
X203833333Y-143983390D02*
X203833333Y-144126247D01*
X203833333Y-144126247D02*
X203785714Y-144316723D01*
X203785714Y-144316723D02*
X203738095Y-144411961D01*
X203738095Y-144411961D02*
X203642857Y-144507200D01*
X203642857Y-144507200D02*
X203500000Y-144554819D01*
X203500000Y-144554819D02*
X203261905Y-144554819D01*
X311650303Y-203865394D02*
X310743995Y-203442776D01*
X310743995Y-203442776D02*
X310844619Y-203226988D01*
X310844619Y-203226988D02*
X310948150Y-203117640D01*
X310948150Y-203117640D02*
X311074715Y-203071575D01*
X311074715Y-203071575D02*
X311181154Y-203068666D01*
X311181154Y-203068666D02*
X311373909Y-203106008D01*
X311373909Y-203106008D02*
X311503382Y-203166382D01*
X311503382Y-203166382D02*
X311655887Y-203290038D01*
X311655887Y-203290038D02*
X311722077Y-203373445D01*
X311722077Y-203373445D02*
X311768143Y-203500009D01*
X311768143Y-203500009D02*
X311750927Y-203649606D01*
X311750927Y-203649606D02*
X311650303Y-203865394D01*
X311367860Y-202104893D02*
X311166614Y-202536468D01*
X311166614Y-202536468D02*
X311578064Y-202780872D01*
X311578064Y-202780872D02*
X311555031Y-202717590D01*
X311555031Y-202717590D02*
X311552123Y-202611150D01*
X311552123Y-202611150D02*
X311652747Y-202395363D01*
X311652747Y-202395363D02*
X311736153Y-202329172D01*
X311736153Y-202329172D02*
X311799436Y-202306140D01*
X311799436Y-202306140D02*
X311905875Y-202303231D01*
X311905875Y-202303231D02*
X312121663Y-202403855D01*
X312121663Y-202403855D02*
X312187853Y-202487262D01*
X312187853Y-202487262D02*
X312210886Y-202550544D01*
X312210886Y-202550544D02*
X312213794Y-202656984D01*
X312213794Y-202656984D02*
X312113171Y-202872771D01*
X312113171Y-202872771D02*
X312029764Y-202938962D01*
X312029764Y-202938962D02*
X311966482Y-202961994D01*
X311635298Y-201756724D02*
X311612265Y-201693442D01*
X311612265Y-201693442D02*
X311609357Y-201587003D01*
X311609357Y-201587003D02*
X311709980Y-201371215D01*
X311709980Y-201371215D02*
X311793387Y-201305025D01*
X311793387Y-201305025D02*
X311856669Y-201281992D01*
X311856669Y-201281992D02*
X311963109Y-201279084D01*
X311963109Y-201279084D02*
X312049424Y-201319333D01*
X312049424Y-201319333D02*
X312158772Y-201422865D01*
X312158772Y-201422865D02*
X312435166Y-202182251D01*
X312435166Y-202182251D02*
X312696787Y-201621203D01*
X312316112Y-197941780D02*
X312074616Y-198459670D01*
X312195364Y-198200725D02*
X311289056Y-197778107D01*
X311289056Y-197778107D02*
X311378279Y-197924796D01*
X311378279Y-197924796D02*
X311424345Y-198051360D01*
X311424345Y-198051360D02*
X311427253Y-198157800D01*
X323148826Y-164164424D02*
X322154304Y-164059895D01*
X322154304Y-164059895D02*
X322179191Y-163823104D01*
X322179191Y-163823104D02*
X322241482Y-163686007D01*
X322241482Y-163686007D02*
X322346154Y-163601246D01*
X322346154Y-163601246D02*
X322445848Y-163563843D01*
X322445848Y-163563843D02*
X322640258Y-163536395D01*
X322640258Y-163536395D02*
X322782332Y-163551328D01*
X322782332Y-163551328D02*
X322966788Y-163618596D01*
X322966788Y-163618596D02*
X323056526Y-163675909D01*
X323056526Y-163675909D02*
X323141288Y-163780581D01*
X323141288Y-163780581D02*
X323173713Y-163927633D01*
X323173713Y-163927633D02*
X323148826Y-164164424D01*
X322308608Y-162591792D02*
X322258832Y-163065373D01*
X322258832Y-163065373D02*
X322727436Y-163162507D01*
X322727436Y-163162507D02*
X322685056Y-163110171D01*
X322685056Y-163110171D02*
X322647653Y-163010477D01*
X322647653Y-163010477D02*
X322672540Y-162773687D01*
X322672540Y-162773687D02*
X322729854Y-162683948D01*
X322729854Y-162683948D02*
X322782189Y-162641567D01*
X322782189Y-162641567D02*
X322881883Y-162604164D01*
X322881883Y-162604164D02*
X323118674Y-162629052D01*
X323118674Y-162629052D02*
X323208413Y-162686365D01*
X323208413Y-162686365D02*
X323250794Y-162738701D01*
X323250794Y-162738701D02*
X323288197Y-162838395D01*
X323288197Y-162838395D02*
X323263309Y-163075186D01*
X323263309Y-163075186D02*
X323205996Y-163164924D01*
X323205996Y-163164924D02*
X323153660Y-163207305D01*
X322403181Y-161691986D02*
X322383271Y-161881419D01*
X322383271Y-161881419D02*
X322420674Y-161981113D01*
X322420674Y-161981113D02*
X322463055Y-162033448D01*
X322463055Y-162033448D02*
X322595174Y-162143097D01*
X322595174Y-162143097D02*
X322779629Y-162210366D01*
X322779629Y-162210366D02*
X323158495Y-162250186D01*
X323158495Y-162250186D02*
X323258189Y-162212783D01*
X323258189Y-162212783D02*
X323310524Y-162170402D01*
X323310524Y-162170402D02*
X323367838Y-162080664D01*
X323367838Y-162080664D02*
X323387748Y-161891231D01*
X323387748Y-161891231D02*
X323350345Y-161791537D01*
X323350345Y-161791537D02*
X323307964Y-161739201D01*
X323307964Y-161739201D02*
X323218225Y-161681888D01*
X323218225Y-161681888D02*
X322981434Y-161657000D01*
X322981434Y-161657000D02*
X322881740Y-161694403D01*
X322881740Y-161694403D02*
X322829405Y-161736784D01*
X322829405Y-161736784D02*
X322772091Y-161826523D01*
X322772091Y-161826523D02*
X322752181Y-162015956D01*
X322752181Y-162015956D02*
X322789584Y-162115649D01*
X322789584Y-162115649D02*
X322831965Y-162167985D01*
X322831965Y-162167985D02*
X322921704Y-162225298D01*
X321849820Y-158346770D02*
X321790090Y-158915069D01*
X321819955Y-158630920D02*
X320825433Y-158526391D01*
X320825433Y-158526391D02*
X320957553Y-158636040D01*
X320957553Y-158636040D02*
X321042314Y-158740712D01*
X321042314Y-158740712D02*
X321079717Y-158840405D01*
X199261905Y-26954819D02*
X199261905Y-25954819D01*
X199261905Y-25954819D02*
X199500000Y-25954819D01*
X199500000Y-25954819D02*
X199642857Y-26002438D01*
X199642857Y-26002438D02*
X199738095Y-26097676D01*
X199738095Y-26097676D02*
X199785714Y-26192914D01*
X199785714Y-26192914D02*
X199833333Y-26383390D01*
X199833333Y-26383390D02*
X199833333Y-26526247D01*
X199833333Y-26526247D02*
X199785714Y-26716723D01*
X199785714Y-26716723D02*
X199738095Y-26811961D01*
X199738095Y-26811961D02*
X199642857Y-26907200D01*
X199642857Y-26907200D02*
X199500000Y-26954819D01*
X199500000Y-26954819D02*
X199261905Y-26954819D01*
X200785714Y-26954819D02*
X200214286Y-26954819D01*
X200500000Y-26954819D02*
X200500000Y-25954819D01*
X200500000Y-25954819D02*
X200404762Y-26097676D01*
X200404762Y-26097676D02*
X200309524Y-26192914D01*
X200309524Y-26192914D02*
X200214286Y-26240533D01*
X196135714Y-28854819D02*
X195564286Y-28854819D01*
X195850000Y-28854819D02*
X195850000Y-27854819D01*
X195850000Y-27854819D02*
X195754762Y-27997676D01*
X195754762Y-27997676D02*
X195659524Y-28092914D01*
X195659524Y-28092914D02*
X195564286Y-28140533D01*
X178732128Y-28809750D02*
X178558479Y-27824942D01*
X178558479Y-27824942D02*
X178792957Y-27783597D01*
X178792957Y-27783597D02*
X178941913Y-27805686D01*
X178941913Y-27805686D02*
X179052242Y-27882939D01*
X179052242Y-27882939D02*
X179115676Y-27968461D01*
X179115676Y-27968461D02*
X179195647Y-28147775D01*
X179195647Y-28147775D02*
X179220454Y-28288462D01*
X179220454Y-28288462D02*
X179206634Y-28484313D01*
X179206634Y-28484313D02*
X179176277Y-28586373D01*
X179176277Y-28586373D02*
X179099023Y-28696702D01*
X179099023Y-28696702D02*
X178966606Y-28768405D01*
X178966606Y-28768405D02*
X178732128Y-28809750D01*
X179449496Y-27667832D02*
X180059139Y-27560335D01*
X180059139Y-27560335D02*
X179797021Y-27993383D01*
X179797021Y-27993383D02*
X179937708Y-27968576D01*
X179937708Y-27968576D02*
X180039768Y-27998934D01*
X180039768Y-27998934D02*
X180094933Y-28037560D01*
X180094933Y-28037560D02*
X180158366Y-28123082D01*
X180158366Y-28123082D02*
X180199711Y-28357560D01*
X180199711Y-28357560D02*
X180169353Y-28459621D01*
X180169353Y-28459621D02*
X180130727Y-28514785D01*
X180130727Y-28514785D02*
X180045205Y-28578219D01*
X180045205Y-28578219D02*
X179763831Y-28627832D01*
X179763831Y-28627832D02*
X179661771Y-28597475D01*
X179661771Y-28597475D02*
X179606606Y-28558848D01*
X175983362Y-31223742D02*
X175420615Y-31322970D01*
X175701988Y-31273356D02*
X175528340Y-30288548D01*
X175528340Y-30288548D02*
X175459356Y-30445773D01*
X175459356Y-30445773D02*
X175382103Y-30556102D01*
X175382103Y-30556102D02*
X175296580Y-30619535D01*
X294710638Y-229963204D02*
X293944594Y-229320417D01*
X293944594Y-229320417D02*
X294097638Y-229138025D01*
X294097638Y-229138025D02*
X294225944Y-229059199D01*
X294225944Y-229059199D02*
X294360118Y-229047461D01*
X294360118Y-229047461D02*
X294463684Y-229072200D01*
X294463684Y-229072200D02*
X294640206Y-229158158D01*
X294640206Y-229158158D02*
X294749641Y-229249984D01*
X294749641Y-229249984D02*
X294864945Y-229408898D01*
X294864945Y-229408898D02*
X294907293Y-229506595D01*
X294907293Y-229506595D02*
X294919031Y-229640769D01*
X294919031Y-229640769D02*
X294863683Y-229780813D01*
X294863683Y-229780813D02*
X294710638Y-229963204D01*
X295118210Y-228440330D02*
X295628906Y-228868855D01*
X294673339Y-228377850D02*
X295067469Y-229019376D01*
X295067469Y-229019376D02*
X295465385Y-228545158D01*
X295996214Y-228431115D02*
X296118649Y-228285202D01*
X296118649Y-228285202D02*
X296143389Y-228181637D01*
X296143389Y-228181637D02*
X296137519Y-228114549D01*
X296137519Y-228114549D02*
X296089302Y-227949766D01*
X296089302Y-227949766D02*
X295973998Y-227790852D01*
X295973998Y-227790852D02*
X295682172Y-227545981D01*
X295682172Y-227545981D02*
X295578606Y-227521241D01*
X295578606Y-227521241D02*
X295511519Y-227527110D01*
X295511519Y-227527110D02*
X295413823Y-227569458D01*
X295413823Y-227569458D02*
X295291387Y-227715371D01*
X295291387Y-227715371D02*
X295266647Y-227818937D01*
X295266647Y-227818937D02*
X295272517Y-227886024D01*
X295272517Y-227886024D02*
X295314864Y-227983720D01*
X295314864Y-227983720D02*
X295497256Y-228136765D01*
X295497256Y-228136765D02*
X295600822Y-228161504D01*
X295600822Y-228161504D02*
X295667909Y-228155635D01*
X295667909Y-228155635D02*
X295765605Y-228113287D01*
X295765605Y-228113287D02*
X295888041Y-227967374D01*
X295888041Y-227967374D02*
X295912780Y-227863809D01*
X295912780Y-227863809D02*
X295906911Y-227796721D01*
X295906911Y-227796721D02*
X295864563Y-227699025D01*
X296886904Y-224413756D02*
X296519597Y-224851496D01*
X296703250Y-224632626D02*
X295937206Y-223989839D01*
X295937206Y-223989839D02*
X295985423Y-224154622D01*
X295985423Y-224154622D02*
X295997162Y-224288796D01*
X295997162Y-224288796D02*
X295972422Y-224392362D01*
X77114331Y-143464006D02*
X76116767Y-143394249D01*
X76116767Y-143394249D02*
X76133376Y-143156734D01*
X76133376Y-143156734D02*
X76190844Y-143017547D01*
X76190844Y-143017547D02*
X76292494Y-142929184D01*
X76292494Y-142929184D02*
X76390822Y-142888325D01*
X76390822Y-142888325D02*
X76584156Y-142854108D01*
X76584156Y-142854108D02*
X76726665Y-142864074D01*
X76726665Y-142864074D02*
X76913355Y-142924864D01*
X76913355Y-142924864D02*
X77005040Y-142979010D01*
X77005040Y-142979010D02*
X77093402Y-143080660D01*
X77093402Y-143080660D02*
X77130940Y-143226491D01*
X77130940Y-143226491D02*
X77114331Y-143464006D01*
X77220627Y-141943908D02*
X77180766Y-142513945D01*
X77200696Y-142228927D02*
X76203132Y-142159170D01*
X76203132Y-142159170D02*
X76338998Y-142264141D01*
X76338998Y-142264141D02*
X76427361Y-142365791D01*
X76427361Y-142365791D02*
X76468220Y-142464119D01*
X77253844Y-141468878D02*
X77267131Y-141278866D01*
X77267131Y-141278866D02*
X77226272Y-141180538D01*
X77226272Y-141180538D02*
X77182090Y-141129713D01*
X77182090Y-141129713D02*
X77046225Y-141024742D01*
X77046225Y-141024742D02*
X76859534Y-140963952D01*
X76859534Y-140963952D02*
X76479510Y-140937378D01*
X76479510Y-140937378D02*
X76381182Y-140978237D01*
X76381182Y-140978237D02*
X76330357Y-141022419D01*
X76330357Y-141022419D02*
X76276211Y-141114103D01*
X76276211Y-141114103D02*
X76262924Y-141304115D01*
X76262924Y-141304115D02*
X76303783Y-141402443D01*
X76303783Y-141402443D02*
X76347965Y-141453268D01*
X76347965Y-141453268D02*
X76439649Y-141507414D01*
X76439649Y-141507414D02*
X76677164Y-141524023D01*
X76677164Y-141524023D02*
X76775492Y-141483163D01*
X76775492Y-141483163D02*
X76826317Y-141438982D01*
X76826317Y-141438982D02*
X76880463Y-141347298D01*
X76880463Y-141347298D02*
X76893750Y-141157286D01*
X76893750Y-141157286D02*
X76852891Y-141058958D01*
X76852891Y-141058958D02*
X76808709Y-141008133D01*
X76808709Y-141008133D02*
X76717025Y-140953986D01*
X78824849Y-146240087D02*
X78784988Y-146810124D01*
X78804919Y-146525106D02*
X77807355Y-146455349D01*
X77807355Y-146455349D02*
X77943220Y-146560320D01*
X77943220Y-146560320D02*
X78031583Y-146661970D01*
X78031583Y-146661970D02*
X78072442Y-146760298D01*
X321524961Y-174432390D02*
X320543333Y-174241581D01*
X320543333Y-174241581D02*
X320588764Y-174007860D01*
X320588764Y-174007860D02*
X320662767Y-173876714D01*
X320662767Y-173876714D02*
X320774427Y-173801398D01*
X320774427Y-173801398D02*
X320877002Y-173772826D01*
X320877002Y-173772826D02*
X321073064Y-173762426D01*
X321073064Y-173762426D02*
X321213297Y-173789685D01*
X321213297Y-173789685D02*
X321391187Y-173872774D01*
X321391187Y-173872774D02*
X321475590Y-173937690D01*
X321475590Y-173937690D02*
X321550906Y-174049351D01*
X321550906Y-174049351D02*
X321570391Y-174198669D01*
X321570391Y-174198669D02*
X321524961Y-174432390D01*
X320825004Y-172792512D02*
X320734142Y-173259954D01*
X320734142Y-173259954D02*
X321192498Y-173397559D01*
X321192498Y-173397559D02*
X321154840Y-173341729D01*
X321154840Y-173341729D02*
X321126268Y-173239155D01*
X321126268Y-173239155D02*
X321171699Y-173005434D01*
X321171699Y-173005434D02*
X321236615Y-172921032D01*
X321236615Y-172921032D02*
X321292445Y-172883374D01*
X321292445Y-172883374D02*
X321395020Y-172854802D01*
X321395020Y-172854802D02*
X321628741Y-172900233D01*
X321628741Y-172900233D02*
X321713143Y-172965149D01*
X321713143Y-172965149D02*
X321750801Y-173020979D01*
X321750801Y-173020979D02*
X321779373Y-173123554D01*
X321779373Y-173123554D02*
X321733942Y-173357274D01*
X321733942Y-173357274D02*
X321669025Y-173441677D01*
X321669025Y-173441677D02*
X321613195Y-173479335D01*
X321006727Y-171857629D02*
X320915865Y-172325071D01*
X320915865Y-172325071D02*
X321374221Y-172462676D01*
X321374221Y-172462676D02*
X321336563Y-172406846D01*
X321336563Y-172406846D02*
X321307991Y-172304272D01*
X321307991Y-172304272D02*
X321353421Y-172070551D01*
X321353421Y-172070551D02*
X321418338Y-171986149D01*
X321418338Y-171986149D02*
X321474168Y-171948491D01*
X321474168Y-171948491D02*
X321576743Y-171919919D01*
X321576743Y-171919919D02*
X321810463Y-171965349D01*
X321810463Y-171965349D02*
X321894866Y-172030266D01*
X321894866Y-172030266D02*
X321932524Y-172086096D01*
X321932524Y-172086096D02*
X321961095Y-172188671D01*
X321961095Y-172188671D02*
X321915665Y-172422391D01*
X321915665Y-172422391D02*
X321850748Y-172506794D01*
X321850748Y-172506794D02*
X321794918Y-172544452D01*
X320737940Y-168523660D02*
X320628906Y-169084590D01*
X320683423Y-168804125D02*
X319701796Y-168613316D01*
X319701796Y-168613316D02*
X319823856Y-168734062D01*
X319823856Y-168734062D02*
X319899172Y-168845723D01*
X319899172Y-168845723D02*
X319927744Y-168948297D01*
X258224694Y-41591126D02*
X258709503Y-40716506D01*
X258709503Y-40716506D02*
X258917746Y-40831937D01*
X258917746Y-40831937D02*
X259019606Y-40942844D01*
X259019606Y-40942844D02*
X259056730Y-41072313D01*
X259056730Y-41072313D02*
X259052206Y-41178697D01*
X259052206Y-41178697D02*
X259001510Y-41368377D01*
X259001510Y-41368377D02*
X258932252Y-41493323D01*
X258932252Y-41493323D02*
X258798259Y-41636831D01*
X258798259Y-41636831D02*
X258710438Y-41697042D01*
X258710438Y-41697042D02*
X258580968Y-41734167D01*
X258580968Y-41734167D02*
X258432936Y-41706557D01*
X258432936Y-41706557D02*
X258224694Y-41591126D01*
X259500826Y-41155143D02*
X260083906Y-41478350D01*
X260083906Y-41478350D02*
X259224259Y-42145194D01*
X260583688Y-41755384D02*
X260666985Y-41801556D01*
X260666985Y-41801556D02*
X260727196Y-41889377D01*
X260727196Y-41889377D02*
X260745759Y-41954112D01*
X260745759Y-41954112D02*
X260741235Y-42060495D01*
X260741235Y-42060495D02*
X260690539Y-42250176D01*
X260690539Y-42250176D02*
X260575108Y-42458418D01*
X260575108Y-42458418D02*
X260441115Y-42601926D01*
X260441115Y-42601926D02*
X260353294Y-42662137D01*
X260353294Y-42662137D02*
X260288559Y-42680700D01*
X260288559Y-42680700D02*
X260182176Y-42676176D01*
X260182176Y-42676176D02*
X260098879Y-42630004D01*
X260098879Y-42630004D02*
X260038668Y-42542183D01*
X260038668Y-42542183D02*
X260020105Y-42477448D01*
X260020105Y-42477448D02*
X260024629Y-42371065D01*
X260024629Y-42371065D02*
X260075325Y-42181384D01*
X260075325Y-42181384D02*
X260190756Y-41973141D01*
X260190756Y-41973141D02*
X260324749Y-41829633D01*
X260324749Y-41829633D02*
X260412570Y-41769422D01*
X260412570Y-41769422D02*
X260477305Y-41750860D01*
X260477305Y-41750860D02*
X260583688Y-41755384D01*
X254985814Y-41968158D02*
X254486031Y-41691124D01*
X254735922Y-41829641D02*
X255220732Y-40955022D01*
X255220732Y-40955022D02*
X255068176Y-41033795D01*
X255068176Y-41033795D02*
X254938707Y-41070920D01*
X254938707Y-41070920D02*
X254832324Y-41066396D01*
X253998485Y-261572275D02*
X253560114Y-260673481D01*
X253560114Y-260673481D02*
X253774113Y-260569107D01*
X253774113Y-260569107D02*
X253923387Y-260549282D01*
X253923387Y-260549282D02*
X254050736Y-260593132D01*
X254050736Y-260593132D02*
X254135285Y-260657857D01*
X254135285Y-260657857D02*
X254261584Y-260808181D01*
X254261584Y-260808181D02*
X254324208Y-260936580D01*
X254324208Y-260936580D02*
X254364908Y-261128653D01*
X254364908Y-261128653D02*
X254363858Y-261235128D01*
X254363858Y-261235128D02*
X254320008Y-261362477D01*
X254320008Y-261362477D02*
X254212484Y-261467901D01*
X254212484Y-261467901D02*
X253998485Y-261572275D01*
X254990229Y-260346834D02*
X255282477Y-260946030D01*
X254609232Y-260108811D02*
X254708356Y-260855181D01*
X254708356Y-260855181D02*
X255264752Y-260583808D01*
X255846224Y-259929338D02*
X256138471Y-260528534D01*
X255465227Y-259691314D02*
X255564350Y-260437684D01*
X255564350Y-260437684D02*
X256120747Y-260166312D01*
X258243767Y-257387768D02*
X257730170Y-257638266D01*
X257986968Y-257513017D02*
X257548597Y-256614223D01*
X257548597Y-256614223D02*
X257525622Y-256784372D01*
X257525622Y-256784372D02*
X257481773Y-256911721D01*
X257481773Y-256911721D02*
X257417048Y-256996270D01*
X234678849Y-269015334D02*
X234386478Y-268059029D01*
X234386478Y-268059029D02*
X234614169Y-267989417D01*
X234614169Y-267989417D02*
X234764707Y-267993188D01*
X234764707Y-267993188D02*
X234883628Y-268056420D01*
X234883628Y-268056420D02*
X234957012Y-268133574D01*
X234957012Y-268133574D02*
X235058240Y-268301805D01*
X235058240Y-268301805D02*
X235100007Y-268438419D01*
X235100007Y-268438419D02*
X235110159Y-268634495D01*
X235110159Y-268634495D02*
X235092465Y-268739494D01*
X235092465Y-268739494D02*
X235029234Y-268858416D01*
X235029234Y-268858416D02*
X234906541Y-268945722D01*
X234906541Y-268945722D02*
X234678849Y-269015334D01*
X235850085Y-267960124D02*
X236044999Y-268597660D01*
X235511013Y-267665429D02*
X235492159Y-268418116D01*
X235492159Y-268418116D02*
X236084157Y-268237124D01*
X236235856Y-267593207D02*
X236267471Y-267533747D01*
X236267471Y-267533747D02*
X236344626Y-267460363D01*
X236344626Y-267460363D02*
X236572317Y-267390751D01*
X236572317Y-267390751D02*
X236677316Y-267408444D01*
X236677316Y-267408444D02*
X236736777Y-267440060D01*
X236736777Y-267440060D02*
X236810160Y-267517214D01*
X236810160Y-267517214D02*
X236838005Y-267608291D01*
X236838005Y-267608291D02*
X236834234Y-267758828D01*
X236834234Y-267758828D02*
X236454844Y-268472358D01*
X236454844Y-268472358D02*
X237046842Y-268291366D01*
X239526465Y-265546455D02*
X238980005Y-265713525D01*
X239253235Y-265629990D02*
X238960863Y-264673685D01*
X238960863Y-264673685D02*
X238911554Y-264838145D01*
X238911554Y-264838145D02*
X238848322Y-264957067D01*
X238848322Y-264957067D02*
X238771168Y-265030450D01*
X76597318Y-161749156D02*
X77591839Y-161644628D01*
X77591839Y-161644628D02*
X77616727Y-161881419D01*
X77616727Y-161881419D02*
X77584302Y-162028471D01*
X77584302Y-162028471D02*
X77499540Y-162133142D01*
X77499540Y-162133142D02*
X77409802Y-162190456D01*
X77409802Y-162190456D02*
X77225346Y-162257724D01*
X77225346Y-162257724D02*
X77083272Y-162272657D01*
X77083272Y-162272657D02*
X76888862Y-162245209D01*
X76888862Y-162245209D02*
X76789168Y-162207805D01*
X76789168Y-162207805D02*
X76684496Y-162123044D01*
X76684496Y-162123044D02*
X76622205Y-161985947D01*
X76622205Y-161985947D02*
X76597318Y-161749156D01*
X77596674Y-162601747D02*
X77649010Y-162644127D01*
X77649010Y-162644127D02*
X77706323Y-162733866D01*
X77706323Y-162733866D02*
X77731211Y-162970657D01*
X77731211Y-162970657D02*
X77693808Y-163070351D01*
X77693808Y-163070351D02*
X77651427Y-163122687D01*
X77651427Y-163122687D02*
X77561688Y-163180000D01*
X77561688Y-163180000D02*
X77466972Y-163189955D01*
X77466972Y-163189955D02*
X77319920Y-163157529D01*
X77319920Y-163157529D02*
X76691891Y-162648962D01*
X76691891Y-162648962D02*
X76756599Y-163264618D01*
X76856150Y-164211782D02*
X76796419Y-163643484D01*
X76826285Y-163927633D02*
X77820807Y-163823104D01*
X77820807Y-163823104D02*
X77668777Y-163743321D01*
X77668777Y-163743321D02*
X77564105Y-163658559D01*
X77564105Y-163658559D02*
X77506792Y-163568821D01*
X79077495Y-167169602D02*
X79017765Y-166601303D01*
X79047630Y-166885453D02*
X80042152Y-166780924D01*
X80042152Y-166780924D02*
X79890122Y-166701140D01*
X79890122Y-166701140D02*
X79785451Y-166616379D01*
X79785451Y-166616379D02*
X79728138Y-166526640D01*
X188714285Y-141454819D02*
X188238095Y-141454819D01*
X188238095Y-141454819D02*
X188238095Y-140454819D01*
X189047619Y-140931009D02*
X189380952Y-140931009D01*
X189523809Y-141454819D02*
X189047619Y-141454819D01*
X189047619Y-141454819D02*
X189047619Y-140454819D01*
X189047619Y-140454819D02*
X189523809Y-140454819D01*
X189952381Y-141454819D02*
X189952381Y-140454819D01*
X189952381Y-140454819D02*
X190190476Y-140454819D01*
X190190476Y-140454819D02*
X190333333Y-140502438D01*
X190333333Y-140502438D02*
X190428571Y-140597676D01*
X190428571Y-140597676D02*
X190476190Y-140692914D01*
X190476190Y-140692914D02*
X190523809Y-140883390D01*
X190523809Y-140883390D02*
X190523809Y-141026247D01*
X190523809Y-141026247D02*
X190476190Y-141216723D01*
X190476190Y-141216723D02*
X190428571Y-141311961D01*
X190428571Y-141311961D02*
X190333333Y-141407200D01*
X190333333Y-141407200D02*
X190190476Y-141454819D01*
X190190476Y-141454819D02*
X189952381Y-141454819D01*
X191714286Y-141454819D02*
X191714286Y-140454819D01*
X191714286Y-140454819D02*
X191952381Y-140454819D01*
X191952381Y-140454819D02*
X192095238Y-140502438D01*
X192095238Y-140502438D02*
X192190476Y-140597676D01*
X192190476Y-140597676D02*
X192238095Y-140692914D01*
X192238095Y-140692914D02*
X192285714Y-140883390D01*
X192285714Y-140883390D02*
X192285714Y-141026247D01*
X192285714Y-141026247D02*
X192238095Y-141216723D01*
X192238095Y-141216723D02*
X192190476Y-141311961D01*
X192190476Y-141311961D02*
X192095238Y-141407200D01*
X192095238Y-141407200D02*
X191952381Y-141454819D01*
X191952381Y-141454819D02*
X191714286Y-141454819D01*
X192714286Y-141454819D02*
X192714286Y-140454819D01*
X193190476Y-141454819D02*
X193190476Y-140454819D01*
X193190476Y-140454819D02*
X193761904Y-141454819D01*
X193761904Y-141454819D02*
X193761904Y-140454819D01*
X103728304Y-228102811D02*
X104494348Y-227460023D01*
X104494348Y-227460023D02*
X104647393Y-227642415D01*
X104647393Y-227642415D02*
X104702742Y-227782458D01*
X104702742Y-227782458D02*
X104691003Y-227916633D01*
X104691003Y-227916633D02*
X104648655Y-228014329D01*
X104648655Y-228014329D02*
X104533351Y-228173243D01*
X104533351Y-228173243D02*
X104423916Y-228265070D01*
X104423916Y-228265070D02*
X104247394Y-228351027D01*
X104247394Y-228351027D02*
X104143828Y-228375767D01*
X104143828Y-228375767D02*
X104009654Y-228364028D01*
X104009654Y-228364028D02*
X103881349Y-228285202D01*
X103881349Y-228285202D02*
X103728304Y-228102811D01*
X105033571Y-228250807D02*
X105100658Y-228256676D01*
X105100658Y-228256676D02*
X105198354Y-228299024D01*
X105198354Y-228299024D02*
X105351399Y-228481416D01*
X105351399Y-228481416D02*
X105376138Y-228584981D01*
X105376138Y-228584981D02*
X105370269Y-228652068D01*
X105370269Y-228652068D02*
X105327921Y-228749765D01*
X105327921Y-228749765D02*
X105254965Y-228810982D01*
X105254965Y-228810982D02*
X105114921Y-228866331D01*
X105114921Y-228866331D02*
X104309874Y-228795899D01*
X104309874Y-228795899D02*
X104707790Y-229270117D01*
X105512837Y-229340549D02*
X105488097Y-229236983D01*
X105488097Y-229236983D02*
X105493967Y-229169896D01*
X105493967Y-229169896D02*
X105536314Y-229072200D01*
X105536314Y-229072200D02*
X105572793Y-229041591D01*
X105572793Y-229041591D02*
X105676358Y-229016852D01*
X105676358Y-229016852D02*
X105743445Y-229022721D01*
X105743445Y-229022721D02*
X105841142Y-229065069D01*
X105841142Y-229065069D02*
X105963577Y-229210982D01*
X105963577Y-229210982D02*
X105988317Y-229314547D01*
X105988317Y-229314547D02*
X105982448Y-229381635D01*
X105982448Y-229381635D02*
X105940100Y-229479331D01*
X105940100Y-229479331D02*
X105903622Y-229509940D01*
X105903622Y-229509940D02*
X105800056Y-229534679D01*
X105800056Y-229534679D02*
X105732969Y-229528810D01*
X105732969Y-229528810D02*
X105635273Y-229486462D01*
X105635273Y-229486462D02*
X105512837Y-229340549D01*
X105512837Y-229340549D02*
X105415141Y-229298201D01*
X105415141Y-229298201D02*
X105348053Y-229292332D01*
X105348053Y-229292332D02*
X105244488Y-229317072D01*
X105244488Y-229317072D02*
X105098575Y-229439507D01*
X105098575Y-229439507D02*
X105056227Y-229537203D01*
X105056227Y-229537203D02*
X105050358Y-229604291D01*
X105050358Y-229604291D02*
X105075097Y-229707856D01*
X105075097Y-229707856D02*
X105197533Y-229853769D01*
X105197533Y-229853769D02*
X105295229Y-229896117D01*
X105295229Y-229896117D02*
X105362316Y-229901987D01*
X105362316Y-229901987D02*
X105465882Y-229877247D01*
X105465882Y-229877247D02*
X105611795Y-229754811D01*
X105611795Y-229754811D02*
X105654143Y-229657115D01*
X105654143Y-229657115D02*
X105660012Y-229590028D01*
X105660012Y-229590028D02*
X105635273Y-229486462D01*
X108815539Y-231209666D02*
X108448232Y-230771926D01*
X108631885Y-230990796D02*
X109397930Y-230348008D01*
X109397930Y-230348008D02*
X109227277Y-230366878D01*
X109227277Y-230366878D02*
X109093102Y-230355140D01*
X109093102Y-230355140D02*
X108995406Y-230312792D01*
X271876406Y-250995254D02*
X271288620Y-250186237D01*
X271288620Y-250186237D02*
X271481243Y-250046288D01*
X271481243Y-250046288D02*
X271624807Y-250000844D01*
X271624807Y-250000844D02*
X271757836Y-250021913D01*
X271757836Y-250021913D02*
X271852340Y-250070973D01*
X271852340Y-250070973D02*
X272002824Y-250197081D01*
X272002824Y-250197081D02*
X272086793Y-250312655D01*
X272086793Y-250312655D02*
X272160228Y-250494743D01*
X272160228Y-250494743D02*
X272177682Y-250599783D01*
X272177682Y-250599783D02*
X272156613Y-250732811D01*
X272156613Y-250732811D02*
X272069029Y-250855305D01*
X272069029Y-250855305D02*
X271876406Y-250995254D01*
X272640287Y-249616216D02*
X273032144Y-250155561D01*
X272223746Y-249447968D02*
X272450970Y-250165786D01*
X272450970Y-250165786D02*
X272951790Y-249801919D01*
X273214851Y-248786748D02*
X273060753Y-248898707D01*
X273060753Y-248898707D02*
X273011693Y-248993212D01*
X273011693Y-248993212D02*
X273001159Y-249059726D01*
X273001159Y-249059726D02*
X273008079Y-249231279D01*
X273008079Y-249231279D02*
X273081513Y-249413368D01*
X273081513Y-249413368D02*
X273305431Y-249721565D01*
X273305431Y-249721565D02*
X273399935Y-249770624D01*
X273399935Y-249770624D02*
X273466450Y-249781159D01*
X273466450Y-249781159D02*
X273571489Y-249763704D01*
X273571489Y-249763704D02*
X273725587Y-249651745D01*
X273725587Y-249651745D02*
X273774647Y-249557241D01*
X273774647Y-249557241D02*
X273785182Y-249490726D01*
X273785182Y-249490726D02*
X273767727Y-249385687D01*
X273767727Y-249385687D02*
X273627778Y-249193064D01*
X273627778Y-249193064D02*
X273533274Y-249144005D01*
X273533274Y-249144005D02*
X273466759Y-249133470D01*
X273466759Y-249133470D02*
X273361720Y-249150925D01*
X273361720Y-249150925D02*
X273207622Y-249262884D01*
X273207622Y-249262884D02*
X273158562Y-249357388D01*
X273158562Y-249357388D02*
X273148028Y-249423903D01*
X273148028Y-249423903D02*
X273165482Y-249528942D01*
X275330560Y-246137135D02*
X274868264Y-246473012D01*
X275099412Y-246305074D02*
X274511627Y-245496057D01*
X274511627Y-245496057D02*
X274518547Y-245667610D01*
X274518547Y-245667610D02*
X274497477Y-245800639D01*
X274497477Y-245800639D02*
X274448417Y-245895143D01*
X101253634Y-76585235D02*
X100454998Y-75983420D01*
X100454998Y-75983420D02*
X100598288Y-75793269D01*
X100598288Y-75793269D02*
X100722291Y-75707836D01*
X100722291Y-75707836D02*
X100855668Y-75689091D01*
X100855668Y-75689091D02*
X100960386Y-75708377D01*
X100960386Y-75708377D02*
X101141165Y-75784978D01*
X101141165Y-75784978D02*
X101255256Y-75870951D01*
X101255256Y-75870951D02*
X101378719Y-76023613D01*
X101378719Y-76023613D02*
X101426122Y-76118959D01*
X101426122Y-76118959D02*
X101444866Y-76252335D01*
X101444866Y-76252335D02*
X101396923Y-76395084D01*
X101396923Y-76395084D02*
X101253634Y-76585235D01*
X102170685Y-75368267D02*
X101826791Y-75824630D01*
X101998738Y-75596448D02*
X101200103Y-74994633D01*
X101200103Y-74994633D02*
X101256878Y-75156667D01*
X101256878Y-75156667D02*
X101275622Y-75290044D01*
X101275622Y-75290044D02*
X101256337Y-75394762D01*
X101677373Y-74519525D02*
X101668001Y-74452837D01*
X101668001Y-74452837D02*
X101687286Y-74348119D01*
X101687286Y-74348119D02*
X101830575Y-74157968D01*
X101830575Y-74157968D02*
X101925921Y-74110565D01*
X101925921Y-74110565D02*
X101992610Y-74101192D01*
X101992610Y-74101192D02*
X102097328Y-74120478D01*
X102097328Y-74120478D02*
X102173388Y-74177794D01*
X102173388Y-74177794D02*
X102258821Y-74301797D01*
X102258821Y-74301797D02*
X102371290Y-75102055D01*
X102371290Y-75102055D02*
X102743842Y-74607661D01*
X101176232Y-79845067D02*
X100832337Y-80301431D01*
X101004284Y-80073249D02*
X100205649Y-79471434D01*
X100205649Y-79471434D02*
X100262424Y-79633468D01*
X100262424Y-79633468D02*
X100281169Y-79766844D01*
X100281169Y-79766844D02*
X100261883Y-79871563D01*
X114889419Y-61124835D02*
X114207421Y-60393481D01*
X114207421Y-60393481D02*
X114381552Y-60231101D01*
X114381552Y-60231101D02*
X114518508Y-60168499D01*
X114518508Y-60168499D02*
X114653113Y-60173199D01*
X114653113Y-60173199D02*
X114752891Y-60210376D01*
X114752891Y-60210376D02*
X114917622Y-60317205D01*
X114917622Y-60317205D02*
X115015050Y-60421684D01*
X115015050Y-60421684D02*
X115110128Y-60593466D01*
X115110128Y-60593466D02*
X115140254Y-60695595D01*
X115140254Y-60695595D02*
X115135554Y-60830200D01*
X115135554Y-60830200D02*
X115063551Y-60962454D01*
X115063551Y-60962454D02*
X114889419Y-61124835D01*
X116003863Y-60085599D02*
X115585946Y-60475313D01*
X115794904Y-60280456D02*
X115112906Y-59549102D01*
X115112906Y-59549102D02*
X115140682Y-59718534D01*
X115140682Y-59718534D02*
X115135981Y-59853139D01*
X115135981Y-59853139D02*
X115098805Y-59952917D01*
X115774607Y-58932056D02*
X115844260Y-58867104D01*
X115844260Y-58867104D02*
X115946389Y-58836978D01*
X115946389Y-58836978D02*
X116013691Y-58839328D01*
X116013691Y-58839328D02*
X116113470Y-58876505D01*
X116113470Y-58876505D02*
X116278201Y-58983334D01*
X116278201Y-58983334D02*
X116440581Y-59157466D01*
X116440581Y-59157466D02*
X116535659Y-59329248D01*
X116535659Y-59329248D02*
X116565785Y-59431377D01*
X116565785Y-59431377D02*
X116563435Y-59498679D01*
X116563435Y-59498679D02*
X116526258Y-59598458D01*
X116526258Y-59598458D02*
X116456605Y-59663410D01*
X116456605Y-59663410D02*
X116354477Y-59693536D01*
X116354477Y-59693536D02*
X116287174Y-59691186D01*
X116287174Y-59691186D02*
X116187396Y-59654009D01*
X116187396Y-59654009D02*
X116022665Y-59547180D01*
X116022665Y-59547180D02*
X115860284Y-59373048D01*
X115860284Y-59373048D02*
X115765206Y-59201266D01*
X115765206Y-59201266D02*
X115735080Y-59099137D01*
X115735080Y-59099137D02*
X115737431Y-59031835D01*
X115737431Y-59031835D02*
X115774607Y-58932056D01*
X114247128Y-64321703D02*
X113829211Y-64711416D01*
X114038170Y-64516560D02*
X113356171Y-63785206D01*
X113356171Y-63785206D02*
X113383947Y-63954637D01*
X113383947Y-63954637D02*
X113379246Y-64089242D01*
X113379246Y-64089242D02*
X113342070Y-64189021D01*
X321559249Y-130843724D02*
X322549517Y-130704551D01*
X322549517Y-130704551D02*
X322582653Y-130940329D01*
X322582653Y-130940329D02*
X322555380Y-131088423D01*
X322555380Y-131088423D02*
X322474323Y-131195989D01*
X322474323Y-131195989D02*
X322386639Y-131256399D01*
X322386639Y-131256399D02*
X322204644Y-131330064D01*
X322204644Y-131330064D02*
X322063177Y-131349946D01*
X322063177Y-131349946D02*
X321867927Y-131329299D01*
X321867927Y-131329299D02*
X321766989Y-131295398D01*
X321766989Y-131295398D02*
X321659423Y-131214341D01*
X321659423Y-131214341D02*
X321592385Y-131079502D01*
X321592385Y-131079502D02*
X321559249Y-130843724D01*
X322754963Y-132166375D02*
X322688690Y-131694819D01*
X322688690Y-131694819D02*
X322210506Y-131713936D01*
X322210506Y-131713936D02*
X322264289Y-131754464D01*
X322264289Y-131754464D02*
X322324700Y-131842148D01*
X322324700Y-131842148D02*
X322357836Y-132077926D01*
X322357836Y-132077926D02*
X322323935Y-132178865D01*
X322323935Y-132178865D02*
X322283407Y-132232648D01*
X322283407Y-132232648D02*
X322195723Y-132293058D01*
X322195723Y-132293058D02*
X321959945Y-132326194D01*
X321959945Y-132326194D02*
X321859006Y-132292293D01*
X321859006Y-132292293D02*
X321805223Y-132251765D01*
X321805223Y-132251765D02*
X321744813Y-132164081D01*
X321744813Y-132164081D02*
X321711676Y-131928303D01*
X321711676Y-131928303D02*
X321745578Y-131827364D01*
X321745578Y-131827364D02*
X321786106Y-131773582D01*
X321837595Y-132824260D02*
X321864104Y-133012882D01*
X321864104Y-133012882D02*
X321924514Y-133100566D01*
X321924514Y-133100566D02*
X321978297Y-133141095D01*
X321978297Y-133141095D02*
X322133019Y-133215524D01*
X322133019Y-133215524D02*
X322328269Y-133236170D01*
X322328269Y-133236170D02*
X322705513Y-133183152D01*
X322705513Y-133183152D02*
X322793197Y-133122742D01*
X322793197Y-133122742D02*
X322833726Y-133068959D01*
X322833726Y-133068959D02*
X322867627Y-132968020D01*
X322867627Y-132968020D02*
X322841118Y-132779398D01*
X322841118Y-132779398D02*
X322780707Y-132691714D01*
X322780707Y-132691714D02*
X322726925Y-132651186D01*
X322726925Y-132651186D02*
X322625986Y-132617285D01*
X322625986Y-132617285D02*
X322390208Y-132650421D01*
X322390208Y-132650421D02*
X322302524Y-132710831D01*
X322302524Y-132710831D02*
X322261996Y-132764614D01*
X322261996Y-132764614D02*
X322228095Y-132865553D01*
X322228095Y-132865553D02*
X322254604Y-133054175D01*
X322254604Y-133054175D02*
X322315014Y-133141859D01*
X322315014Y-133141859D02*
X322368797Y-133182388D01*
X322368797Y-133182388D02*
X322469735Y-133216289D01*
X319308931Y-128483942D02*
X319229403Y-127918075D01*
X319269167Y-128201009D02*
X320259435Y-128061835D01*
X320259435Y-128061835D02*
X320104713Y-127987406D01*
X320104713Y-127987406D02*
X319997148Y-127906349D01*
X319997148Y-127906349D02*
X319936737Y-127818665D01*
X193214285Y-146954819D02*
X193214285Y-145954819D01*
X193214285Y-146431009D02*
X193785713Y-146431009D01*
X193785713Y-146954819D02*
X193785713Y-145954819D01*
X194642856Y-146907200D02*
X194547618Y-146954819D01*
X194547618Y-146954819D02*
X194357142Y-146954819D01*
X194357142Y-146954819D02*
X194261904Y-146907200D01*
X194261904Y-146907200D02*
X194214285Y-146811961D01*
X194214285Y-146811961D02*
X194214285Y-146431009D01*
X194214285Y-146431009D02*
X194261904Y-146335771D01*
X194261904Y-146335771D02*
X194357142Y-146288152D01*
X194357142Y-146288152D02*
X194547618Y-146288152D01*
X194547618Y-146288152D02*
X194642856Y-146335771D01*
X194642856Y-146335771D02*
X194690475Y-146431009D01*
X194690475Y-146431009D02*
X194690475Y-146526247D01*
X194690475Y-146526247D02*
X194214285Y-146621485D01*
X195547618Y-146954819D02*
X195547618Y-146431009D01*
X195547618Y-146431009D02*
X195499999Y-146335771D01*
X195499999Y-146335771D02*
X195404761Y-146288152D01*
X195404761Y-146288152D02*
X195214285Y-146288152D01*
X195214285Y-146288152D02*
X195119047Y-146335771D01*
X195547618Y-146907200D02*
X195452380Y-146954819D01*
X195452380Y-146954819D02*
X195214285Y-146954819D01*
X195214285Y-146954819D02*
X195119047Y-146907200D01*
X195119047Y-146907200D02*
X195071428Y-146811961D01*
X195071428Y-146811961D02*
X195071428Y-146716723D01*
X195071428Y-146716723D02*
X195119047Y-146621485D01*
X195119047Y-146621485D02*
X195214285Y-146573866D01*
X195214285Y-146573866D02*
X195452380Y-146573866D01*
X195452380Y-146573866D02*
X195547618Y-146526247D01*
X195880952Y-146288152D02*
X196261904Y-146288152D01*
X196023809Y-145954819D02*
X196023809Y-146811961D01*
X196023809Y-146811961D02*
X196071428Y-146907200D01*
X196071428Y-146907200D02*
X196166666Y-146954819D01*
X196166666Y-146954819D02*
X196261904Y-146954819D01*
X196976190Y-146907200D02*
X196880952Y-146954819D01*
X196880952Y-146954819D02*
X196690476Y-146954819D01*
X196690476Y-146954819D02*
X196595238Y-146907200D01*
X196595238Y-146907200D02*
X196547619Y-146811961D01*
X196547619Y-146811961D02*
X196547619Y-146431009D01*
X196547619Y-146431009D02*
X196595238Y-146335771D01*
X196595238Y-146335771D02*
X196690476Y-146288152D01*
X196690476Y-146288152D02*
X196880952Y-146288152D01*
X196880952Y-146288152D02*
X196976190Y-146335771D01*
X196976190Y-146335771D02*
X197023809Y-146431009D01*
X197023809Y-146431009D02*
X197023809Y-146526247D01*
X197023809Y-146526247D02*
X196547619Y-146621485D01*
X197452381Y-146954819D02*
X197452381Y-146288152D01*
X197452381Y-146478628D02*
X197500000Y-146383390D01*
X197500000Y-146383390D02*
X197547619Y-146335771D01*
X197547619Y-146335771D02*
X197642857Y-146288152D01*
X197642857Y-146288152D02*
X197738095Y-146288152D01*
X198023810Y-146050057D02*
X198071429Y-146002438D01*
X198071429Y-146002438D02*
X198166667Y-145954819D01*
X198166667Y-145954819D02*
X198404762Y-145954819D01*
X198404762Y-145954819D02*
X198500000Y-146002438D01*
X198500000Y-146002438D02*
X198547619Y-146050057D01*
X198547619Y-146050057D02*
X198595238Y-146145295D01*
X198595238Y-146145295D02*
X198595238Y-146240533D01*
X198595238Y-146240533D02*
X198547619Y-146383390D01*
X198547619Y-146383390D02*
X197976191Y-146954819D01*
X197976191Y-146954819D02*
X198595238Y-146954819D01*
X199023810Y-146573866D02*
X199785715Y-146573866D01*
X199404762Y-146954819D02*
X199404762Y-146192914D01*
X203949573Y-273889486D02*
X203914674Y-272890096D01*
X203914674Y-272890096D02*
X204152624Y-272881786D01*
X204152624Y-272881786D02*
X204297056Y-272924391D01*
X204297056Y-272924391D02*
X204395560Y-273016247D01*
X204395560Y-273016247D02*
X204446474Y-273109765D01*
X204446474Y-273109765D02*
X204500711Y-273298463D01*
X204500711Y-273298463D02*
X204505697Y-273441234D01*
X204505697Y-273441234D02*
X204464754Y-273633256D01*
X204464754Y-273633256D02*
X204420488Y-273730098D01*
X204420488Y-273730098D02*
X204328632Y-273828601D01*
X204328632Y-273828601D02*
X204187524Y-273881177D01*
X204187524Y-273881177D02*
X203949573Y-273889486D01*
X204818885Y-272858520D02*
X205437555Y-272836915D01*
X205437555Y-272836915D02*
X205117720Y-273229269D01*
X205117720Y-273229269D02*
X205260490Y-273224283D01*
X205260490Y-273224283D02*
X205357332Y-273268550D01*
X205357332Y-273268550D02*
X205406584Y-273314478D01*
X205406584Y-273314478D02*
X205457498Y-273407996D01*
X205457498Y-273407996D02*
X205465807Y-273645946D01*
X205465807Y-273645946D02*
X205421541Y-273742788D01*
X205421541Y-273742788D02*
X205375613Y-273792040D01*
X205375613Y-273792040D02*
X205282095Y-273842954D01*
X205282095Y-273842954D02*
X204996554Y-273852925D01*
X204996554Y-273852925D02*
X204899712Y-273808659D01*
X204899712Y-273808659D02*
X204850460Y-273762731D01*
X205948355Y-273819687D02*
X206138715Y-273813040D01*
X206138715Y-273813040D02*
X206232233Y-273762126D01*
X206232233Y-273762126D02*
X206278162Y-273712874D01*
X206278162Y-273712874D02*
X206368356Y-273566780D01*
X206368356Y-273566780D02*
X206409299Y-273374758D01*
X206409299Y-273374758D02*
X206396004Y-272994038D01*
X206396004Y-272994038D02*
X206345090Y-272900520D01*
X206345090Y-272900520D02*
X206295838Y-272854592D01*
X206295838Y-272854592D02*
X206198996Y-272810325D01*
X206198996Y-272810325D02*
X206008636Y-272816973D01*
X206008636Y-272816973D02*
X205915117Y-272867887D01*
X205915117Y-272867887D02*
X205869189Y-272917139D01*
X205869189Y-272917139D02*
X205824923Y-273013981D01*
X205824923Y-273013981D02*
X205833232Y-273251931D01*
X205833232Y-273251931D02*
X205884146Y-273345449D01*
X205884146Y-273345449D02*
X205933398Y-273391377D01*
X205933398Y-273391377D02*
X206030240Y-273435643D01*
X206030240Y-273435643D02*
X206220600Y-273428996D01*
X206220600Y-273428996D02*
X206314118Y-273378082D01*
X206314118Y-273378082D02*
X206360047Y-273328830D01*
X206360047Y-273328830D02*
X206404313Y-273231988D01*
X209529823Y-271793462D02*
X208958743Y-271813405D01*
X209244283Y-271803433D02*
X209209383Y-270804043D01*
X209209383Y-270804043D02*
X209119189Y-270950137D01*
X209119189Y-270950137D02*
X209027333Y-271048640D01*
X209027333Y-271048640D02*
X208933814Y-271099554D01*
X162998694Y-268305288D02*
X163291066Y-267348984D01*
X163291066Y-267348984D02*
X163518757Y-267418596D01*
X163518757Y-267418596D02*
X163641450Y-267505902D01*
X163641450Y-267505902D02*
X163704682Y-267624823D01*
X163704682Y-267624823D02*
X163722375Y-267729822D01*
X163722375Y-267729822D02*
X163712223Y-267925898D01*
X163712223Y-267925898D02*
X163670456Y-268062513D01*
X163670456Y-268062513D02*
X163569228Y-268230744D01*
X163569228Y-268230744D02*
X163495845Y-268307898D01*
X163495845Y-268307898D02*
X163376923Y-268371130D01*
X163376923Y-268371130D02*
X163226386Y-268374901D01*
X163226386Y-268374901D02*
X162998694Y-268305288D01*
X164156294Y-267613510D02*
X164748292Y-267794502D01*
X164748292Y-267794502D02*
X164318144Y-268061352D01*
X164318144Y-268061352D02*
X164454759Y-268103119D01*
X164454759Y-268103119D02*
X164531913Y-268176502D01*
X164531913Y-268176502D02*
X164563529Y-268235963D01*
X164563529Y-268235963D02*
X164581222Y-268340962D01*
X164581222Y-268340962D02*
X164511610Y-268568654D01*
X164511610Y-268568654D02*
X164438227Y-268645808D01*
X164438227Y-268645808D02*
X164378766Y-268677424D01*
X164378766Y-268677424D02*
X164273767Y-268695117D01*
X164273767Y-268695117D02*
X164000537Y-268611582D01*
X164000537Y-268611582D02*
X163923383Y-268538199D01*
X163923383Y-268538199D02*
X163891767Y-268478738D01*
X165613520Y-268059029D02*
X165158137Y-267919805D01*
X165158137Y-267919805D02*
X164973374Y-268361265D01*
X164973374Y-268361265D02*
X165032835Y-268329649D01*
X165032835Y-268329649D02*
X165137834Y-268311956D01*
X165137834Y-268311956D02*
X165365526Y-268381568D01*
X165365526Y-268381568D02*
X165442680Y-268454952D01*
X165442680Y-268454952D02*
X165474296Y-268514412D01*
X165474296Y-268514412D02*
X165491989Y-268619411D01*
X165491989Y-268619411D02*
X165422377Y-268847103D01*
X165422377Y-268847103D02*
X165348993Y-268924257D01*
X165348993Y-268924257D02*
X165289533Y-268955873D01*
X165289533Y-268955873D02*
X165184534Y-268973567D01*
X165184534Y-268973567D02*
X164956842Y-268903954D01*
X164956842Y-268903954D02*
X164879688Y-268830571D01*
X164879688Y-268830571D02*
X164848072Y-268771110D01*
X168957324Y-268140210D02*
X168410864Y-267973140D01*
X168684094Y-268056675D02*
X168976465Y-267100371D01*
X168976465Y-267100371D02*
X168843621Y-267209141D01*
X168843621Y-267209141D02*
X168724700Y-267272372D01*
X168724700Y-267272372D02*
X168619701Y-267290066D01*
X153217732Y-264785164D02*
X153592339Y-263857980D01*
X153592339Y-263857980D02*
X153813097Y-263947172D01*
X153813097Y-263947172D02*
X153927713Y-264044839D01*
X153927713Y-264044839D02*
X153980340Y-264168819D01*
X153980340Y-264168819D02*
X153988814Y-264274961D01*
X153988814Y-264274961D02*
X153961612Y-264469405D01*
X153961612Y-264469405D02*
X153908097Y-264601860D01*
X153908097Y-264601860D02*
X153792592Y-264760628D01*
X153792592Y-264760628D02*
X153712763Y-264831093D01*
X153712763Y-264831093D02*
X153588783Y-264883720D01*
X153588783Y-264883720D02*
X153438490Y-264874356D01*
X153438490Y-264874356D02*
X153217732Y-264785164D01*
X154431219Y-264196910D02*
X155005190Y-264428809D01*
X155005190Y-264428809D02*
X154553422Y-264657153D01*
X154553422Y-264657153D02*
X154685877Y-264710668D01*
X154685877Y-264710668D02*
X154756341Y-264790497D01*
X154756341Y-264790497D02*
X154782655Y-264852487D01*
X154782655Y-264852487D02*
X154791129Y-264958629D01*
X154791129Y-264958629D02*
X154701937Y-265179387D01*
X154701937Y-265179387D02*
X154622109Y-265249851D01*
X154622109Y-265249851D02*
X154560119Y-265276165D01*
X154560119Y-265276165D02*
X154453977Y-265284639D01*
X154453977Y-265284639D02*
X154189068Y-265177609D01*
X154189068Y-265177609D02*
X154118603Y-265097780D01*
X154118603Y-265097780D02*
X154092290Y-265035790D01*
X155675051Y-265058962D02*
X155425313Y-265677084D01*
X155597000Y-264616557D02*
X155108666Y-265189639D01*
X155108666Y-265189639D02*
X155682636Y-265421538D01*
X159168073Y-265140042D02*
X158638254Y-264925981D01*
X158903164Y-265033012D02*
X159277770Y-264105828D01*
X159277770Y-264105828D02*
X159135952Y-264202606D01*
X159135952Y-264202606D02*
X159011972Y-264255232D01*
X159011972Y-264255232D02*
X158905830Y-264263707D01*
X86098835Y-103426008D02*
X85178331Y-103035277D01*
X85178331Y-103035277D02*
X85271362Y-102816109D01*
X85271362Y-102816109D02*
X85371014Y-102703215D01*
X85371014Y-102703215D02*
X85495894Y-102652760D01*
X85495894Y-102652760D02*
X85602167Y-102646139D01*
X85602167Y-102646139D02*
X85796108Y-102676731D01*
X85796108Y-102676731D02*
X85927608Y-102732549D01*
X85927608Y-102732549D02*
X86084336Y-102850808D01*
X86084336Y-102850808D02*
X86153397Y-102931854D01*
X86153397Y-102931854D02*
X86203852Y-103056734D01*
X86203852Y-103056734D02*
X86191867Y-103206841D01*
X86191867Y-103206841D02*
X86098835Y-103426008D01*
X86694235Y-102023334D02*
X86470960Y-102549337D01*
X86582598Y-102286336D02*
X85662093Y-101895605D01*
X85662093Y-101895605D02*
X85756381Y-102039090D01*
X85756381Y-102039090D02*
X85806836Y-102163970D01*
X85806836Y-102163970D02*
X85813457Y-102270243D01*
X86127249Y-100799765D02*
X85941187Y-101238101D01*
X85941187Y-101238101D02*
X86360916Y-101467997D01*
X86360916Y-101467997D02*
X86335689Y-101405557D01*
X86335689Y-101405557D02*
X86329068Y-101299284D01*
X86329068Y-101299284D02*
X86422099Y-101080116D01*
X86422099Y-101080116D02*
X86503145Y-101011055D01*
X86503145Y-101011055D02*
X86565585Y-100985828D01*
X86565585Y-100985828D02*
X86671858Y-100979207D01*
X86671858Y-100979207D02*
X86891026Y-101072238D01*
X86891026Y-101072238D02*
X86960087Y-101153284D01*
X86960087Y-101153284D02*
X86985314Y-101215724D01*
X86985314Y-101215724D02*
X86991935Y-101321997D01*
X86991935Y-101321997D02*
X86898904Y-101541165D01*
X86898904Y-101541165D02*
X86817858Y-101610226D01*
X86817858Y-101610226D02*
X86755418Y-101635453D01*
X86812358Y-106607735D02*
X86589083Y-107133737D01*
X86700721Y-106870736D02*
X85780216Y-106480005D01*
X85780216Y-106480005D02*
X85874504Y-106623491D01*
X85874504Y-106623491D02*
X85924959Y-106748370D01*
X85924959Y-106748370D02*
X85931580Y-106854644D01*
X183272793Y-272831157D02*
X183394663Y-271838611D01*
X183394663Y-271838611D02*
X183630983Y-271867628D01*
X183630983Y-271867628D02*
X183766972Y-271932302D01*
X183766972Y-271932302D02*
X183849894Y-272038436D01*
X183849894Y-272038436D02*
X183885551Y-272138768D01*
X183885551Y-272138768D02*
X183909602Y-272333628D01*
X183909602Y-272333628D02*
X183892192Y-272475420D01*
X183892192Y-272475420D02*
X183821715Y-272658673D01*
X183821715Y-272658673D02*
X183762844Y-272747398D01*
X183762844Y-272747398D02*
X183656709Y-272830320D01*
X183656709Y-272830320D02*
X183509114Y-272860174D01*
X183509114Y-272860174D02*
X183272793Y-272831157D01*
X184292681Y-271948874D02*
X184907114Y-272024317D01*
X184907114Y-272024317D02*
X184529839Y-272361806D01*
X184529839Y-272361806D02*
X184671631Y-272379216D01*
X184671631Y-272379216D02*
X184760356Y-272438087D01*
X184760356Y-272438087D02*
X184801817Y-272491154D01*
X184801817Y-272491154D02*
X184837474Y-272591486D01*
X184837474Y-272591486D02*
X184808458Y-272827806D01*
X184808458Y-272827806D02*
X184749587Y-272916531D01*
X184749587Y-272916531D02*
X184696520Y-272957992D01*
X184696520Y-272957992D02*
X184596188Y-272993650D01*
X184596188Y-272993650D02*
X184312604Y-272958830D01*
X184312604Y-272958830D02*
X184223879Y-272899959D01*
X184223879Y-272899959D02*
X184182418Y-272846892D01*
X185237963Y-272064940D02*
X185899660Y-272146186D01*
X185899660Y-272146186D02*
X185352414Y-273086502D01*
X189112231Y-271633879D02*
X188545062Y-271564240D01*
X188828646Y-271599059D02*
X188950516Y-270606513D01*
X188950516Y-270606513D02*
X188838578Y-270736699D01*
X188838578Y-270736699D02*
X188732443Y-270819621D01*
X188732443Y-270819621D02*
X188632111Y-270855278D01*
X134759070Y-255408237D02*
X135274108Y-254551070D01*
X135274108Y-254551070D02*
X135478196Y-254673698D01*
X135478196Y-254673698D02*
X135576123Y-254788092D01*
X135576123Y-254788092D02*
X135608706Y-254918779D01*
X135608706Y-254918779D02*
X135600473Y-255024939D01*
X135600473Y-255024939D02*
X135543188Y-255212735D01*
X135543188Y-255212735D02*
X135469611Y-255335187D01*
X135469611Y-255335187D02*
X135330691Y-255473932D01*
X135330691Y-255473932D02*
X135240822Y-255531041D01*
X135240822Y-255531041D02*
X135110136Y-255563625D01*
X135110136Y-255563625D02*
X134963158Y-255530865D01*
X134963158Y-255530865D02*
X134759070Y-255408237D01*
X136049641Y-255017057D02*
X136580268Y-255335890D01*
X136580268Y-255335890D02*
X136098341Y-255490750D01*
X136098341Y-255490750D02*
X136220793Y-255564327D01*
X136220793Y-255564327D02*
X136277903Y-255654196D01*
X136277903Y-255654196D02*
X136294194Y-255719539D01*
X136294194Y-255719539D02*
X136285961Y-255825700D01*
X136285961Y-255825700D02*
X136163333Y-256029787D01*
X136163333Y-256029787D02*
X136073464Y-256086896D01*
X136073464Y-256086896D02*
X136008121Y-256103188D01*
X136008121Y-256103188D02*
X135901960Y-256094955D01*
X135901960Y-256094955D02*
X135657055Y-255947801D01*
X135657055Y-255947801D02*
X135599946Y-255857932D01*
X135599946Y-255857932D02*
X135583654Y-255792589D01*
X136857757Y-255613730D02*
X136923100Y-255597438D01*
X136923100Y-255597438D02*
X137029261Y-255605672D01*
X137029261Y-255605672D02*
X137233348Y-255728300D01*
X137233348Y-255728300D02*
X137290457Y-255818168D01*
X137290457Y-255818168D02*
X137306749Y-255883512D01*
X137306749Y-255883512D02*
X137298515Y-255989672D01*
X137298515Y-255989672D02*
X137249464Y-256071307D01*
X137249464Y-256071307D02*
X137135070Y-256169234D01*
X137135070Y-256169234D02*
X136350952Y-256364736D01*
X136350952Y-256364736D02*
X136881580Y-256683570D01*
X140580639Y-256689584D02*
X140090829Y-256395277D01*
X140335734Y-256542431D02*
X140850772Y-255685263D01*
X140850772Y-255685263D02*
X140695560Y-255758665D01*
X140695560Y-255758665D02*
X140564874Y-255791248D01*
X140564874Y-255791248D02*
X140458713Y-255783015D01*
X275455630Y-52809574D02*
X276071291Y-52021563D01*
X276071291Y-52021563D02*
X276258913Y-52168149D01*
X276258913Y-52168149D02*
X276342169Y-52293625D01*
X276342169Y-52293625D02*
X276358583Y-52427308D01*
X276358583Y-52427308D02*
X276337473Y-52531674D01*
X276337473Y-52531674D02*
X276257728Y-52711089D01*
X276257728Y-52711089D02*
X276169776Y-52823661D01*
X276169776Y-52823661D02*
X276014983Y-52944442D01*
X276014983Y-52944442D02*
X275918825Y-52990173D01*
X275918825Y-52990173D02*
X275785141Y-53006587D01*
X275785141Y-53006587D02*
X275643251Y-52956160D01*
X275643251Y-52956160D02*
X275455630Y-52809574D01*
X277197021Y-52901079D02*
X277046924Y-52783811D01*
X277046924Y-52783811D02*
X276942558Y-52762701D01*
X276942558Y-52762701D02*
X276875716Y-52770908D01*
X276875716Y-52770908D02*
X276712716Y-52824846D01*
X276712716Y-52824846D02*
X276557923Y-52945626D01*
X276557923Y-52945626D02*
X276323385Y-53245821D01*
X276323385Y-53245821D02*
X276302275Y-53350187D01*
X276302275Y-53350187D02*
X276310482Y-53417028D01*
X276310482Y-53417028D02*
X276356213Y-53513187D01*
X276356213Y-53513187D02*
X276506311Y-53630456D01*
X276506311Y-53630456D02*
X276610677Y-53651566D01*
X276610677Y-53651566D02*
X276677518Y-53643359D01*
X276677518Y-53643359D02*
X276773677Y-53597627D01*
X276773677Y-53597627D02*
X276920263Y-53410006D01*
X276920263Y-53410006D02*
X276941373Y-53305640D01*
X276941373Y-53305640D02*
X276933166Y-53238798D01*
X276933166Y-53238798D02*
X276887434Y-53142640D01*
X276887434Y-53142640D02*
X276737337Y-53025371D01*
X276737337Y-53025371D02*
X276632971Y-53004261D01*
X276632971Y-53004261D02*
X276566130Y-53012468D01*
X276566130Y-53012468D02*
X276469971Y-53058199D01*
X277458506Y-53649239D02*
X277412775Y-53553081D01*
X277412775Y-53553081D02*
X277404568Y-53486239D01*
X277404568Y-53486239D02*
X277425678Y-53381873D01*
X277425678Y-53381873D02*
X277454995Y-53344349D01*
X277454995Y-53344349D02*
X277551154Y-53298617D01*
X277551154Y-53298617D02*
X277617996Y-53290410D01*
X277617996Y-53290410D02*
X277722361Y-53311520D01*
X277722361Y-53311520D02*
X277872459Y-53428789D01*
X277872459Y-53428789D02*
X277918190Y-53524948D01*
X277918190Y-53524948D02*
X277926397Y-53591790D01*
X277926397Y-53591790D02*
X277905287Y-53696155D01*
X277905287Y-53696155D02*
X277875970Y-53733680D01*
X277875970Y-53733680D02*
X277779811Y-53779411D01*
X277779811Y-53779411D02*
X277712970Y-53787618D01*
X277712970Y-53787618D02*
X277608604Y-53766508D01*
X277608604Y-53766508D02*
X277458506Y-53649239D01*
X277458506Y-53649239D02*
X277354141Y-53628129D01*
X277354141Y-53628129D02*
X277287299Y-53636336D01*
X277287299Y-53636336D02*
X277191140Y-53682068D01*
X277191140Y-53682068D02*
X277073871Y-53832165D01*
X277073871Y-53832165D02*
X277052761Y-53936531D01*
X277052761Y-53936531D02*
X277060968Y-54003372D01*
X277060968Y-54003372D02*
X277106700Y-54099531D01*
X277106700Y-54099531D02*
X277256797Y-54216800D01*
X277256797Y-54216800D02*
X277361163Y-54237910D01*
X277361163Y-54237910D02*
X277428005Y-54229703D01*
X277428005Y-54229703D02*
X277524163Y-54183972D01*
X277524163Y-54183972D02*
X277641432Y-54033874D01*
X277641432Y-54033874D02*
X277662542Y-53929509D01*
X277662542Y-53929509D02*
X277654335Y-53862667D01*
X277654335Y-53862667D02*
X277608604Y-53766508D01*
X272197644Y-52675292D02*
X271747352Y-52323486D01*
X271972498Y-52499389D02*
X272588160Y-51711378D01*
X272588160Y-51711378D02*
X272425160Y-51765317D01*
X272425160Y-51765317D02*
X272291476Y-51781731D01*
X272291476Y-51781731D02*
X272187111Y-51760621D01*
X297284813Y-74645692D02*
X298083449Y-74043877D01*
X298083449Y-74043877D02*
X298226738Y-74234028D01*
X298226738Y-74234028D02*
X298274682Y-74376777D01*
X298274682Y-74376777D02*
X298255937Y-74510153D01*
X298255937Y-74510153D02*
X298208534Y-74605499D01*
X298208534Y-74605499D02*
X298085071Y-74758161D01*
X298085071Y-74758161D02*
X297970980Y-74844134D01*
X297970980Y-74844134D02*
X297790201Y-74920735D01*
X297790201Y-74920735D02*
X297685483Y-74940021D01*
X297685483Y-74940021D02*
X297552107Y-74921276D01*
X297552107Y-74921276D02*
X297428103Y-74835843D01*
X297428103Y-74835843D02*
X297284813Y-74645692D01*
X298943185Y-75184785D02*
X298828553Y-75032664D01*
X298828553Y-75032664D02*
X298733207Y-74985261D01*
X298733207Y-74985261D02*
X298666519Y-74975888D01*
X298666519Y-74975888D02*
X298495113Y-74985801D01*
X298495113Y-74985801D02*
X298314334Y-75062403D01*
X298314334Y-75062403D02*
X298010092Y-75291666D01*
X298010092Y-75291666D02*
X297962689Y-75387012D01*
X297962689Y-75387012D02*
X297953317Y-75453700D01*
X297953317Y-75453700D02*
X297972602Y-75558418D01*
X297972602Y-75558418D02*
X298087233Y-75710539D01*
X298087233Y-75710539D02*
X298182579Y-75757942D01*
X298182579Y-75757942D02*
X298249268Y-75767314D01*
X298249268Y-75767314D02*
X298353986Y-75748029D01*
X298353986Y-75748029D02*
X298544137Y-75604739D01*
X298544137Y-75604739D02*
X298591540Y-75509393D01*
X298591540Y-75509393D02*
X298600912Y-75442705D01*
X298600912Y-75442705D02*
X298581627Y-75337987D01*
X298581627Y-75337987D02*
X298466995Y-75185866D01*
X298466995Y-75185866D02*
X298371649Y-75138463D01*
X298371649Y-75138463D02*
X298304961Y-75129091D01*
X298304961Y-75129091D02*
X298200243Y-75148376D01*
X299545000Y-75983420D02*
X299258421Y-75603117D01*
X299258421Y-75603117D02*
X298849461Y-75851666D01*
X298849461Y-75851666D02*
X298916149Y-75861038D01*
X298916149Y-75861038D02*
X299011495Y-75908441D01*
X299011495Y-75908441D02*
X299154784Y-76098592D01*
X299154784Y-76098592D02*
X299174070Y-76203311D01*
X299174070Y-76203311D02*
X299164697Y-76269999D01*
X299164697Y-76269999D02*
X299117294Y-76365345D01*
X299117294Y-76365345D02*
X298927143Y-76508634D01*
X298927143Y-76508634D02*
X298822425Y-76527919D01*
X298822425Y-76527919D02*
X298755737Y-76518547D01*
X298755737Y-76518547D02*
X298660391Y-76471144D01*
X298660391Y-76471144D02*
X298517101Y-76280993D01*
X298517101Y-76280993D02*
X298497816Y-76176275D01*
X298497816Y-76176275D02*
X298507188Y-76109587D01*
X294172596Y-73672756D02*
X293828702Y-73216393D01*
X294000649Y-73444575D02*
X294799285Y-72842760D01*
X294799285Y-72842760D02*
X294627878Y-72852673D01*
X294627878Y-72852673D02*
X294494502Y-72833928D01*
X294494502Y-72833928D02*
X294399156Y-72786525D01*
X79930211Y-123096045D02*
X78955841Y-122871094D01*
X78955841Y-122871094D02*
X79009400Y-122639101D01*
X79009400Y-122639101D02*
X79087935Y-122510618D01*
X79087935Y-122510618D02*
X79202156Y-122439244D01*
X79202156Y-122439244D02*
X79305665Y-122414270D01*
X79305665Y-122414270D02*
X79501971Y-122410719D01*
X79501971Y-122410719D02*
X79641167Y-122442855D01*
X79641167Y-122442855D02*
X79816049Y-122532101D01*
X79816049Y-122532101D02*
X79898135Y-122599924D01*
X79898135Y-122599924D02*
X79969508Y-122714145D01*
X79969508Y-122714145D02*
X79983770Y-122864052D01*
X79983770Y-122864052D02*
X79930211Y-123096045D01*
X80272993Y-121611291D02*
X80144450Y-122168074D01*
X80208722Y-121889682D02*
X79234351Y-121664731D01*
X79234351Y-121664731D02*
X79352123Y-121789664D01*
X79352123Y-121789664D02*
X79423497Y-121903885D01*
X79423497Y-121903885D02*
X79448471Y-122007394D01*
X79373607Y-121061550D02*
X79523574Y-120411970D01*
X79523574Y-120411970D02*
X80401537Y-121054508D01*
X81185393Y-126105534D02*
X81056850Y-126662317D01*
X81121122Y-126383925D02*
X80146752Y-126158974D01*
X80146752Y-126158974D02*
X80264523Y-126283907D01*
X80264523Y-126283907D02*
X80335897Y-126398128D01*
X80335897Y-126398128D02*
X80360871Y-126501637D01*
X173040596Y-270993631D02*
X173248507Y-270015484D01*
X173248507Y-270015484D02*
X173481400Y-270064987D01*
X173481400Y-270064987D02*
X173611234Y-270141267D01*
X173611234Y-270141267D02*
X173684590Y-270254225D01*
X173684590Y-270254225D02*
X173711368Y-270357282D01*
X173711368Y-270357282D02*
X173718344Y-270553497D01*
X173718344Y-270553497D02*
X173688642Y-270693232D01*
X173688642Y-270693232D02*
X173602461Y-270869645D01*
X173602461Y-270869645D02*
X173536082Y-270952902D01*
X173536082Y-270952902D02*
X173423124Y-271026257D01*
X173423124Y-271026257D02*
X173273488Y-271043134D01*
X173273488Y-271043134D02*
X173040596Y-270993631D01*
X174133498Y-270203594D02*
X174739018Y-270332302D01*
X174739018Y-270332302D02*
X174333764Y-270635625D01*
X174333764Y-270635625D02*
X174473500Y-270665327D01*
X174473500Y-270665327D02*
X174556756Y-270731707D01*
X174556756Y-270731707D02*
X174593434Y-270788186D01*
X174593434Y-270788186D02*
X174620211Y-270891243D01*
X174620211Y-270891243D02*
X174570708Y-271124135D01*
X174570708Y-271124135D02*
X174504329Y-271207392D01*
X174504329Y-271207392D02*
X174447850Y-271244070D01*
X174447850Y-271244070D02*
X174344792Y-271270847D01*
X174344792Y-271270847D02*
X174065322Y-271211444D01*
X174065322Y-271211444D02*
X173982065Y-271145064D01*
X173982065Y-271145064D02*
X173945387Y-271088585D01*
X175577430Y-270510512D02*
X175391116Y-270470909D01*
X175391116Y-270470909D02*
X175288059Y-270497687D01*
X175288059Y-270497687D02*
X175231580Y-270534365D01*
X175231580Y-270534365D02*
X175108721Y-270654299D01*
X175108721Y-270654299D02*
X175022541Y-270830712D01*
X175022541Y-270830712D02*
X174943336Y-271203340D01*
X174943336Y-271203340D02*
X174970114Y-271306397D01*
X174970114Y-271306397D02*
X175006791Y-271362876D01*
X175006791Y-271362876D02*
X175090048Y-271429256D01*
X175090048Y-271429256D02*
X175276362Y-271468858D01*
X175276362Y-271468858D02*
X175379419Y-271442081D01*
X175379419Y-271442081D02*
X175435898Y-271405403D01*
X175435898Y-271405403D02*
X175502278Y-271322147D01*
X175502278Y-271322147D02*
X175551780Y-271089254D01*
X175551780Y-271089254D02*
X175525003Y-270986197D01*
X175525003Y-270986197D02*
X175488325Y-270929718D01*
X175488325Y-270929718D02*
X175405069Y-270863338D01*
X175405069Y-270863338D02*
X175218755Y-270823736D01*
X175218755Y-270823736D02*
X175115698Y-270850513D01*
X175115698Y-270850513D02*
X175059219Y-270887191D01*
X175059219Y-270887191D02*
X174992839Y-270970448D01*
X178962162Y-270309852D02*
X178403220Y-270191045D01*
X178682691Y-270250449D02*
X178890602Y-269272301D01*
X178890602Y-269272301D02*
X178767744Y-269392235D01*
X178767744Y-269392235D02*
X178654786Y-269465591D01*
X178654786Y-269465591D02*
X178551728Y-269492369D01*
X306740829Y-213029011D02*
X305874804Y-212529011D01*
X305874804Y-212529011D02*
X305993852Y-212322815D01*
X305993852Y-212322815D02*
X306106520Y-212222906D01*
X306106520Y-212222906D02*
X306236617Y-212188047D01*
X306236617Y-212188047D02*
X306342905Y-212194427D01*
X306342905Y-212194427D02*
X306531672Y-212248425D01*
X306531672Y-212248425D02*
X306655390Y-212319854D01*
X306655390Y-212319854D02*
X306796538Y-212456331D01*
X306796538Y-212456331D02*
X306855207Y-212545190D01*
X306855207Y-212545190D02*
X306890066Y-212675287D01*
X306890066Y-212675287D02*
X306859877Y-212822815D01*
X306859877Y-212822815D02*
X306740829Y-213029011D01*
X306612899Y-211250593D02*
X306374804Y-211662986D01*
X306374804Y-211662986D02*
X306763388Y-211942320D01*
X306763388Y-211942320D02*
X306745958Y-211877272D01*
X306745958Y-211877272D02*
X306752338Y-211770984D01*
X306752338Y-211770984D02*
X306871385Y-211564787D01*
X306871385Y-211564787D02*
X306960244Y-211506118D01*
X306960244Y-211506118D02*
X307025292Y-211488688D01*
X307025292Y-211488688D02*
X307131580Y-211495068D01*
X307131580Y-211495068D02*
X307337777Y-211614115D01*
X307337777Y-211614115D02*
X307396446Y-211702974D01*
X307396446Y-211702974D02*
X307413876Y-211768023D01*
X307413876Y-211768023D02*
X307407496Y-211874311D01*
X307407496Y-211874311D02*
X307288449Y-212080507D01*
X307288449Y-212080507D02*
X307199590Y-212139176D01*
X307199590Y-212139176D02*
X307134541Y-212156606D01*
X307978925Y-210884567D02*
X307693210Y-211379439D01*
X307836068Y-211132003D02*
X306970042Y-210632003D01*
X306970042Y-210632003D02*
X307046141Y-210785910D01*
X307046141Y-210785910D02*
X307081001Y-210916008D01*
X307081001Y-210916008D02*
X307074621Y-211022296D01*
X307920382Y-207185967D02*
X307634667Y-207680838D01*
X307777525Y-207433403D02*
X306911499Y-206933403D01*
X306911499Y-206933403D02*
X306987598Y-207087310D01*
X306987598Y-207087310D02*
X307022458Y-207217407D01*
X307022458Y-207217407D02*
X307016078Y-207323696D01*
X312952244Y-101190497D02*
X313872749Y-100799765D01*
X313872749Y-100799765D02*
X313965780Y-101018933D01*
X313965780Y-101018933D02*
X313977765Y-101169040D01*
X313977765Y-101169040D02*
X313927311Y-101293920D01*
X313927311Y-101293920D02*
X313858250Y-101374966D01*
X313858250Y-101374966D02*
X313701522Y-101493224D01*
X313701522Y-101493224D02*
X313570021Y-101549043D01*
X313570021Y-101549043D02*
X313376081Y-101579635D01*
X313376081Y-101579635D02*
X313269807Y-101573013D01*
X313269807Y-101573013D02*
X313144928Y-101522559D01*
X313144928Y-101522559D02*
X313045275Y-101409664D01*
X313045275Y-101409664D02*
X312952244Y-101190497D01*
X314430936Y-102114772D02*
X314356511Y-101939438D01*
X314356511Y-101939438D02*
X314275465Y-101870377D01*
X314275465Y-101870377D02*
X314213025Y-101845150D01*
X314213025Y-101845150D02*
X314044312Y-101813301D01*
X314044312Y-101813301D02*
X313850372Y-101843893D01*
X313850372Y-101843893D02*
X313499703Y-101992743D01*
X313499703Y-101992743D02*
X313430642Y-102073789D01*
X313430642Y-102073789D02*
X313405415Y-102136229D01*
X313405415Y-102136229D02*
X313398794Y-102242502D01*
X313398794Y-102242502D02*
X313473219Y-102417836D01*
X313473219Y-102417836D02*
X313554265Y-102486897D01*
X313554265Y-102486897D02*
X313616705Y-102512125D01*
X313616705Y-102512125D02*
X313722978Y-102518746D01*
X313722978Y-102518746D02*
X313942146Y-102425714D01*
X313942146Y-102425714D02*
X314011207Y-102344668D01*
X314011207Y-102344668D02*
X314036434Y-102282229D01*
X314036434Y-102282229D02*
X314043055Y-102175955D01*
X314043055Y-102175955D02*
X313968630Y-102000621D01*
X313968630Y-102000621D02*
X313887584Y-101931560D01*
X313887584Y-101931560D02*
X313825144Y-101906333D01*
X313825144Y-101906333D02*
X313718871Y-101899712D01*
X314529332Y-102590321D02*
X314591771Y-102615548D01*
X314591771Y-102615548D02*
X314672817Y-102684609D01*
X314672817Y-102684609D02*
X314765849Y-102903777D01*
X314765849Y-102903777D02*
X314759228Y-103010050D01*
X314759228Y-103010050D02*
X314734000Y-103072490D01*
X314734000Y-103072490D02*
X314664939Y-103153536D01*
X314664939Y-103153536D02*
X314577272Y-103190748D01*
X314577272Y-103190748D02*
X314427165Y-103202733D01*
X314427165Y-103202733D02*
X313677888Y-102900006D01*
X313677888Y-102900006D02*
X313919769Y-103469842D01*
X310167847Y-99493547D02*
X309944572Y-98967545D01*
X310056210Y-99230546D02*
X310976714Y-98839815D01*
X310976714Y-98839815D02*
X310808001Y-98807966D01*
X310808001Y-98807966D02*
X310683122Y-98757512D01*
X310683122Y-98757512D02*
X310602076Y-98688451D01*
X195857143Y-143650057D02*
X195904762Y-143602438D01*
X195904762Y-143602438D02*
X196000000Y-143554819D01*
X196000000Y-143554819D02*
X196238095Y-143554819D01*
X196238095Y-143554819D02*
X196333333Y-143602438D01*
X196333333Y-143602438D02*
X196380952Y-143650057D01*
X196380952Y-143650057D02*
X196428571Y-143745295D01*
X196428571Y-143745295D02*
X196428571Y-143840533D01*
X196428571Y-143840533D02*
X196380952Y-143983390D01*
X196380952Y-143983390D02*
X195809524Y-144554819D01*
X195809524Y-144554819D02*
X196428571Y-144554819D01*
X197285714Y-143888152D02*
X197285714Y-144554819D01*
X197047619Y-143507200D02*
X196809524Y-144221485D01*
X196809524Y-144221485D02*
X197428571Y-144221485D01*
X197714286Y-143888152D02*
X197952381Y-144554819D01*
X197952381Y-144554819D02*
X198190476Y-143888152D01*
X95454666Y-85116872D02*
X94606617Y-84586952D01*
X94606617Y-84586952D02*
X94732789Y-84385036D01*
X94732789Y-84385036D02*
X94848875Y-84289121D01*
X94848875Y-84289121D02*
X94980110Y-84258823D01*
X94980110Y-84258823D02*
X95086110Y-84268908D01*
X95086110Y-84268908D02*
X95272878Y-84329462D01*
X95272878Y-84329462D02*
X95394027Y-84405164D01*
X95394027Y-84405164D02*
X95530326Y-84546485D01*
X95530326Y-84546485D02*
X95585858Y-84637336D01*
X95585858Y-84637336D02*
X95616156Y-84768571D01*
X95616156Y-84768571D02*
X95580837Y-84914955D01*
X95580837Y-84914955D02*
X95454666Y-85116872D01*
X96262162Y-83824608D02*
X95959351Y-84309207D01*
X96110756Y-84066907D02*
X95262708Y-83536988D01*
X95262708Y-83536988D02*
X95333389Y-83693457D01*
X95333389Y-83693457D02*
X95363687Y-83824692D01*
X95363687Y-83824692D02*
X95353602Y-83930693D01*
X95590753Y-83012006D02*
X95918798Y-82487024D01*
X95918798Y-82487024D02*
X96065225Y-82971580D01*
X96065225Y-82971580D02*
X96140927Y-82850431D01*
X96140927Y-82850431D02*
X96231779Y-82794898D01*
X96231779Y-82794898D02*
X96297397Y-82779749D01*
X96297397Y-82779749D02*
X96403397Y-82789835D01*
X96403397Y-82789835D02*
X96605314Y-82916006D01*
X96605314Y-82916006D02*
X96660846Y-83006858D01*
X96660846Y-83006858D02*
X96675995Y-83072475D01*
X96675995Y-83072475D02*
X96665910Y-83178476D01*
X96665910Y-83178476D02*
X96514504Y-83420775D01*
X96514504Y-83420775D02*
X96423652Y-83476308D01*
X96423652Y-83476308D02*
X96358035Y-83491457D01*
X95661672Y-88371046D02*
X95358861Y-88855645D01*
X95510266Y-88613345D02*
X94662218Y-88083426D01*
X94662218Y-88083426D02*
X94732899Y-88239895D01*
X94732899Y-88239895D02*
X94763197Y-88371130D01*
X94763197Y-88371130D02*
X94753112Y-88477131D01*
X287738044Y-237580331D02*
X287018704Y-236885673D01*
X287018704Y-236885673D02*
X287184099Y-236714402D01*
X287184099Y-236714402D02*
X287317590Y-236644718D01*
X287317590Y-236644718D02*
X287452257Y-236642367D01*
X287452257Y-236642367D02*
X287553844Y-236674271D01*
X287553844Y-236674271D02*
X287723941Y-236772332D01*
X287723941Y-236772332D02*
X287826703Y-236871569D01*
X287826703Y-236871569D02*
X287930641Y-237038140D01*
X287930641Y-237038140D02*
X287966071Y-237138552D01*
X287966071Y-237138552D02*
X287968422Y-237273218D01*
X287968422Y-237273218D02*
X287903439Y-237409060D01*
X287903439Y-237409060D02*
X287738044Y-237580331D01*
X288250853Y-236089598D02*
X288730413Y-236552703D01*
X287811424Y-235996237D02*
X288159844Y-236663693D01*
X288159844Y-236663693D02*
X288589870Y-236218388D01*
X288782468Y-235676196D02*
X288682055Y-235711625D01*
X288682055Y-235711625D02*
X288614722Y-235712800D01*
X288614722Y-235712800D02*
X288513135Y-235680897D01*
X288513135Y-235680897D02*
X288478880Y-235647818D01*
X288478880Y-235647818D02*
X288443451Y-235547406D01*
X288443451Y-235547406D02*
X288442275Y-235480072D01*
X288442275Y-235480072D02*
X288474179Y-235378485D01*
X288474179Y-235378485D02*
X288606495Y-235241468D01*
X288606495Y-235241468D02*
X288706907Y-235206038D01*
X288706907Y-235206038D02*
X288774240Y-235204863D01*
X288774240Y-235204863D02*
X288875828Y-235236767D01*
X288875828Y-235236767D02*
X288910082Y-235269846D01*
X288910082Y-235269846D02*
X288945512Y-235370258D01*
X288945512Y-235370258D02*
X288946687Y-235437591D01*
X288946687Y-235437591D02*
X288914783Y-235539179D01*
X288914783Y-235539179D02*
X288782468Y-235676196D01*
X288782468Y-235676196D02*
X288750564Y-235777783D01*
X288750564Y-235777783D02*
X288751739Y-235845116D01*
X288751739Y-235845116D02*
X288787169Y-235945529D01*
X288787169Y-235945529D02*
X288924186Y-236077844D01*
X288924186Y-236077844D02*
X289025773Y-236109748D01*
X289025773Y-236109748D02*
X289093107Y-236108573D01*
X289093107Y-236108573D02*
X289193519Y-236073143D01*
X289193519Y-236073143D02*
X289325835Y-235936126D01*
X289325835Y-235936126D02*
X289357738Y-235834539D01*
X289357738Y-235834539D02*
X289356563Y-235767205D01*
X289356563Y-235767205D02*
X289321134Y-235666793D01*
X289321134Y-235666793D02*
X289184116Y-235534477D01*
X289184116Y-235534477D02*
X289082529Y-235502574D01*
X289082529Y-235502574D02*
X289015196Y-235503749D01*
X289015196Y-235503749D02*
X288914783Y-235539179D01*
X290296119Y-232196209D02*
X289899171Y-232607261D01*
X290097645Y-232401735D02*
X289378305Y-231707077D01*
X289378305Y-231707077D02*
X289414910Y-231874822D01*
X289414910Y-231874822D02*
X289417261Y-232009489D01*
X289417261Y-232009489D02*
X289385357Y-232111076D01*
X219345151Y-28470722D02*
X219518799Y-27485915D01*
X219518799Y-27485915D02*
X219753277Y-27527259D01*
X219753277Y-27527259D02*
X219885695Y-27598962D01*
X219885695Y-27598962D02*
X219962948Y-27709291D01*
X219962948Y-27709291D02*
X219993306Y-27811351D01*
X219993306Y-27811351D02*
X220007126Y-28007203D01*
X220007126Y-28007203D02*
X219982319Y-28147889D01*
X219982319Y-28147889D02*
X219902347Y-28327203D01*
X219902347Y-28327203D02*
X219838914Y-28412725D01*
X219838914Y-28412725D02*
X219728585Y-28489978D01*
X219728585Y-28489978D02*
X219579629Y-28512067D01*
X219579629Y-28512067D02*
X219345151Y-28470722D01*
X220409816Y-27643025D02*
X221066354Y-27758790D01*
X221066354Y-27758790D02*
X220470646Y-28669177D01*
X221805697Y-28227632D02*
X221689931Y-28884170D01*
X221637370Y-27811122D02*
X221278858Y-28473212D01*
X221278858Y-28473212D02*
X221888501Y-28580708D01*
X216405479Y-29881690D02*
X215842732Y-29782462D01*
X216124105Y-29832076D02*
X216297754Y-28847268D01*
X216297754Y-28847268D02*
X216179156Y-28971417D01*
X216179156Y-28971417D02*
X216068826Y-29048670D01*
X216068826Y-29048670D02*
X215966766Y-29079028D01*
X244530534Y-265694923D02*
X244155927Y-264767739D01*
X244155927Y-264767739D02*
X244376685Y-264678547D01*
X244376685Y-264678547D02*
X244526978Y-264669183D01*
X244526978Y-264669183D02*
X244650958Y-264721810D01*
X244650958Y-264721810D02*
X244730787Y-264792275D01*
X244730787Y-264792275D02*
X244846292Y-264951043D01*
X244846292Y-264951043D02*
X244899807Y-265083497D01*
X244899807Y-265083497D02*
X244927009Y-265277942D01*
X244927009Y-265277942D02*
X244918534Y-265384084D01*
X244918534Y-265384084D02*
X244865908Y-265508064D01*
X244865908Y-265508064D02*
X244751292Y-265605731D01*
X244751292Y-265605731D02*
X244530534Y-265694923D01*
X245605344Y-264541648D02*
X245855082Y-265159771D01*
X245241879Y-264277627D02*
X245288697Y-265029093D01*
X245288697Y-265029093D02*
X245862668Y-264797194D01*
X245877840Y-264072041D02*
X246451811Y-263840142D01*
X246451811Y-263840142D02*
X246285457Y-264318223D01*
X246285457Y-264318223D02*
X246417912Y-264264708D01*
X246417912Y-264264708D02*
X246524053Y-264273183D01*
X246524053Y-264273183D02*
X246586043Y-264299496D01*
X246586043Y-264299496D02*
X246665872Y-264369961D01*
X246665872Y-264369961D02*
X246755064Y-264590719D01*
X246755064Y-264590719D02*
X246746589Y-264696861D01*
X246746589Y-264696861D02*
X246720276Y-264758851D01*
X246720276Y-264758851D02*
X246649811Y-264838679D01*
X246649811Y-264838679D02*
X246384901Y-264945710D01*
X246384901Y-264945710D02*
X246278760Y-264937235D01*
X246278760Y-264937235D02*
X246216770Y-264910922D01*
X249057371Y-261816746D02*
X248527551Y-262030807D01*
X248792461Y-261923776D02*
X248417855Y-260996592D01*
X248417855Y-260996592D02*
X248383067Y-261164724D01*
X248383067Y-261164724D02*
X248330440Y-261288704D01*
X248330440Y-261288704D02*
X248259975Y-261368532D01*
X214316735Y-273127124D02*
X214194866Y-272134577D01*
X214194866Y-272134577D02*
X214431187Y-272105561D01*
X214431187Y-272105561D02*
X214578782Y-272135415D01*
X214578782Y-272135415D02*
X214684917Y-272218337D01*
X214684917Y-272218337D02*
X214743788Y-272307062D01*
X214743788Y-272307062D02*
X214814265Y-272490315D01*
X214814265Y-272490315D02*
X214831675Y-272632107D01*
X214831675Y-272632107D02*
X214807624Y-272826967D01*
X214807624Y-272826967D02*
X214771966Y-272927298D01*
X214771966Y-272927298D02*
X214689045Y-273033433D01*
X214689045Y-273033433D02*
X214553056Y-273098107D01*
X214553056Y-273098107D02*
X214316735Y-273127124D01*
X215653412Y-272291327D02*
X215734658Y-272953025D01*
X215370665Y-271942231D02*
X215221394Y-272680209D01*
X215221394Y-272680209D02*
X215835828Y-272604766D01*
X216321751Y-271873429D02*
X216416279Y-271861822D01*
X216416279Y-271861822D02*
X216516610Y-271897480D01*
X216516610Y-271897480D02*
X216569678Y-271938941D01*
X216569678Y-271938941D02*
X216628548Y-272027665D01*
X216628548Y-272027665D02*
X216699026Y-272210919D01*
X216699026Y-272210919D02*
X216728042Y-272447239D01*
X216728042Y-272447239D02*
X216703991Y-272642099D01*
X216703991Y-272642099D02*
X216668334Y-272742430D01*
X216668334Y-272742430D02*
X216626873Y-272795498D01*
X216626873Y-272795498D02*
X216538148Y-272854368D01*
X216538148Y-272854368D02*
X216443620Y-272865975D01*
X216443620Y-272865975D02*
X216343288Y-272830318D01*
X216343288Y-272830318D02*
X216290221Y-272788857D01*
X216290221Y-272788857D02*
X216231350Y-272700132D01*
X216231350Y-272700132D02*
X216160873Y-272516879D01*
X216160873Y-272516879D02*
X216131857Y-272280558D01*
X216131857Y-272280558D02*
X216155907Y-272085698D01*
X216155907Y-272085698D02*
X216191565Y-271985367D01*
X216191565Y-271985367D02*
X216233026Y-271932300D01*
X216233026Y-271932300D02*
X216321751Y-271873429D01*
X219693070Y-270552724D02*
X219125901Y-270622363D01*
X219409485Y-270587543D02*
X219287616Y-269594997D01*
X219287616Y-269594997D02*
X219210498Y-269748396D01*
X219210498Y-269748396D02*
X219127576Y-269854531D01*
X219127576Y-269854531D02*
X219038851Y-269913402D01*
X87323336Y-201664361D02*
X88229644Y-201241742D01*
X88229644Y-201241742D02*
X88330267Y-201457530D01*
X88330267Y-201457530D02*
X88347484Y-201607127D01*
X88347484Y-201607127D02*
X88301418Y-201733692D01*
X88301418Y-201733692D02*
X88235228Y-201817098D01*
X88235228Y-201817098D02*
X88082722Y-201940755D01*
X88082722Y-201940755D02*
X87953250Y-202001129D01*
X87953250Y-202001129D02*
X87760495Y-202038470D01*
X87760495Y-202038470D02*
X87654055Y-202035562D01*
X87654055Y-202035562D02*
X87527491Y-201989496D01*
X87527491Y-201989496D02*
X87423960Y-201880148D01*
X87423960Y-201880148D02*
X87323336Y-201664361D01*
X88545822Y-202145142D02*
X88609105Y-202168175D01*
X88609105Y-202168175D02*
X88692512Y-202234365D01*
X88692512Y-202234365D02*
X88793135Y-202450153D01*
X88793135Y-202450153D02*
X88790227Y-202556593D01*
X88790227Y-202556593D02*
X88767194Y-202619875D01*
X88767194Y-202619875D02*
X88701004Y-202703282D01*
X88701004Y-202703282D02*
X88614689Y-202743531D01*
X88614689Y-202743531D02*
X88465091Y-202760747D01*
X88465091Y-202760747D02*
X87705705Y-202484353D01*
X87705705Y-202484353D02*
X87967326Y-203045401D01*
X89256003Y-203442776D02*
X89054756Y-203011201D01*
X89054756Y-203011201D02*
X88603056Y-203169290D01*
X88603056Y-203169290D02*
X88666338Y-203192323D01*
X88666338Y-203192323D02*
X88749745Y-203258513D01*
X88749745Y-203258513D02*
X88850368Y-203474301D01*
X88850368Y-203474301D02*
X88847460Y-203580740D01*
X88847460Y-203580740D02*
X88824427Y-203644022D01*
X88824427Y-203644022D02*
X88758237Y-203727429D01*
X88758237Y-203727429D02*
X88542450Y-203828053D01*
X88542450Y-203828053D02*
X88436010Y-203825145D01*
X88436010Y-203825145D02*
X88372728Y-203802112D01*
X88372728Y-203802112D02*
X88289321Y-203735921D01*
X88289321Y-203735921D02*
X88188697Y-203520134D01*
X88188697Y-203520134D02*
X88191605Y-203413694D01*
X88191605Y-203413694D02*
X88214638Y-203350412D01*
X91433115Y-205982026D02*
X91191619Y-205464136D01*
X91312367Y-205723081D02*
X92218674Y-205300463D01*
X92218674Y-205300463D02*
X92048953Y-205274522D01*
X92048953Y-205274522D02*
X91922388Y-205228456D01*
X91922388Y-205228456D02*
X91838981Y-205162265D01*
X201214285Y-159954819D02*
X201214285Y-158954819D01*
X201214285Y-159431009D02*
X201785713Y-159431009D01*
X201785713Y-159954819D02*
X201785713Y-158954819D01*
X202642856Y-159907200D02*
X202547618Y-159954819D01*
X202547618Y-159954819D02*
X202357142Y-159954819D01*
X202357142Y-159954819D02*
X202261904Y-159907200D01*
X202261904Y-159907200D02*
X202214285Y-159811961D01*
X202214285Y-159811961D02*
X202214285Y-159431009D01*
X202214285Y-159431009D02*
X202261904Y-159335771D01*
X202261904Y-159335771D02*
X202357142Y-159288152D01*
X202357142Y-159288152D02*
X202547618Y-159288152D01*
X202547618Y-159288152D02*
X202642856Y-159335771D01*
X202642856Y-159335771D02*
X202690475Y-159431009D01*
X202690475Y-159431009D02*
X202690475Y-159526247D01*
X202690475Y-159526247D02*
X202214285Y-159621485D01*
X203547618Y-159954819D02*
X203547618Y-159431009D01*
X203547618Y-159431009D02*
X203499999Y-159335771D01*
X203499999Y-159335771D02*
X203404761Y-159288152D01*
X203404761Y-159288152D02*
X203214285Y-159288152D01*
X203214285Y-159288152D02*
X203119047Y-159335771D01*
X203547618Y-159907200D02*
X203452380Y-159954819D01*
X203452380Y-159954819D02*
X203214285Y-159954819D01*
X203214285Y-159954819D02*
X203119047Y-159907200D01*
X203119047Y-159907200D02*
X203071428Y-159811961D01*
X203071428Y-159811961D02*
X203071428Y-159716723D01*
X203071428Y-159716723D02*
X203119047Y-159621485D01*
X203119047Y-159621485D02*
X203214285Y-159573866D01*
X203214285Y-159573866D02*
X203452380Y-159573866D01*
X203452380Y-159573866D02*
X203547618Y-159526247D01*
X203880952Y-159288152D02*
X204261904Y-159288152D01*
X204023809Y-158954819D02*
X204023809Y-159811961D01*
X204023809Y-159811961D02*
X204071428Y-159907200D01*
X204071428Y-159907200D02*
X204166666Y-159954819D01*
X204166666Y-159954819D02*
X204261904Y-159954819D01*
X204976190Y-159907200D02*
X204880952Y-159954819D01*
X204880952Y-159954819D02*
X204690476Y-159954819D01*
X204690476Y-159954819D02*
X204595238Y-159907200D01*
X204595238Y-159907200D02*
X204547619Y-159811961D01*
X204547619Y-159811961D02*
X204547619Y-159431009D01*
X204547619Y-159431009D02*
X204595238Y-159335771D01*
X204595238Y-159335771D02*
X204690476Y-159288152D01*
X204690476Y-159288152D02*
X204880952Y-159288152D01*
X204880952Y-159288152D02*
X204976190Y-159335771D01*
X204976190Y-159335771D02*
X205023809Y-159431009D01*
X205023809Y-159431009D02*
X205023809Y-159526247D01*
X205023809Y-159526247D02*
X204547619Y-159621485D01*
X205452381Y-159954819D02*
X205452381Y-159288152D01*
X205452381Y-159478628D02*
X205500000Y-159383390D01*
X205500000Y-159383390D02*
X205547619Y-159335771D01*
X205547619Y-159335771D02*
X205642857Y-159288152D01*
X205642857Y-159288152D02*
X205738095Y-159288152D01*
X206595238Y-159954819D02*
X206023810Y-159954819D01*
X206309524Y-159954819D02*
X206309524Y-158954819D01*
X206309524Y-158954819D02*
X206214286Y-159097676D01*
X206214286Y-159097676D02*
X206119048Y-159192914D01*
X206119048Y-159192914D02*
X206023810Y-159240533D01*
X207023810Y-159573866D02*
X207785715Y-159573866D01*
X207404762Y-159954819D02*
X207404762Y-159192914D01*
X224583901Y-271498560D02*
X224375989Y-270520412D01*
X224375989Y-270520412D02*
X224608882Y-270470909D01*
X224608882Y-270470909D02*
X224758518Y-270487786D01*
X224758518Y-270487786D02*
X224871476Y-270561142D01*
X224871476Y-270561142D02*
X224937855Y-270644398D01*
X224937855Y-270644398D02*
X225024036Y-270820812D01*
X225024036Y-270820812D02*
X225053737Y-270960547D01*
X225053737Y-270960547D02*
X225046761Y-271156761D01*
X225046761Y-271156761D02*
X225019984Y-271259819D01*
X225019984Y-271259819D02*
X224946628Y-271372777D01*
X224946628Y-271372777D02*
X224816793Y-271449057D01*
X224816793Y-271449057D02*
X224583901Y-271498560D01*
X225842647Y-270549445D02*
X225981255Y-271201543D01*
X225530550Y-270226320D02*
X225446166Y-270974500D01*
X225446166Y-270974500D02*
X226051686Y-270845792D01*
X227005981Y-270983731D02*
X226447039Y-271102538D01*
X226726510Y-271043134D02*
X226518598Y-270064987D01*
X226518598Y-270064987D02*
X226455143Y-270224523D01*
X226455143Y-270224523D02*
X226381787Y-270337481D01*
X226381787Y-270337481D02*
X226298531Y-270403861D01*
X229715404Y-268465378D02*
X229156462Y-268584185D01*
X229435933Y-268524782D02*
X229228021Y-267546634D01*
X229228021Y-267546634D02*
X229164566Y-267706170D01*
X229164566Y-267706170D02*
X229091210Y-267819128D01*
X229091210Y-267819128D02*
X229007954Y-267885508D01*
X303258386Y-83057326D02*
X304106434Y-82527407D01*
X304106434Y-82527407D02*
X304232605Y-82729323D01*
X304232605Y-82729323D02*
X304267925Y-82875707D01*
X304267925Y-82875707D02*
X304237627Y-83006942D01*
X304237627Y-83006942D02*
X304182094Y-83097794D01*
X304182094Y-83097794D02*
X304045796Y-83239114D01*
X304045796Y-83239114D02*
X303924646Y-83314817D01*
X303924646Y-83314817D02*
X303737879Y-83375371D01*
X303737879Y-83375371D02*
X303631878Y-83385456D01*
X303631878Y-83385456D02*
X303500643Y-83355158D01*
X303500643Y-83355158D02*
X303384557Y-83259242D01*
X303384557Y-83259242D02*
X303258386Y-83057326D01*
X304863461Y-83738904D02*
X304762524Y-83577371D01*
X304762524Y-83577371D02*
X304671673Y-83521839D01*
X304671673Y-83521839D02*
X304606055Y-83506690D01*
X304606055Y-83506690D02*
X304434437Y-83501626D01*
X304434437Y-83501626D02*
X304247670Y-83562180D01*
X304247670Y-83562180D02*
X303924604Y-83764054D01*
X303924604Y-83764054D02*
X303869071Y-83854906D01*
X303869071Y-83854906D02*
X303853922Y-83920523D01*
X303853922Y-83920523D02*
X303864008Y-84026524D01*
X303864008Y-84026524D02*
X303964945Y-84188057D01*
X303964945Y-84188057D02*
X304055796Y-84243589D01*
X304055796Y-84243589D02*
X304121414Y-84258738D01*
X304121414Y-84258738D02*
X304227415Y-84248653D01*
X304227415Y-84248653D02*
X304429331Y-84122482D01*
X304429331Y-84122482D02*
X304484863Y-84031630D01*
X304484863Y-84031630D02*
X304500012Y-83966012D01*
X304500012Y-83966012D02*
X304489927Y-83860012D01*
X304489927Y-83860012D02*
X304388990Y-83698479D01*
X304388990Y-83698479D02*
X304298138Y-83642946D01*
X304298138Y-83642946D02*
X304232521Y-83627797D01*
X304232521Y-83627797D02*
X304126520Y-83637883D01*
X305085464Y-84723209D02*
X304520098Y-85076488D01*
X305282358Y-84319419D02*
X304550438Y-84496016D01*
X304550438Y-84496016D02*
X304878484Y-85020998D01*
X300242809Y-81816847D02*
X299939998Y-81332248D01*
X300091403Y-81574547D02*
X300939451Y-81044628D01*
X300939451Y-81044628D02*
X300767833Y-81039564D01*
X300767833Y-81039564D02*
X300636598Y-81009266D01*
X300636598Y-81009266D02*
X300545746Y-80953734D01*
X76050890Y-151368019D02*
X77050737Y-151350567D01*
X77050737Y-151350567D02*
X77054893Y-151588626D01*
X77054893Y-151588626D02*
X77009774Y-151732292D01*
X77009774Y-151732292D02*
X76916212Y-151829178D01*
X76916212Y-151829178D02*
X76821820Y-151878452D01*
X76821820Y-151878452D02*
X76632204Y-151929388D01*
X76632204Y-151929388D02*
X76489368Y-151931881D01*
X76489368Y-151931881D02*
X76298090Y-151887594D01*
X76298090Y-151887594D02*
X76202036Y-151841644D01*
X76202036Y-151841644D02*
X76105150Y-151748083D01*
X76105150Y-151748083D02*
X76055045Y-151606078D01*
X76055045Y-151606078D02*
X76050890Y-151368019D01*
X76972135Y-152304465D02*
X77020578Y-152351246D01*
X77020578Y-152351246D02*
X77069852Y-152445638D01*
X77069852Y-152445638D02*
X77074007Y-152683697D01*
X77074007Y-152683697D02*
X77028057Y-152779752D01*
X77028057Y-152779752D02*
X76981277Y-152828195D01*
X76981277Y-152828195D02*
X76886884Y-152877469D01*
X76886884Y-152877469D02*
X76791661Y-152879131D01*
X76791661Y-152879131D02*
X76647994Y-152834012D01*
X76647994Y-152834012D02*
X76066680Y-152272643D01*
X76066680Y-152272643D02*
X76077484Y-152891597D01*
X77088135Y-153493098D02*
X77089797Y-153588321D01*
X77089797Y-153588321D02*
X77043848Y-153684376D01*
X77043848Y-153684376D02*
X76997067Y-153732819D01*
X76997067Y-153732819D02*
X76902674Y-153782093D01*
X76902674Y-153782093D02*
X76713058Y-153833029D01*
X76713058Y-153833029D02*
X76474999Y-153837184D01*
X76474999Y-153837184D02*
X76283721Y-153792897D01*
X76283721Y-153792897D02*
X76187666Y-153746947D01*
X76187666Y-153746947D02*
X76139224Y-153700166D01*
X76139224Y-153700166D02*
X76089950Y-153605774D01*
X76089950Y-153605774D02*
X76088288Y-153510550D01*
X76088288Y-153510550D02*
X76134237Y-153414496D01*
X76134237Y-153414496D02*
X76181018Y-153366053D01*
X76181018Y-153366053D02*
X76275410Y-153316779D01*
X76275410Y-153316779D02*
X76465027Y-153265843D01*
X76465027Y-153265843D02*
X76703086Y-153261687D01*
X76703086Y-153261687D02*
X76894364Y-153305975D01*
X76894364Y-153305975D02*
X76990418Y-153351925D01*
X76990418Y-153351925D02*
X77038861Y-153398705D01*
X77038861Y-153398705D02*
X77088135Y-153493098D01*
X78049206Y-156983999D02*
X78039233Y-156412658D01*
X78044220Y-156698329D02*
X79044067Y-156680876D01*
X79044067Y-156680876D02*
X78899570Y-156588146D01*
X78899570Y-156588146D02*
X78802684Y-156494584D01*
X78802684Y-156494584D02*
X78753410Y-156400192D01*
X82601825Y-113131842D02*
X81650769Y-112822825D01*
X81650769Y-112822825D02*
X81724344Y-112596383D01*
X81724344Y-112596383D02*
X81813778Y-112475233D01*
X81813778Y-112475233D02*
X81933785Y-112414086D01*
X81933785Y-112414086D02*
X82039077Y-112398228D01*
X82039077Y-112398228D02*
X82234945Y-112411800D01*
X82234945Y-112411800D02*
X82370811Y-112455945D01*
X82370811Y-112455945D02*
X82537249Y-112560094D01*
X82537249Y-112560094D02*
X82613111Y-112634812D01*
X82613111Y-112634812D02*
X82674258Y-112754819D01*
X82674258Y-112754819D02*
X82675401Y-112905400D01*
X82675401Y-112905400D02*
X82601825Y-113131842D01*
X83072708Y-111682613D02*
X82896127Y-112226074D01*
X82984418Y-111954343D02*
X82033361Y-111645326D01*
X82033361Y-111645326D02*
X82139796Y-111780048D01*
X82139796Y-111780048D02*
X82200943Y-111900055D01*
X82200943Y-111900055D02*
X82216801Y-112005347D01*
X82386523Y-110558404D02*
X82327663Y-110739558D01*
X82327663Y-110739558D02*
X82343521Y-110844850D01*
X82343521Y-110844850D02*
X82374095Y-110904853D01*
X82374095Y-110904853D02*
X82480530Y-111039576D01*
X82480530Y-111039576D02*
X82646968Y-111143724D01*
X82646968Y-111143724D02*
X83009275Y-111261445D01*
X83009275Y-111261445D02*
X83114567Y-111245587D01*
X83114567Y-111245587D02*
X83174571Y-111215014D01*
X83174571Y-111215014D02*
X83249289Y-111139152D01*
X83249289Y-111139152D02*
X83308150Y-110957998D01*
X83308150Y-110957998D02*
X83292292Y-110852706D01*
X83292292Y-110852706D02*
X83261718Y-110792703D01*
X83261718Y-110792703D02*
X83185857Y-110717984D01*
X83185857Y-110717984D02*
X82959414Y-110644409D01*
X82959414Y-110644409D02*
X82854123Y-110660267D01*
X82854123Y-110660267D02*
X82794119Y-110690840D01*
X82794119Y-110690840D02*
X82719400Y-110766702D01*
X82719400Y-110766702D02*
X82660540Y-110947856D01*
X82660540Y-110947856D02*
X82676398Y-111053147D01*
X82676398Y-111053147D02*
X82706972Y-111113151D01*
X82706972Y-111113151D02*
X82782833Y-111187870D01*
X83589938Y-116239272D02*
X83413357Y-116782733D01*
X83501647Y-116511003D02*
X82550591Y-116201986D01*
X82550591Y-116201986D02*
X82657026Y-116336708D01*
X82657026Y-116336708D02*
X82718172Y-116456715D01*
X82718172Y-116456715D02*
X82734031Y-116562007D01*
X319046412Y-184527741D02*
X318085150Y-184252104D01*
X318085150Y-184252104D02*
X318150778Y-184023232D01*
X318150778Y-184023232D02*
X318235929Y-183899034D01*
X318235929Y-183899034D02*
X318353729Y-183833737D01*
X318353729Y-183833737D02*
X318458404Y-183814214D01*
X318458404Y-183814214D02*
X318654627Y-183820942D01*
X318654627Y-183820942D02*
X318791950Y-183860318D01*
X318791950Y-183860318D02*
X318961922Y-183958595D01*
X318961922Y-183958595D02*
X319040345Y-184030621D01*
X319040345Y-184030621D02*
X319105642Y-184148420D01*
X319105642Y-184148420D02*
X319112040Y-184298869D01*
X319112040Y-184298869D02*
X319046412Y-184527741D01*
X318492044Y-182833098D02*
X318360788Y-183290842D01*
X318360788Y-183290842D02*
X318805406Y-183467872D01*
X318805406Y-183467872D02*
X318772757Y-183408972D01*
X318772757Y-183408972D02*
X318753234Y-183304298D01*
X318753234Y-183304298D02*
X318818862Y-183075426D01*
X318818862Y-183075426D02*
X318890887Y-182997003D01*
X318890887Y-182997003D02*
X318949787Y-182964354D01*
X318949787Y-182964354D02*
X319054462Y-182944831D01*
X319054462Y-182944831D02*
X319283333Y-183010459D01*
X319283333Y-183010459D02*
X319361757Y-183082484D01*
X319361757Y-183082484D02*
X319394405Y-183141384D01*
X319394405Y-183141384D02*
X319413929Y-183246059D01*
X319413929Y-183246059D02*
X319348301Y-183474931D01*
X319348301Y-183474931D02*
X319276275Y-183553354D01*
X319276275Y-183553354D02*
X319217375Y-183586003D01*
X319061850Y-182055264D02*
X319702692Y-182239023D01*
X318630028Y-182179132D02*
X319251015Y-182604887D01*
X319251015Y-182604887D02*
X319421648Y-182009820D01*
X318777366Y-178572901D02*
X318619859Y-179122193D01*
X318698613Y-178847547D02*
X317737351Y-178571910D01*
X317737351Y-178571910D02*
X317848423Y-178702835D01*
X317848423Y-178702835D02*
X317913721Y-178820635D01*
X317913721Y-178820635D02*
X317933244Y-178925310D01*
X168704333Y-30993834D02*
X168462411Y-30023538D01*
X168462411Y-30023538D02*
X168693434Y-29965938D01*
X168693434Y-29965938D02*
X168843568Y-29977582D01*
X168843568Y-29977582D02*
X168959017Y-30046951D01*
X168959017Y-30046951D02*
X169028262Y-30127840D01*
X169028262Y-30127840D02*
X169120547Y-30301138D01*
X169120547Y-30301138D02*
X169155107Y-30439752D01*
X169155107Y-30439752D02*
X169154983Y-30636090D01*
X169154983Y-30636090D02*
X169131818Y-30740019D01*
X169131818Y-30740019D02*
X169062449Y-30855468D01*
X169062449Y-30855468D02*
X168935356Y-30936233D01*
X168935356Y-30936233D02*
X168704333Y-30993834D01*
X169929188Y-30001367D02*
X170090470Y-30648231D01*
X169606005Y-29689331D02*
X169547784Y-30440000D01*
X169547784Y-30440000D02*
X170148443Y-30290239D01*
X166130654Y-33593690D02*
X165576199Y-33731931D01*
X165853427Y-33662810D02*
X165611505Y-32692515D01*
X165611505Y-32692515D02*
X165553656Y-32854168D01*
X165553656Y-32854168D02*
X165484287Y-32969618D01*
X165484287Y-32969618D02*
X165403398Y-33038863D01*
X319523478Y-120729718D02*
X320497848Y-120504767D01*
X320497848Y-120504767D02*
X320551407Y-120736760D01*
X320551407Y-120736760D02*
X320537145Y-120886667D01*
X320537145Y-120886667D02*
X320465771Y-121000888D01*
X320465771Y-121000888D02*
X320383686Y-121068711D01*
X320383686Y-121068711D02*
X320208804Y-121157957D01*
X320208804Y-121157957D02*
X320069608Y-121190093D01*
X320069608Y-121190093D02*
X319873302Y-121186542D01*
X319873302Y-121186542D02*
X319769793Y-121161568D01*
X319769793Y-121161568D02*
X319655572Y-121090194D01*
X319655572Y-121090194D02*
X319577037Y-120961711D01*
X319577037Y-120961711D02*
X319523478Y-120729718D01*
X320819206Y-121896724D02*
X320776358Y-121711130D01*
X320776358Y-121711130D02*
X320708536Y-121629045D01*
X320708536Y-121629045D02*
X320651425Y-121593358D01*
X320651425Y-121593358D02*
X320490806Y-121532697D01*
X320490806Y-121532697D02*
X320294500Y-121529146D01*
X320294500Y-121529146D02*
X319923311Y-121614841D01*
X319923311Y-121614841D02*
X319841226Y-121682664D01*
X319841226Y-121682664D02*
X319805539Y-121739775D01*
X319805539Y-121739775D02*
X319780564Y-121843284D01*
X319780564Y-121843284D02*
X319823412Y-122028878D01*
X319823412Y-122028878D02*
X319891235Y-122110963D01*
X319891235Y-122110963D02*
X319948345Y-122146650D01*
X319948345Y-122146650D02*
X320051854Y-122171624D01*
X320051854Y-122171624D02*
X320283847Y-122118065D01*
X320283847Y-122118065D02*
X320365932Y-122050242D01*
X320365932Y-122050242D02*
X320401619Y-121993132D01*
X320401619Y-121993132D02*
X320426594Y-121889622D01*
X320426594Y-121889622D02*
X320383746Y-121704028D01*
X320383746Y-121704028D02*
X320315923Y-121621943D01*
X320315923Y-121621943D02*
X320258813Y-121586256D01*
X320258813Y-121586256D02*
X320155304Y-121561282D01*
X320979886Y-122592703D02*
X321001310Y-122685500D01*
X321001310Y-122685500D02*
X320976335Y-122789009D01*
X320976335Y-122789009D02*
X320940648Y-122846119D01*
X320940648Y-122846119D02*
X320858563Y-122913942D01*
X320858563Y-122913942D02*
X320683681Y-123003188D01*
X320683681Y-123003188D02*
X320451688Y-123056748D01*
X320451688Y-123056748D02*
X320255382Y-123053197D01*
X320255382Y-123053197D02*
X320151872Y-123028223D01*
X320151872Y-123028223D02*
X320094762Y-122992536D01*
X320094762Y-122992536D02*
X320026939Y-122910451D01*
X320026939Y-122910451D02*
X320005516Y-122817654D01*
X320005516Y-122817654D02*
X320030490Y-122714145D01*
X320030490Y-122714145D02*
X320066177Y-122657034D01*
X320066177Y-122657034D02*
X320148262Y-122589212D01*
X320148262Y-122589212D02*
X320323144Y-122499965D01*
X320323144Y-122499965D02*
X320555137Y-122446405D01*
X320555137Y-122446405D02*
X320751444Y-122449956D01*
X320751444Y-122449956D02*
X320854953Y-122474931D01*
X320854953Y-122474931D02*
X320912063Y-122510617D01*
X320912063Y-122510617D02*
X320979886Y-122592703D01*
X317076054Y-118575045D02*
X316947511Y-118018263D01*
X317011783Y-118296654D02*
X317986153Y-118071703D01*
X317986153Y-118071703D02*
X317825533Y-118011042D01*
X317825533Y-118011042D02*
X317711312Y-117939668D01*
X317711312Y-117939668D02*
X317643489Y-117857583D01*
X229401279Y-30521510D02*
X229643200Y-29551214D01*
X229643200Y-29551214D02*
X229874223Y-29608815D01*
X229874223Y-29608815D02*
X230001317Y-29689580D01*
X230001317Y-29689580D02*
X230070686Y-29805029D01*
X230070686Y-29805029D02*
X230093850Y-29908958D01*
X230093850Y-29908958D02*
X230093974Y-30105297D01*
X230093974Y-30105297D02*
X230059414Y-30243910D01*
X230059414Y-30243910D02*
X229967129Y-30417208D01*
X229967129Y-30417208D02*
X229897884Y-30498097D01*
X229897884Y-30498097D02*
X229782435Y-30567466D01*
X229782435Y-30567466D02*
X229632301Y-30579111D01*
X229632301Y-30579111D02*
X229401279Y-30521510D01*
X230521087Y-29770096D02*
X231167951Y-29931377D01*
X231167951Y-29931377D02*
X230510188Y-30797992D01*
X231445178Y-30000498D02*
X232045838Y-30150259D01*
X232045838Y-30150259D02*
X231630245Y-30439255D01*
X231630245Y-30439255D02*
X231768859Y-30473815D01*
X231768859Y-30473815D02*
X231849748Y-30543060D01*
X231849748Y-30543060D02*
X231884432Y-30600785D01*
X231884432Y-30600785D02*
X231907596Y-30704714D01*
X231907596Y-30704714D02*
X231849996Y-30935737D01*
X231849996Y-30935737D02*
X231780751Y-31016626D01*
X231780751Y-31016626D02*
X231723027Y-31051310D01*
X231723027Y-31051310D02*
X231619097Y-31074475D01*
X231619097Y-31074475D02*
X231341870Y-31005354D01*
X231341870Y-31005354D02*
X231260981Y-30936109D01*
X231260981Y-30936109D02*
X231226297Y-30878385D01*
X226370344Y-31723979D02*
X225815889Y-31585738D01*
X226093116Y-31654859D02*
X226335038Y-30684563D01*
X226335038Y-30684563D02*
X226208069Y-30800136D01*
X226208069Y-30800136D02*
X226092619Y-30869505D01*
X226092619Y-30869505D02*
X225988690Y-30892670D01*
X260304819Y-151285713D02*
X260304819Y-150714285D01*
X261304819Y-150999999D02*
X260304819Y-150999999D01*
X261304819Y-150380951D02*
X260304819Y-150380951D01*
X260781009Y-150380951D02*
X260781009Y-149809523D01*
X261304819Y-149809523D02*
X260304819Y-149809523D01*
X261304819Y-148809523D02*
X261304819Y-149380951D01*
X261304819Y-149095237D02*
X260304819Y-149095237D01*
X260304819Y-149095237D02*
X260447676Y-149190475D01*
X260447676Y-149190475D02*
X260542914Y-149285713D01*
X260542914Y-149285713D02*
X260590533Y-149380951D01*
X301081012Y-221748676D02*
X300261860Y-221175099D01*
X300261860Y-221175099D02*
X300398426Y-220980063D01*
X300398426Y-220980063D02*
X300519372Y-220890354D01*
X300519372Y-220890354D02*
X300652013Y-220866966D01*
X300652013Y-220866966D02*
X300757341Y-220882585D01*
X300757341Y-220882585D02*
X300940683Y-220952831D01*
X300940683Y-220952831D02*
X301057705Y-221034770D01*
X301057705Y-221034770D02*
X301186420Y-221183030D01*
X301186420Y-221183030D02*
X301237122Y-221276664D01*
X301237122Y-221276664D02*
X301260510Y-221409305D01*
X301260510Y-221409305D02*
X301217578Y-221553639D01*
X301217578Y-221553639D02*
X301081012Y-221748676D01*
X301108568Y-219965875D02*
X300835436Y-220355947D01*
X300835436Y-220355947D02*
X301198195Y-220668086D01*
X301198195Y-220668086D02*
X301186501Y-220601766D01*
X301186501Y-220601766D02*
X301202120Y-220496438D01*
X301202120Y-220496438D02*
X301338686Y-220301402D01*
X301338686Y-220301402D02*
X301432320Y-220250700D01*
X301432320Y-220250700D02*
X301498640Y-220239006D01*
X301498640Y-220239006D02*
X301603968Y-220254625D01*
X301603968Y-220254625D02*
X301799004Y-220391191D01*
X301799004Y-220391191D02*
X301849705Y-220484825D01*
X301849705Y-220484825D02*
X301861399Y-220551145D01*
X301861399Y-220551145D02*
X301845780Y-220656473D01*
X301845780Y-220656473D02*
X301709215Y-220851509D01*
X301709215Y-220851509D02*
X301615581Y-220902210D01*
X301615581Y-220902210D02*
X301549261Y-220913905D01*
X301490952Y-219419773D02*
X301545578Y-219341759D01*
X301545578Y-219341759D02*
X301639212Y-219291058D01*
X301639212Y-219291058D02*
X301705532Y-219279363D01*
X301705532Y-219279363D02*
X301810860Y-219294983D01*
X301810860Y-219294983D02*
X301994202Y-219365228D01*
X301994202Y-219365228D02*
X302189238Y-219501794D01*
X302189238Y-219501794D02*
X302317954Y-219650054D01*
X302317954Y-219650054D02*
X302368655Y-219743687D01*
X302368655Y-219743687D02*
X302380350Y-219810008D01*
X302380350Y-219810008D02*
X302364730Y-219915335D01*
X302364730Y-219915335D02*
X302310104Y-219993350D01*
X302310104Y-219993350D02*
X302216471Y-220044051D01*
X302216471Y-220044051D02*
X302150150Y-220055745D01*
X302150150Y-220055745D02*
X302044823Y-220040126D01*
X302044823Y-220040126D02*
X301861480Y-219969881D01*
X301861480Y-219969881D02*
X301666444Y-219833315D01*
X301666444Y-219833315D02*
X301537728Y-219685055D01*
X301537728Y-219685055D02*
X301487027Y-219591421D01*
X301487027Y-219591421D02*
X301475333Y-219525101D01*
X301475333Y-219525101D02*
X301490952Y-219419773D01*
X302765330Y-216030670D02*
X302437572Y-216498757D01*
X302601451Y-216264714D02*
X301782299Y-215691137D01*
X301782299Y-215691137D02*
X301844694Y-215851091D01*
X301844694Y-215851091D02*
X301868082Y-215983732D01*
X301868082Y-215983732D02*
X301852463Y-216089060D01*
X323906724Y-153796221D02*
X322906876Y-153778769D01*
X322906876Y-153778769D02*
X322911032Y-153540710D01*
X322911032Y-153540710D02*
X322961137Y-153398705D01*
X322961137Y-153398705D02*
X323058022Y-153305144D01*
X323058022Y-153305144D02*
X323154077Y-153259194D01*
X323154077Y-153259194D02*
X323345355Y-153214907D01*
X323345355Y-153214907D02*
X323488191Y-153217400D01*
X323488191Y-153217400D02*
X323677807Y-153268336D01*
X323677807Y-153268336D02*
X323772199Y-153317610D01*
X323772199Y-153317610D02*
X323865761Y-153414496D01*
X323865761Y-153414496D02*
X323910879Y-153558162D01*
X323910879Y-153558162D02*
X323906724Y-153796221D01*
X322932639Y-152302803D02*
X322924329Y-152778921D01*
X322924329Y-152778921D02*
X323399616Y-152834843D01*
X323399616Y-152834843D02*
X323352835Y-152786401D01*
X323352835Y-152786401D02*
X323306885Y-152690346D01*
X323306885Y-152690346D02*
X323311041Y-152452287D01*
X323311041Y-152452287D02*
X323360315Y-152357894D01*
X323360315Y-152357894D02*
X323408757Y-152311114D01*
X323408757Y-152311114D02*
X323504812Y-152265164D01*
X323504812Y-152265164D02*
X323742871Y-152269319D01*
X323742871Y-152269319D02*
X323837264Y-152318593D01*
X323837264Y-152318593D02*
X323884044Y-152367036D01*
X323884044Y-152367036D02*
X323929994Y-152463091D01*
X323929994Y-152463091D02*
X323925839Y-152701150D01*
X323925839Y-152701150D02*
X323876565Y-152795542D01*
X323876565Y-152795542D02*
X323828122Y-152842323D01*
X322939288Y-151921909D02*
X322950923Y-151255343D01*
X322950923Y-151255343D02*
X323943291Y-151701302D01*
X322105620Y-148113922D02*
X322095647Y-148685263D01*
X322100633Y-148399593D02*
X321100786Y-148382140D01*
X321100786Y-148382140D02*
X321241959Y-148479857D01*
X321241959Y-148479857D02*
X321335520Y-148576743D01*
X321335520Y-148576743D02*
X321381470Y-148672797D01*
X308463061Y-91902722D02*
X309346009Y-91433251D01*
X309346009Y-91433251D02*
X309457788Y-91643476D01*
X309457788Y-91643476D02*
X309482810Y-91791968D01*
X309482810Y-91791968D02*
X309443432Y-91920769D01*
X309443432Y-91920769D02*
X309381697Y-92007526D01*
X309381697Y-92007526D02*
X309235872Y-92138994D01*
X309235872Y-92138994D02*
X309109737Y-92206062D01*
X309109737Y-92206062D02*
X308919201Y-92253440D01*
X308919201Y-92253440D02*
X308812755Y-92256106D01*
X308812755Y-92256106D02*
X308683953Y-92216728D01*
X308683953Y-92216728D02*
X308574840Y-92112948D01*
X308574840Y-92112948D02*
X308463061Y-91902722D01*
X310016683Y-92694605D02*
X309927260Y-92526424D01*
X309927260Y-92526424D02*
X309840503Y-92464690D01*
X309840503Y-92464690D02*
X309776102Y-92445000D01*
X309776102Y-92445000D02*
X309605255Y-92427977D01*
X309605255Y-92427977D02*
X309414719Y-92475355D01*
X309414719Y-92475355D02*
X309078358Y-92654202D01*
X309078358Y-92654202D02*
X309016623Y-92740958D01*
X309016623Y-92740958D02*
X308996934Y-92805359D01*
X308996934Y-92805359D02*
X308999600Y-92911805D01*
X308999600Y-92911805D02*
X309089024Y-93079986D01*
X309089024Y-93079986D02*
X309175780Y-93141720D01*
X309175780Y-93141720D02*
X309240181Y-93161410D01*
X309240181Y-93161410D02*
X309346627Y-93158743D01*
X309346627Y-93158743D02*
X309556853Y-93046964D01*
X309556853Y-93046964D02*
X309618587Y-92960208D01*
X309618587Y-92960208D02*
X309638277Y-92895807D01*
X309638277Y-92895807D02*
X309635610Y-92789361D01*
X309635610Y-92789361D02*
X309546187Y-92621180D01*
X309546187Y-92621180D02*
X309459430Y-92559446D01*
X309459430Y-92559446D02*
X309395029Y-92539756D01*
X309395029Y-92539756D02*
X309288583Y-92542423D01*
X310217885Y-93073011D02*
X310508510Y-93619597D01*
X310508510Y-93619597D02*
X310015659Y-93504128D01*
X310015659Y-93504128D02*
X310082726Y-93630263D01*
X310082726Y-93630263D02*
X310085392Y-93736709D01*
X310085392Y-93736709D02*
X310065703Y-93801110D01*
X310065703Y-93801110D02*
X310003969Y-93887867D01*
X310003969Y-93887867D02*
X309793743Y-93999646D01*
X309793743Y-93999646D02*
X309687297Y-94002312D01*
X309687297Y-94002312D02*
X309622896Y-93982623D01*
X309622896Y-93982623D02*
X309536139Y-93920888D01*
X309536139Y-93920888D02*
X309402005Y-93668618D01*
X309402005Y-93668618D02*
X309399338Y-93562172D01*
X309399338Y-93562172D02*
X309419028Y-93497771D01*
X305541362Y-90454908D02*
X305273093Y-89950367D01*
X305407227Y-90202638D02*
X306290175Y-89733166D01*
X306290175Y-89733166D02*
X306119328Y-89716143D01*
X306119328Y-89716143D02*
X305990526Y-89676764D01*
X305990526Y-89676764D02*
X305903769Y-89615030D01*
D11*
%TO.C,TP10*%
X194300000Y-153800000D02*
X198700000Y-153800000D01*
X194300000Y-158200000D02*
X194300000Y-153800000D01*
X198700000Y-153800000D02*
X198700000Y-158200000D01*
X198700000Y-158200000D02*
X194300000Y-158200000D01*
%TO.C,D5*%
X156189544Y-35262947D02*
X163091830Y-32886299D01*
X157980170Y-40463301D02*
X164882456Y-38086653D01*
X164882456Y-38086653D02*
X164508052Y-36999305D01*
%TO.C,D66*%
X284691425Y-68831931D02*
X289576078Y-74256888D01*
X288778722Y-65151712D02*
X293663375Y-70576669D01*
X289576078Y-74256888D02*
X290430695Y-73487388D01*
%TO.C,D61*%
X310383484Y-110296440D02*
X312639307Y-117239153D01*
X312639307Y-117239153D02*
X313733023Y-116883783D01*
X315614293Y-108596847D02*
X317870116Y-115539560D01*
%TO.C,D9*%
X120892991Y-56036934D02*
X126645469Y-51542604D01*
X124279131Y-60370996D02*
X130031609Y-55876666D01*
X130031609Y-55876666D02*
X129323598Y-54970453D01*
%TO.C,D30*%
X120638973Y-236369332D02*
X119884502Y-237237250D01*
X122540027Y-245309468D02*
X117030648Y-240520237D01*
X126148352Y-241158563D02*
X120638973Y-236369332D01*
%TO.C,D8*%
X129029232Y-49810701D02*
X135081207Y-45728593D01*
X132104793Y-54370407D02*
X138156768Y-50288299D01*
X138156768Y-50288299D02*
X137513696Y-49334906D01*
%TO.C,D29*%
X113705981Y-229423699D02*
X112878741Y-230222556D01*
X114820619Y-238495501D02*
X109749614Y-233244320D01*
X118776986Y-234674880D02*
X113705981Y-229423699D01*
%TO.C,D7*%
X137664012Y-44207551D02*
X144048736Y-40668442D01*
X140330464Y-49017958D02*
X146715188Y-45478849D01*
X146715188Y-45478849D02*
X146157658Y-44473037D01*
%TO.C,D67*%
X277600764Y-62045728D02*
X282939646Y-67024316D01*
X281351754Y-58023284D02*
X286690636Y-63001872D01*
X282939646Y-67024316D02*
X283723944Y-66183260D01*
%TO.C,D22*%
X80122478Y-176593465D02*
X78729572Y-169427585D01*
X84128522Y-168378135D02*
X82999651Y-168597567D01*
X85521428Y-175544015D02*
X84128522Y-168378135D01*
%TO.C,D2*%
X186082911Y-27999484D02*
X193355132Y-27363246D01*
X186562268Y-33478554D02*
X193834489Y-32842316D01*
X193834489Y-32842316D02*
X193734259Y-31696694D01*
%TO.C,U2*%
X196050000Y-127930000D02*
X196320000Y-127930000D01*
X196050000Y-134350000D02*
X196050000Y-127930000D01*
X202950000Y-127930000D02*
X202680000Y-127930000D01*
X202950000Y-134350000D02*
X202950000Y-127930000D01*
X202970000Y-126750000D02*
X202640000Y-126510000D01*
X202970000Y-126270000D01*
X202970000Y-126750000D01*
G36*
X202970000Y-126750000D02*
G01*
X202640000Y-126510000D01*
X202970000Y-126270000D01*
X202970000Y-126750000D01*
G37*
%TO.C,D33*%
X144568723Y-253413661D02*
X144064596Y-254447275D01*
X148718877Y-261557139D02*
X142157681Y-258357030D01*
X151129919Y-256613770D02*
X144568723Y-253413661D01*
%TO.C,D38*%
X191423097Y-267018992D02*
X191382963Y-268168292D01*
X198526703Y-272770408D02*
X191231150Y-272515642D01*
X198718650Y-267273758D02*
X191423097Y-267018992D01*
%TO.C,D18*%
X78056082Y-135701752D02*
X79072045Y-128472795D01*
X83502555Y-136467205D02*
X84518518Y-129238248D01*
X84518518Y-129238248D02*
X83379710Y-129078199D01*
%TO.C,D24*%
X86190419Y-196199033D02*
X83693672Y-189339277D01*
X88861981Y-187458167D02*
X87781334Y-187851489D01*
X91358728Y-194317923D02*
X88861981Y-187458167D01*
%TO.C,D27*%
X101302986Y-223052840D02*
X97115879Y-217073030D01*
X101621214Y-213918360D02*
X100679189Y-214577973D01*
X105808321Y-219898170D02*
X101621214Y-213918360D01*
%TO.C,D69*%
X261843232Y-50288299D02*
X267895207Y-54370407D01*
X264918793Y-45728593D02*
X270970768Y-49810701D01*
X267895207Y-54370407D02*
X268538278Y-53417014D01*
%TO.C,TH2*%
X136765000Y-149772936D02*
X136765000Y-150227064D01*
X138235000Y-149772936D02*
X138235000Y-150227064D01*
%TO.C,TP7*%
X188800000Y-150800000D02*
X191200000Y-150800000D01*
X188800000Y-153200000D02*
X188800000Y-150800000D01*
X191200000Y-150800000D02*
X191200000Y-153200000D01*
X191200000Y-153200000D02*
X188800000Y-153200000D01*
%TO.C,D58*%
X316765288Y-139015822D02*
X317274510Y-146298040D01*
X317274510Y-146298040D02*
X318421709Y-146217820D01*
X322251890Y-138632160D02*
X322761112Y-145914378D01*
%TO.C,D45*%
X257618184Y-252166379D02*
X258210478Y-253152121D01*
X263875507Y-248406600D02*
X257618184Y-252166379D01*
X266708216Y-253121021D02*
X260450893Y-256880800D01*
%TO.C,D53*%
X308641272Y-194317923D02*
X309721918Y-194711247D01*
X311138019Y-187458167D02*
X308641272Y-194317923D01*
X316306328Y-189339277D02*
X313809581Y-196199033D01*
%TO.C,D71*%
X244355433Y-41402162D02*
X251024316Y-44371339D01*
X246592484Y-36377661D02*
X253261367Y-39346838D01*
X251024316Y-44371339D02*
X251492063Y-43320762D01*
%TO.C,D14*%
X89513923Y-96336212D02*
X92941064Y-89890694D01*
X94370136Y-98918306D02*
X97797277Y-92472788D01*
X97797277Y-92472788D02*
X96781887Y-91932897D01*
%TO.C,D47*%
X273851647Y-241158563D02*
X274606117Y-242026482D01*
X279361027Y-236369332D02*
X273851647Y-241158563D01*
X282969353Y-240520237D02*
X277459973Y-245309468D01*
%TO.C,D72*%
X235117544Y-38086653D02*
X242019830Y-40463301D01*
X236908170Y-32886299D02*
X243810456Y-35262947D01*
X242019830Y-40463301D02*
X242394233Y-39375953D01*
%TO.C,D6*%
X146738633Y-39346838D02*
X153407516Y-36377661D01*
X148975684Y-44371339D02*
X155644567Y-41402162D01*
X155644567Y-41402162D02*
X155176819Y-40351584D01*
%TO.C,D23*%
X82783107Y-186537008D02*
X80770953Y-179519797D01*
X86057893Y-178003792D02*
X84952442Y-178320774D01*
X88070047Y-185021003D02*
X86057893Y-178003792D01*
%TO.C,D31*%
X128129298Y-242711786D02*
X127453344Y-243642157D01*
X130802302Y-251452214D02*
X124896479Y-247161381D01*
X134035121Y-247002619D02*
X128129298Y-242711786D01*
%TO.C,D75*%
X206165511Y-32842316D02*
X213437732Y-33478554D01*
X206644868Y-27363246D02*
X213917089Y-27999484D01*
X213437732Y-33478554D02*
X213537961Y-32332930D01*
%TO.C,TP6*%
X188800000Y-146300000D02*
X191200000Y-146300000D01*
X188800000Y-148700000D02*
X188800000Y-146300000D01*
X191200000Y-146300000D02*
X191200000Y-148700000D01*
X191200000Y-148700000D02*
X188800000Y-148700000D01*
%TO.C,D11*%
X106336625Y-70576669D02*
X111221278Y-65151712D01*
X110423922Y-74256888D02*
X115308575Y-68831931D01*
X115308575Y-68831931D02*
X114453959Y-68062430D01*
%TO.C,TP4*%
X208800000Y-150800000D02*
X211200000Y-150800000D01*
X208800000Y-153200000D02*
X208800000Y-150800000D01*
X211200000Y-150800000D02*
X211200000Y-153200000D01*
X211200000Y-153200000D02*
X208800000Y-153200000D01*
%TO.C,TP9*%
X201800000Y-147300000D02*
X206200000Y-147300000D01*
X201800000Y-151700000D02*
X201800000Y-147300000D01*
X206200000Y-147300000D02*
X206200000Y-151700000D01*
X206200000Y-151700000D02*
X201800000Y-151700000D01*
%TO.C,D26*%
X95520430Y-214535993D02*
X91870430Y-208214007D01*
X96633570Y-205464007D02*
X95637641Y-206039007D01*
X100283570Y-211785993D02*
X96633570Y-205464007D01*
%TO.C,TP2*%
X200300000Y-138800000D02*
X204700000Y-138800000D01*
X200300000Y-143200000D02*
X200300000Y-138800000D01*
X204700000Y-138800000D02*
X204700000Y-143200000D01*
X204700000Y-143200000D02*
X200300000Y-143200000D01*
%TO.C,D52*%
X304544297Y-203239324D02*
X305586551Y-203725334D01*
X307629412Y-196623276D02*
X304544297Y-203239324D01*
X312614103Y-198947676D02*
X309528988Y-205563724D01*
%TO.C,D56*%
X316226136Y-165885952D02*
X317369836Y-166006159D01*
X316989194Y-158625941D02*
X316226136Y-165885952D01*
X322459064Y-159200848D02*
X321696006Y-166460859D01*
%TO.C,D1*%
X196350000Y-27250000D02*
X203650000Y-27250000D01*
X196350000Y-32750000D02*
X203650000Y-32750000D01*
X203650000Y-32750000D02*
X203650000Y-31600000D01*
%TO.C,D3*%
X175915720Y-29606095D02*
X183104816Y-28338463D01*
X176870784Y-35022537D02*
X184059880Y-33754905D01*
X184059880Y-33754905D02*
X183860189Y-32622377D01*
%TO.C,D49*%
X288008803Y-227519296D02*
X288889755Y-228258501D01*
X292701153Y-221927172D02*
X288008803Y-227519296D01*
X296914397Y-225462504D02*
X292222047Y-231054628D01*
%TO.C,D19*%
X77238888Y-145914378D02*
X77748110Y-138632160D01*
X82725490Y-146298040D02*
X83234712Y-139015822D01*
X83234712Y-139015822D02*
X82087514Y-138935601D01*
%TO.C,D55*%
X314478572Y-175544015D02*
X315607443Y-175763445D01*
X315871478Y-168378135D02*
X314478572Y-175544015D01*
X321270428Y-169427585D02*
X319877522Y-176593465D01*
%TO.C,D70*%
X253284812Y-45478849D02*
X259669536Y-49017958D01*
X255951264Y-40668442D02*
X262335988Y-44207551D01*
X259669536Y-49017958D02*
X260227066Y-48012148D01*
%TO.C,D44*%
X248870081Y-256613770D02*
X249374208Y-257647385D01*
X255431277Y-253413661D02*
X248870081Y-256613770D01*
X257842319Y-258357030D02*
X251281123Y-261557139D01*
%TO.C,D42*%
X230389265Y-263315618D02*
X230725494Y-264415369D01*
X237370290Y-261181305D02*
X230389265Y-263315618D01*
X238978335Y-266440982D02*
X231997310Y-268575295D01*
%TO.C,D21*%
X78303994Y-166460859D02*
X77540936Y-159200848D01*
X83010806Y-158625941D02*
X81867106Y-158746150D01*
X83773864Y-165885952D02*
X83010806Y-158625941D01*
%TO.C,TP3*%
X191050000Y-142050000D02*
X193950000Y-142050000D01*
X191050000Y-144950000D02*
X191050000Y-142050000D01*
X193950000Y-142050000D02*
X193950000Y-144950000D01*
X193950000Y-144950000D02*
X191050000Y-144950000D01*
%TO.C,D28*%
X107298847Y-221927172D02*
X106417897Y-222666378D01*
X107777953Y-231054628D02*
X103085602Y-225462504D01*
X111991198Y-227519296D02*
X107298847Y-221927172D01*
%TO.C,D46*%
X265964878Y-247002620D02*
X266640832Y-247932989D01*
X271870702Y-242711786D02*
X265964878Y-247002620D01*
X275103522Y-247161380D02*
X269197698Y-251452214D01*
%TO.C,D12*%
X100023528Y-78708129D02*
X104416777Y-72878090D01*
X104416023Y-82018110D02*
X108809272Y-76188071D01*
X108809272Y-76188071D02*
X107890842Y-75495984D01*
%TO.C,D10*%
X113309364Y-63001872D02*
X118648246Y-58023284D01*
X117060354Y-67024316D02*
X122399236Y-62045728D01*
X122399236Y-62045728D02*
X121614938Y-61204672D01*
%TO.C,D59*%
X315481481Y-129238248D02*
X316497444Y-136467205D01*
X316497444Y-136467205D02*
X317636253Y-136307155D01*
X320927956Y-128472795D02*
X321943919Y-135701752D01*
%TO.C,TP11*%
X194300000Y-147300000D02*
X198700000Y-147300000D01*
X194300000Y-151700000D02*
X194300000Y-147300000D01*
X198700000Y-147300000D02*
X198700000Y-151700000D01*
X198700000Y-151700000D02*
X194300000Y-151700000D01*
%TO.C,TP5*%
X208800000Y-146300000D02*
X211200000Y-146300000D01*
X208800000Y-148700000D02*
X208800000Y-146300000D01*
X211200000Y-146300000D02*
X211200000Y-148700000D01*
X211200000Y-148700000D02*
X208800000Y-148700000D01*
%TO.C,D39*%
X201281349Y-267273758D02*
X201321485Y-268423057D01*
X208576904Y-267018992D02*
X201281349Y-267273758D01*
X208768851Y-272515642D02*
X201473296Y-272770408D01*
%TO.C,D35*%
X162629710Y-261181305D02*
X162293483Y-262281056D01*
X168002690Y-268575295D02*
X161021665Y-266440982D01*
X169610735Y-263315618D02*
X162629710Y-261181305D01*
%TO.C,D34*%
X153471047Y-257656129D02*
X153040249Y-258722393D01*
X158179153Y-265490271D02*
X151410709Y-262755643D01*
X160239491Y-260390757D02*
X153471047Y-257656129D01*
%TO.C,D15*%
X85418843Y-105783431D02*
X88271180Y-99063747D01*
X90481620Y-107932453D02*
X93333957Y-101212769D01*
X93333957Y-101212769D02*
X92275375Y-100763428D01*
%TO.C,D37*%
X181672348Y-265879475D02*
X181532197Y-267020903D01*
X188247652Y-272228125D02*
X181002067Y-271338479D01*
X188917933Y-266769121D02*
X181672348Y-265879475D01*
%TO.C,D32*%
X136124493Y-248406600D02*
X135532200Y-249392344D01*
X139549107Y-256880800D02*
X133291784Y-253121021D01*
X142381816Y-252166379D02*
X136124493Y-248406600D01*
%TO.C,D68*%
X269968391Y-55876666D02*
X275720869Y-60370996D01*
X273354531Y-51542604D02*
X279107009Y-56036934D01*
X275720869Y-60370996D02*
X276428881Y-59464782D01*
%TO.C,D65*%
X291190728Y-76188073D02*
X295583978Y-82018110D01*
X295583222Y-72878090D02*
X299976472Y-78708127D01*
X295583978Y-82018110D02*
X296502408Y-81326024D01*
%TO.C,D17*%
X79669912Y-125535735D02*
X81312054Y-118422835D01*
X85028946Y-126772965D02*
X86671088Y-119660065D01*
X86671088Y-119660065D02*
X85550563Y-119401371D01*
%TO.C,D36*%
X172052119Y-263928914D02*
X171813020Y-265053785D01*
X178049081Y-270826486D02*
X170908605Y-269308728D01*
X179192595Y-265446672D02*
X172052119Y-263928914D01*
%TO.C,D51*%
X299716430Y-211785993D02*
X300712359Y-212360993D01*
X303366430Y-205464007D02*
X299716430Y-211785993D01*
X308129570Y-208214007D02*
X304479570Y-214535993D01*
%TO.C,D62*%
X306666043Y-101212769D02*
X309518380Y-107932453D01*
X309518380Y-107932453D02*
X310576961Y-107483113D01*
X311728820Y-99063747D02*
X314581157Y-105783431D01*
%TO.C,TP1*%
X194800000Y-138800000D02*
X199200000Y-138800000D01*
X194800000Y-143200000D02*
X194800000Y-138800000D01*
X199200000Y-138800000D02*
X199200000Y-143200000D01*
X199200000Y-143200000D02*
X194800000Y-143200000D01*
%TO.C,D13*%
X94414263Y-87338897D02*
X98282673Y-81148146D01*
X99078527Y-90253454D02*
X102946937Y-84062703D01*
X102946937Y-84062703D02*
X101971682Y-83453295D01*
%TO.C,D48*%
X281223013Y-234674879D02*
X282050254Y-235473736D01*
X286294019Y-229423700D02*
X281223013Y-234674879D01*
X290250387Y-233244321D02*
X285179381Y-238495500D01*
%TO.C,D74*%
X215940120Y-33754905D02*
X223129216Y-35022537D01*
X216895184Y-28338463D02*
X224084280Y-29606095D01*
X223129216Y-35022537D02*
X223328912Y-33890009D01*
%TO.C,D43*%
X239760511Y-260390757D02*
X240191308Y-261457021D01*
X246528952Y-257656130D02*
X239760511Y-260390757D01*
X248589289Y-262755643D02*
X241820848Y-265490270D01*
%TO.C,D40*%
X211082067Y-266769121D02*
X211222215Y-267910549D01*
X218327652Y-265879475D02*
X211082067Y-266769121D01*
X218997933Y-271338479D02*
X211752348Y-272228125D01*
%TO.C,D25*%
X90471012Y-205563724D02*
X87385897Y-198947676D01*
X92370588Y-196623276D02*
X91328336Y-197109288D01*
X95455703Y-203239324D02*
X92370588Y-196623276D01*
%TO.C,TP8*%
X201800000Y-153800000D02*
X206200000Y-153800000D01*
X201800000Y-158200000D02*
X201800000Y-153800000D01*
X206200000Y-153800000D02*
X206200000Y-158200000D01*
X206200000Y-158200000D02*
X201800000Y-158200000D01*
%TO.C,D41*%
X220807404Y-265446671D02*
X221046503Y-266571542D01*
X227947881Y-263928917D02*
X220807404Y-265446671D01*
X229091396Y-269308729D02*
X221950919Y-270826483D01*
%TO.C,D64*%
X297053062Y-84062703D02*
X300921472Y-90253454D01*
X300921472Y-90253454D02*
X301896728Y-89644047D01*
X301717328Y-81148146D02*
X305585738Y-87338897D01*
%TO.C,D20*%
X77340419Y-156210538D02*
X77213017Y-148911650D01*
X82712181Y-148815662D02*
X81562356Y-148835731D01*
X82839583Y-156114550D02*
X82712181Y-148815662D01*
%TO.C,D16*%
X82129882Y-115539559D02*
X84385707Y-108596847D01*
X87360693Y-117239153D02*
X89616518Y-110296441D01*
X89616518Y-110296441D02*
X88522802Y-109941070D01*
%TO.C,D54*%
X311929953Y-185021003D02*
X313035404Y-185337985D01*
X313942107Y-178003792D02*
X311929953Y-185021003D01*
X319229047Y-179519797D02*
X317216893Y-186537008D01*
%TO.C,D4*%
X165950336Y-31984700D02*
X173033494Y-30218671D01*
X167280906Y-37321329D02*
X174364064Y-35555300D01*
X174364064Y-35555300D02*
X174085855Y-34439458D01*
%TO.C,D60*%
X313328912Y-119660065D02*
X314971054Y-126772966D01*
X314971054Y-126772966D02*
X316091579Y-126514273D01*
X318687946Y-118422834D02*
X320330088Y-125535735D01*
%TO.C,D73*%
X225635936Y-35555300D02*
X232719094Y-37321329D01*
X226966506Y-30218671D02*
X234049664Y-31984700D01*
X232719094Y-37321329D02*
X232997304Y-36205488D01*
%TO.C,TH1*%
X261765000Y-150227064D02*
X261765000Y-149772936D01*
X263235000Y-150227064D02*
X263235000Y-149772936D01*
%TO.C,D50*%
X294191678Y-219898169D02*
X295133703Y-220557783D01*
X298378786Y-213918360D02*
X294191678Y-219898169D01*
X302884122Y-217073031D02*
X298697014Y-223052840D01*
%TO.C,D57*%
X317160417Y-156114550D02*
X318310242Y-156134621D01*
X317287819Y-148815662D02*
X317160417Y-156114550D01*
X322786983Y-148911650D02*
X322659581Y-156210538D01*
%TO.C,D63*%
X302202723Y-92472788D02*
X305629866Y-98918305D01*
X305629866Y-98918305D02*
X306645255Y-98378412D01*
X307058934Y-89890695D02*
X310486077Y-96336212D01*
%TD*%
M02*
